<?xml version="1.0" encoding="utf-8"?>
<!-- Generator: Adobe Illustrator 23.0.0, SVG Export Plug-In . SVG Version: 6.00 Build 0)  -->
<svg version="1.1" id="Capa_1" xmlns="http://www.w3.org/2000/svg" xmlns:xlink="http://www.w3.org/1999/xlink" x="0px" y="0px"
	 viewBox="0 0 53.37 53.37" style="enable-background:new 0 0 53.37 53.37;" xml:space="preserve">
<style type="text/css">
	.st0{fill:#B2B2B2;}
	.st1{opacity:0.83;fill:#6C96BC;stroke:#3675BB;stroke-width:4;stroke-miterlimit:10;}
	.st2{fill:none;stroke:#3675BB;stroke-width:20;stroke-linecap:round;stroke-linejoin:round;stroke-miterlimit:10;}
	.st3{fill:#3675BB;stroke:#3675BB;stroke-width:10;stroke-linecap:round;stroke-linejoin:round;stroke-miterlimit:10;}
	.st4{fill:#3675BB;}
	.st5{fill:none;stroke:#3675BB;stroke-width:3;stroke-miterlimit:10;}
	.st6{fill:#825A20;}
	.st7{fill:#A97728;}
	.st8{fill:#F2E887;}
	.st9{fill:#D1B35D;}
	.st10{fill:#DFC96D;}
	.st11{fill:#EFC981;}
	.st12{fill:#33140E;}
	.st13{fill:#512115;}
	.st14{fill:#BA913E;}
	.st15{fill:#36A9E1;}
	.st16{fill:#1D71B8;}
	.st17{fill:#4398D4;}
	.st18{fill:#007FC8;}
	.st19{fill:#4853A0;}
	.st20{fill:#6DC1B3;}
	.st21{fill:#59C2DB;}
	.st22{fill:#432918;}
	.st23{fill:#683C11;}
	.st24{fill:#009640;}
	.st25{fill:none;stroke:#3675BB;stroke-width:4;stroke-linecap:round;stroke-linejoin:round;stroke-miterlimit:10;}
	.st26{fill:#FFFFFF;}
	.st27{opacity:0.65;}
	.st28{opacity:0.83;}
	.st29{fill:#6C96BC;}
	.st30{fill:#6C96BC;stroke:#3675BB;stroke-width:4;stroke-miterlimit:10;}
	.st31{opacity:0.47;fill:#3675BB;}
	.st32{fill:#6CBA8F;}
	.st33{fill:#009E3F;}
	.st34{opacity:0.72;fill:#6C96BC;stroke:#3675BB;stroke-width:4;stroke-miterlimit:10;}
	.st35{opacity:0.72;}
	.st36{fill:#FFFFFF;stroke:#FFFFFF;stroke-width:3;stroke-linecap:round;stroke-linejoin:round;stroke-miterlimit:10;}
	.st37{opacity:0.83;fill:#6C96BC;stroke:#3675BB;stroke-width:8;stroke-linecap:round;stroke-linejoin:round;stroke-miterlimit:10;}
	.st38{fill:none;}
	.st39{opacity:0.83;fill:#3675BB;}
	.st40{fill:#F6F6F6;}
	.st41{fill:#009E3F;stroke:#009E3F;stroke-miterlimit:10;}
	.st42{opacity:0.83;fill:none;stroke:#3675BB;stroke-width:4;stroke-linecap:round;stroke-linejoin:round;stroke-miterlimit:10;}
	.st43{opacity:0.83;fill:#6C96BC;}
	.st44{fill:#B76C6C;}
	.st45{fill:#AD2923;}
	.st46{fill:none;stroke:#3675BB;stroke-width:4;stroke-miterlimit:10;}
	.st47{fill:none;stroke:#3675BB;stroke-width:8.5;stroke-linecap:round;stroke-linejoin:round;stroke-miterlimit:10;}
	.st48{fill:none;stroke:#F6F6F6;stroke-width:8.5;stroke-linecap:round;stroke-linejoin:round;stroke-miterlimit:10;}
	.st49{fill:#575756;}
</style>
<ellipse transform="matrix(0.7071 -0.7071 0.7071 0.7071 -11.0537 26.6861)" class="st29" cx="26.69" cy="26.69" rx="22.69" ry="22.69"/>
<path class="st39" d="M26.69,0C11.95,0,0,11.95,0,26.69c0,14.74,11.95,26.69,26.69,26.69c14.74,0,26.69-11.95,26.69-26.69
	C53.37,11.95,41.42,0,26.69,0z M26.69,49.37C14.18,49.37,4,39.2,4,26.69S14.18,4,26.69,4C39.2,4,49.37,14.18,49.37,26.69
	S39.2,49.37,26.69,49.37z"/>
<g>
	<path class="st4" d="M21.24,37.61c-0.48,0-0.95-0.17-1.34-0.51l-6.96-6.25c-0.82-0.74-0.89-2-0.15-2.82c0.74-0.82,2-0.89,2.82-0.15
		l5.55,4.98l16.52-16.52c0.78-0.78,2.05-0.78,2.83,0s0.78,2.05,0,2.83L22.65,37.03C22.27,37.42,21.75,37.61,21.24,37.61z"/>
</g>
</svg>
