<svg id="Capa_1" data-name="Capa 1" xmlns="http://www.w3.org/2000/svg" viewBox="0 0 76.36 76.34"><defs><style>.cls-1{fill:#504f4f;}</style></defs><title>Manual colores</title><path class="cls-1" d="M38.18,76.34A38.17,38.17,0,1,1,76.35,39.06,38.16,38.16,0,0,1,38.18,76.34Zm0-4.15a34,34,0,1,0-34-34.32A34.06,34.06,0,0,0,38.14,72.19Z"/><path class="cls-1" d="M42.59,53H39.33c0-.8-.1-1.58-.1-2.36,0-7.23,0-14.46,0-21.7a10,10,0,0,0-.14-2,1.41,1.41,0,0,0-1.58-1.15A1.37,1.37,0,0,0,36,27a6,6,0,0,0-.17,1.4q0,10.07,0,20.15c0,2.23,0,4.46.09,6.69A5.26,5.26,0,0,0,39.76,60a5,5,0,0,0,6-3.71,7.48,7.48,0,0,0,.25-1.94q0-10.49,0-21c0-2.09,0-4.19-.06-6.28a8.7,8.7,0,0,0-7.53-8.17A8.59,8.59,0,0,0,29,27c-.08,1.33-.07,2.67-.07,4q0,10.64,0,21.28V53H27.43c-.41,0-.83,0-1.23,0s-.51-.14-.52-.5c0-1.38-.1-2.76-.1-4.14q0-9.49,0-19a17.75,17.75,0,0,1,.51-5.28,11.91,11.91,0,0,1,23.17,1.46,14.88,14.88,0,0,1,.18,2.31q0,10.78,0,21.57c0,1.76,0,3.52,0,5.28a8.67,8.67,0,0,1-5.32,8.16,8.43,8.43,0,0,1-11.51-6.45,10.8,10.8,0,0,1-.2-2.12q0-13,0-26a7.07,7.07,0,0,1,.64-3.14,4.75,4.75,0,0,1,4.71-2.64,5,5,0,0,1,4.05,2.11,4.81,4.81,0,0,1,.75,2.9q0,12.63,0,25.26C42.61,52.82,42.6,52.89,42.59,53Z"/></svg>