<?xml version="1.0" encoding="utf-8"?>
<!-- Generator: Adobe Illustrator 22.1.0, SVG Export Plug-In . SVG Version: 6.00 Build 0)  -->
<svg version="1.1" id="Capa_1" xmlns="http://www.w3.org/2000/svg" xmlns:xlink="http://www.w3.org/1999/xlink" x="0px" y="0px"
	 width="1338.879px" height="955.964px" viewBox="0 0 1338.879 955.964" enable-background="new 0 0 1338.879 955.964"
	 xml:space="preserve">
<g>
	<defs>
		<rect id="SVGID_1_" x="-1302.58" y="1271.471" width="1338.879" height="958.181"/>
	</defs>
	<clipPath id="SVGID_2_">
		<use xlink:href="#SVGID_1_"  overflow="visible"/>
	</clipPath>
	<g clip-path="url(#SVGID_2_)">
		<path fill="#F7F7F8" d="M-526.185,2209.822c-17.415,0-34.17-1.37-50.218-4.132c-60.479-10.411-124.382-43.608-179.936-93.478
			c-54.817-49.207-97.818-111.137-121.081-174.379c-45.667-124.146,2.039-228.142,48.176-328.715
			c45.952-100.173,89.355-194.79,35.271-299.858c-60.343-117.229-167.587-171.954-271.301-224.876
			c-114.913-58.638-223.453-114.023-266.546-247.595c-26.423-81.902-21.948-174.377,13.3-274.857
			c27.881-79.479,67.642-141.083,80.708-161.327c54.746-84.82,129.083-154.898,220.948-208.289
			c73.427-42.676,136.631-62.187,163.62-70.519l0.31,1.003l-0.31-1.003c206.281-63.683,474.008-27.629,716.173,96.448
			c120.68,61.833,230.693,143.999,318.145,237.617c95.191,101.903,163.402,215.322,202.742,337.108
			c28.696,88.834,41.858,182.845,39.123,279.424c-2.542,89.788-18.811,182.482-48.348,275.51
			c-53.791,169.399-150.536,337.712-279.776,486.742c-105.99,122.217-225.786,222.456-346.441,289.878
			C-352.38,2180.826-446.149,2209.82-526.185,2209.822z M-635.282,93.003c-76.957,0-150.389,10.132-217.342,30.801
			c-210.595,65.015-324.745,187.03-383.422,277.939c-100.573,155.826-133.876,310.098-93.774,434.402
			c42.824,132.74,150.987,187.934,265.5,246.367c104.01,53.075,211.561,107.955,272.215,225.786
			c54.551,105.978,10.941,201.046-35.231,301.696c-45.958,100.185-93.481,203.782-48.114,327.113
			c48.131,130.845,176.846,245.419,299.403,266.511c15.929,2.743,32.587,4.105,49.879,4.105
			c79.669,0.004,173.067-28.901,273.517-85.033c120.446-67.304,240.049-167.384,345.879-289.421
			c284.88-328.501,392.764-717.156,288.59-1039.653c-75.56-233.912-265.036-442.945-519.847-573.501
			C-301.076,136.575-475.726,93.003-635.282,93.003z"/>
	</g>
</g>
<path fill="#F7F7F8" d="M417.9,644.107c1.453,5.092,3.061,10.217,4.827,15.377C350.915,500.993,235.43,374.928,108.241,318.018
	C70.25,301.019,34.048,289.47,0,282.058v-2.394c53.4,11.52,92.062,28.812,109.099,36.435
	C232.836,371.464,345.509,491.988,417.9,644.107z M441.388,703.96c32.273,83.404,50.397,168.918,54.303,252.004h2.273
	c-3.785-78.136-20.442-159.229-48.564-236.619C446.605,714.246,443.94,709.114,441.388,703.96z M774.332,768.927
	c70.681-31.609,137.441-61.467,157.657-142.39c22.457-89.906-8.751-168.315-38.93-244.14
	c-33.183-83.371-64.523-162.118-25.912-251.421C889.377,79.56,931.378,34.968,989.35,0h-4.034
	c-56.827,34.926-98.072,79.2-120.098,130.142c-38.959,90.103-7.46,169.244,25.889,253.031
	c30.056,75.517,61.136,153.606,38.842,242.855c-19.966,79.932-86.274,109.586-156.476,140.98
	c-61.48,27.496-124.777,55.812-162.075,119.661c0.599,0.368,1.198,0.737,1.799,1.102C650.199,824.449,713.17,796.28,774.332,768.927
	z M612.063,889.74c-0.601-0.363-1.199-0.735-1.799-1.102c-5.086,8.934-9.674,18.547-13.68,28.947
	c-4.751,12.334-8.582,25.196-11.532,38.379h2.149c2.917-12.92,6.684-25.527,11.344-37.624
	C602.502,908.069,607.036,898.571,612.063,889.74z M475.245,338.522c46.171-100.651,89.781-195.718,35.23-301.696
	C503.775,23.809,496.5,11.563,488.723,0h-2.549c8.037,11.845,15.543,24.405,22.433,37.789
	c54.084,105.068,10.682,199.685-35.271,299.858c-43.353,94.505-88.084,192.033-55.436,306.461c2.303,4.841,4.567,9.712,6.788,14.616
	C383.556,538.424,430.148,436.83,475.245,338.522z M726.177,934.218c16.048,2.762,32.803,4.132,50.218,4.132
	c80.036-0.002,173.806-28.996,274.561-85.298c98.934-55.284,197.283-132.646,287.924-226.083v-3.025
	c-90.915,93.991-189.642,171.781-288.95,227.273c-100.45,56.132-193.848,85.037-273.517,85.033c-17.292,0-33.95-1.363-49.879-4.106
	c-38.051-6.548-76.694-22.114-113.336-44.375c-0.381,0.652-0.759,1.309-1.134,1.968
	C649.534,912.415,688.519,927.736,726.177,934.218z M546.241,840.74c20.409,18.32,41.946,34.38,64.024,47.897
	c0.375-0.66,0.753-1.316,1.134-1.968C542.19,844.135,480.31,777.75,443.333,703.161c2.079,5.375,4.101,10.77,6.068,16.184
	C473.642,763.551,506.897,805.423,546.241,840.74z M443.333,703.161c-6.102-12.31-11.535-24.84-16.201-37.526
	c-0.851-2.312-1.658-4.614-2.443-6.912c-2.221-4.904-4.485-9.775-6.788-14.616c1.453,5.092,3.061,10.217,4.827,15.377
	c5.669,12.512,11.074,25.22,16.183,38.118c0.839,2.118,1.658,4.238,2.479,6.358c2.552,5.154,5.217,10.286,8.013,15.385
	C447.434,713.931,445.412,708.536,443.333,703.161z M443.333,703.161c-6.102-12.31-11.535-24.84-16.201-37.526
	c-0.851-2.312-1.658-4.614-2.443-6.912c-2.221-4.904-4.485-9.775-6.788-14.616c1.453,5.092,3.061,10.217,4.827,15.377
	c5.669,12.512,11.074,25.22,16.183,38.118c0.839,2.118,1.658,4.238,2.479,6.358c2.552,5.154,5.217,10.286,8.013,15.385
	C447.434,713.931,445.412,708.536,443.333,703.161z"/>
<g>
	<g>
		<g>
			<g>
				<path fill="#F3A9B8" d="M918.39,684.115c0,0-4.229-6.728-3.41-7.898c0.717-0.931,3.008,3.427,3.008,3.427
					s-0.745-4.581-1.387-6.801c-0.642-2.22,2.103-2.923,4.383,0.919c2.28,3.842,1.329,10.353,1.329,10.353H918.39z"/>
			</g>
		</g>
		<g>
			<g>
				<g>
					<path fill="#F3A9B8" d="M733.968,753.251c0,0-5.085-1.608-5.721,6.017c0,4.365,1.399,4.249,1.399,4.249l5.444-4.249
						L733.968,753.251z"/>
				</g>
			</g>
			<g>
				<g>
					<g>
						<polygon fill="#000A44" points="591.178,839.32 581.109,978.765 591.29,978.765 617.774,864.958 633.339,978.765 
							642.88,978.765 643.422,839.32 						"/>
					</g>
				</g>
			</g>
			<g>
				<g>
					<path fill="#E87D91" d="M621.14,766.587h-6.913c-2.555,0-4.625-2.071-4.625-4.625v-16.926h16.164v16.926
						C625.766,764.516,623.695,766.587,621.14,766.587z"/>
				</g>
			</g>
			<g>
				<g>
					<g>
						<path fill="#F3A9B8" d="M604.736,729.607c0,0-4.28-0.454-4.28,4.031c0,4.485,5.513,4.94,5.513,4.94L604.736,729.607z"/>
					</g>
				</g>
				<g>
					<g>
						<path fill="#F3A9B8" d="M630.631,729.607c0,0,4.28-0.454,4.28,4.031c0,4.485-5.513,4.94-5.513,4.94L630.631,729.607z"/>
					</g>
				</g>
			</g>
			<g>
				<g>
					<path fill="#F3A9B8" d="M623.312,750.948h-11.257c-4.143,0-7.532-3.389-7.532-7.532v-21.638c0-4.143,3.389-7.532,7.532-7.532
						h11.257c4.143,0,7.532,3.389,7.532,7.532v21.638C630.844,747.559,627.455,750.948,623.312,750.948z"/>
				</g>
			</g>
			<g>
				<g>
					<polygon fill="#86F2D8" points="522.98,845.922 514.302,978.765 527.973,978.765 552.581,879.017 568.383,978.765 
						582.068,978.765 582.958,845.922 					"/>
				</g>
			</g>
			<g>
				<g>
					<path fill="#D8D9DD" d="M581.016,783.111c0-36.821-18.385-31.452-36.796-31.452c-18.41,0-17.643,31.452-17.643,31.452
						l-5.361,69.228c21.139,7.169,42.056,7.329,62.733,0L581.016,783.111z"/>
				</g>
			</g>
			<g>
				<g>
					<g>
						<line fill="#F3A9B8" x1="542.08" y1="734.449" x2="540.895" y2="725.828"/>
					</g>
				</g>
			</g>
			<g>
				<g>
					<path fill="#E87D91" d="M553.338,758.002L553.338,758.002c-4.29,0-7.767-0.112-7.767-4.401v-12.945h15.534v12.945
						C561.105,757.89,557.627,758.002,553.338,758.002z"/>
				</g>
			</g>
			<g>
				<g>
					<path fill="#F3A9B8" d="M558.747,746.338h-10.818c-3.981,0-7.239-3.257-7.239-7.239v-20.795c0-3.981,3.257-7.239,7.239-7.239
						h10.818c3.981,0,7.239,3.257,7.239,7.239v20.795C565.985,743.08,562.728,746.338,558.747,746.338z"/>
				</g>
			</g>
			<g>
				<g>
					<path fill="#009BDB" d="M907.714,783.111c0-36.821-18.385-31.452-36.796-31.452c-18.41,0-17.643,31.452-17.643,31.452
						l-3.596,62.812c19.993,7.997,39.986,7.997,59.978,0L907.714,783.111z"/>
				</g>
			</g>
			<g>
				<g>
					<path fill="#000A44" d="M849.678,845.922L841,978.765h13.671l25.452-108.204l14.959,108.204h13.684l0.891-132.843
						C889.664,853.083,869.671,853.083,849.678,845.922z"/>
				</g>
			</g>
			<g>
				<g>
					<g>
						<path fill="#F3A9B8" d="M867.593,725.828c0,0-4.113-0.436-4.113,3.874c0,4.311,5.298,4.747,5.298,4.747L867.593,725.828z"/>
					</g>
				</g>
				<g>
					<g>
						<path fill="#F3A9B8" d="M892.479,725.828c0,0,4.113-0.436,4.113,3.874c0,4.311-5.298,4.747-5.298,4.747L892.479,725.828z"/>
					</g>
				</g>
			</g>
			<g>
				<g>
					<path fill="#E87D91" d="M880.036,758.465L880.036,758.465c-4.29,0-7.767-0.575-7.767-4.864v-12.945h15.534v12.945
						C887.803,757.89,884.325,758.465,880.036,758.465z"/>
				</g>
			</g>
			<g>
				<g>
					<path fill="#F3A9B8" d="M885.445,746.338h-10.818c-3.981,0-7.239-3.257-7.239-7.239v-20.795c0-3.981,3.257-7.239,7.239-7.239
						h10.818c3.981,0,7.239,3.257,7.239,7.239v20.795C892.684,743.08,889.426,746.338,885.445,746.338z"/>
				</g>
			</g>
			<g>
				<g>
					<path fill="#D7C5FF" d="M745.663,755.812c0,0-18.211-1.191-21.455,19.173c-3.909,24.539,10.226,27.34-3.909,64.336
						c50.884,0,52.244,0,52.244,0s-11.591-13.434-2.349-44.129C779.433,764.497,760.079,755.812,745.663,755.812z"/>
				</g>
			</g>
			<g>
				<g>
					<path fill="#E87D91" d="M746.803,763.685L746.803,763.685c-4.463,0-8.082-0.716-8.082-5.179v-13.47h16.164v13.47
						C754.885,762.969,751.267,763.685,746.803,763.685z"/>
				</g>
			</g>
			<g>
				<g>
					<g>
						<line fill="#F3A9B8" x1="735.089" y1="738.578" x2="733.856" y2="729.607"/>
					</g>
				</g>
			</g>
			<g>
				<g>
					<path fill="#F3A9B8" d="M746.803,750.948L746.803,750.948c-7.238,0-13.16-5.922-13.16-13.16v-10.382
						c0-7.238,5.922-13.16,13.16-13.16l0,0c7.238,0,13.161,5.922,13.161,13.16v10.382
						C759.964,745.026,754.042,750.948,746.803,750.948z"/>
				</g>
			</g>
			<g>
				<g>
					<g>
						<polygon fill="#F3A9B8" points="457.959,848.668 448.445,978.765 458.065,978.765 483.087,872.891 497.794,978.765 
							506.808,978.765 507.32,848.668 						"/>
					</g>
				</g>
			</g>
			<g>
				<g>
					<path fill="#009BDB" d="M481.924,769.765c0,0-17.206-1.126-20.272,18.116c-3.694,23.185,9.662,25.832-3.694,60.787
						c48.077,0,49.362,0,49.362,0s-10.951-12.693-2.22-41.694C513.832,777.972,495.545,769.765,481.924,769.765z"/>
				</g>
			</g>
			<g>
				<g>
					<path fill="#E87D91" d="M483.002,779.946L483.002,779.946c-4.217,0-7.636-3.419-7.636-7.636v-12.727h15.272v12.727
						C490.638,776.528,487.219,779.946,483.002,779.946z"/>
				</g>
			</g>
			<g>
				<g>
					<g>
						<path fill="#F3A9B8" d="M470.769,745.006c0,0-4.043-0.429-4.043,3.809c0,4.238,5.209,4.667,5.209,4.667L470.769,745.006z"/>
					</g>
				</g>
				<g>
					<g>
						<path fill="#F3A9B8" d="M495.235,745.006c0,0,4.043-0.429,4.043,3.809c0,4.238-5.209,4.667-5.209,4.667L495.235,745.006z"/>
					</g>
				</g>
			</g>
			<g>
				<g>
					<path fill="#F3A9B8" d="M483.002,765.17L483.002,765.17c-6.839,0-12.434-5.595-12.434-12.434v-9.809
						c0-6.839,5.596-12.434,12.434-12.434l0,0c6.839,0,12.434,5.595,12.434,12.434v9.809
						C495.436,759.574,489.841,765.17,483.002,765.17z"/>
				</g>
			</g>
			<g>
				<g>
					<g>
						<polygon fill="#F3A9B8" points="782.92,838.484 772.541,978.765 783.036,978.765 810.333,864.248 826.377,978.765 
							836.21,978.765 836.769,838.484 						"/>
					</g>
				</g>
			</g>
			<g>
				<g>
					<path fill="#000A44" d="M809.064,752.409c0,0-18.77-1.228-22.115,19.762c-4.03,25.293,10.54,28.18-4.03,66.313
						c52.448,0,53.849,0,53.849,0s-11.947-13.847-2.422-45.485C843.873,761.362,823.924,752.409,809.064,752.409z"/>
				</g>
			</g>
			<g>
				<g>
					<path fill="#E87D91" d="M810.24,763.516L810.24,763.516c-4.601,0-8.33-3.729-8.33-8.33v-13.884h16.661v13.884
						C818.57,759.786,814.841,763.516,810.24,763.516z"/>
				</g>
			</g>
			<g>
				<g>
					<g>
						<path fill="#F3A9B8" d="M796.895,725.399c0,0-4.411-0.468-4.411,4.155c0,4.623,5.682,5.091,5.682,5.091L796.895,725.399z"/>
					</g>
				</g>
				<g>
					<g>
						<path fill="#F3A9B8" d="M823.585,725.399c0,0,4.411-0.468,4.411,4.155c0,4.623-5.682,5.091-5.682,5.091L823.585,725.399z"/>
					</g>
				</g>
			</g>
			<g>
				<g>
					<path fill="#F3A9B8" d="M810.24,747.396L810.24,747.396c-7.461,0-13.565-6.104-13.565-13.565v-10.701
						c0-7.461,6.104-13.565,13.565-13.565l0,0c7.461,0,13.565,6.104,13.565,13.565v10.701
						C823.805,741.292,817.701,747.396,810.24,747.396z"/>
				</g>
			</g>
			<g>
				<g>
					<path fill="#000A44" d="M711.451,778.662c0-37.547-18.748-32.072-37.522-32.072c-18.773,0-17.991,32.072-17.991,32.072
						l-3.667,64.05c20.387,6.98,40.774,6.98,61.161,0L711.451,778.662z"/>
				</g>
			</g>
			<g>
				<g>
					<path fill="#DCD0FE" d="M652.271,842.712l-8.849,136.053h13.941l25.954-110.929l15.253,110.929h13.954l0.908-136.053
						C693.213,848.625,672.823,848.529,652.271,842.712z"/>
				</g>
			</g>
			<g>
				<g>
					<path fill="#E87D91" d="M683.227,753.588L683.227,753.588c-4.374,0-7.92-0.643-7.92-5.018v-13.2h15.84v13.2
						C691.147,752.944,687.601,753.588,683.227,753.588z"/>
				</g>
			</g>
			<g>
				<g>
					<path fill="#F3A9B8" d="M683.227,741.164L683.227,741.164c-7.093,0-12.897-5.804-12.897-12.897v-10.174
						c0-7.093,5.804-12.897,12.897-12.897l0,0c7.093,0,12.897,5.804,12.897,12.897v10.174
						C696.124,735.36,690.321,741.164,683.227,741.164z"/>
				</g>
			</g>
			<g>
				<g>
					<path fill="#4A72B2" d="M606.814,758.002c0,0-10.418,3.604-28.918,18.726c-18.5,15.122-32.317,16.774-32.317,16.774
						l0.115,11.567c0,0,34.453-4.271,58.515-28.18"/>
				</g>
			</g>
			<g>
				<g>
					<path fill="#009BDB" d="M474.891,772.369c0,0-24.439-15.369-28.298-59.744c-3.43,0-3.819,0.02-3.819,0.02
						s-5.293,54.879,19.36,81.675"/>
				</g>
			</g>
			<g>
				<g>
					<path fill="#009BDB" d="M490.638,770.921c0,0,11.023-0.003,33.453,8.233c22.43,8.236,35.679,3.348,35.679,3.348l1.794,3.372
						c0,0-31.725,16.761-62.286,2.042"/>
				</g>
			</g>
			<g>
				<g>
					<path fill="#009BDB" d="M649.311,882.869c-21.433,4.184-42.872,4.181-64.318,0c0-26.969,5.709-47.629,9.295-57.944
						c2.926-8.417,3.678-17.434,2.021-26.19c-1.297-6.852-2.879-13.351-1.222-23.751c3.244-20.365,21.455-19.173,21.455-19.173
						c14.416,0,33.771,8.686,24.529,39.38c-0.159,0.529-0.312,1.053-0.459,1.572c-2.907,10.263-2.287,21.093,1.142,31.193
						C650.21,852.861,649.311,882.869,649.311,882.869z"/>
				</g>
			</g>
			<g>
				<g>
					<path fill="#4A72B2" d="M628.007,758.002c0,0,10.418,3.604,28.918,18.726c18.5,15.122,32.226,14.36,32.226,14.36v11.719
						c0,0-34.477-2.009-58.54-25.918"/>
				</g>
			</g>
			<g>
				<g>
					<path fill="#D8D9DD" d="M545.571,751.651c0,0-13.366-1.385-38.163,17.703c-23.977,15.643-45.589,5.083-45.589,5.083
						l-1.463,3.528c0,0,11.071,16.16,34.357,13.577c23.286-2.583,40.444-14.465,40.444-14.465L545.571,751.651z"/>
				</g>
			</g>
			<g>
				<g>
					<path fill="#D7C5FF" d="M753.571,756.49c0,0,10.774,2.331,30.951,15.13c20.177,12.799,35.857,11.644,35.857,11.644
						l-0.721,4.934c0,0-34.491,7.588-61.242-13.27"/>
				</g>
			</g>
			<g>
				<g>
					<path fill="#D8D9DD" d="M561.105,751.443c0,0,11.557-3.666,39.271,10.866c26.312,11.28,45.773-2.21,45.773-2.21l3.162,4.642
						c0,0-9.226,15.773-32.609,17.238c-23.383,1.466-42.331-7.284-42.331-7.284L561.105,751.443z"/>
				</g>
			</g>
			<g>
				<g>
					<path fill="#D7C5FF" d="M733.146,759.267c0,0-8.982,6.39-22.479,26.108s-27.82,23.378-27.82,23.378l2.265,6.835
						c0,0,34.49-7.751,50.85-37.465"/>
				</g>
			</g>
			<g>
				<g>
					<path fill="#000A44" d="M691.048,746.311c0,0,13.437-1.282,36.145,20.249c22.245,18.02,44.414,9.579,44.414,9.579l1.789,7.508
						c0,0-12.952,11.245-35.85,6.287c-22.898-4.958-38.747-18.537-38.747-18.537L691.048,746.311z"/>
				</g>
			</g>
			<g>
				<g>
					<path fill="#000A44" d="M673.929,746.59c0,0-13.927-0.286-36.636,21.245c-22.245,18.02-44.411,9.494-44.411,9.494l-2.659,6.413
						c0,0,13.82,12.423,36.718,7.465c22.898-4.958,38.747-18.537,38.747-18.537L673.929,746.59z"/>
				</g>
			</g>
			<g>
				<g>
					<path fill="#009BDB" d="M868.778,751.992c0,0-13.437,0.138-35.911,21.912c-18.641,20.607-43.178,11.099-43.178,11.099
						l-0.936,3.767c0,0,11.171,13.821,34.014,8.617c22.843-5.205,38.545-18.954,38.545-18.954L868.778,751.992z"/>
				</g>
			</g>
			<g>
				<g>
					<path fill="#009BDB" d="M887.803,751.554c0,0,26.212-16.084,30.56-66.088c3.865,0,3.949,0,3.949,0s17.255,31.74-20.134,90.685"
						/>
				</g>
			</g>
			<g>
				<g>
					<path fill="#000A44" d="M818.57,753.141c0,0,10.993,0.813,32.752,10.687c21.758,9.874,36.077,5.558,36.077,5.558l1.463,3.528
						c0,0-25.382,14.938-62.933-2.185"/>
				</g>
			</g>
			<g>
				<g>
					<path fill="#000A44" d="M801.91,753.424c0,0-10.86-2.41-34.369,1.859c-17.245,3.131-28.695-0.092-33.573-2.032
						c-1.556-0.619-3.305,0.098-4.017,1.614l0,0c-0.699,1.489-0.166,3.256,1.253,4.088c7.667,4.493,32.264,16.884,59.279,9.216"/>
				</g>
			</g>
			<g>
				<g>
					<path fill="#000A44" d="M483.002,727.207c0,0-12.022,0-16.277,11.974c-4.254,11.974-15.53,21.478-7.103,27.407
						c8.427,5.929,2.168,17.766,19.584,20.215c17.416,2.449,20.072-8.98,20.072-19.049c0-10.069,7.821-7.327,4.691-19.923
						S490.743,727.207,483.002,727.207z"/>
				</g>
			</g>
			<g>
				<g>
					<path fill="#E6B54A" d="M552.969,709.655c0,0-11.718-0.299-14.711,13.525c-2.993,13.824,6.485,26.058,15.08,26.058
						c8.595,0,16.486-9.377,14.99-25.432C566.831,707.75,552.969,709.655,552.969,709.655z"/>
				</g>
			</g>
			<g>
				<g>
					<path fill="#000A44" d="M751.838,710.774c7.899-8.461-10.905-10.833-12.338-4.457c-0.144,0.643,0.928,4.778,1.912,4.457
						c-0.003,0.001-13.099,4.276-10.892,20.535c0.775,5.709,2.384,12.518,7.372,16.657c4.481,3.719,12.068,3.988,16.936,0.646
						c5.675-3.895,7.103-11.428,7.901-17.303C764.938,715.049,751.838,710.774,751.838,710.774z"/>
				</g>
			</g>
			<g>
				<g>
					<path fill="#E6B54A" d="M828.402,723.659c-4.604-20.803-34.164-19.754-37.632,1.269c-0.466,2.826-0.731,6.012-0.731,9.606
						c0,29.39,0,46.942,0,46.942c13.876,3.603,27.09,3.554,39.669,0v-46.456C829.708,735.019,829.772,729.847,828.402,723.659z"/>
				</g>
			</g>
			<g>
				<g>
					<path fill="#000A44" d="M890.822,708.963c-3.614-7.061-18.308-7.098-21.941,0c-3.02,5.899-10.161,7.304-8.801,16.634
						c1.36,9.329,6.549,9.625,8.801,15.769c3.337,9.105,18.605,9.104,21.941,0c2.251-6.143,7.44-6.439,8.8-15.768
						C900.983,716.268,893.842,714.863,890.822,708.963z"/>
				</g>
			</g>
			<g>
				<g>
					<path fill="#F3A9B8" d="M446.593,712.625c0,0,1.289-7.841,0.08-8.602c-1.022-0.58-1.443,4.325-1.443,4.325
						s-1.089-4.512-1.359-6.807c-0.269-2.295-3.072-1.879-3.684,2.547c-0.612,4.426,2.587,8.557,2.587,8.557L446.593,712.625z"/>
				</g>
			</g>
			<g>
				<g>
					<path fill="#F3A9B8" d="M461.819,774.437c0,0-6.728-4.229-7.898-3.41c-0.931,0.717,3.427,3.008,3.427,3.008
						s-4.581-0.745-6.801-1.387c-2.22-0.642-2.923,2.103,0.919,4.383c3.842,2.28,8.89,0.933,8.89,0.933L461.819,774.437z"/>
				</g>
			</g>
			<g>
				<g>
					<path fill="#F3A9B8" d="M545.58,793.502c0,0-7.863-1.15-8.602,0.072c-0.562,1.032,4.35,1.367,4.35,1.367
						s-4.492,1.169-6.782,1.479c-2.29,0.31-1.824,3.105,2.612,3.638c4.436,0.533,8.537-1.53,8.537-1.53L545.58,793.502z"/>
				</g>
			</g>
			<g>
				<g>
					<path fill="#F3A9B8" d="M559.771,782.502c0,0,6.292-4.854,7.535-4.151c0.996,0.624-3.123,3.322-3.123,3.322
						s4.489-1.181,6.637-2.032c2.148-0.851,3.111,1.813-0.495,4.451c-3.606,2.638-8.76,1.781-8.76,1.781L559.771,782.502z"/>
				</g>
			</g>
			<g>
				<g>
					<path fill="#F3A9B8" d="M592.882,777.329c0,0-6.728-4.229-7.898-3.41c-0.931,0.717,3.427,3.008,3.427,3.008
						s-4.581-0.745-6.801-1.387c-2.22-0.642-2.923,2.103,0.919,4.383c3.842,2.28,8.89,0.934,8.89,0.934L592.882,777.329z"/>
				</g>
			</g>
			<g>
				<g>
					<path fill="#F3A9B8" d="M682.847,808.753c0,0-7.855,1.203-8.204,2.588c-0.235,1.151,4.56,0.033,4.56,0.033
						s-3.953,2.433-6.052,3.4c-2.099,0.967-0.835,3.503,3.563,2.714c4.398-0.789,7.335-5.11,7.335-5.11L682.847,808.753z"/>
				</g>
			</g>
			<g>
				<g>
					<path fill="#F3A9B8" d="M689.151,791.087c0,0,7.313-3.109,8.339-2.115c0.806,0.855-3.86,2.427-3.86,2.427
						s4.641-0.01,6.935-0.292c2.294-0.282,2.553,2.54-1.602,4.182c-4.155,1.642-9.811,0.622-9.811,0.622V791.087z"/>
				</g>
			</g>
			<g>
				<g>
					<path fill="#F3A9B8" d="M771.607,776.139c0,0,7.313-3.109,8.339-2.115c0.806,0.855-3.861,2.427-3.861,2.427
						s4.641-0.01,6.935-0.291c2.293-0.282,2.553,2.54-1.602,4.182c-4.155,1.642-8.926-0.487-8.926-0.487L771.607,776.139z"/>
				</g>
			</g>
			<g>
				<g>
					<path fill="#F3A9B8" d="M788.378,784.566c0,0-7.313-3.109-8.339-2.115c-0.806,0.855,3.86,2.427,3.86,2.427
						s-4.641-0.01-6.935-0.292c-2.294-0.282-2.553,2.54,1.602,4.182c4.155,1.642,8.926-0.487,8.926-0.487L788.378,784.566z"/>
				</g>
			</g>
			<g>
				<g>
					<path fill="#F3A9B8" d="M887.399,769.386c0,0,6.728-4.229,7.898-3.41c0.931,0.717-3.427,3.008-3.427,3.008
						s4.581-0.745,6.801-1.387c2.22-0.642,2.923,2.103-0.919,4.383c-3.842,2.28-8.89,0.934-8.89,0.934L887.399,769.386z"/>
				</g>
			</g>
			<g>
				<g>
					<path fill="#000A44" d="M464.028,822.453c0,0-18.303,40.342-18.303,89.065c13.022,6.039,60.552,4.015,68.577,0
						c0,0,1.698-65.418-12.319-89.065C501.983,822.453,487.35,827.036,464.028,822.453z"/>
				</g>
			</g>
			<g>
				<g>
					<path fill="#009BDB" d="M768.651,831.441c-14.486,4.796-36.981,3.569-45.599,0c0,0-7.042,10.021-5.876,32.443
						c0.603,11.602,0.282,23.235-0.407,34.832l-6.54,80.049h10.182l26.484-113.807l15.565,113.807h9.541l0.498-80.753
						c0.05-11.203,0.577-22.41,1.965-33.527C776.556,847.729,773.752,838.946,768.651,831.441z"/>
				</g>
			</g>
			<g>
				<g>
					<path fill="#86F2D8" d="M832.822,798.654c-15.182,2.968-29.956,3.061-44.264-0.127c0,0-10.422,36.246-10.422,83.087
						c15.744,5.367,54.849,2.563,63.646,0C841.782,881.614,841,820.902,832.822,798.654z"/>
				</g>
			</g>
			<g>
				<g>
					<path fill="#009BDB" d="M544.219,751.659l1.352-0.629c0,0-0.008,6.49,7.767,6.49c7.775,0,7.775-6.765,7.775-6.765l1.186,0.453
						c0,0,1.341,8.586-8.961,8.586C543.036,759.794,544.219,751.659,544.219,751.659z"/>
				</g>
			</g>
			<g>
				<g>
					<path fill="#009BDB" d="M675.307,745.036c0,0,0.469,7.317,7.92,7.317c7.451,0,7.92-7.614,7.92-7.614l2.371,1.712
						c0,0,0.117,8.74-10.291,8.74c-10.408,0-10.408-8.524-10.408-8.524L675.307,745.036z"/>
				</g>
			</g>
			<g>
				<g>
					<path fill="#31193B" d="M597.085,810.982l-0.297,3.239c0,0,18.073,6.119,42.126,0l-0.143-3.239
						C615.026,816.143,597.085,810.982,597.085,810.982z"/>
				</g>
			</g>
			<g>
				<g>
					<path fill="#31193B" d="M658.665,778.138l-0.172-0.182c0.028-0.027,2.862-2.737,4.363-7.339
						c1.384-4.243,1.885-11.012-3.589-19.163l0.207-0.14c5.533,8.24,5.021,15.093,3.616,19.391
						C661.569,775.365,658.694,778.112,658.665,778.138z"/>
				</g>
			</g>
			<g>
				<g>
					<path fill="#31193B" d="M710.781,779.637c-0.057-0.024-5.737-2.528-7.585-8.723c-1.59-5.332,0.048-11.722,4.867-18.991
						l0.209,0.138c-4.775,7.204-6.403,13.521-4.838,18.778c1.813,6.083,7.39,8.544,7.446,8.568L710.781,779.637z"/>
				</g>
			</g>
			<g>
				<g>
					<path fill="#009BDB" d="M536.702,879.142c-2.756,0-4.936-0.951-6.479-2.827c-4.32-5.252-2.238-16.17-2.217-16.28l0.024-0.122
						l0.122,0.023l19.603,3.741l0.008,0.094c0.008,0.078,0.65,7.856-3.406,12.29C542.489,878.106,539.913,879.142,536.702,879.142z
						 M528.231,860.206c-0.216,1.213-1.814,11.088,2.187,15.951c1.493,1.814,3.607,2.735,6.285,2.735
						c3.138,0,5.651-1.009,7.472-2.999c3.743-4.092,3.407-11.113,3.349-12.005L528.231,860.206z"/>
				</g>
			</g>
			<g>
				<g>
					<path fill="#009BDB" d="M568.46,879.142c-3.211,0-5.786-1.036-7.655-3.08c-4.057-4.434-3.414-12.212-3.406-12.29l0.008-0.094
						l0.093-0.018l19.632-3.747l0.024,0.122c0.021,0.109,2.104,11.028-2.217,16.28C573.396,878.191,571.216,879.142,568.46,879.142z
						 M557.64,863.888c-0.059,0.893-0.393,7.916,3.35,12.006c1.82,1.989,4.334,2.998,7.471,2.998c2.678,0,4.792-0.92,6.285-2.735
						c4.002-4.864,2.402-14.737,2.187-15.951L557.64,863.888z"/>
				</g>
			</g>
			<g>
				<g>
					<path fill="#31193B" d="M881.78,845.385c-15.263,0-27.909-3.608-28.099-3.663l0.07-0.24c0.284,0.083,28.673,8.18,51.746,0.002
						l0.084,0.235C897.825,844.468,889.469,845.385,881.78,845.385z"/>
				</g>
			</g>
			<g>
				<g>
					<path fill="#F96C96" d="M746.498,712.42c-2.71,0-4.465-1.288-4.49-1.307l0.311-0.413c0.15,0.111,3.714,2.706,8.617-0.02
						l0.252,0.452C749.45,712.097,747.855,712.42,746.498,712.42z"/>
				</g>
			</g>
			<g>
				<g>
					<path fill="#000A44" d="M723.601,829.651c0,0,23.493,6.204,44.526,0l0.524,1.791c0,0-7.052,3.676-22.525,3.676
						c-15.473,0-23.075-3.676-23.075-3.676L723.601,829.651z"/>
				</g>
			</g>
			<g>
				<g>
					<polygon fill="#31193B" points="732.924,834.971 732.924,831.396 734.688,831.63 734.688,835.375 					"/>
				</g>
			</g>
			<g>
				<g>
					<polygon fill="#31193B" points="758.684,835.118 758.684,831.654 757.083,831.857 757.083,835.118 					"/>
				</g>
			</g>
			<g>
				<g>
					<g>
						<path fill="#6242BA" d="M510.647,912.687l-0.4,0.09c0-60.021-11.292-89.294-11.406-89.581l0.357-0.071
							C499.312,823.413,510.647,852.599,510.647,912.687z"/>
					</g>
				</g>
			</g>
		</g>
		<g>
			<g>
				<path fill="#BBA4FF" d="M529.315,779.269l-0.234-0.087c4.603-12.443,0.052-21.86,0.005-21.954l0.225-0.111
					C529.357,757.212,533.956,766.719,529.315,779.269z"/>
			</g>
		</g>
		<g>
			<g>
				<path fill="#BBA4FF" d="M577.454,774.703c-0.05-0.086-4.957-8.768-0.007-20.469l0.23,0.098
					c-4.899,11.581-0.057,20.16-0.007,20.245L577.454,774.703z"/>
			</g>
		</g>
		<g>
			<g>
				
					<rect x="584.229" y="911.236" transform="matrix(0.0779 -0.997 0.997 0.0779 -307.5286 1490.2308)" fill="#BBA4FF" width="135.209" height="0.251"/>
			</g>
		</g>
		<g>
			<g>
				
					<rect x="708.88" y="844.193" transform="matrix(0.9998 -0.0199 0.0199 0.9998 -17.8822 14.2877)" fill="#BBA4FF" width="0.25" height="123.034"/>
			</g>
		</g>
		<g>
			<g>
				
					<rect x="687.859" y="808.523" transform="matrix(0.9251 -0.3797 0.3797 0.9251 -256.6401 322.0073)" fill="#BBA4FF" width="0.249" height="6.15"/>
			</g>
		</g>
		<g>
			<g>
				<path fill="#000A44" d="M625,712.733c-4.62-1.63-9.753-1.009-14.113,1.226c-2.311,1.185-4.819,2.932-6.898,5.406
					c0.007-0.029,0.011-0.045,0.011-0.045s-4.003,4.691-5.758,8.022c-1.75,3.319-12.273,12.88-10.739,21.986
					c0,0,0.23-3.602,2.82-7.129c-1.002,2.413-1.031,5.095,0.856,8.748c4.09-6.053,14.838,2.519,32.527,2.519
					C639.624,753.467,644.246,719.522,625,712.733z"/>
			</g>
		</g>
		<g>
			<g>
				<path fill="#E6B54A" d="M698.811,714.246c0-4.758-3.809-7.496-7.66-9.049c-5.431-2.19-11.644-2.178-16.64,0.875
					c-2.784,1.701-5.331,4.446-6.151,8.776l-0.03,0.001l-0.002,0.156c-0.156,0.879-0.267,1.799-0.267,2.815
					c0,2.561,0.063,4.985,0.165,7.233l-0.165,16.112l0.911-3.179l-0.001,3.179h28.437c0,0,0.119-1.157,0.453-6.313l0.95,6.313
					V714.246z"/>
			</g>
		</g>
		<g>
			<g>
				<path fill="#4A72B2" d="M860.225,754.36c0,0,2.967-6.072,10.011-4.8c7.044,1.272,8.101,4.296,12.327,2.432
					c4.226-1.864,6.4-4.594,10.068-4.594c0,10.713-1.394,18.923-11.124,20.691C871.776,769.859,870.055,753.31,860.225,754.36z"/>
			</g>
		</g>
		<g>
			<g>
				<polygon fill="#9C89E5" points="787.493,788.281 788.378,784.566 789.688,785.004 788.753,788.771 				"/>
			</g>
		</g>
		<g>
			<g>
				<rect x="918.363" y="684.115" fill="#9C89E5" width="3.949" height="1.351"/>
			</g>
		</g>
	</g>
	<g>
		<g opacity="0.3">
			<path fill="#76AADB" d="M724.005,658.898h-23.48c-4.64,0-8.402,3.761-8.402,8.402v14.403c0,4.64,3.762,8.402,8.402,8.402h7.039
				l-3.438,10.002l9.689-10.002h10.19c4.64,0,8.402-3.762,8.402-8.402v-14.403C732.406,662.659,728.645,658.898,724.005,658.898z"/>
		</g>
		<g opacity="0.5">
			<path fill="#76AADB" d="M502.761,694.756h15.773c3.117,0,5.644,2.527,5.644,5.644v9.675c0,3.117-2.527,5.644-5.644,5.644h-4.728
				l2.31,6.719l-6.509-6.719h-6.845c-3.117,0-5.644-2.527-5.644-5.644V700.4C497.117,697.283,499.644,694.756,502.761,694.756z"/>
		</g>
		<g>
			<path fill="#D8D9DD" d="M829.205,681.386h17.156c3.39,0,6.138,2.748,6.138,6.138v10.523c0,3.39-2.748,6.138-6.138,6.138h-5.143
				l2.512,7.308l-7.079-7.308h-7.445c-3.39,0-6.138-2.748-6.138-6.138v-10.523C823.066,684.134,825.815,681.386,829.205,681.386z"/>
		</g>
	</g>
	<g>
		<g>
			<g>
				<defs>
					
						<ellipse id="SVGID_346_" transform="matrix(0.9102 -0.4142 0.4142 0.9102 -318.2628 287.8366)" cx="504.585" cy="877.794" rx="12.34" ry="12.34"/>
				</defs>
				<clipPath id="SVGID_4_">
					<use xlink:href="#SVGID_346_"  overflow="visible"/>
				</clipPath>
				<rect x="491.033" y="864.241" clip-path="url(#SVGID_4_)" fill="#C0E2FE" width="27.105" height="27.104"/>
				<path clip-path="url(#SVGID_4_)" fill="#C0E2FE" d="M519.137,872.23v16.075h4.751c-5.589,3.503-12.515,4.873-19.452,3.281
					c-6.937-1.592-12.572-5.845-16.075-11.435h1.671v-16.91h29.105V872.23z"/>
				<path clip-path="url(#SVGID_4_)" fill="#BEE0FE" d="M519.137,872.201v15.991h4.68c-5.56,3.485-12.45,4.848-19.351,3.264
					s-12.507-5.815-15.991-11.375h1.558v-16.839h29.105V872.201z"/>
				<path clip-path="url(#SVGID_4_)" fill="#BBDFFE" d="M519.137,872.171v15.908h4.61c-5.532,3.466-12.386,4.823-19.251,3.247
					c-6.865-1.576-12.442-5.785-15.908-11.316h1.445v-16.768h29.105V872.171z"/>
				<path clip-path="url(#SVGID_4_)" fill="#B9DDFD" d="M519.137,872.141v15.825h4.539c-5.503,3.448-12.321,4.797-19.15,3.23
					c-6.829-1.567-12.377-5.755-15.825-11.257h1.332v-16.698h29.105V872.141z"/>
				<path clip-path="url(#SVGID_4_)" fill="#B7DBFD" d="M519.137,872.111v15.742h4.468c-5.474,3.43-12.256,4.772-19.05,3.213
					c-6.794-1.559-12.312-5.724-15.742-11.198h1.219v-16.627h29.105V872.111z"/>
				<path clip-path="url(#SVGID_4_)" fill="#B4DAFD" d="M519.137,872.081v15.659h4.397c-5.445,3.412-12.191,4.747-18.949,3.196
					c-6.758-1.551-12.247-5.694-15.659-11.139h1.106v-16.556h29.105V872.081z"/>
				<path clip-path="url(#SVGID_4_)" fill="#B2D8FD" d="M519.137,872.052v15.576h4.327c-5.416,3.394-12.127,4.722-18.849,3.179
					c-6.722-1.543-12.182-5.664-15.576-11.08h0.993v-16.485h29.105V872.052z"/>
				<path clip-path="url(#SVGID_4_)" fill="#B0D6FC" d="M519.137,872.022v15.493h4.256c-5.387,3.376-12.062,4.697-18.748,3.162
					c-6.686-1.534-12.117-5.634-15.493-11.021h0.88v-16.415h29.105V872.022z"/>
				<path clip-path="url(#SVGID_4_)" fill="#AED5FC" d="M519.137,871.992v15.41h4.185c-5.358,3.358-11.997,4.672-18.647,3.145
					c-13.3-3.052-21.608-16.309-18.555-29.609l3.913,2.304h29.105V871.992z"/>
				<path clip-path="url(#SVGID_4_)" fill="#ABD3FC" d="M519.137,871.962v15.327h4.114c-5.329,3.34-11.933,4.646-18.547,3.128
					c-13.228-3.036-21.491-16.221-18.455-29.449l3.783,2.274h29.105V871.962z"/>
				<path clip-path="url(#SVGID_4_)" fill="#A9D2FC" d="M519.137,871.932v15.244h4.044c-5.3,3.322-11.868,4.621-18.446,3.111
					c-13.157-3.02-21.375-16.133-18.355-29.29l3.653,2.244h29.105V871.932z"/>
				<path clip-path="url(#SVGID_4_)" fill="#A7D0FC" d="M519.137,871.903v15.161h3.973c-5.272,3.303-11.803,4.596-18.346,3.094
					c-13.085-3.003-21.258-16.045-18.255-29.13l3.523,2.214h29.105V871.903z"/>
				<path clip-path="url(#SVGID_4_)" fill="#A5CEFB" d="M519.137,871.873v15.077h3.902c-5.243,3.285-11.739,4.571-18.245,3.077
					c-13.013-2.987-21.142-15.957-18.155-28.971l3.393,2.184h29.105V871.873z"/>
				<path clip-path="url(#SVGID_4_)" fill="#A3CDFB" d="M519.137,871.843v14.994h3.831c-5.214,3.267-11.674,4.546-18.145,3.061
					c-12.942-2.97-21.025-15.869-18.055-28.811l3.264,2.154h29.105V871.843z"/>
				<path clip-path="url(#SVGID_4_)" fill="#A1CBFB" d="M519.137,871.813v14.911h3.761c-5.185,3.249-11.609,4.52-18.044,3.044
					c-12.87-2.954-20.909-15.781-17.955-28.651l3.134,2.125h29.105V871.813z"/>
				<path clip-path="url(#SVGID_4_)" fill="#9FCAFB" d="M519.137,871.783v14.828h3.69c-5.156,3.231-11.545,4.495-17.944,3.027
					c-12.798-2.937-20.792-15.693-17.855-28.492l3.004,2.095h29.105V871.783z"/>
				<path clip-path="url(#SVGID_4_)" fill="#9DC9FB" d="M519.137,871.754v14.745h3.619c-5.127,3.213-11.48,4.47-17.843,3.01
					c-12.726-2.921-20.676-15.605-17.755-28.332l2.874,2.065h29.105V871.754z"/>
				<path clip-path="url(#SVGID_4_)" fill="#9BC7FA" d="M519.137,871.724v14.662h3.548c-5.098,3.195-11.415,4.445-17.743,2.993
					c-12.655-2.904-20.559-15.518-17.655-28.172l2.744,2.035h29.105V871.724z"/>
				<path clip-path="url(#SVGID_4_)" fill="#99C6FA" d="M519.137,871.694v14.579h3.478c-5.069,3.177-11.35,4.42-17.642,2.976
					c-12.583-2.888-20.443-15.43-17.555-28.013l2.614,2.005h29.105V871.694z"/>
				<path clip-path="url(#SVGID_4_)" fill="#97C4FA" d="M519.137,871.664v14.496h3.407c-5.04,3.159-11.286,4.394-17.541,2.959
					c-12.511-2.871-20.326-15.342-17.455-27.853l2.484,1.976h29.105V871.664z"/>
				<path clip-path="url(#SVGID_4_)" fill="#95C3FA" d="M519.137,871.634v14.413h3.336c-5.012,3.141-11.221,4.369-17.441,2.942
					c-12.44-2.855-20.209-15.254-17.355-27.693l2.355,1.946h29.105V871.634z"/>
				<path clip-path="url(#SVGID_4_)" fill="#93C1FA" d="M519.137,871.605v14.33h3.265c-4.983,3.122-11.156,4.344-17.34,2.925
					c-12.368-2.839-20.093-15.166-17.254-27.534l2.225,1.916h29.105V871.605z"/>
				<path clip-path="url(#SVGID_4_)" fill="#91C0F9" d="M519.137,871.575v14.247h3.195c-4.954,3.104-11.092,4.319-17.24,2.908
					c-12.296-2.822-19.976-15.078-17.154-27.374l2.095,1.886h29.105V871.575z"/>
				<path clip-path="url(#SVGID_4_)" fill="#8FBFF9" d="M519.137,871.545v14.163h3.124c-4.925,3.086-11.027,4.294-17.139,2.891
					c-12.224-2.806-19.86-14.99-17.054-27.214l1.965,1.857h29.105V871.545z"/>
				<path clip-path="url(#SVGID_4_)" fill="#8EBDF9" d="M519.137,871.515v14.08h3.053c-4.896,3.068-10.962,4.269-17.039,2.874
					c-12.153-2.789-19.743-14.902-16.954-27.055l1.835,1.827h29.105V871.515z"/>
				<path clip-path="url(#SVGID_4_)" fill="#8CBCF9" d="M519.137,871.485v13.997h2.982c-4.867,3.05-10.898,4.243-16.938,2.857
					c-12.081-2.773-19.627-14.814-16.854-26.895l1.705,1.797h29.105V871.485z"/>
				<path clip-path="url(#SVGID_4_)" fill="#8ABBF9" d="M519.137,871.456v13.914h2.912c-4.838,3.032-10.833,4.218-16.838,2.84
					c-12.009-2.756-19.51-14.726-16.754-26.735l1.575,1.767h29.105V871.456z"/>
				<path clip-path="url(#SVGID_4_)" fill="#88BAF8" d="M519.137,871.426v13.831h2.841c-4.809,3.014-10.768,4.193-16.737,2.823
					c-11.938-2.74-19.394-14.638-16.654-26.576l1.446,1.737h29.105V871.426z"/>
				<path clip-path="url(#SVGID_4_)" fill="#87B8F8" d="M519.137,871.396v13.748h2.77c-4.78,2.996-10.704,4.168-16.637,2.806
					c-11.866-2.723-19.277-14.55-16.554-26.416l1.316,1.707h29.105V871.396z"/>
				<path clip-path="url(#SVGID_4_)" fill="#85B7F8" d="M519.137,871.366v13.665h2.7c-4.751,2.978-10.639,4.143-16.536,2.789
					c-11.794-2.707-19.161-14.462-16.454-26.256l1.186,1.678h29.105V871.366z"/>
				<path clip-path="url(#SVGID_4_)" fill="#83B6F8" d="M519.137,871.336v13.582h2.629c-4.723,2.96-10.574,4.117-16.435,2.772
					c-11.722-2.69-19.044-14.374-16.354-26.097l1.056,1.648h29.105V871.336z"/>
				<path clip-path="url(#SVGID_4_)" fill="#82B5F8" d="M519.137,871.307v13.499h2.558c-4.694,2.941-10.509,4.092-16.335,2.755
					c-11.651-2.674-18.928-14.286-16.254-25.937l0.926,1.618h29.105V871.307z"/>
				<path clip-path="url(#SVGID_4_)" fill="#80B4F8" d="M519.137,871.277v13.416h2.487c-4.665,2.923-10.445,4.067-16.234,2.738
					c-11.579-2.657-18.811-14.198-16.154-25.777l0.796,1.588h29.105V871.277z"/>
				<path clip-path="url(#SVGID_4_)" fill="#7EB2F7" d="M519.137,871.247v13.333h2.417c-4.636,2.905-10.38,4.042-16.134,2.721
					c-11.507-2.641-18.695-14.11-16.054-25.618l0.666,1.558h29.105V871.247z"/>
				<path clip-path="url(#SVGID_4_)" fill="#7DB1F7" d="M519.137,871.217v13.249h2.346c-4.607,2.887-10.315,4.017-16.033,2.704
					c-11.436-2.625-18.578-14.023-15.954-25.458l0.537,1.529h29.105V871.217z"/>
				<path clip-path="url(#SVGID_4_)" fill="#7BB0F7" d="M519.137,871.187v13.166h2.275c-4.578,2.869-10.251,3.991-15.933,2.687
					c-11.364-2.608-18.462-13.935-15.854-25.298l0.407,1.499h29.105V871.187z"/>
				<path clip-path="url(#SVGID_4_)" fill="#7AAFF7" d="M519.137,871.157v13.083h2.204c-4.549,2.851-10.186,3.966-15.832,2.67
					c-11.292-2.592-18.345-13.847-15.754-25.139l0.277,1.469h29.105V871.157z"/>
				<path clip-path="url(#SVGID_4_)" fill="#78AEF7" d="M519.137,871.128v13h2.134c-4.52,2.833-10.121,3.941-15.732,2.653
					c-11.22-2.575-18.229-13.759-15.654-24.979l0.147,1.439h29.105V871.128z"/>
				<path clip-path="url(#SVGID_4_)" fill="#77ADF7" d="M519.137,871.098v12.917h2.063c-4.491,2.815-10.057,3.916-15.631,2.637
					c-11.149-2.559-18.112-13.671-15.554-24.819l0.017,1.409h29.105V871.098z"/>
				<path clip-path="url(#SVGID_4_)" fill="#75ACF7" d="M519.137,871.068v12.834h1.992c-4.463,2.797-9.992,3.891-15.53,2.62
					c-11.077-2.542-17.996-13.583-15.454-24.66v1.38h28.992V871.068z"/>
				<path clip-path="url(#SVGID_4_)" fill="#74ABF6" d="M519.137,871.038v12.751h1.921c-4.434,2.778-9.927,3.865-15.43,2.603
					c-11.005-2.526-17.879-13.495-15.353-24.5v1.35h28.862V871.038z"/>
				<path clip-path="url(#SVGID_4_)" fill="#72AAF6" d="M519.137,871.008v12.668h1.851c-4.405,2.76-9.863,3.84-15.329,2.586
					c-10.934-2.509-17.763-13.407-15.253-24.341v1.32h28.732V871.008z"/>
				<path clip-path="url(#SVGID_4_)" fill="#71A9F6" d="M519.137,870.979v12.585h1.78c-4.376,2.742-9.798,3.815-15.229,2.569
					c-10.862-2.493-17.646-13.319-15.153-24.181v1.29h28.602V870.979z"/>
				<path clip-path="url(#SVGID_4_)" fill="#6FA8F6" d="M519.137,870.949v12.502h1.709c-4.347,2.724-9.733,3.79-15.128,2.552
					c-10.79-2.476-17.53-13.231-15.053-24.021v1.26h28.473V870.949z"/>
				<path clip-path="url(#SVGID_4_)" fill="#6EA7F6" d="M519.137,870.919v12.419h1.638c-4.318,2.706-9.668,3.765-15.028,2.535
					c-10.718-2.46-17.413-13.143-14.953-23.862v1.231h28.343V870.919z"/>
				<path clip-path="url(#SVGID_4_)" fill="#6DA6F6" d="M519.137,870.889v12.335h1.568c-4.289,2.688-9.604,3.74-14.927,2.518
					c-10.647-2.443-17.297-13.055-14.853-23.702v1.201h28.213V870.889z"/>
				<path clip-path="url(#SVGID_4_)" fill="#6BA5F6" d="M519.137,870.859v12.252h1.497c-4.26,2.67-9.539,3.714-14.827,2.501
					c-10.575-2.427-17.18-12.967-14.753-23.542v1.171h28.083V870.859z"/>
				<path clip-path="url(#SVGID_4_)" fill="#6AA4F5" d="M519.137,870.83v12.169h1.426c-4.231,2.652-9.474,3.689-14.726,2.484
					c-10.503-2.411-17.064-12.879-14.653-23.383v1.141h27.953V870.83z"/>
				<path clip-path="url(#SVGID_4_)" fill="#69A3F5" d="M519.137,870.8v12.086h1.355c-4.203,2.634-9.41,3.664-14.625,2.467
					c-10.432-2.394-16.947-12.791-14.553-23.223v1.111h27.823V870.8z"/>
				<path clip-path="url(#SVGID_4_)" fill="#68A2F5" d="M519.137,870.77v12.003h1.285c-4.174,2.615-9.345,3.639-14.525,2.45
					c-10.36-2.378-16.831-12.703-14.453-23.063v1.082h27.693V870.77z"/>
				<path clip-path="url(#SVGID_4_)" fill="#66A1F5" d="M519.137,870.74v11.92h1.214c-4.145,2.597-9.28,3.614-14.424,2.433
					c-10.288-2.361-16.714-12.615-14.353-22.904v1.052h27.564V870.74z"/>
				<path clip-path="url(#SVGID_4_)" fill="#65A0F5" d="M519.137,870.71v11.837h1.143c-4.116,2.579-9.216,3.588-14.324,2.416
					c-10.216-2.345-16.598-12.528-14.253-22.744v1.022h27.434V870.71z"/>
				<path clip-path="url(#SVGID_4_)" fill="#649FF5" d="M519.137,870.681v11.754h1.072c-4.087,2.561-9.151,3.563-14.223,2.399
					c-10.145-2.328-16.481-12.44-14.153-22.584v0.992h27.304V870.681z"/>
				<path clip-path="url(#SVGID_4_)" fill="#639EF5" d="M519.137,870.651v11.671h1.002c-4.058,2.543-9.086,3.538-14.123,2.382
					c-10.073-2.312-16.365-12.352-14.053-22.425v0.962h27.174V870.651z"/>
				<path clip-path="url(#SVGID_4_)" fill="#629EF5" d="M519.137,870.621v11.588h0.931c-4.029,2.525-9.022,3.513-14.022,2.365
					c-10.001-2.295-16.248-12.264-13.953-22.265v0.933h27.044V870.621z"/>
				<path clip-path="url(#SVGID_4_)" fill="#609DF5" d="M519.137,870.591v11.505h0.86c-4,2.507-8.957,3.488-13.922,2.348
					c-9.93-2.279-16.132-12.176-13.853-22.105v0.903h26.914V870.591z"/>
				<path clip-path="url(#SVGID_4_)" fill="#5F9CF4" d="M519.137,870.561v11.421h0.789c-3.971,2.489-8.892,3.462-13.821,2.331
					c-9.858-2.262-16.015-12.088-13.753-21.946v0.873h26.784V870.561z"/>
				<path clip-path="url(#SVGID_4_)" fill="#5E9BF4" d="M519.137,870.532v11.338h0.719c-3.942,2.471-8.827,3.437-13.721,2.314
					c-9.786-2.246-15.899-12-13.653-21.786v0.843h26.655V870.532z"/>
				<path clip-path="url(#SVGID_4_)" fill="#5D9AF4" d="M519.137,870.502v11.255h0.648c-3.914,2.453-8.763,3.412-13.62,2.297
					c-9.714-2.229-15.782-11.912-13.553-21.626v0.813h26.525V870.502z"/>
				<path clip-path="url(#SVGID_4_)" fill="#5C9AF4" d="M519.137,870.472v11.172h0.577c-3.885,2.434-8.698,3.387-13.519,2.28
					c-9.643-2.213-15.666-11.824-13.453-21.467v0.784h26.395V870.472z"/>
				<path clip-path="url(#SVGID_4_)" fill="#5B99F4" d="M519.137,870.442v11.089h0.506c-3.856,2.416-8.633,3.362-13.419,2.263
					c-9.571-2.197-15.549-11.736-13.352-21.307v0.754h26.265V870.442z"/>
				<path clip-path="url(#SVGID_4_)" fill="#5A98F4" d="M519.137,870.412v11.006h0.436c-3.827,2.398-8.569,3.337-13.318,2.246
					c-9.499-2.18-15.433-11.648-13.252-21.147v0.724h26.135V870.412z"/>
				<path clip-path="url(#SVGID_4_)" fill="#5997F4" d="M519.137,870.383v10.923h0.365c-3.798,2.38-8.504,3.311-13.218,2.229
					c-9.428-2.164-15.316-11.56-13.152-20.988v0.694h26.005V870.383z"/>
				<path clip-path="url(#SVGID_4_)" fill="#5897F4" d="M519.137,870.353v10.84h0.294c-3.769,2.362-8.439,3.286-13.117,2.213
					c-9.356-2.147-15.2-11.472-13.052-20.828v0.664h25.875V870.353z"/>
				<path clip-path="url(#SVGID_4_)" fill="#5796F4" d="M519.137,870.323v10.757h0.223c-3.74,2.344-8.375,3.261-13.017,2.196
					c-9.284-2.131-15.083-11.384-12.952-20.668v0.635h25.746V870.323z"/>
				<path clip-path="url(#SVGID_4_)" fill="#5695F4" d="M519.137,870.293v10.674h0.153c-3.711,2.326-8.31,3.236-12.916,2.179
					c-9.212-2.114-14.967-11.296-12.852-20.509v0.605h25.616V870.293z"/>
				<path clip-path="url(#SVGID_4_)" fill="#5595F3" d="M519.137,870.263v10.591h0.082c-3.682,2.308-8.245,3.211-12.816,2.162
					c-9.141-2.098-14.85-11.208-12.752-20.349v0.575h25.486V870.263z"/>
				<path clip-path="url(#SVGID_4_)" fill="#5494F3" d="M519.137,870.234v10.507h0.011c-3.654,2.29-8.181,3.185-12.715,2.145
					c-9.069-2.081-14.733-11.121-12.652-20.189v0.545h25.356V870.234z"/>
				<path clip-path="url(#SVGID_4_)" fill="#5493F3" d="M519.137,870.204v6.047h4.62c-1.272,1.76-2.867,3.241-4.68,4.377
					c-3.625,2.271-8.116,3.16-12.615,2.128c-8.997-2.065-14.617-11.033-12.552-20.03v0.515h25.226V870.204z"/>
				<path clip-path="url(#SVGID_4_)" fill="#5393F3" d="M519.137,870.174v5.999h4.512c-1.262,1.746-2.844,3.215-4.642,4.342
					c-3.596,2.253-8.051,3.135-12.514,2.111c-8.926-2.048-14.5-10.945-12.452-19.87v0.486h25.096V870.174z"/>
				<path clip-path="url(#SVGID_4_)" fill="#5292F3" d="M519.137,870.144v5.951h4.404c-1.251,1.732-2.822,3.19-4.605,4.307
					c-3.567,2.235-7.987,3.11-12.413,2.094c-8.854-2.032-14.384-10.857-12.352-19.71v0.456h24.966V870.144z"/>
				<path clip-path="url(#SVGID_4_)" fill="#5192F3" d="M526.103,870.114c-2.016,8.782-10.769,14.267-19.551,12.252
					c-8.782-2.016-14.267-10.769-12.252-19.551v0.426h24.837v6.873H526.103z"/>
				<path clip-path="url(#SVGID_4_)" fill="#5091F3" d="M525.973,870.085c-1.999,8.71-10.681,14.151-19.391,12.152
					s-14.151-10.681-12.152-19.391v0.396h24.707v6.843H525.973z"/>
				<path clip-path="url(#SVGID_4_)" fill="#4F90F3" d="M525.844,870.055c-1.983,8.639-10.593,14.034-19.232,12.052
					c-8.639-1.983-14.034-10.593-12.052-19.232v0.366h24.577v6.813H525.844z"/>
				<path clip-path="url(#SVGID_4_)" fill="#4F90F3" d="M525.714,870.025c-1.966,8.567-10.505,13.918-19.072,11.952
					c-8.567-1.966-13.918-10.505-11.952-19.072v0.337h24.447v6.784H525.714z"/>
				<path clip-path="url(#SVGID_4_)" fill="#4E8FF3" d="M525.584,869.995c-1.95,8.495-10.417,13.801-18.912,11.852
					s-13.801-10.417-11.852-18.912v0.307h24.317v6.754H525.584z"/>
				<path clip-path="url(#SVGID_4_)" fill="#4D8FF3" d="M525.454,869.965c-1.933,8.424-10.329,13.685-18.753,11.752
					c-8.423-1.933-13.685-10.329-11.752-18.753v0.277h24.187v6.724H525.454z"/>
				<path clip-path="url(#SVGID_4_)" fill="#4D8EF3" d="M525.324,869.936c-1.917,8.352-10.241,13.568-18.593,11.652
					c-8.352-1.917-13.568-10.241-11.652-18.593v0.247h24.058v6.694H525.324z"/>
				<path clip-path="url(#SVGID_4_)" fill="#4C8EF2" d="M525.194,869.906c-1.9,8.28-10.153,13.452-18.433,11.552
					s-13.452-10.153-11.552-18.433v0.217h23.928v6.664H525.194z"/>
				<path clip-path="url(#SVGID_4_)" fill="#4B8DF2" d="M525.064,869.876c-1.884,8.208-10.065,13.335-18.274,11.452
					c-8.208-1.884-13.335-10.065-11.452-18.274v0.188h23.798v6.635H525.064z"/>
				<path clip-path="url(#SVGID_4_)" fill="#4B8DF2" d="M524.935,869.846c-1.867,8.137-9.977,13.219-18.114,11.351
					c-8.137-1.867-13.219-9.977-11.351-18.114v0.158h23.668v6.605H524.935z"/>
				<path clip-path="url(#SVGID_4_)" fill="#4A8CF2" d="M524.805,869.816c-1.851,8.065-9.889,13.102-17.954,11.251
					c-8.065-1.851-13.102-9.889-11.251-17.954v0.128h23.538v6.575H524.805z"/>
				<path clip-path="url(#SVGID_4_)" fill="#498CF2" d="M524.675,869.787c-1.834,7.993-9.801,12.986-17.795,11.151
					s-12.986-9.801-11.151-17.795v0.098h23.408v6.545H524.675z"/>
				<path clip-path="url(#SVGID_4_)" fill="#498BF2" d="M524.545,869.757c-1.818,7.922-9.713,12.869-17.635,11.051
					c-7.922-1.818-12.869-9.714-11.051-17.635v0.068h23.278v6.515H524.545z"/>
				<path clip-path="url(#SVGID_4_)" fill="#488BF2" d="M524.415,869.727c-1.802,7.85-9.626,12.753-17.475,10.951
					c-7.85-1.802-12.753-9.626-10.951-17.475v0.039h23.149v6.486H524.415z"/>
				<path clip-path="url(#SVGID_4_)" fill="#488BF2" d="M524.285,869.697c-1.785,7.778-9.538,12.636-17.316,10.851
					c-7.778-1.785-12.636-9.538-10.851-17.316v0.009h23.019v6.456H524.285z"/>
				<path clip-path="url(#SVGID_4_)" fill="#478AF2" d="M524.155,869.667c-1.769,7.706-9.45,12.52-17.156,10.751
					s-12.52-9.45-10.751-17.156c0.442-1.927,1.254-3.672,2.343-5.18v5.159h20.546v6.426H524.155z"/>
				<path clip-path="url(#SVGID_4_)" fill="#468AF2" d="M524.026,869.638c-1.752,7.635-9.362,12.403-16.996,10.651
					c-7.635-1.752-12.403-9.362-10.651-16.996c0.438-1.909,1.242-3.638,2.321-5.131v5.081h20.438v6.396H524.026z"/>
				<path clip-path="url(#SVGID_4_)" fill="#4689F2" d="M523.896,869.608c-1.736,7.563-9.274,12.287-16.837,10.551
					c-7.563-1.736-12.287-9.274-10.551-16.837c0.434-1.891,1.231-3.604,2.299-5.083v5.003h20.33v6.366H523.896z"/>
				<path clip-path="url(#SVGID_4_)" fill="#4589F2" d="M523.766,869.578c-1.719,7.491-9.186,12.17-16.677,10.451
					c-7.491-1.719-12.17-9.186-10.451-16.677c0.43-1.873,1.219-3.57,2.278-5.035v4.925h20.222v6.337H523.766z"/>
				<path clip-path="url(#SVGID_4_)" fill="#4589F2" d="M523.636,869.548c-1.703,7.419-9.098,12.054-16.517,10.351
					s-12.054-9.098-10.351-16.517c0.426-1.855,1.207-3.536,2.256-4.987v4.847h20.114v6.307H523.636z"/>
				<path clip-path="url(#SVGID_4_)" fill="#4488F2" d="M523.506,869.518c-1.686,7.348-9.01,11.937-16.358,10.251
					c-7.348-1.686-11.937-9.01-10.251-16.358c0.422-1.837,1.195-3.501,2.234-4.939v4.769h20.006v6.277H523.506z"/>
				<path clip-path="url(#SVGID_4_)" fill="#4488F2" d="M523.376,869.489c-1.67,7.276-8.922,11.821-16.198,10.151
					c-7.276-1.67-11.821-8.922-10.151-16.198c0.417-1.819,1.184-3.467,2.212-4.891v4.691h19.897v6.247H523.376z"/>
				<path clip-path="url(#SVGID_4_)" fill="#4488F2" d="M523.246,869.459c-1.653,7.204-8.834,11.704-16.038,10.051
					c-7.204-1.653-11.704-8.834-10.051-16.038c0.413-1.801,1.172-3.433,2.19-4.842v4.613h19.789v6.217H523.246z"/>
				<path clip-path="url(#SVGID_4_)" fill="#4387F2" d="M523.117,869.429c-1.637,7.133-8.746,11.588-15.879,9.951
					s-11.588-8.746-9.951-15.879c0.409-1.783,1.16-3.399,2.169-4.794v4.535h19.681v6.188H523.117z"/>
				<path clip-path="url(#SVGID_4_)" fill="#4387F2" d="M522.987,869.399c-1.62,7.061-8.658,11.471-15.719,9.851
					c-7.061-1.62-11.471-8.658-9.851-15.719c0.405-1.765,1.149-3.365,2.147-4.746v4.457h19.573v6.158H522.987z"/>
				<path clip-path="url(#SVGID_4_)" fill="#4287F2" d="M522.857,869.369c-1.604,6.989-8.57,11.355-15.559,9.751
					s-11.355-8.57-9.751-15.559c0.401-1.747,1.137-3.331,2.125-4.698v4.379h19.465v6.128H522.857z"/>
				<path clip-path="url(#SVGID_4_)" fill="#4287F1" d="M522.727,869.34c-1.588,6.917-8.482,11.238-15.4,9.651
					c-6.917-1.588-11.238-8.482-9.651-15.4c0.397-1.729,1.125-3.296,2.103-4.649v4.301h19.357v6.098H522.727z"/>
				<path clip-path="url(#SVGID_4_)" fill="#4286F1" d="M522.597,869.31c-1.571,6.846-8.394,11.122-15.24,9.551
					c-6.846-1.571-11.122-8.394-9.551-15.24c0.393-1.711,1.114-3.262,2.081-4.601v4.223h19.249v6.068H522.597z"/>
				<path clip-path="url(#SVGID_4_)" fill="#4186F1" d="M522.467,869.28c-1.555,6.774-8.306,11.005-15.08,9.45
					c-6.774-1.555-11.005-8.306-9.45-15.08c0.389-1.694,1.102-3.228,2.06-4.553v4.145h19.141v6.039H522.467z"/>
				<path clip-path="url(#SVGID_4_)" fill="#4186F1" d="M522.338,869.25c-1.538,6.702-8.219,10.889-14.921,9.35
					c-6.702-1.538-10.889-8.219-9.35-14.921c0.385-1.676,1.09-3.194,2.038-4.505v4.067h19.033v6.009H522.338z"/>
				<path clip-path="url(#SVGID_4_)" fill="#4186F1" d="M522.208,869.22c-1.522,6.631-8.131,10.772-14.761,9.25
					c-6.631-1.522-10.772-8.131-9.25-14.761c0.38-1.658,1.079-3.16,2.016-4.457v3.989h18.925v5.979H522.208z"/>
				<path clip-path="url(#SVGID_4_)" fill="#4085F1" d="M522.078,869.191c-1.505,6.559-8.043,10.656-14.602,9.15
					c-6.559-1.505-10.656-8.043-9.15-14.602c0.376-1.64,1.067-3.126,1.994-4.408v3.911h18.817v5.949H522.078z"/>
				<path clip-path="url(#SVGID_4_)" fill="#4085F1" d="M521.948,869.161c-1.489,6.487-7.955,10.539-14.442,9.05
					c-6.487-1.489-10.539-7.955-9.05-14.442c0.744-3.244,2.733-5.878,5.347-7.516v6.988h15.335v5.919H521.948z"/>
				<path clip-path="url(#SVGID_4_)" fill="#4085F1" d="M521.818,869.131c-1.472,6.415-7.867,10.423-14.282,8.95
					c-6.415-1.472-10.423-7.867-8.95-14.282c0.736-3.208,2.703-5.813,5.287-7.433v6.876h15.264v5.889H521.818z"/>
				<path clip-path="url(#SVGID_4_)" fill="#4085F1" d="M521.688,869.101c-1.456,6.344-7.779,10.306-14.123,8.85
					s-10.306-7.779-8.85-14.123c0.728-3.172,2.673-5.748,5.228-7.35v6.763h15.193v5.86H521.688z"/>
				<path clip-path="url(#SVGID_4_)" fill="#3F85F1" d="M521.558,869.071c-1.439,6.272-7.691,10.19-13.963,8.75
					c-6.272-1.44-10.19-7.691-8.75-13.963c0.72-3.136,2.642-5.683,5.169-7.267v6.65h15.123v5.83H521.558z"/>
				<path clip-path="url(#SVGID_4_)" fill="#3F85F1" d="M521.429,869.042c-1.423,6.2-7.603,10.073-13.803,8.65
					c-6.2-1.423-10.073-7.603-8.65-13.803c0.712-3.1,2.612-5.618,5.11-7.184v6.537h15.052v5.8H521.429z"/>
				<path clip-path="url(#SVGID_4_)" fill="#3F84F1" d="M521.299,869.012c-1.406,6.129-7.515,9.957-13.644,8.55
					s-9.957-7.515-8.55-13.644c0.703-3.064,2.582-5.553,5.051-7.101v6.424h14.981v5.77H521.299z"/>
				<path clip-path="url(#SVGID_4_)" fill="#3F84F1" d="M521.169,868.982c-1.39,6.057-7.427,9.84-13.484,8.45
					c-6.057-1.39-9.84-7.427-8.45-13.484c0.695-3.028,2.552-5.488,4.992-7.018v6.311h14.91v5.74H521.169z"/>
				<path clip-path="url(#SVGID_4_)" fill="#3F84F1" d="M521.039,868.952c-1.374,5.985-7.339,9.724-13.324,8.35
					c-5.985-1.374-9.724-7.339-8.35-13.324c0.687-2.993,2.522-5.423,4.933-6.935v6.198h14.84v5.711H521.039z"/>
				<path clip-path="url(#SVGID_4_)" fill="#3E84F1" d="M520.909,868.922c-1.357,5.913-7.251,9.607-13.165,8.25
					s-9.607-7.251-8.25-13.165c0.679-2.957,2.491-5.358,4.874-6.851v6.085h14.769v5.681H520.909z"/>
				<path clip-path="url(#SVGID_4_)" fill="#3E84F1" d="M520.779,868.893c-1.341,5.842-7.163,9.491-13.005,8.15
					c-5.842-1.341-9.491-7.163-8.15-13.005c0.67-2.921,2.461-5.293,4.815-6.768v5.972h14.698v5.651H520.779z"/>
				<path clip-path="url(#SVGID_4_)" fill="#3E84F1" d="M520.649,868.863c-1.324,5.77-7.075,9.374-12.845,8.05
					c-5.77-1.324-9.374-7.075-8.05-12.845c0.662-2.885,2.431-5.229,4.755-6.685v5.859h14.627v5.621H520.649z"/>
				<path clip-path="url(#SVGID_4_)" fill="#3E84F1" d="M520.52,868.833c-1.308,5.698-6.987,9.258-12.686,7.95
					c-5.698-1.308-9.258-6.987-7.95-12.686c0.654-2.849,2.401-5.164,4.696-6.602v5.747h14.557v5.591H520.52z"/>
				<path clip-path="url(#SVGID_4_)" fill="#3E84F1" d="M520.39,868.803c-1.291,5.627-6.899,9.141-12.526,7.85
					s-9.141-6.899-7.85-12.526c0.646-2.813,2.371-5.099,4.637-6.519v5.634h7.889v-6.964
					C518.167,857.568,521.681,863.177,520.39,868.803z"/>
				<path clip-path="url(#SVGID_4_)" fill="#3E83F1" d="M520.26,868.773c-1.275,5.555-6.811,9.024-12.366,7.75
					c-5.555-1.275-9.024-6.812-7.75-12.366c0.637-2.777,2.34-5.034,4.578-6.436v5.521h7.788v-6.834
					C518.065,857.682,521.535,863.218,520.26,868.773z"/>
				<path clip-path="url(#SVGID_4_)" fill="#3E83F1" d="M520.13,868.744c-1.258,5.483-6.724,8.908-12.207,7.65
					c-5.483-1.258-8.908-6.724-7.65-12.207c0.629-2.742,2.31-4.969,4.519-6.353v5.408h7.688v-6.705
					C517.964,857.795,521.388,863.26,520.13,868.744z"/>
				<path clip-path="url(#SVGID_4_)" fill="#3D83F1" d="M520,868.714c-1.242,5.411-6.636,8.792-12.047,7.55
					c-5.411-1.242-8.791-6.636-7.549-12.047c0.621-2.706,2.28-4.904,4.46-6.27v5.295h7.587v-6.575
					C517.862,857.909,521.242,863.302,520,868.714z"/>
				<path clip-path="url(#SVGID_4_)" fill="#3D83F1" d="M519.87,868.684c-1.226,5.34-6.548,8.675-11.887,7.449
					s-8.675-6.548-7.449-11.887c0.613-2.67,2.25-4.839,4.401-6.187v5.182h7.487v-6.445
					C517.761,858.022,521.096,863.344,519.87,868.684z"/>
				<path clip-path="url(#SVGID_4_)" fill="#3D83F1" d="M519.74,868.654c-1.209,5.268-6.46,8.558-11.728,7.349
					c-5.268-1.209-8.558-6.46-7.349-11.728c0.605-2.634,2.219-4.774,4.342-6.104v5.069h7.386v-6.315
					C517.659,858.135,520.949,863.386,519.74,868.654z"/>
				<path clip-path="url(#SVGID_4_)" fill="#3D83F1" d="M519.611,868.624c-1.193,5.196-6.372,8.442-11.568,7.249
					c-5.196-1.193-8.442-6.372-7.249-11.568c0.596-2.598,2.189-4.709,4.283-6.021v4.956h7.285v-6.185
					C517.557,858.249,520.803,863.428,519.611,868.624z"/>
				<path clip-path="url(#SVGID_4_)" fill="#3D83F1" d="M519.481,868.594c-1.176,5.125-6.284,8.325-11.408,7.149
					c-5.125-1.176-8.325-6.284-7.149-11.408c0.588-2.562,2.159-4.644,4.224-5.937v4.843h7.185v-6.055
					C517.456,858.362,520.657,863.47,519.481,868.594z"/>
				<path clip-path="url(#SVGID_4_)" fill="#3D83F1" d="M519.351,868.565c-1.16,5.053-6.196,8.209-11.249,7.049
					s-8.209-6.196-7.049-11.249c0.58-2.526,2.129-4.579,4.164-5.854v4.731h7.084v-5.926
					C517.354,858.476,520.511,863.512,519.351,868.565z"/>
				<circle clip-path="url(#SVGID_4_)" fill="#3D83F1" cx="510.202" cy="866.465" r="9.254"/>
				<circle clip-path="url(#SVGID_4_)" fill="#3D83F1" cx="510.202" cy="866.465" r="9.12"/>
				<circle clip-path="url(#SVGID_4_)" fill="#3D83F1" cx="510.202" cy="866.465" r="8.987"/>
				<circle clip-path="url(#SVGID_4_)" fill="#3D83F1" cx="510.202" cy="866.465" r="8.854"/>
				<circle clip-path="url(#SVGID_4_)" fill="#3D83F1" cx="510.202" cy="866.465" r="8.721"/>
				<circle clip-path="url(#SVGID_4_)" fill="#3D83F1" cx="510.202" cy="866.465" r="8.587"/>
				<circle clip-path="url(#SVGID_4_)" fill="#3D83F1" cx="510.202" cy="866.465" r="8.454"/>
				<circle clip-path="url(#SVGID_4_)" fill="#3D83F1" cx="510.202" cy="866.465" r="8.321"/>
				<circle clip-path="url(#SVGID_4_)" fill="#3D84F0" cx="510.202" cy="866.465" r="8.034"/>
				<circle clip-path="url(#SVGID_4_)" fill="#3D85F0" cx="510.202" cy="866.465" r="7.747"/>
				<circle clip-path="url(#SVGID_4_)" fill="#3D86EF" cx="510.202" cy="866.465" r="7.46"/>
				<circle clip-path="url(#SVGID_4_)" fill="#3D88EF" cx="510.202" cy="866.465" r="7.173"/>
				<circle clip-path="url(#SVGID_4_)" fill="#3E89EE" cx="510.202" cy="866.465" r="6.886"/>
				<circle clip-path="url(#SVGID_4_)" fill="#3E8AEE" cx="510.202" cy="866.465" r="6.599"/>
				<circle clip-path="url(#SVGID_4_)" fill="#3E8BED" cx="510.202" cy="866.465" r="6.313"/>
				<circle clip-path="url(#SVGID_4_)" fill="#3E8CED" cx="510.202" cy="866.465" r="6.026"/>
				<circle clip-path="url(#SVGID_4_)" fill="#3E8DEC" cx="510.202" cy="866.465" r="5.739"/>
				<circle clip-path="url(#SVGID_4_)" fill="#3E8EEC" cx="510.202" cy="866.465" r="5.452"/>
				<circle clip-path="url(#SVGID_4_)" fill="#3E8FEC" cx="510.202" cy="866.465" r="5.165"/>
				<circle clip-path="url(#SVGID_4_)" fill="#3E90EB" cx="510.202" cy="866.465" r="4.878"/>
				<circle clip-path="url(#SVGID_4_)" fill="#3E91EB" cx="510.202" cy="866.465" r="4.591"/>
				<circle clip-path="url(#SVGID_4_)" fill="#3F92EA" cx="510.202" cy="866.465" r="4.304"/>
				<circle clip-path="url(#SVGID_4_)" fill="#3F94EA" cx="510.202" cy="866.465" r="4.017"/>
				<circle clip-path="url(#SVGID_4_)" fill="#3F95E9" cx="510.202" cy="866.465" r="3.73"/>
				<circle clip-path="url(#SVGID_4_)" fill="#3F96E9" cx="510.202" cy="866.465" r="3.443"/>
				<circle clip-path="url(#SVGID_4_)" fill="#3F97E8" cx="510.202" cy="866.465" r="3.156"/>
				<circle clip-path="url(#SVGID_4_)" fill="#3F98E8" cx="510.202" cy="866.465" r="2.869"/>
				<circle clip-path="url(#SVGID_4_)" fill="#3F99E7" cx="510.202" cy="866.465" r="2.582"/>
				<circle clip-path="url(#SVGID_4_)" fill="#3F9AE7" cx="510.202" cy="866.465" r="2.295"/>
				<circle clip-path="url(#SVGID_4_)" fill="#3F9BE6" cx="510.202" cy="866.465" r="2.009"/>
				<circle clip-path="url(#SVGID_4_)" fill="#409CE6" cx="510.202" cy="866.465" r="1.722"/>
				<circle clip-path="url(#SVGID_4_)" fill="#409DE6" cx="510.202" cy="866.465" r="1.435"/>
				<circle clip-path="url(#SVGID_4_)" fill="#409EE5" cx="510.202" cy="866.465" r="1.148"/>
				<circle clip-path="url(#SVGID_4_)" fill="#409EE5" cx="510.202" cy="866.465" r="0.861"/>
				<circle clip-path="url(#SVGID_4_)" fill="#409FE4" cx="510.202" cy="866.465" r="0.574"/>
				<circle clip-path="url(#SVGID_4_)" fill="#40A0E4" cx="510.202" cy="866.465" r="0.287"/>
			</g>
		</g>
		<g>
			<g>
				<path fill="#F7E2FE" d="M480.865,711.017c-3.396,0-6.157-2.762-6.157-6.157s2.762-6.157,6.157-6.157s6.157,2.762,6.157,6.157
					S484.261,711.017,480.865,711.017z M480.865,699.703c-2.844,0-5.157,2.313-5.157,5.157c0,2.844,2.313,5.157,5.157,5.157
					s5.157-2.313,5.157-5.157C486.023,702.017,483.709,699.703,480.865,699.703z"/>
			</g>
			<g opacity="0.35">
				<path fill="#9CCEFF" d="M392.159,804.817c-4.222,0-7.656-3.435-7.656-7.657s3.435-7.657,7.656-7.657
					c4.223,0,7.657,3.435,7.657,7.657S396.382,804.817,392.159,804.817z M392.159,793.503c-2.016,0-3.656,1.641-3.656,3.657
					c0,2.016,1.641,3.657,3.656,3.657c2.017,0,3.657-1.641,3.657-3.657C395.817,795.144,394.176,793.503,392.159,793.503z"/>
			</g>
			<g opacity="0.15">
				<path fill="#9CCEFF" d="M530.656,885.791c-3.946,0-7.156-3.211-7.156-7.157s3.21-7.157,7.156-7.157s7.157,3.21,7.157,7.157
					S534.603,885.791,530.656,885.791z M530.656,874.477c-2.292,0-4.156,1.865-4.156,4.157c0,2.292,1.864,4.157,4.156,4.157
					s4.157-1.865,4.157-4.157C534.814,876.342,532.948,874.477,530.656,874.477z"/>
			</g>
			<g opacity="0.2">
				<path fill="#9CCEFF" d="M670.33,737.424c-5.049,0-9.157-4.108-9.157-9.157c0-5.049,4.108-9.157,9.157-9.157
					s9.157,4.108,9.157,9.157C679.488,733.316,675.379,737.424,670.33,737.424z M670.33,726.11c-1.189,0-2.157,0.968-2.157,2.157
					s0.968,2.157,2.157,2.157s2.157-0.967,2.157-2.157S671.52,726.11,670.33,726.11z"/>
			</g>
			<g>
				<path fill="#D2EAFF" d="M414.73,753.384L414.73,753.384c-0.993,0-1.797-0.805-1.797-1.797V730.02
					c0-0.992,0.805-1.797,1.797-1.797l0,0c0.993,0,1.797,0.805,1.797,1.797v21.566C416.527,752.579,415.722,753.384,414.73,753.384z
					"/>
			</g>
			<g>
				<path fill="#D2EAFF" d="M533.832,829.582L533.832,829.582c0.142-0.982,1.053-1.664,2.036-1.522l21.344,3.084
					c0.982,0.142,1.664,1.053,1.522,2.036l0,0c-0.142,0.982-1.053,1.664-2.036,1.522l-21.344-3.084
					C534.371,831.475,533.69,830.564,533.832,829.582z"/>
			</g>
			<g>
				<path fill="#D2EAFF" d="M531.91,690.284L531.91,690.284c-0.665-0.737-0.607-1.873,0.13-2.538l16.012-14.447
					c0.737-0.665,1.873-0.607,2.538,0.13l0,0c0.665,0.737,0.607,1.873-0.13,2.538l-16.012,14.447
					C533.712,691.079,532.575,691.021,531.91,690.284z"/>
			</g>
			<g>
				<path fill="#F7E2FE" d="M433.4,782.926L433.4,782.926c0.702-0.702,1.84-0.703,2.542-0.001l15.25,15.25
					c0.702,0.702,0.702,1.84,0,2.542l0,0c-0.702,0.702-1.84,0.702-2.542,0l-15.249-15.25
					C432.699,784.766,432.699,783.628,433.4,782.926z"/>
			</g>
		</g>
	</g>
	<g>
		<g>
			<defs>
				
					<ellipse id="SVGID_348_" transform="matrix(0.4142 -0.9102 0.9102 0.4142 -252.8158 1362.7756)" cx="932.296" cy="877.794" rx="12.34" ry="12.34"/>
			</defs>
			<clipPath id="SVGID_5_">
				<use xlink:href="#SVGID_348_"  overflow="visible"/>
			</clipPath>
			<rect x="918.744" y="864.241" clip-path="url(#SVGID_5_)" fill="#C0E2FE" width="27.105" height="27.104"/>
			<path clip-path="url(#SVGID_5_)" fill="#C0E2FE" d="M917.744,872.23v16.075h-4.751c5.589,3.503,12.515,4.873,19.452,3.281
				c6.937-1.592,12.572-5.845,16.075-11.435h-1.671v-16.91h-29.105V872.23z"/>
			<path clip-path="url(#SVGID_5_)" fill="#BEE0FE" d="M917.744,872.201v15.991h-4.68c5.56,3.485,12.45,4.848,19.351,3.264
				c6.901-1.584,12.507-5.815,15.991-11.375h-1.558v-16.839h-29.105V872.201z"/>
			<path clip-path="url(#SVGID_5_)" fill="#BBDFFE" d="M917.744,872.171v15.908h-4.61c5.532,3.466,12.385,4.823,19.251,3.247
				c6.865-1.576,12.442-5.785,15.908-11.316h-1.445v-16.768h-29.105V872.171z"/>
			<path clip-path="url(#SVGID_5_)" fill="#B9DDFD" d="M917.744,872.141v15.825h-4.539c5.503,3.448,12.321,4.797,19.15,3.23
				s12.377-5.755,15.825-11.257h-1.332v-16.698h-29.105V872.141z"/>
			<path clip-path="url(#SVGID_5_)" fill="#B7DBFD" d="M917.744,872.111v15.742h-4.468c5.474,3.43,12.256,4.772,19.05,3.213
				c6.794-1.559,12.312-5.724,15.742-11.198h-1.219v-16.627h-29.105V872.111z"/>
			<path clip-path="url(#SVGID_5_)" fill="#B4DAFD" d="M917.744,872.081v15.659h-4.397c5.445,3.412,12.191,4.747,18.949,3.196
				c6.758-1.551,12.247-5.694,15.659-11.139h-1.106v-16.556h-29.105V872.081z"/>
			<path clip-path="url(#SVGID_5_)" fill="#B2D8FD" d="M917.744,872.052v15.576h-4.327c5.416,3.394,12.127,4.722,18.849,3.179
				c6.722-1.543,12.182-5.664,15.576-11.08h-0.993v-16.485h-29.105V872.052z"/>
			<path clip-path="url(#SVGID_5_)" fill="#B0D6FC" d="M917.744,872.022v15.493h-4.256c5.387,3.376,12.062,4.697,18.748,3.162
				s12.117-5.634,15.493-11.021h-0.88v-16.415h-29.105V872.022z"/>
			<path clip-path="url(#SVGID_5_)" fill="#AED5FC" d="M917.744,871.992v15.41h-4.185c5.358,3.358,11.997,4.672,18.647,3.145
				c13.3-3.052,21.608-16.309,18.555-29.609l-3.913,2.304h-29.105V871.992z"/>
			<path clip-path="url(#SVGID_5_)" fill="#ABD3FC" d="M917.744,871.962v15.327h-4.114c5.329,3.34,11.933,4.646,18.547,3.128
				c13.229-3.036,21.491-16.221,18.455-29.449l-3.783,2.274h-29.105V871.962z"/>
			<path clip-path="url(#SVGID_5_)" fill="#A9D2FC" d="M917.744,871.932v15.244H913.7c5.3,3.322,11.868,4.621,18.446,3.111
				c13.157-3.02,21.375-16.133,18.355-29.29l-3.653,2.244h-29.105V871.932z"/>
			<path clip-path="url(#SVGID_5_)" fill="#A7D0FC" d="M917.744,871.903v15.161h-3.973c5.272,3.303,11.803,4.596,18.346,3.094
				c13.085-3.003,21.258-16.045,18.255-29.13l-3.523,2.214h-29.105V871.903z"/>
			<path clip-path="url(#SVGID_5_)" fill="#A5CEFB" d="M917.744,871.873v15.077h-3.902c5.243,3.285,11.739,4.571,18.245,3.077
				c13.013-2.987,21.142-15.957,18.155-28.971l-3.393,2.184h-29.105V871.873z"/>
			<path clip-path="url(#SVGID_5_)" fill="#A3CDFB" d="M917.744,871.843v14.994h-3.831c5.214,3.267,11.674,4.546,18.145,3.061
				c12.942-2.97,21.025-15.869,18.055-28.811l-3.264,2.154h-29.105V871.843z"/>
			<path clip-path="url(#SVGID_5_)" fill="#A1CBFB" d="M917.744,871.813v14.911h-3.761c5.185,3.249,11.609,4.52,18.044,3.044
				c12.87-2.954,20.909-15.781,17.955-28.651l-3.134,2.125h-29.105V871.813z"/>
			<path clip-path="url(#SVGID_5_)" fill="#9FCAFB" d="M917.744,871.783v14.828h-3.69c5.156,3.231,11.544,4.495,17.944,3.027
				c12.798-2.937,20.792-15.693,17.855-28.492l-3.004,2.095h-29.105V871.783z"/>
			<path clip-path="url(#SVGID_5_)" fill="#9DC9FB" d="M917.744,871.754v14.745h-3.619c5.127,3.213,11.48,4.47,17.843,3.01
				c12.727-2.921,20.676-15.605,17.755-28.332l-2.874,2.065h-29.105V871.754z"/>
			<path clip-path="url(#SVGID_5_)" fill="#9BC7FA" d="M917.744,871.724v14.662h-3.548c5.098,3.195,11.415,4.445,17.742,2.993
				c12.655-2.904,20.559-15.518,17.655-28.172l-2.744,2.035h-29.105V871.724z"/>
			<path clip-path="url(#SVGID_5_)" fill="#99C6FA" d="M917.744,871.694v14.579h-3.478c5.069,3.177,11.35,4.42,17.642,2.976
				c12.583-2.888,20.443-15.43,17.555-28.013l-2.614,2.005h-29.105V871.694z"/>
			<path clip-path="url(#SVGID_5_)" fill="#97C4FA" d="M917.744,871.664v14.496h-3.407c5.04,3.159,11.286,4.394,17.541,2.959
				c12.511-2.871,20.326-15.342,17.455-27.853l-2.484,1.976h-29.105V871.664z"/>
			<path clip-path="url(#SVGID_5_)" fill="#95C3FA" d="M917.744,871.634v14.413h-3.336c5.012,3.141,11.221,4.369,17.441,2.942
				c12.44-2.855,20.209-15.254,17.355-27.693l-2.355,1.946h-29.105V871.634z"/>
			<path clip-path="url(#SVGID_5_)" fill="#93C1FA" d="M917.744,871.605v14.33h-3.265c4.983,3.122,11.156,4.344,17.34,2.925
				c12.368-2.839,20.093-15.166,17.254-27.534l-2.225,1.916h-29.105V871.605z"/>
			<path clip-path="url(#SVGID_5_)" fill="#91C0F9" d="M917.744,871.575v14.247h-3.195c4.954,3.104,11.092,4.319,17.24,2.908
				c12.296-2.822,19.976-15.078,17.154-27.374l-2.095,1.886h-29.105V871.575z"/>
			<path clip-path="url(#SVGID_5_)" fill="#8FBFF9" d="M917.744,871.545v14.163h-3.124c4.925,3.086,11.027,4.294,17.139,2.891
				c12.224-2.806,19.86-14.99,17.054-27.214l-1.965,1.857h-29.105V871.545z"/>
			<path clip-path="url(#SVGID_5_)" fill="#8EBDF9" d="M917.744,871.515v14.08h-3.053c4.896,3.068,10.962,4.269,17.039,2.874
				c12.153-2.789,19.743-14.902,16.954-27.055l-1.835,1.827h-29.105V871.515z"/>
			<path clip-path="url(#SVGID_5_)" fill="#8CBCF9" d="M917.744,871.485v13.997h-2.982c4.867,3.05,10.898,4.243,16.938,2.857
				c12.081-2.773,19.627-14.814,16.854-26.895l-1.705,1.797h-29.105V871.485z"/>
			<path clip-path="url(#SVGID_5_)" fill="#8ABBF9" d="M917.744,871.456v13.914h-2.912c4.838,3.032,10.833,4.218,16.838,2.84
				c12.009-2.756,19.51-14.726,16.754-26.735l-1.576,1.767h-29.105V871.456z"/>
			<path clip-path="url(#SVGID_5_)" fill="#88BAF8" d="M917.744,871.426v13.831h-2.841c4.809,3.014,10.768,4.193,16.737,2.823
				c11.938-2.74,19.394-14.638,16.654-26.576l-1.446,1.737h-29.105V871.426z"/>
			<path clip-path="url(#SVGID_5_)" fill="#87B8F8" d="M917.744,871.396v13.748h-2.77c4.78,2.996,10.704,4.168,16.636,2.806
				c11.866-2.723,19.277-14.55,16.554-26.416l-1.316,1.707h-29.105V871.396z"/>
			<path clip-path="url(#SVGID_5_)" fill="#85B7F8" d="M917.744,871.366v13.665h-2.699c4.751,2.978,10.639,4.143,16.536,2.789
				c11.794-2.707,19.161-14.462,16.454-26.256l-1.186,1.678h-29.105V871.366z"/>
			<path clip-path="url(#SVGID_5_)" fill="#83B6F8" d="M917.744,871.336v13.582h-2.629c4.723,2.96,10.574,4.117,16.435,2.772
				c11.722-2.69,19.044-14.374,16.354-26.097l-1.056,1.648h-29.105V871.336z"/>
			<path clip-path="url(#SVGID_5_)" fill="#82B5F8" d="M917.744,871.307v13.499h-2.558c4.694,2.941,10.51,4.092,16.335,2.755
				c11.651-2.674,18.928-14.286,16.254-25.937l-0.926,1.618h-29.105V871.307z"/>
			<path clip-path="url(#SVGID_5_)" fill="#80B4F8" d="M917.744,871.277v13.416h-2.487c4.665,2.923,10.445,4.067,16.234,2.738
				c11.579-2.657,18.811-14.198,16.154-25.777l-0.796,1.588h-29.105V871.277z"/>
			<path clip-path="url(#SVGID_5_)" fill="#7EB2F7" d="M917.744,871.247v13.333h-2.416c4.636,2.905,10.38,4.042,16.134,2.721
				c11.507-2.641,18.695-14.11,16.054-25.618l-0.667,1.558h-29.105V871.247z"/>
			<path clip-path="url(#SVGID_5_)" fill="#7DB1F7" d="M917.744,871.217v13.249h-2.346c4.607,2.887,10.315,4.017,16.033,2.704
				c11.436-2.625,18.578-14.023,15.954-25.458l-0.537,1.529h-29.105V871.217z"/>
			<path clip-path="url(#SVGID_5_)" fill="#7BB0F7" d="M917.744,871.187v13.166h-2.275c4.578,2.869,10.251,3.991,15.933,2.687
				c11.364-2.608,18.462-13.935,15.854-25.298l-0.407,1.499h-29.105V871.187z"/>
			<path clip-path="url(#SVGID_5_)" fill="#7AAFF7" d="M917.744,871.157v13.083h-2.204c4.549,2.851,10.186,3.966,15.832,2.67
				c11.292-2.592,18.345-13.847,15.754-25.139l-0.277,1.469h-29.105V871.157z"/>
			<path clip-path="url(#SVGID_5_)" fill="#78AEF7" d="M917.744,871.128v13h-2.133c4.52,2.833,10.121,3.941,15.732,2.653
				c11.22-2.575,18.229-13.759,15.654-24.979l-0.147,1.439h-29.105V871.128z"/>
			<path clip-path="url(#SVGID_5_)" fill="#77ADF7" d="M917.744,871.098v12.917h-2.063c4.491,2.815,10.057,3.916,15.631,2.637
				c11.149-2.559,18.112-13.671,15.554-24.819l-0.017,1.409h-29.105V871.098z"/>
			<path clip-path="url(#SVGID_5_)" fill="#75ACF7" d="M917.744,871.068v12.834h-1.992c4.463,2.797,9.992,3.891,15.53,2.62
				c11.077-2.542,17.996-13.583,15.454-24.66v1.38h-28.992V871.068z"/>
			<path clip-path="url(#SVGID_5_)" fill="#74ABF6" d="M917.744,871.038v12.751h-1.921c4.434,2.778,9.927,3.865,15.43,2.603
				c11.005-2.526,17.879-13.495,15.353-24.5v1.35h-28.862V871.038z"/>
			<path clip-path="url(#SVGID_5_)" fill="#72AAF6" d="M917.744,871.008v12.668h-1.85c4.405,2.76,9.863,3.84,15.329,2.586
				c10.934-2.509,17.763-13.407,15.253-24.341v1.32h-28.732V871.008z"/>
			<path clip-path="url(#SVGID_5_)" fill="#71A9F6" d="M917.744,870.979v12.585h-1.78c4.376,2.742,9.798,3.815,15.229,2.569
				c10.862-2.493,17.646-13.319,15.153-24.181v1.29h-28.602V870.979z"/>
			<path clip-path="url(#SVGID_5_)" fill="#6FA8F6" d="M917.744,870.949v12.502h-1.709c4.347,2.724,9.733,3.79,15.128,2.552
				c10.79-2.476,17.53-13.231,15.053-24.021v1.26h-28.473V870.949z"/>
			<path clip-path="url(#SVGID_5_)" fill="#6EA7F6" d="M917.744,870.919v12.419h-1.638c4.318,2.706,9.668,3.765,15.028,2.535
				c10.718-2.46,17.413-13.143,14.953-23.862v1.231h-28.343V870.919z"/>
			<path clip-path="url(#SVGID_5_)" fill="#6DA6F6" d="M917.744,870.889v12.335h-1.568c4.289,2.688,9.604,3.74,14.927,2.518
				c10.647-2.443,17.297-13.055,14.853-23.702v1.201h-28.213V870.889z"/>
			<path clip-path="url(#SVGID_5_)" fill="#6BA5F6" d="M917.744,870.859v12.252h-1.497c4.26,2.67,9.539,3.714,14.827,2.501
				c10.575-2.427,17.18-12.967,14.753-23.542v1.171h-28.083V870.859z"/>
			<path clip-path="url(#SVGID_5_)" fill="#6AA4F5" d="M917.744,870.83v12.169h-1.426c4.231,2.652,9.474,3.689,14.726,2.484
				c10.503-2.411,17.064-12.879,14.653-23.383v1.141h-27.953V870.83z"/>
			<path clip-path="url(#SVGID_5_)" fill="#69A3F5" d="M917.744,870.8v12.086h-1.355c4.203,2.634,9.41,3.664,14.626,2.467
				c10.432-2.394,16.947-12.791,14.553-23.223v1.111h-27.823V870.8z"/>
			<path clip-path="url(#SVGID_5_)" fill="#68A2F5" d="M917.744,870.77v12.003h-1.284c4.174,2.615,9.345,3.639,14.525,2.45
				c10.36-2.378,16.831-12.703,14.453-23.063v1.082h-27.693V870.77z"/>
			<path clip-path="url(#SVGID_5_)" fill="#66A1F5" d="M917.744,870.74v11.92h-1.214c4.145,2.597,9.28,3.614,14.424,2.433
				c10.288-2.361,16.714-12.615,14.353-22.904v1.052h-27.564V870.74z"/>
			<path clip-path="url(#SVGID_5_)" fill="#65A0F5" d="M917.744,870.71v11.837h-1.143c4.116,2.579,9.216,3.588,14.324,2.416
				c10.216-2.345,16.598-12.528,14.253-22.744v1.022h-27.434V870.71z"/>
			<path clip-path="url(#SVGID_5_)" fill="#649FF5" d="M917.744,870.681v11.754h-1.072c4.087,2.561,9.151,3.563,14.223,2.399
				c10.145-2.328,16.481-12.44,14.153-22.584v0.992h-27.304V870.681z"/>
			<path clip-path="url(#SVGID_5_)" fill="#639EF5" d="M917.744,870.651v11.671h-1.002c4.058,2.543,9.086,3.538,14.123,2.382
				c10.073-2.312,16.365-12.352,14.053-22.425v0.962h-27.174V870.651z"/>
			<path clip-path="url(#SVGID_5_)" fill="#629EF5" d="M917.744,870.621v11.588h-0.931c4.029,2.525,9.022,3.513,14.022,2.365
				c10.001-2.295,16.248-12.264,13.953-22.265v0.933h-27.044V870.621z"/>
			<path clip-path="url(#SVGID_5_)" fill="#609DF5" d="M917.744,870.591v11.505h-0.86c4,2.507,8.957,3.488,13.922,2.348
				c9.93-2.279,16.132-12.176,13.853-22.105v0.903h-26.914V870.591z"/>
			<path clip-path="url(#SVGID_5_)" fill="#5F9CF4" d="M917.744,870.561v11.421h-0.789c3.971,2.489,8.892,3.462,13.821,2.331
				c9.858-2.262,16.015-12.088,13.753-21.946v0.873h-26.784V870.561z"/>
			<path clip-path="url(#SVGID_5_)" fill="#5E9BF4" d="M917.744,870.532v11.338h-0.719c3.943,2.471,8.828,3.437,13.721,2.314
				c9.786-2.246,15.899-12,13.653-21.786v0.843h-26.655V870.532z"/>
			<path clip-path="url(#SVGID_5_)" fill="#5D9AF4" d="M917.744,870.502v11.255h-0.648c3.914,2.453,8.763,3.412,13.62,2.297
				c9.714-2.229,15.782-11.912,13.553-21.626v0.813h-26.525V870.502z"/>
			<path clip-path="url(#SVGID_5_)" fill="#5C9AF4" d="M917.744,870.472v11.172h-0.577c3.885,2.434,8.698,3.387,13.519,2.28
				c9.643-2.213,15.666-11.824,13.453-21.467v0.784h-26.395V870.472z"/>
			<path clip-path="url(#SVGID_5_)" fill="#5B99F4" d="M917.744,870.442v11.089h-0.506c3.856,2.416,8.633,3.362,13.419,2.263
				c9.571-2.197,15.549-11.736,13.352-21.307v0.754h-26.265V870.442z"/>
			<path clip-path="url(#SVGID_5_)" fill="#5A98F4" d="M917.744,870.412v11.006h-0.436c3.827,2.398,8.569,3.337,13.318,2.246
				c9.499-2.18,15.433-11.648,13.252-21.147v0.724h-26.135V870.412z"/>
			<path clip-path="url(#SVGID_5_)" fill="#5997F4" d="M917.744,870.383v10.923h-0.365c3.798,2.38,8.504,3.311,13.218,2.229
				c9.427-2.164,15.316-11.56,13.152-20.988v0.694h-26.005V870.383z"/>
			<path clip-path="url(#SVGID_5_)" fill="#5897F4" d="M917.744,870.353v10.84h-0.294c3.769,2.362,8.439,3.286,13.117,2.213
				c9.356-2.147,15.2-11.472,13.052-20.828v0.664h-25.875V870.353z"/>
			<path clip-path="url(#SVGID_5_)" fill="#5796F4" d="M917.744,870.323v10.757h-0.223c3.74,2.344,8.375,3.261,13.017,2.196
				c9.284-2.131,15.083-11.384,12.952-20.668v0.635h-25.746V870.323z"/>
			<path clip-path="url(#SVGID_5_)" fill="#5695F4" d="M917.744,870.293v10.674h-0.153c3.711,2.326,8.31,3.236,12.916,2.179
				c9.212-2.114,14.966-11.296,12.852-20.509v0.605h-25.616V870.293z"/>
			<path clip-path="url(#SVGID_5_)" fill="#5595F3" d="M917.744,870.263v10.591h-0.082c3.682,2.308,8.245,3.211,12.816,2.162
				c9.141-2.098,14.85-11.208,12.752-20.349v0.575h-25.486V870.263z"/>
			<path clip-path="url(#SVGID_5_)" fill="#5494F3" d="M917.744,870.234v10.507h-0.011c3.654,2.29,8.181,3.185,12.715,2.145
				c9.069-2.081,14.734-11.121,12.652-20.189v0.545h-25.356V870.234z"/>
			<path clip-path="url(#SVGID_5_)" fill="#5493F3" d="M917.744,870.204v6.047h-4.62c1.272,1.76,2.867,3.241,4.68,4.377
				c3.625,2.271,8.116,3.16,12.615,2.128c8.997-2.065,14.617-11.033,12.552-20.03v0.515h-25.226V870.204z"/>
			<path clip-path="url(#SVGID_5_)" fill="#5393F3" d="M917.744,870.174v5.999h-4.512c1.262,1.746,2.845,3.215,4.642,4.342
				c3.596,2.253,8.051,3.135,12.514,2.111c8.925-2.048,14.5-10.945,12.452-19.87v0.486h-25.096V870.174z"/>
			<path clip-path="url(#SVGID_5_)" fill="#5292F3" d="M917.744,870.144v5.951h-4.404c1.251,1.732,2.822,3.19,4.605,4.307
				c3.567,2.235,7.987,3.11,12.413,2.094c8.854-2.032,14.384-10.857,12.352-19.71v0.456h-24.967V870.144z"/>
			<path clip-path="url(#SVGID_5_)" fill="#5192F3" d="M910.778,870.114c2.016,8.782,10.769,14.267,19.551,12.252
				c8.782-2.016,14.267-10.769,12.252-19.551v0.426h-24.837v6.873H910.778z"/>
			<path clip-path="url(#SVGID_5_)" fill="#5091F3" d="M910.908,870.085c1.999,8.71,10.681,14.151,19.391,12.152
				s14.151-10.681,12.152-19.391v0.396h-24.707v6.843H910.908z"/>
			<path clip-path="url(#SVGID_5_)" fill="#4F90F3" d="M911.038,870.055c1.983,8.639,10.593,14.034,19.232,12.052
				c8.639-1.983,14.034-10.593,12.052-19.232v0.366h-24.577v6.813H911.038z"/>
			<path clip-path="url(#SVGID_5_)" fill="#4F90F3" d="M911.168,870.025c1.966,8.567,10.505,13.918,19.072,11.952
				c8.567-1.966,13.918-10.505,11.952-19.072v0.337h-24.447v6.784H911.168z"/>
			<path clip-path="url(#SVGID_5_)" fill="#4E8FF3" d="M911.297,869.995c1.95,8.495,10.417,13.801,18.912,11.852
				s13.801-10.417,11.852-18.912v0.307h-24.317v6.754H911.297z"/>
			<path clip-path="url(#SVGID_5_)" fill="#4D8FF3" d="M911.427,869.965c1.933,8.424,10.329,13.685,18.753,11.752
				c8.423-1.933,13.685-10.329,11.752-18.753v0.277h-24.187v6.724H911.427z"/>
			<path clip-path="url(#SVGID_5_)" fill="#4D8EF3" d="M911.557,869.936c1.917,8.352,10.241,13.568,18.593,11.652
				c8.352-1.917,13.568-10.241,11.652-18.593v0.247h-24.058v6.694H911.557z"/>
			<path clip-path="url(#SVGID_5_)" fill="#4C8EF2" d="M911.687,869.906c1.9,8.28,10.153,13.452,18.433,11.552
				s13.452-10.153,11.552-18.433v0.217h-23.928v6.664H911.687z"/>
			<path clip-path="url(#SVGID_5_)" fill="#4B8DF2" d="M911.817,869.876c1.884,8.208,10.065,13.335,18.274,11.452
				c8.208-1.884,13.335-10.065,11.451-18.274v0.188h-23.798v6.635H911.817z"/>
			<path clip-path="url(#SVGID_5_)" fill="#4B8DF2" d="M911.947,869.846c1.867,8.137,9.977,13.219,18.114,11.351
				c8.137-1.867,13.219-9.977,11.351-18.114v0.158h-23.668v6.605H911.947z"/>
			<path clip-path="url(#SVGID_5_)" fill="#4A8CF2" d="M912.077,869.816c1.851,8.065,9.889,13.102,17.954,11.251
				c8.065-1.851,13.102-9.889,11.251-17.954v0.128h-23.538v6.575H912.077z"/>
			<path clip-path="url(#SVGID_5_)" fill="#498CF2" d="M912.206,869.787c1.834,7.993,9.801,12.986,17.795,11.151
				s12.986-9.801,11.151-17.795v0.098h-23.408v6.545H912.206z"/>
			<path clip-path="url(#SVGID_5_)" fill="#498BF2" d="M912.336,869.757c1.818,7.922,9.714,12.869,17.635,11.051
				c7.922-1.818,12.869-9.714,11.051-17.635v0.068h-23.278v6.515H912.336z"/>
			<path clip-path="url(#SVGID_5_)" fill="#488BF2" d="M912.466,869.727c1.802,7.85,9.626,12.753,17.475,10.951
				c7.85-1.802,12.753-9.626,10.951-17.475v0.039h-23.149v6.486H912.466z"/>
			<path clip-path="url(#SVGID_5_)" fill="#488BF2" d="M912.596,869.697c1.785,7.778,9.538,12.636,17.316,10.851
				c7.778-1.785,12.636-9.538,10.851-17.316v0.009h-23.019v6.456H912.596z"/>
			<path clip-path="url(#SVGID_5_)" fill="#478AF2" d="M912.726,869.667c1.769,7.706,9.45,12.52,17.156,10.751
				s12.52-9.45,10.751-17.156c-0.442-1.927-1.254-3.672-2.343-5.18v5.159h-20.546v6.426H912.726z"/>
			<path clip-path="url(#SVGID_5_)" fill="#468AF2" d="M912.856,869.638c1.752,7.635,9.362,12.403,16.996,10.651
				c7.635-1.752,12.403-9.362,10.651-16.996c-0.438-1.909-1.242-3.638-2.321-5.131v5.081h-20.438v6.396H912.856z"/>
			<path clip-path="url(#SVGID_5_)" fill="#4689F2" d="M912.986,869.608c1.736,7.563,9.274,12.287,16.837,10.551
				c7.563-1.736,12.287-9.274,10.551-16.837c-0.434-1.891-1.231-3.604-2.299-5.083v5.003h-20.33v6.366H912.986z"/>
			<path clip-path="url(#SVGID_5_)" fill="#4589F2" d="M913.115,869.578c1.719,7.491,9.186,12.17,16.677,10.451
				c7.491-1.719,12.17-9.186,10.451-16.677c-0.43-1.873-1.219-3.57-2.278-5.035v4.925h-20.222v6.337H913.115z"/>
			<path clip-path="url(#SVGID_5_)" fill="#4589F2" d="M913.245,869.548c1.703,7.419,9.098,12.054,16.517,10.351
				s12.054-9.098,10.351-16.517c-0.426-1.855-1.207-3.536-2.256-4.987v4.847h-20.114v6.307H913.245z"/>
			<path clip-path="url(#SVGID_5_)" fill="#4488F2" d="M913.375,869.518c1.686,7.348,9.01,11.937,16.358,10.251
				c7.348-1.686,11.937-9.01,10.251-16.358c-0.422-1.837-1.195-3.501-2.234-4.939v4.769h-20.006v6.277H913.375z"/>
			<path clip-path="url(#SVGID_5_)" fill="#4488F2" d="M913.505,869.489c1.67,7.276,8.922,11.821,16.198,10.151
				c7.276-1.67,11.821-8.922,10.151-16.198c-0.417-1.819-1.184-3.467-2.212-4.891v4.691h-19.898v6.247H913.505z"/>
			<path clip-path="url(#SVGID_5_)" fill="#4488F2" d="M913.635,869.459c1.653,7.204,8.834,11.704,16.038,10.051
				s11.704-8.834,10.051-16.038c-0.413-1.801-1.172-3.433-2.19-4.842v4.613h-19.789v6.217H913.635z"/>
			<path clip-path="url(#SVGID_5_)" fill="#4387F2" d="M913.765,869.429c1.637,7.133,8.746,11.588,15.879,9.951
				s11.588-8.746,9.951-15.879c-0.409-1.783-1.16-3.399-2.169-4.794v4.535h-19.681v6.188H913.765z"/>
			<path clip-path="url(#SVGID_5_)" fill="#4387F2" d="M913.895,869.399c1.62,7.061,8.658,11.471,15.719,9.851
				c7.061-1.62,11.471-8.658,9.851-15.719c-0.405-1.765-1.149-3.365-2.147-4.746v4.457h-19.573v6.158H913.895z"/>
			<path clip-path="url(#SVGID_5_)" fill="#4287F2" d="M914.024,869.369c1.604,6.989,8.57,11.355,15.559,9.751
				s11.355-8.57,9.751-15.559c-0.401-1.747-1.137-3.331-2.125-4.698v4.379h-19.465v6.128H914.024z"/>
			<path clip-path="url(#SVGID_5_)" fill="#4287F1" d="M914.154,869.34c1.588,6.917,8.482,11.238,15.4,9.651
				c6.917-1.588,11.238-8.482,9.651-15.4c-0.397-1.729-1.125-3.296-2.103-4.649v4.301h-19.357v6.098H914.154z"/>
			<path clip-path="url(#SVGID_5_)" fill="#4286F1" d="M914.284,869.31c1.571,6.846,8.394,11.122,15.24,9.551
				c6.846-1.571,11.122-8.394,9.55-15.24c-0.393-1.711-1.114-3.262-2.081-4.601v4.223h-19.249v6.068H914.284z"/>
			<path clip-path="url(#SVGID_5_)" fill="#4186F1" d="M914.414,869.28c1.555,6.774,8.306,11.005,15.08,9.45
				c6.774-1.555,11.005-8.306,9.451-15.08c-0.389-1.694-1.102-3.228-2.06-4.553v4.145h-19.141v6.039H914.414z"/>
			<path clip-path="url(#SVGID_5_)" fill="#4186F1" d="M914.544,869.25c1.538,6.702,8.219,10.889,14.921,9.35
				c6.702-1.538,10.889-8.219,9.35-14.921c-0.385-1.676-1.09-3.194-2.038-4.505v4.067h-19.033v6.009H914.544z"/>
			<path clip-path="url(#SVGID_5_)" fill="#4186F1" d="M914.674,869.22c1.522,6.631,8.131,10.772,14.761,9.25
				c6.631-1.522,10.772-8.131,9.25-14.761c-0.38-1.658-1.079-3.16-2.016-4.457v3.989h-18.925v5.979H914.674z"/>
			<path clip-path="url(#SVGID_5_)" fill="#4085F1" d="M914.803,869.191c1.505,6.559,8.043,10.656,14.602,9.15
				c6.559-1.505,10.656-8.043,9.15-14.602c-0.376-1.64-1.067-3.126-1.994-4.408v3.911h-18.817v5.949H914.803z"/>
			<path clip-path="url(#SVGID_5_)" fill="#4085F1" d="M914.933,869.161c1.489,6.487,7.955,10.539,14.442,9.05
				c6.487-1.489,10.539-7.955,9.05-14.442c-0.744-3.244-2.733-5.878-5.347-7.516v6.988h-15.335v5.919H914.933z"/>
			<path clip-path="url(#SVGID_5_)" fill="#4085F1" d="M915.063,869.131c1.472,6.415,7.867,10.423,14.282,8.95
				c6.415-1.472,10.423-7.867,8.95-14.282c-0.736-3.208-2.703-5.813-5.287-7.433v6.876h-15.264v5.889H915.063z"/>
			<path clip-path="url(#SVGID_5_)" fill="#4085F1" d="M915.193,869.101c1.456,6.344,7.779,10.306,14.123,8.85
				s10.306-7.779,8.85-14.123c-0.728-3.172-2.673-5.748-5.228-7.35v6.763h-15.193v5.86H915.193z"/>
			<path clip-path="url(#SVGID_5_)" fill="#3F85F1" d="M915.323,869.071c1.44,6.272,7.691,10.19,13.963,8.75
				c6.272-1.44,10.19-7.691,8.75-13.963c-0.72-3.136-2.642-5.683-5.169-7.267v6.65h-15.123v5.83H915.323z"/>
			<path clip-path="url(#SVGID_5_)" fill="#3F85F1" d="M915.453,869.042c1.423,6.2,7.603,10.073,13.803,8.65
				c6.2-1.423,10.073-7.603,8.65-13.803c-0.712-3.1-2.612-5.618-5.11-7.184v6.537h-15.052v5.8H915.453z"/>
			<path clip-path="url(#SVGID_5_)" fill="#3F84F1" d="M915.583,869.012c1.407,6.129,7.515,9.957,13.644,8.55
				s9.957-7.515,8.55-13.644c-0.703-3.064-2.582-5.553-5.051-7.101v6.424h-14.981v5.77H915.583z"/>
			<path clip-path="url(#SVGID_5_)" fill="#3F84F1" d="M915.712,868.982c1.39,6.057,7.427,9.84,13.484,8.45
				c6.057-1.39,9.84-7.427,8.45-13.484c-0.695-3.028-2.552-5.488-4.992-7.018v6.311h-14.91v5.74H915.712z"/>
			<path clip-path="url(#SVGID_5_)" fill="#3F84F1" d="M915.842,868.952c1.374,5.985,7.339,9.724,13.324,8.35
				c5.985-1.374,9.724-7.339,8.35-13.324c-0.687-2.993-2.522-5.423-4.933-6.935v6.198h-14.84v5.711H915.842z"/>
			<path clip-path="url(#SVGID_5_)" fill="#3E84F1" d="M915.972,868.922c1.357,5.913,7.251,9.607,13.165,8.25
				s9.607-7.251,8.25-13.165c-0.679-2.957-2.491-5.358-4.874-6.851v6.085h-14.769v5.681H915.972z"/>
			<path clip-path="url(#SVGID_5_)" fill="#3E84F1" d="M916.102,868.893c1.341,5.842,7.163,9.491,13.005,8.15
				c5.842-1.341,9.49-7.163,8.15-13.005c-0.67-2.921-2.461-5.293-4.815-6.768v5.972h-14.698v5.651H916.102z"/>
			<path clip-path="url(#SVGID_5_)" fill="#3E84F1" d="M916.232,868.863c1.324,5.77,7.075,9.374,12.845,8.05
				c5.77-1.324,9.374-7.075,8.05-12.845c-0.662-2.885-2.431-5.229-4.755-6.685v5.859h-14.627v5.621H916.232z"/>
			<path clip-path="url(#SVGID_5_)" fill="#3E84F1" d="M916.362,868.833c1.308,5.698,6.987,9.258,12.686,7.95
				s9.258-6.987,7.95-12.686c-0.654-2.849-2.401-5.164-4.696-6.602v5.747h-14.557v5.591H916.362z"/>
			<path clip-path="url(#SVGID_5_)" fill="#3E84F1" d="M916.492,868.803c1.291,5.627,6.899,9.141,12.526,7.85
				s9.141-6.899,7.85-12.526c-0.646-2.813-2.371-5.099-4.637-6.519v5.634h-7.889v-6.964
				C918.715,857.568,915.2,863.177,916.492,868.803z"/>
			<path clip-path="url(#SVGID_5_)" fill="#3E83F1" d="M916.621,868.773c1.275,5.555,6.812,9.024,12.366,7.75
				c5.555-1.275,9.024-6.812,7.75-12.366c-0.637-2.777-2.34-5.034-4.578-6.436v5.521h-7.788v-6.834
				C918.816,857.682,915.347,863.218,916.621,868.773z"/>
			<path clip-path="url(#SVGID_5_)" fill="#3E83F1" d="M916.751,868.744c1.258,5.483,6.724,8.908,12.207,7.65
				s8.908-6.724,7.65-12.207c-0.629-2.742-2.31-4.969-4.519-6.353v5.408h-7.688v-6.705
				C918.918,857.795,915.493,863.26,916.751,868.744z"/>
			<path clip-path="url(#SVGID_5_)" fill="#3D83F1" d="M916.881,868.714c1.242,5.411,6.636,8.792,12.047,7.55
				c5.411-1.242,8.791-6.636,7.549-12.047c-0.621-2.706-2.28-4.904-4.46-6.27v5.295h-7.587v-6.575
				C919.019,857.909,915.639,863.302,916.881,868.714z"/>
			<path clip-path="url(#SVGID_5_)" fill="#3D83F1" d="M917.011,868.684c1.226,5.34,6.548,8.675,11.887,7.449
				s8.675-6.548,7.449-11.887c-0.613-2.67-2.25-4.839-4.401-6.187v5.182h-7.487v-6.445
				C919.121,858.022,915.785,863.344,917.011,868.684z"/>
			<path clip-path="url(#SVGID_5_)" fill="#3D83F1" d="M917.141,868.654c1.209,5.268,6.46,8.558,11.728,7.349
				c5.268-1.209,8.558-6.46,7.349-11.728c-0.604-2.634-2.219-4.774-4.342-6.104v5.069h-7.386v-6.315
				C919.222,858.135,915.932,863.386,917.141,868.654z"/>
			<path clip-path="url(#SVGID_5_)" fill="#3D83F1" d="M917.271,868.624c1.193,5.196,6.372,8.442,11.568,7.249
				s8.442-6.372,7.249-11.568c-0.596-2.598-2.189-4.709-4.283-6.021v4.956h-7.285v-6.185
				C919.324,858.249,916.078,863.428,917.271,868.624z"/>
			<path clip-path="url(#SVGID_5_)" fill="#3D83F1" d="M917.401,868.594c1.176,5.125,6.284,8.325,11.408,7.149
				c5.125-1.176,8.325-6.284,7.149-11.408c-0.588-2.562-2.159-4.644-4.224-5.937v4.843h-7.185v-6.055
				C919.425,858.362,916.224,863.47,917.401,868.594z"/>
			<path clip-path="url(#SVGID_5_)" fill="#3D83F1" d="M917.53,868.565c1.16,5.053,6.196,8.209,11.249,7.049
				s8.209-6.196,7.049-11.249c-0.58-2.526-2.129-4.579-4.164-5.854v4.731h-7.084v-5.926
				C919.527,858.476,916.371,863.512,917.53,868.565z"/>
			<circle clip-path="url(#SVGID_5_)" fill="#3D83F1" cx="926.679" cy="866.465" r="9.254"/>
			<circle clip-path="url(#SVGID_5_)" fill="#3D83F1" cx="926.679" cy="866.465" r="9.12"/>
			<circle clip-path="url(#SVGID_5_)" fill="#3D83F1" cx="926.679" cy="866.465" r="8.987"/>
			<circle clip-path="url(#SVGID_5_)" fill="#3D83F1" cx="926.679" cy="866.465" r="8.854"/>
			<circle clip-path="url(#SVGID_5_)" fill="#3D83F1" cx="926.679" cy="866.465" r="8.721"/>
			<circle clip-path="url(#SVGID_5_)" fill="#3D83F1" cx="926.679" cy="866.465" r="8.587"/>
			<circle clip-path="url(#SVGID_5_)" fill="#3D83F1" cx="926.679" cy="866.465" r="8.454"/>
			<circle clip-path="url(#SVGID_5_)" fill="#3D83F1" cx="926.679" cy="866.465" r="8.321"/>
			<circle clip-path="url(#SVGID_5_)" fill="#3D84F0" cx="926.679" cy="866.465" r="8.034"/>
			<circle clip-path="url(#SVGID_5_)" fill="#3D85F0" cx="926.679" cy="866.465" r="7.747"/>
			<circle clip-path="url(#SVGID_5_)" fill="#3D86EF" cx="926.679" cy="866.465" r="7.46"/>
			<circle clip-path="url(#SVGID_5_)" fill="#3D88EF" cx="926.679" cy="866.465" r="7.173"/>
			<circle clip-path="url(#SVGID_5_)" fill="#3E89EE" cx="926.679" cy="866.465" r="6.886"/>
			<circle clip-path="url(#SVGID_5_)" fill="#3E8AEE" cx="926.679" cy="866.465" r="6.599"/>
			<circle clip-path="url(#SVGID_5_)" fill="#3E8BED" cx="926.679" cy="866.465" r="6.313"/>
			<circle clip-path="url(#SVGID_5_)" fill="#3E8CED" cx="926.679" cy="866.465" r="6.026"/>
			<circle clip-path="url(#SVGID_5_)" fill="#3E8DEC" cx="926.679" cy="866.465" r="5.739"/>
			<circle clip-path="url(#SVGID_5_)" fill="#3E8EEC" cx="926.679" cy="866.465" r="5.452"/>
			<circle clip-path="url(#SVGID_5_)" fill="#3E8FEC" cx="926.679" cy="866.465" r="5.165"/>
			<circle clip-path="url(#SVGID_5_)" fill="#3E90EB" cx="926.679" cy="866.465" r="4.878"/>
			<circle clip-path="url(#SVGID_5_)" fill="#3E91EB" cx="926.679" cy="866.465" r="4.591"/>
			<circle clip-path="url(#SVGID_5_)" fill="#3F92EA" cx="926.679" cy="866.465" r="4.304"/>
			<circle clip-path="url(#SVGID_5_)" fill="#3F94EA" cx="926.679" cy="866.465" r="4.017"/>
			<circle clip-path="url(#SVGID_5_)" fill="#3F95E9" cx="926.679" cy="866.465" r="3.73"/>
			<circle clip-path="url(#SVGID_5_)" fill="#3F96E9" cx="926.679" cy="866.465" r="3.443"/>
			<circle clip-path="url(#SVGID_5_)" fill="#3F97E8" cx="926.679" cy="866.465" r="3.156"/>
			<circle clip-path="url(#SVGID_5_)" fill="#3F98E8" cx="926.679" cy="866.465" r="2.869"/>
			<circle clip-path="url(#SVGID_5_)" fill="#3F99E7" cx="926.679" cy="866.465" r="2.582"/>
			<circle clip-path="url(#SVGID_5_)" fill="#3F9AE7" cx="926.679" cy="866.465" r="2.295"/>
			<circle clip-path="url(#SVGID_5_)" fill="#3F9BE6" cx="926.679" cy="866.465" r="2.009"/>
			<circle clip-path="url(#SVGID_5_)" fill="#409CE6" cx="926.679" cy="866.465" r="1.722"/>
			<circle clip-path="url(#SVGID_5_)" fill="#409DE6" cx="926.679" cy="866.465" r="1.435"/>
			<circle clip-path="url(#SVGID_5_)" fill="#409EE5" cx="926.679" cy="866.465" r="1.148"/>
			<circle clip-path="url(#SVGID_5_)" fill="#409EE5" cx="926.679" cy="866.465" r="0.861"/>
			<circle clip-path="url(#SVGID_5_)" fill="#409FE4" cx="926.679" cy="866.465" r="0.574"/>
			<circle clip-path="url(#SVGID_5_)" fill="#40A0E4" cx="926.679" cy="866.465" r="0.287"/>
		</g>
	</g>
	<g>
		<path fill="#F7E2FE" d="M936.016,711.017c-3.396,0-6.157-2.762-6.157-6.157s2.762-6.157,6.157-6.157s6.157,2.762,6.157,6.157
			S939.411,711.017,936.016,711.017z M936.016,699.703c-2.844,0-5.157,2.313-5.157,5.157c0,2.844,2.313,5.157,5.157,5.157
			s5.157-2.313,5.157-5.157C941.173,702.017,938.86,699.703,936.016,699.703z"/>
	</g>
	<g opacity="0.35">
		<path fill="#9CCEFF" d="M952.492,860.199c-4.222,0-7.656-3.435-7.656-7.657s3.435-7.657,7.656-7.657
			c4.223,0,7.657,3.435,7.657,7.657S956.715,860.199,952.492,860.199z M952.492,848.885c-2.016,0-3.656,1.641-3.656,3.657
			c0,2.016,1.641,3.657,3.656,3.657c2.017,0,3.657-1.641,3.657-3.657C956.15,850.526,954.509,848.885,952.492,848.885z"/>
	</g>
	<g opacity="0.15">
		<path fill="#9CCEFF" d="M646.632,715.753c-3.946,0-7.157-3.21-7.157-7.157s3.211-7.157,7.157-7.157s7.156,3.211,7.156,7.157
			S650.578,715.753,646.632,715.753z M646.632,704.439c-2.292,0-4.157,1.865-4.157,4.157c0,2.292,1.865,4.157,4.157,4.157
			s4.156-1.865,4.156-4.157C650.788,706.304,648.924,704.439,646.632,704.439z"/>
	</g>
	<g opacity="0.2">
		<path fill="#9CCEFF" d="M773.397,709.326c-5.049,0-9.157-4.108-9.157-9.157c0-5.049,4.108-9.157,9.157-9.157
			s9.156,4.108,9.156,9.157C782.553,705.219,778.446,709.326,773.397,709.326z M773.397,698.012c-1.189,0-2.157,0.968-2.157,2.157
			s0.968,2.157,2.157,2.157c1.188,0,2.156-0.967,2.156-2.157S774.585,698.012,773.397,698.012z"/>
	</g>
	<g>
		<path fill="#D2EAFF" d="M929.923,808.765L929.923,808.765c0.993,0,1.797-0.805,1.797-1.797v-21.566
			c0-0.993-0.805-1.797-1.797-1.797l0,0c-0.993,0-1.797,0.805-1.797,1.797v21.566C928.126,807.961,928.93,808.765,929.923,808.765z"
			/>
	</g>
	<g>
		<path fill="#D2EAFF" d="M883.05,829.582L883.05,829.582c-0.142-0.982-1.053-1.664-2.036-1.522l-21.344,3.084
			c-0.982,0.142-1.664,1.053-1.522,2.036l0,0c0.142,0.982,1.053,1.664,2.036,1.522l21.344-3.084
			C882.51,831.475,883.192,830.564,883.05,829.582z"/>
	</g>
	<g>
		<path fill="#D2EAFF" d="M884.971,690.284L884.971,690.284c0.665-0.737,0.607-1.873-0.13-2.538l-16.012-14.447
			c-0.737-0.665-1.873-0.607-2.538,0.13l0,0c-0.665,0.737-0.607,1.873,0.13,2.538l16.012,14.447
			C883.17,691.079,884.306,691.021,884.971,690.284z"/>
	</g>
	<g>
		<path fill="#F7E2FE" d="M943.806,732.559L943.806,732.559c-0.702-0.702-1.84-0.703-2.542-0.001l-15.25,15.25
			c-0.702,0.702-0.702,1.84,0,2.542h0c0.702,0.702,1.84,0.702,2.542,0l15.249-15.249
			C944.507,734.398,944.508,733.261,943.806,732.559z"/>
	</g>
</g>
</svg>
