<?xml version="1.0" encoding="utf-8"?>
<!-- Svg Vector Icons : http://www.onlinewebfonts.com/icon -->
<!DOCTYPE svg PUBLIC "-//W3C//DTD SVG 1.1//EN" "http://www.w3.org/Graphics/SVG/1.1/DTD/svg11.dtd">
<svg version="1.1" xmlns="http://www.w3.org/2000/svg" xmlns:xlink="http://www.w3.org/1999/xlink" x="0px" y="0px" viewBox="0 0 1000 1000" enable-background="new 0 0 1000 1000" xml:space="preserve">
<metadata> Svg Vector Icons : http://www.onlinewebfonts.com/icon </metadata>
<g><g transform="translate(0.000000,502.000000) scale(0.100000,-0.100000)"><path d="M4719.3,4915.3c-1030.2-68.4-1995.9-441.8-2795.4-1079.1C1204.5,3263.4,643.4,2458,348.3,1572.5C170.4,1040.8,100,602.9,100,20.3c0-582.5,70.4-1018.5,248.3-1554.1C924.9-3256,2398.9-4507.1,4216.9-4817.9c93.8-15.6,308.9-39.1,478.9-50.8c1188.6-80.2,2394.7,301,3366.2,1065.4c199.4,156.4,627.5,590.4,785.9,793.7c502.4,649,828.8,1376.2,973.5,2154.2c187.7,1026.3,37.1,2089.7-430.1,3035.9c-717.4,1454.4-2093.6,2457.2-3690.7,2685.9C5438.7,4905.5,4934.3,4929,4719.3,4915.3z M5403.5,4534.1C7737.6,4321,9528.2,2362.2,9528.2,20.3c0-1043.9-346-2023.3-998.9-2834.5C7180.4-4485.6,4875.7-4988,2961.9-4026.2c-449.6,224.8-785.8,471.1-1165.1,850.4c-406.6,404.6-647.1,742.8-891.4,1251.1C10.1-61.7,498.8,2168.7,2097.8,3501.9c502.4,420.3,1135.8,744.8,1765.2,905.1C4375.2,4538,4893.3,4581,5403.5,4534.1z"/><path d="M6582.2,1859.9c-21.5-21.5-516.1-752.6-1100.6-1628.4c-584.5-873.8-1063.4-1591.2-1067.3-1595.1c-2-3.9-217,242.4-477,547.4c-260,304.9-494.6,572.8-521.9,598.2c-109.5,99.7-299.1,11.7-299.1-140.8c0-64.5,54.7-134.9,590.4-758.5c324.5-379.2,604-699.8,619.7-713.5c46.9-35.2,168.1-31.3,213.1,9.8c21.5,17.6,555.2,805.4,1184.6,1749.6C6754.3,1474.7,6869.6,1654.6,6869.6,1723c0,105.6-66.5,174-172,174C6650.7,1897,6607.7,1883.3,6582.2,1859.9z"/></g></g>
</svg>