<?xml version="1.0" encoding="utf-8"?>
<!-- Generator: Adobe Illustrator 22.1.0, SVG Export Plug-In . SVG Version: 6.00 Build 0)  -->
<svg version="1.1" id="Capa_1" xmlns="http://www.w3.org/2000/svg" xmlns:xlink="http://www.w3.org/1999/xlink" x="0px" y="0px"
	 width="32.002px" height="23.392px" viewBox="0 0 32.002 23.392" enable-background="new 0 0 32.002 23.392" xml:space="preserve">
<g>
	<defs>
		<path id="SVGID_127_" d="M672.405,433.4h-814.513c-20.856,0-37.92-17.064-37.92-37.92V133.975
			c0-11.614,9.502-21.116,21.116-21.116H689.21c11.614,0,21.116,9.502,21.116,21.116V395.48
			C710.326,416.336,693.261,433.4,672.405,433.4z"/>
	</defs>
	<clipPath id="SVGID_2_">
		<use xlink:href="#SVGID_127_"  overflow="visible"/>
	</clipPath>
	<g clip-path="url(#SVGID_2_)">
		
			<image overflow="visible" width="500" height="500" xlink:href="../../PeyGold/Michael-Udine-.png"  transform="matrix(1.7833 0 0 1.7833 -180.0282 -143.5412)">
		</image>
	</g>
</g>
<g>
	<path fill="#FFFFFF" d="M28.611,0H3.391C1.521,0,0,1.521,0,3.391V20c0,1.87,1.521,3.392,3.391,3.392h25.22
		c1.87,0,3.392-1.522,3.392-3.392V3.391C32.002,1.521,30.481,0,28.611,0z M1.402,10.215h9.142v4.907H1.402V10.215z M30.6,20
		c0,1.097-0.892,1.99-1.989,1.99H3.391c-1.097,0-1.989-0.893-1.989-1.99v-3.475h9.2l0.037,0.189c0.35,1.786,1.923,3.083,3.742,3.083
		h2.911c1.819,0,3.393-1.296,3.743-3.083l0.037-0.189H30.6V20z M11.966,15.98V7.411c0-1.331,1.083-2.414,2.414-2.414h2.911
		c1.331,0,2.415,1.083,2.415,2.414v8.569c0,1.331-1.083,2.414-2.415,2.414H14.38C13.049,18.394,11.966,17.311,11.966,15.98z
		 M21.108,15.122v-4.907h9.162v4.907H21.108z M30.6,8.813h-9.492V7.411c0-2.104-1.712-3.816-3.817-3.816H14.38
		c-2.104,0-3.816,1.712-3.816,3.816v1.402H1.402V3.391c0-1.097,0.892-1.989,1.989-1.989h25.22c1.097,0,1.989,0.892,1.989,1.989
		V8.813z"/>
	<path opacity="0.35" fill="#FFFFFF" d="M1.402,10.215h9.142v4.907H1.402V10.215z M30.6,16.525h-9.529l-0.037,0.189
		c-0.35,1.786-1.924,3.083-3.743,3.083H14.38c-1.819,0-3.392-1.296-3.742-3.083l-0.037-0.189h-9.2V20c0,1.097,0.892,1.99,1.989,1.99
		h25.22c1.097,0,1.989-0.893,1.989-1.99V16.525z M14.38,18.394h2.911c1.331,0,2.415-1.083,2.415-2.414V7.411
		c0-1.331-1.083-2.414-2.415-2.414H14.38c-1.331,0-2.414,1.083-2.414,2.414v8.569C11.966,17.311,13.049,18.394,14.38,18.394z
		 M30.27,15.122v-4.907h-9.162v4.907H30.27z M30.6,3.391c0-1.097-0.892-1.989-1.989-1.989H3.391c-1.097,0-1.989,0.892-1.989,1.989
		v5.422h9.162V7.411c0-2.104,1.712-3.816,3.816-3.816h2.911c2.104,0,3.817,1.712,3.817,3.816v1.402H30.6V3.391z"/>
</g>
</svg>
