<?xml version="1.0" encoding="utf-8"?>
<!-- Generator: Adobe Illustrator 23.0.0, SVG Export Plug-In . SVG Version: 6.00 Build 0)  -->
<svg version="1.1" id="Capa_1" xmlns="http://www.w3.org/2000/svg" xmlns:xlink="http://www.w3.org/1999/xlink" x="0px" y="0px"
	 viewBox="0 0 49.9 47.6" style="enable-background:new 0 0 49.9 47.6;" xml:space="preserve">
<style type="text/css">
	.st0{fill:#FFFFFF;}
	.st1{opacity:0.83;enable-background:new    ;}
	.st2{fill:#6C96BC;}
	.st3{fill:#3675BB;}
</style>
<title>Deposito</title>
<path class="st0" d="M48,14.6L48,14.6L27.2,1.2c-0.8-0.5-1.8-0.5-2.6,0L2,14.6c-0.9,0.5-1.3,1.6-1.1,2.6c0.3,1,1.3,1.7,2.3,1.7h43.4
	c1.1,0,2.1-0.7,2.4-1.7C49.3,16.2,48.9,15.1,48,14.6z"/>
<path class="st0" d="M45.5,37.5h-3.6V19.7h-5v17.8h-4.1V19.7h-5v17.8h-4.5V19.7h-5v17.8H13V19.7H8v17.8H4.4c-1.8,0-3.2,1.4-3.2,3.2
	v2c0,1.8,1.4,3.2,3.2,3.2h41.1c1.8,0,3.2-1.4,3.2-3.2v-2C48.7,38.9,47.2,37.5,45.5,37.5C45.5,37.5,45.5,37.5,45.5,37.5z"/>
<g class="st1">
	<path class="st2" d="M47.4,15.6L26.6,2.2c-0.4-0.3-1-0.3-1.4,0L2.6,15.6c-0.5,0.3-0.7,1-0.4,1.6c0.2,0.4,0.7,0.6,1.1,0.6h43.4
		c0.6,0.1,1.2-0.4,1.3-1C48,16.3,47.7,15.8,47.4,15.6z"/>
	<path class="st3" d="M46.8,19.7c-0.1,0-0.1,0-0.2,0H3.3c-1.2,0.1-2.3-0.5-2.9-1.6c-0.9-1.5-0.3-3.4,1.1-4.3L24.1,0.5
		c1.1-0.7,2.4-0.7,3.5,0l20.8,13.4c1,0.6,1.6,1.8,1.5,3.1C49.7,18.5,48.3,19.7,46.8,19.7z M6.3,15.7h37.6l-18-11.6L6.3,15.7z
		 M26.2,3.9L26.2,3.9C26.2,3.9,26.2,3.9,26.2,3.9z"/>
</g>
<g class="st1">
	<path class="st2" d="M4.4,39.5h41c1.1,0,2,0.9,2,2v2c0,1.1-0.9,2-2,2h-41c-1.1,0-2-0.9-2-2v-2C2.4,40.4,3.3,39.5,4.4,39.5z"/>
	<path class="st3" d="M45.5,47.6h-41c-2.2,0-4-1.8-4-4v-2c0-2.2,1.8-4,4-4h41c2.2,0,4,1.8,4,4v2C49.5,45.8,47.7,47.6,45.5,47.6z
		 M4.4,41.5C4.4,41.5,4.4,41.5,4.4,41.5l0,2.1l41.1,0l0-2.1L4.4,41.5z"/>
</g>
<rect x="8" y="19.7" class="st3" width="5" height="17.8"/>
<rect x="18.3" y="19.7" class="st3" width="5" height="17.8"/>
<rect x="27.9" y="19.7" class="st3" width="5" height="17.8"/>
<rect x="36.9" y="19.7" class="st3" width="5" height="17.8"/>
</svg>
