<?xml version="1.0" encoding="utf-8"?>
<!-- Generator: Adobe Illustrator 23.0.0, SVG Export Plug-In . SVG Version: 6.00 Build 0)  -->
<svg version="1.1" id="Capa_1" xmlns="http://www.w3.org/2000/svg" xmlns:xlink="http://www.w3.org/1999/xlink" x="0px" y="0px"
	 viewBox="0 0 48.67 62.61" style="enable-background:new 0 0 48.67 62.61;" xml:space="preserve">
<style type="text/css">
	.st0{fill:#B2B2B2;}
	.st1{opacity:0.83;fill:#6C96BC;stroke:#3675BB;stroke-width:4;stroke-miterlimit:10;}
	.st2{fill:none;stroke:#3675BB;stroke-width:20;stroke-linecap:round;stroke-linejoin:round;stroke-miterlimit:10;}
	.st3{fill:#3675BB;stroke:#3675BB;stroke-width:10;stroke-linecap:round;stroke-linejoin:round;stroke-miterlimit:10;}
	.st4{fill:#3675BB;}
	.st5{fill:none;stroke:#3675BB;stroke-width:3;stroke-miterlimit:10;}
	.st6{fill:#825A20;}
	.st7{fill:#A97728;}
	.st8{fill:#F2E887;}
	.st9{fill:#D1B35D;}
	.st10{fill:#DFC96D;}
	.st11{fill:#EFC981;}
	.st12{fill:#33140E;}
	.st13{fill:#512115;}
	.st14{fill:#BA913E;}
	.st15{fill:#36A9E1;}
	.st16{fill:#1D71B8;}
	.st17{fill:#4398D4;}
	.st18{fill:#007FC8;}
	.st19{fill:#4853A0;}
	.st20{fill:#6DC1B3;}
	.st21{fill:#59C2DB;}
	.st22{fill:#432918;}
	.st23{fill:#683C11;}
	.st24{fill:#009640;}
	.st25{fill:none;stroke:#3675BB;stroke-width:4;stroke-linecap:round;stroke-linejoin:round;stroke-miterlimit:10;}
	.st26{fill:#FFFFFF;}
	.st27{opacity:0.65;}
	.st28{opacity:0.83;}
	.st29{fill:#6C96BC;}
	.st30{fill:#6C96BC;stroke:#3675BB;stroke-width:4;stroke-miterlimit:10;}
	.st31{opacity:0.47;fill:#3675BB;}
	.st32{fill:#6CBA8F;}
	.st33{fill:#009E3F;}
	.st34{opacity:0.72;fill:#6C96BC;stroke:#3675BB;stroke-width:4;stroke-miterlimit:10;}
	.st35{opacity:0.72;}
	.st36{fill:#FFFFFF;stroke:#FFFFFF;stroke-width:3;stroke-linecap:round;stroke-linejoin:round;stroke-miterlimit:10;}
	.st37{opacity:0.83;fill:#6C96BC;stroke:#3675BB;stroke-width:8;stroke-linecap:round;stroke-linejoin:round;stroke-miterlimit:10;}
	.st38{fill:none;}
	.st39{opacity:0.83;fill:#3675BB;}
	.st40{fill:#F6F6F6;}
	.st41{fill:#009E3F;stroke:#009E3F;stroke-miterlimit:10;}
	.st42{opacity:0.83;fill:none;stroke:#3675BB;stroke-width:4;stroke-linecap:round;stroke-linejoin:round;stroke-miterlimit:10;}
	.st43{opacity:0.83;fill:#6C96BC;}
	.st44{fill:#B76C6C;}
	.st45{fill:#AD2923;}
	.st46{fill:none;stroke:#3675BB;stroke-width:4;stroke-miterlimit:10;}
	.st47{fill:none;stroke:#3675BB;stroke-width:8.5;stroke-linecap:round;stroke-linejoin:round;stroke-miterlimit:10;}
	.st48{fill:none;stroke:#F6F6F6;stroke-width:8.5;stroke-linecap:round;stroke-linejoin:round;stroke-miterlimit:10;}
	.st49{fill:#575756;}
</style>
<g>
	<path class="st29" d="M41.43,26.86H7.25C5.46,26.86,4,28.31,4,30.1v25.26c0,1.79,1.46,3.25,3.25,3.25h34.18
		c1.79,0,3.25-1.46,3.25-3.25V30.1C44.67,28.31,43.22,26.86,41.43,26.86z"/>
	<path class="st39" d="M41.43,22.86H10.17v-7.12c0-3.4,1.65-6.61,4.53-8.79C17.28,4.99,20.52,4,24.34,4c3.11,0,5.84,0.66,8.15,1.97
		c0.89,0.5,2,0.31,2.62-0.5l0,0c0.74-0.97,0.43-2.36-0.63-2.97C31.57,0.84,28.17,0,24.34,0c-4.71,0-8.76,1.27-12.06,3.76
		C8.4,6.71,6.17,11.08,6.17,15.74v7.2C2.68,23.47,0,26.47,0,30.1v25.26c0,4,3.24,7.25,7.25,7.25h34.18c4,0,7.25-3.24,7.25-7.25V30.1
		C48.67,26.1,45.43,22.86,41.43,22.86z M44.67,55.36c0,1.79-1.46,3.25-3.25,3.25H7.25C5.46,58.61,4,57.15,4,55.36V30.1
		c0-1.79,1.46-3.25,3.25-3.25h34.18c1.79,0,3.25,1.46,3.25,3.25V55.36z"/>
	<g>
		<ellipse class="st4" cx="24.34" cy="42.73" rx="4.95" ry="4.84"/>
	</g>
</g>
</svg>
