<svg id="Capa_1" data-name="Capa 1" xmlns="http://www.w3.org/2000/svg" viewBox="0 0 61.6 61.6"><defs><style>.cls-1{fill:#828282;}.cls-2{fill:#f6f6f6;}</style></defs><title>editar</title><circle class="cls-1" cx="30.8" cy="30.8" r="30.8"/><path class="cls-2" d="M20,42.77l-.17-.16a6.36,6.36,0,0,1-3-1.78,6.35,6.35,0,0,1-1.78-3L15,37.78l-1.3,9.82a.8.8,0,0,0,.9.9L24,47.26a7.25,7.25,0,0,1-2.19-1.51A6.43,6.43,0,0,1,20,42.77Z"/><path class="cls-2" d="M49.27,18.22l-5.49-5.5a2.64,2.64,0,0,0-3.73,0l-23.7,23.7.07.07a6.36,6.36,0,0,0,1.78,3,6.55,6.55,0,0,0,2.19,1.46c0-.11,0-.24.13-.33L41.71,19.41a.92.92,0,0,1,1.3,1.3L21.83,41.9c-.07.07-.17.06-.25.1a6.67,6.67,0,0,0,1.54,2.39,7.44,7.44,0,0,0,2.19,1.51l24-24A2.63,2.63,0,0,0,49.27,18.22Z"/></svg>