<svg id="Capa_1" data-name="Capa 1" xmlns="http://www.w3.org/2000/svg" viewBox="0 0 78.88 49.32"><defs><style>.cls-1{fill:#fff;}.cls-2{opacity:0.83;}.cls-3{fill:#6c96bc;}.cls-4{fill:#3675bb;}</style></defs><title>Iconos</title><rect class="cls-1" x="60.85" y="43.33" width="17.57" height="5.99" rx="1.39"/><path class="cls-1" d="M62,40.66H76.8s.54-12.23,1.55-18,1-6.31-3.79-11.09S67.2,4.71,67.2,4.71v0l-.39-.34A6.71,6.71,0,0,0,60.56,0h-.4A14.58,14.58,0,0,0,58,0H9.3A14.58,14.58,0,0,0,7.11,0H6.75A6.77,6.77,0,0,0,0,6.88V25a13.68,13.68,0,0,0,0,2.12v.42a6.77,6.77,0,0,0,6.71,6.84H60.56a7,7,0,0,0,1.31-.13A55.2,55.2,0,0,1,62,40.66Zm5.65-19.43-.4.37V14.4C67.61,15.44,69,19.94,67.67,21.23Z"/><g class="cls-2"><path class="cls-3" d="M6.75,33.2a5.65,5.65,0,0,1-5.58-5.71V6.88a5.64,5.64,0,0,1,5.58-5.7H60.56a5.64,5.64,0,0,1,5.58,5.7V27.49a5.65,5.65,0,0,1-5.58,5.71Z"/><path class="cls-4" d="M60.56,2.31A4.52,4.52,0,0,1,65,6.88V27.49a4.52,4.52,0,0,1-4.45,4.57H6.75A4.52,4.52,0,0,1,2.3,27.49V6.88A4.52,4.52,0,0,1,6.75,2.31H60.56m0-2.27H6.75A6.77,6.77,0,0,0,0,6.88V27.49a6.77,6.77,0,0,0,6.71,6.84H60.56a6.77,6.77,0,0,0,6.71-6.84V6.88A6.77,6.77,0,0,0,60.56,0Z"/><path class="cls-4" d="M2.36,1.81h0A4.43,4.43,0,0,0,1.38,3l0,0A7.74,7.74,0,0,0,0,6.91v2.6h5A4.29,4.29,0,0,0,9.3,5.18V0S4.54-.44,2.36,1.81Z"/><path class="cls-4" d="M1.78,32h0a4.23,4.23,0,0,0,1.15,1l0,0a7.48,7.48,0,0,0,3.9,1.34H9.34v-5.1a4.3,4.3,0,0,0-4.26-4.34H0S-.43,29.74,1.78,32Z"/><path class="cls-4" d="M64.91,1.81h0A4.46,4.46,0,0,1,65.9,3l0,0a7.8,7.8,0,0,1,1.32,4v2.6h-5A4.3,4.3,0,0,1,58,5.18V0S62.73-.44,64.91,1.81Z"/><path class="cls-4" d="M65.5,32h0a4.23,4.23,0,0,1-1.15,1l0,0a7.48,7.48,0,0,1-3.9,1.34H57.94v-5.1a4.29,4.29,0,0,1,4.25-4.34h5S67.7,29.74,65.5,32Z"/></g><rect class="cls-4" x="60.85" y="43.33" width="17.57" height="5.99" rx="1.39"/><path class="cls-4" d="M74.56,11.59c-4.8-4.78-7.36-6.88-7.36-6.88v9.47s1.94,5.59.47,7.05-3.18,3-9.91-2c-3.32-2.47-5.06-3.35-6.21-3.43h0a2.08,2.08,0,0,0-.92.12A3.29,3.29,0,0,0,48,18.15a2.7,2.7,0,0,0-.18,1,1.16,1.16,0,0,0,0,.13h0a5.73,5.73,0,0,0,2.5,4.23c2.09,1.38,10.52,6.8,11.22,9s.47,8.18.47,8.18H76.8s.54-12.23,1.55-18S79.36,16.37,74.56,11.59Z"/><circle class="cls-1" cx="33.64" cy="17.16" r="9.92"/><path class="cls-4" d="M33.64,8.23a8.94,8.94,0,1,1-8.93,8.93,8.93,8.93,0,0,1,8.93-8.93m0-2A10.92,10.92,0,1,0,44.55,17.16,10.93,10.93,0,0,0,33.64,6.25Z"/><path class="cls-4" d="M34.19,22.29v1.22h-1V22.28A3.1,3.1,0,0,1,30.15,19h2.24a1,1,0,0,0,.82,1V18.15c-1.33-.46-2.87-1.09-2.87-3.09a2.91,2.91,0,0,1,2.87-2.92V10.91h1v1.23a3.06,3.06,0,0,1,2.86,3.25H34.87a.94.94,0,0,0-.68-1V16.3c1.35.46,3,1,3,3.07A3,3,0,0,1,34.19,22.29Zm-1-6.39V14.36a.72.72,0,0,0-.63.7A1,1,0,0,0,33.21,15.9ZM35,19.37c0-.4-.3-.65-.76-.86v1.57C34.72,20,35,19.69,35,19.37Z"/><path class="cls-4" d="M67.23,6.26l.72,0,.49-.41L66.78,4.36A7.23,7.23,0,0,1,67.23,6.26Z"/></svg>