<svg id="Capa_1" data-name="Capa 1" xmlns="http://www.w3.org/2000/svg" viewBox="0 0 71.18 71.18"><defs><style>.cls-1{fill:#fff;}.cls-2{opacity:0.83;}.cls-3{fill:#9e1915;}</style></defs><title>Manual colores</title><path class="cls-1" d="M71.18,35.59A35.59,35.59,0,1,1,35.59,0,35.58,35.58,0,0,1,71.18,35.59"/><g class="cls-2"><path class="cls-3" d="M40.68,35.59,53.55,22.31a3.66,3.66,0,0,0-5.26-5.09L35.59,30.34,22.89,17.22a3.66,3.66,0,0,0-5.25,5.09L30.5,35.59,17.64,48.87A3.66,3.66,0,0,0,22.89,54l12.7-13.12L48.29,54a3.67,3.67,0,0,0,2.63,1.11,3.62,3.62,0,0,0,2.54-1,3.66,3.66,0,0,0,.09-5.17Z"/></g></svg>