<svg id="Capa_1" data-name="Capa 1" xmlns="http://www.w3.org/2000/svg" viewBox="0 0 53.37 53.37"><defs><style>.cls-1,.cls-3{fill:#3675bb;}.cls-1{opacity:0.83;}.cls-2{fill:#6c96bc;}</style></defs><title>finalizar</title><path class="cls-1" d="M26.69,0A26.69,26.69,0,1,0,53.37,26.69,26.69,26.69,0,0,0,26.69,0Zm0,49.37A22.69,22.69,0,1,1,49.37,26.69,22.71,22.71,0,0,1,26.69,49.37Z"/><circle class="cls-2" cx="26.69" cy="26.69" r="22.69" transform="translate(-11.05 26.69) rotate(-45)"/><path class="cls-3" d="M29.47,26.69l8.64-9A2,2,0,1,0,35.24,15l-8.55,8.86L18.13,15a2,2,0,1,0-2.87,2.78l8.65,9-8.65,9A2,2,0,0,0,16.7,39a2,2,0,0,0,1.43-.61l8.56-8.85,8.55,8.85a2,2,0,0,0,1.44.61,2,2,0,0,0,1.43-3.39Z"/></svg>