<?xml version="1.0" encoding="utf-8"?>
<!-- Generator: Adobe Illustrator 23.0.0, SVG Export Plug-In . SVG Version: 6.00 Build 0)  -->
<svg version="1.1" id="Capa_1" xmlns="http://www.w3.org/2000/svg" xmlns:xlink="http://www.w3.org/1999/xlink" x="0px" y="0px"
	 viewBox="0 0 952 324.76" style="enable-background:new 0 0 952 324.76;" xml:space="preserve">
<style type="text/css">
	.st0{clip-path:url(#SVGID_2_);fill:url(#SVGID_3_);}
	.st1{opacity:0.17;clip-path:url(#SVGID_2_);}
	.st2{fill:none;stroke:#007FC8;stroke-miterlimit:10;}
	.st3{fill:none;stroke:#007DC5;stroke-miterlimit:10;}
	.st4{fill:none;stroke:#007BC3;stroke-miterlimit:10;}
	.st5{fill:none;stroke:#0079C1;stroke-miterlimit:10;}
	.st6{fill:none;stroke:#0077BE;stroke-miterlimit:10;}
	.st7{fill:none;stroke:#0075BC;stroke-miterlimit:10;}
	.st8{fill:none;stroke:#0073B9;stroke-miterlimit:10;}
	.st9{fill:none;stroke:#0070B7;stroke-miterlimit:10;}
	.st10{fill:none;stroke:#006EB4;stroke-miterlimit:10;}
	.st11{fill:none;stroke:#006CB2;stroke-miterlimit:10;}
	.st12{fill:none;stroke:#006AB0;stroke-miterlimit:10;}
	.st13{fill:none;stroke:#0068AD;stroke-miterlimit:10;}
	.st14{fill:none;stroke:#0066AB;stroke-miterlimit:10;}
	.st15{fill:none;stroke:#0063A8;stroke-miterlimit:10;}
	.st16{fill:none;stroke:#0061A6;stroke-miterlimit:10;}
	.st17{fill:none;stroke:#005FA4;stroke-miterlimit:10;}
	.st18{fill:none;stroke:#005DA1;stroke-miterlimit:10;}
	.st19{fill:none;stroke:#005A9F;stroke-miterlimit:10;}
	.st20{fill:none;stroke:#00589D;stroke-miterlimit:10;}
	.st21{fill:none;stroke:#00569A;stroke-miterlimit:10;}
	.st22{fill:none;stroke:#005498;stroke-miterlimit:10;}
	.st23{fill:none;stroke:#005296;stroke-miterlimit:10;}
	.st24{fill:none;stroke:#005094;stroke-miterlimit:10;}
	.st25{fill:none;stroke:#004E92;stroke-miterlimit:10;}
	.st26{fill:none;stroke:#004B90;stroke-miterlimit:10;}
	.st27{fill:none;stroke:#00498D;stroke-miterlimit:10;}
	.st28{fill:none;stroke:#00478B;stroke-miterlimit:10;}
	.st29{fill:none;stroke:#004589;stroke-miterlimit:10;}
	.st30{fill:none;stroke:#004387;stroke-miterlimit:10;}
	.st31{fill:none;stroke:#034185;stroke-miterlimit:10;}
	.st32{fill:none;stroke:#0A3F83;stroke-miterlimit:10;}
	.st33{fill:none;stroke:#0F3D81;stroke-miterlimit:10;}
	.st34{clip-path:url(#SVGID_2_);}
	.st35{fill:#0F3D81;}
	.st36{fill:#0E3D81;}
	.st37{fill:#0D3E82;}
	.st38{fill:#0B3E82;}
	.st39{fill:#0A3F83;}
	.st40{fill:#083F84;}
	.st41{fill:#064084;}
	.st42{fill:#054085;}
	.st43{fill:#034185;}
	.st44{fill:#014186;}
	.st45{fill:#004286;}
	.st46{fill:#004387;}
	.st47{fill:#004488;}
	.st48{fill:#004589;}
	.st49{fill:#00468A;}
	.st50{fill:#00468B;}
	.st51{fill:#00478B;}
	.st52{fill:#00478C;}
	.st53{fill:#00488C;}
	.st54{fill:#00488D;}
	.st55{fill:#00498D;}
	.st56{fill:#00498E;}
	.st57{fill:#004A8E;}
	.st58{fill:#004B8F;}
	.st59{fill:#004C90;}
	.st60{fill:#004D91;}
	.st61{fill:#004D92;}
	.st62{fill:#004E92;}
	.st63{fill:#004F93;}
	.st64{fill:#005094;}
	.st65{fill:#005195;}
	.st66{fill:#005296;}
	.st67{fill:#005297;}
	.st68{fill:#005397;}
	.st69{fill:#005498;}
	.st70{fill:#005599;}
	.st71{fill:#00569A;}
	.st72{fill:#00569B;}
	.st73{fill:#00579B;}
	.st74{fill:#00579C;}
	.st75{fill:#00589C;}
	.st76{fill:#00599D;}
	.st77{fill:#005A9E;}
	.st78{fill:#005A9F;}
	.st79{fill:#005B9F;}
	.st80{fill:#005BA0;}
	.st81{fill:#005CA0;}
	.st82{fill:#005CA1;}
	.st83{fill:#005DA1;}
	.st84{fill:#005DA2;}
	.st85{fill:#005EA3;}
	.st86{fill:#005FA3;}
	.st87{fill:#005FA4;}
	.st88{fill:#0060A5;}
	.st89{fill:#0061A6;}
	.st90{fill:#0062A7;}
	.st91{fill:#0063A8;}
	.st92{fill:#0064A9;}
	.st93{fill:#0065AA;}
	.st94{fill:#0065AB;}
	.st95{fill:#0066AB;}
	.st96{fill:#0067AC;}
	.st97{fill:#0067AD;}
	.st98{fill:#0068AD;}
	.st99{fill:#0068AE;}
	.st100{fill:#0069AE;}
	.st101{fill:#0069AF;}
	.st102{fill:#006AB0;}
	.st103{fill:#006BB1;}
	.st104{fill:#006CB1;}
	.st105{fill:#006CB2;}
	.st106{fill:#006DB3;}
	.st107{fill:#006EB4;}
	.st108{fill:#006EB5;}
	.st109{fill:#006FB5;}
	.st110{fill:#0070B6;}
	.st111{fill:#0071B7;}
	.st112{fill:#0071B8;}
	.st113{fill:#0072B8;}
	.st114{fill:#0072B9;}
	.st115{fill:#0073BA;}
	.st116{fill:#0074BB;}
	.st117{fill:#0075BB;}
	.st118{fill:#0075BC;}
	.st119{fill:#0076BD;}
	.st120{fill:#0077BE;}
	.st121{fill:#0077BF;}
	.st122{fill:#0078BF;}
	.st123{fill:#0078C0;}
	.st124{fill:#0079C0;}
	.st125{fill:#007AC1;}
	.st126{fill:#007AC2;}
	.st127{fill:#007BC2;}
	.st128{fill:#007BC3;}
	.st129{fill:#007CC4;}
	.st130{fill:#007DC5;}
	.st131{fill:#007EC6;}
	.st132{fill:#007EC7;}
	.st133{fill:#007FC7;}
	.st134{fill:#007FC8;}
	.st135{opacity:0.56;clip-path:url(#SVGID_2_);fill:url(#SVGID_4_);}
	.st136{filter:url(#Adobe_OpacityMaskFilter);}
	.st137{mask:url(#SVGID_5_);}
	.st138{fill:url(#SVGID_6_);}
	.st139{filter:url(#Adobe_OpacityMaskFilter_1_);}
	.st140{mask:url(#SVGID_7_);}
	.st141{fill:url(#SVGID_8_);}
	.st142{opacity:0.44;clip-path:url(#SVGID_2_);}
	.st143{clip-path:url(#SVGID_2_);fill:url(#SVGID_9_);}
	.st144{opacity:0.56;clip-path:url(#SVGID_2_);}
	.st145{filter:url(#Adobe_OpacityMaskFilter_2_);}
	.st146{mask:url(#SVGID_10_);}
	.st147{fill:url(#SVGID_11_);}
	.st148{opacity:0.38;clip-path:url(#SVGID_2_);}
	.st149{filter:url(#Adobe_OpacityMaskFilter_3_);}
	.st150{mask:url(#SVGID_12_);}
	.st151{fill:url(#SVGID_13_);}
	.st152{opacity:0.56;clip-path:url(#SVGID_2_);fill:url(#SVGID_14_);}
	.st153{opacity:0.64;clip-path:url(#SVGID_2_);}
	.st154{filter:url(#Adobe_OpacityMaskFilter_4_);}
	.st155{mask:url(#SVGID_15_);}
	.st156{fill:url(#SVGID_16_);}
	.st157{opacity:0.56;clip-path:url(#SVGID_2_);fill:url(#SVGID_17_);}
	.st158{opacity:0.7;clip-path:url(#SVGID_2_);}
	.st159{filter:url(#Adobe_OpacityMaskFilter_5_);}
	.st160{mask:url(#SVGID_18_);}
	.st161{fill:url(#SVGID_19_);}
	.st162{clip-path:url(#SVGID_2_);fill:url(#SVGID_20_);}
	.st163{clip-path:url(#SVGID_2_);fill:url(#SVGID_21_);}
	.st164{filter:url(#Adobe_OpacityMaskFilter_6_);}
	.st165{mask:url(#SVGID_22_);}
	.st166{fill:url(#SVGID_23_);}
	.st167{opacity:0.56;clip-path:url(#SVGID_2_);fill:url(#SVGID_24_);}
	.st168{clip-path:url(#SVGID_2_);fill:url(#SVGID_25_);}
	.st169{clip-path:url(#SVGID_2_);fill:url(#SVGID_26_);}
	.st170{opacity:0.56;clip-path:url(#SVGID_2_);fill:url(#SVGID_27_);}
	.st171{fill:#FFFFFF;}
	.st172{clip-path:url(#SVGID_29_);}
	.st173{fill:url(#SVGID_30_);}
	.st174{clip-path:url(#SVGID_32_);fill:url(#SVGID_33_);}
	.st175{clip-path:url(#SVGID_32_);}
	.st176{filter:url(#Adobe_OpacityMaskFilter_7_);}
	.st177{mask:url(#SVGID_34_);}
	.st178{fill:url(#SVGID_35_);}
	.st179{opacity:0.28;clip-path:url(#SVGID_32_);}
	.st180{fill:none;stroke:#074084;stroke-miterlimit:10;}
	.st181{fill:none;stroke:#00468A;stroke-miterlimit:10;}
	.st182{fill:none;stroke:#004C90;stroke-miterlimit:10;}
	.st183{fill:none;stroke:#004F94;stroke-miterlimit:10;}
	.st184{fill:none;stroke:#005397;stroke-miterlimit:10;}
	.st185{fill:none;stroke:#00599D;stroke-miterlimit:10;}
	.st186{fill:none;stroke:#005CA1;stroke-miterlimit:10;}
	.st187{fill:none;stroke:#0069AF;stroke-miterlimit:10;}
	.st188{fill:none;stroke:#0070B6;stroke-miterlimit:10;}
	.st189{fill:none;stroke:#0073BA;stroke-miterlimit:10;}
	.st190{fill:none;stroke:#0076BD;stroke-miterlimit:10;}
	.st191{fill:none;stroke:#007CC4;stroke-miterlimit:10;}
	.st192{filter:url(#Adobe_OpacityMaskFilter_8_);}
	.st193{mask:url(#SVGID_36_);}
	.st194{fill:url(#SVGID_37_);}
	.st195{opacity:0.56;clip-path:url(#SVGID_32_);fill:url(#SVGID_38_);}
	.st196{fill:url(#SVGID_39_);}
	.st197{fill:#4853A0;}
	.st198{fill:#3675BB;}
	.st199{fill:#4397D3;}
	.st200{clip-path:url(#SVGID_41_);}
	.st201{fill:none;stroke:#4397D3;stroke-miterlimit:10;}
	.st202{fill:none;stroke:#4395D1;stroke-miterlimit:10;}
	.st203{fill:none;stroke:#4393D0;stroke-miterlimit:10;}
	.st204{fill:none;stroke:#4391CE;stroke-miterlimit:10;}
	.st205{fill:none;stroke:#438FCD;stroke-miterlimit:10;}
	.st206{fill:none;stroke:#438DCB;stroke-miterlimit:10;}
	.st207{fill:none;stroke:#448ACA;stroke-miterlimit:10;}
	.st208{fill:none;stroke:#4488C8;stroke-miterlimit:10;}
	.st209{fill:none;stroke:#4486C6;stroke-miterlimit:10;}
	.st210{fill:none;stroke:#4484C5;stroke-miterlimit:10;}
	.st211{fill:none;stroke:#4482C3;stroke-miterlimit:10;}
	.st212{fill:none;stroke:#447FC1;stroke-miterlimit:10;}
	.st213{fill:none;stroke:#447DC0;stroke-miterlimit:10;}
	.st214{fill:none;stroke:#447BBE;stroke-miterlimit:10;}
	.st215{fill:none;stroke:#4579BD;stroke-miterlimit:10;}
	.st216{fill:none;stroke:#4577BB;stroke-miterlimit:10;}
	.st217{fill:none;stroke:#4575B9;stroke-miterlimit:10;}
	.st218{fill:none;stroke:#4572B8;stroke-miterlimit:10;}
	.st219{fill:none;stroke:#4570B6;stroke-miterlimit:10;}
	.st220{fill:none;stroke:#466EB4;stroke-miterlimit:10;}
	.st221{fill:none;stroke:#466CB2;stroke-miterlimit:10;}
	.st222{fill:none;stroke:#4669B1;stroke-miterlimit:10;}
	.st223{fill:none;stroke:#4667AF;stroke-miterlimit:10;}
	.st224{fill:none;stroke:#4665AE;stroke-miterlimit:10;}
	.st225{fill:none;stroke:#4663AC;stroke-miterlimit:10;}
	.st226{fill:none;stroke:#4761AA;stroke-miterlimit:10;}
	.st227{fill:none;stroke:#475FA9;stroke-miterlimit:10;}
	.st228{fill:none;stroke:#475CA7;stroke-miterlimit:10;}
	.st229{fill:none;stroke:#475AA5;stroke-miterlimit:10;}
	.st230{fill:none;stroke:#4758A3;stroke-miterlimit:10;}
	.st231{fill:none;stroke:#4856A2;stroke-miterlimit:10;}
	.st232{fill:none;stroke:#4853A0;stroke-miterlimit:10;}
</style>
<g>
	<defs>
		<rect id="SVGID_40_" width="952" height="324.76"/>
	</defs>
	<clipPath id="SVGID_2_">
		<use xlink:href="#SVGID_40_"  style="overflow:visible;"/>
	</clipPath>
	<g class="st34">
		<path class="st201" d="M-5.11,324.76c0,0,64.09-307.33,203.05-233.12s221.21,158.93,343.51,119.7S609.76,41.4,702.64,18.59
			s153.29,293.6,243.49,284.15"/>
		<path class="st202" d="M-5.46,317.47c0,0,62.35-297.23,200.82-223.41s223.81,150.25,345.64,112.62
			c120.47-37.21,72.78-161.38,165.1-183.7s150.03,280.11,242.73,270.75"/>
		<path class="st203" d="M-5.82,310.18c0,0,60.61-287.14,198.59-213.7s226.4,141.55,347.76,105.53
			C659.16,166.81,617.78,49.2,709.54,27.38S856.3,293.99,951.51,284.72"/>
		<path class="st204" d="M-6.18,302.89c0,0,58.87-277.05,196.36-203.99s228.97,132.85,349.88,98.45
			C656.84,164.12,621.8,53.1,712.99,31.77S856.48,284.89,954.2,275.72"/>
		<path class="st205" d="M-6.54,295.6c0,0,57.13-266.96,194.13-194.28s231.53,124.14,352.01,91.36
			C654.51,161.42,625.81,57,716.44,36.16s140.23,239.63,240.45,230.54"/>
		<path class="st206" d="M-6.89,288.3c0,0,55.39-256.87,191.9-184.57s234.08,115.41,354.13,84.28
			C652.17,158.7,629.82,60.9,719.89,40.56S856.85,266.69,959.58,257.7"/>
		<path class="st207" d="M-7.25,281.01c0,0,53.66-246.77,189.67-174.87s236.61,106.68,356.25,77.2
			C649.82,155.96,633.83,64.8,723.34,44.95s133.69,212.64,238.93,203.74"/>
		<path class="st208" d="M-7.61,273.72c0,0,51.92-236.68,187.44-165.16s239.13,97.93,358.38,70.11
			C647.45,153.19,637.84,68.7,726.79,49.34s130.43,199.15,238.17,190.34"/>
		<path class="st209" d="M-7.97,266.43c0,0,50.18-226.59,185.21-155.45s241.64,89.16,360.5,63.03
			C645.08,150.41,641.85,72.6,730.24,53.74S857.4,239.39,967.65,230.67"/>
		<path class="st210" d="M-8.32,259.14c0,0,48.44-216.5,182.98-145.74s244.14,80.38,362.63,55.94
			c105.4-21.74,108.58-92.84,196.4-111.21s123.89,172.16,236.65,163.54"/>
		<path class="st211" d="M-8.68,251.85c0,0,46.7-206.4,180.75-136.03s246.63,71.58,364.75,48.86
			c103.47-19.9,113.05-84.27,200.32-102.15s120.63,158.66,235.89,150.13"/>
		<path class="st212" d="M-9.04,244.55c0,0,44.96-196.31,178.53-126.32s249.1,62.76,366.87,41.77
			c101.52-18.09,117.53-75.71,204.23-93.09s117.36,145.17,235.13,136.73"/>
		<path class="st213" d="M-9.39,237.26c0,0,43.22-186.22,176.3-116.62s251.57,53.92,369,34.69c99.57-16.3,122-67.14,208.14-84.02
			s114.1,131.67,234.37,123.33"/>
		<path class="st214" d="M-9.75,229.97c0,0,41.48-176.13,174.07-106.91s254.02,45.05,371.12,27.6
			c97.6-14.54,126.48-58.57,212.06-74.96S858.32,193.89,981.1,185.63"/>
		<path class="st215" d="M-10.11,222.68c0,0,39.74-166.03,171.84-97.2S418.2,161.64,534.97,146c95.63-12.81,130.95-50,215.97-65.9
			s107.56,104.69,232.85,96.53"/>
		<path class="st216" d="M-10.47,215.39c0,0,38-155.94,169.61-87.49s258.9,27.24,375.37,13.44c93.65-11.1,135.43-41.44,219.88-56.84
			s104.3,91.19,232.09,83.12"/>
		<path class="st217" d="M-10.82,208.1c0,0,36.26-145.85,167.38-77.78s261.33,18.29,377.49,6.35
			c91.66-9.42,139.9-32.87,223.79-47.78s101.03,77.7,231.33,69.72"/>
		<path class="st218" d="M-11.18,200.81c0,0,34.52-135.76,165.15-68.07s263.75,9.31,379.62-0.73
			c89.67-7.77,144.38-24.3,227.71-38.72s97.76,64.2,230.57,56.32"/>
		<path class="st219" d="M-11.54,193.51c0,0,32.78-125.67,162.92-58.37s266.17,0.29,381.74-7.82
			c87.67-6.15,148.85-15.74,231.62-29.66s94.5,50.71,229.81,42.92"/>
		<path class="st220" d="M-11.9,186.22c0,0,31.04-115.57,160.69-48.66s268.58-8.76,383.86-14.9c85.67-4.56,153.33-7.17,235.53-20.6
			s91.23,37.22,229.05,29.52"/>
		<path class="st221" d="M-12.25,178.93c0,0,29.3-105.48,158.46-38.95s271.6-9.43,385.99-21.99c83.22-9.14,157.8,1.4,239.45-11.53
			s87.96,23.72,228.29,16.11"/>
		<path class="st222" d="M-12.61,171.64c0,0,27.56-95.39,156.23-29.24s273.85-18.74,388.11-29.07
			c81.35-7.35,162.27,9.97,243.36-2.47s84.7,10.23,227.53,2.71"/>
		<path class="st223" d="M-12.97,164.35c0,0,25.82-85.3,154-19.53s276.09-28.2,390.23-36.15c79.48-5.54,166.75,18.53,247.27,6.59
			s81.43-3.27,226.77-10.69"/>
		<path class="st224" d="M-13.33,157.06c0,0,24.08-75.2,151.77-9.83s278.34-37.81,392.36-43.24c77.61-3.69,171.22,27.1,251.18,15.65
			s78.17-16.76,226.01-24.09"/>
		<path class="st225" d="M-13.68,149.76c0,0,22.34-65.11,149.55-0.12s280.66-54.73,394.48-50.32c75.69,2.93,175.7,35.67,255.1,24.71
			s74.9-30.26,225.25-37.49"/>
		<path class="st226" d="M-14.04,142.47c0,0,20.6-55.02,147.32,9.59s283.1-64.08,396.61-57.41c73.71,4.33,180.17,44.24,259.01,33.77
			s71.63-43.75,224.49-50.9"/>
		<path class="st227" d="M-14.4,135.18c0,0,18.86-44.93,145.09,19.3s285.56-73.5,398.73-64.49c71.74,5.71,184.65,52.8,262.92,42.83
			c78.28-9.97,68.37-57.24,223.73-64.3"/>
		<path class="st228" d="M-14.75,127.89c0,0,17.12-34.83,142.86,29.01s288.04-82.98,400.85-71.58
			c69.79,7.06,189.12,61.37,266.84,51.9s65.1-70.74,222.97-77.7"/>
		<path class="st229" d="M-15.11,120.6c0,0,15.38-24.74,140.63,38.72s290.54-92.53,402.98-78.66
			c67.85,8.37,193.6,69.94,270.75,60.96c77.15-8.98,61.83-84.23,222.21-91.1"/>
		<path class="st230" d="M-15.47,113.31c0,0,13.64-14.65,138.4,48.42S416,59.57,528.03,75.99c65.93,9.66,198.07,78.5,274.66,70.02
			s58.57-97.73,221.45-104.5"/>
		<path class="st231" d="M-15.83,106.01c0,0,11.91-4.56,136.17,58.13S415.99,52.28,527.57,71.32
			c64.04,10.92,202.55,87.07,278.57,79.08s55.3-111.22,220.69-117.91"/>
		<path class="st232" d="M-16.18,98.72c0,0,10.17,5.53,133.94,67.84S416.01,44.92,527.11,66.65
			c62.17,12.16,207.02,95.64,282.49,88.14c75.47-7.5,52.03-124.71,219.93-131.31"/>
	</g>
</g>
</svg>
