<?xml version="1.0" encoding="utf-8"?>
<!-- Generator: Adobe Illustrator 24.0.0, SVG Export Plug-In . SVG Version: 6.00 Build 0)  -->
<svg version="1.1" id="Capa_1" xmlns="http://www.w3.org/2000/svg" xmlns:xlink="http://www.w3.org/1999/xlink" x="0px" y="0px"
	 viewBox="0 0 75 57" style="enable-background:new 0 0 75 57;" xml:space="preserve">
<style type="text/css">
	.st0{fill:#B4C9DD;}
	.st1{fill:#457EBB;}
</style>
<g>
	<g>
		<path class="st0" d="M4.3,54.4c-0.9,0-1.7-0.8-1.7-1.7V3.9c0-0.9,0.8-1.7,1.7-1.7h66.6c0.9,0,1.7,0.8,1.7,1.7v48.8
			c0,0.9-0.8,1.7-1.7,1.7H4.3z"/>
		<path class="st1" d="M70.9,3.8C70.9,3.8,70.9,3.9,70.9,3.8l0.1,48.9c0,0,0,0.1-0.1,0.1H4.3c0,0-0.1,0-0.1-0.1V3.9
			c0,0,0-0.1,0.1-0.1H70.9 M70.9,0.6H4.3C2.5,0.6,1,2.1,1,3.9v48.8C1,54.5,2.5,56,4.3,56h66.6c1.8,0,3.3-1.5,3.3-3.3V3.9
			C74.1,2.1,72.7,0.6,70.9,0.6L70.9,0.6z"/>
	</g>
	<rect x="4" y="15.3" class="st1" width="67.5" height="11.4"/>
	<path class="st1" d="M31.7,45.5H9.1C8.5,45.5,8,45,8,44.3v-0.9c0-0.6,0.5-1.1,1.1-1.1h22.6c0.6,0,1.1,0.5,1.1,1.1v0.9
		C32.9,45,32.4,45.5,31.7,45.5z"/>
</g>
</svg>
