<?xml version="1.0" encoding="utf-8"?>
<!-- Generator: Adobe Illustrator 24.0.0, SVG Export Plug-In . SVG Version: 6.00 Build 0)  -->
<svg version="1.1" id="Capa_1" xmlns="http://www.w3.org/2000/svg" xmlns:xlink="http://www.w3.org/1999/xlink" x="0px" y="0px"
	 viewBox="0 0 88 82" style="enable-background:new 0 0 88 82;" xml:space="preserve">
<style type="text/css">
	.st0{opacity:0.51;fill:#6C96BC;}
	.st1{fill:#6C96BC;}
	.st2{opacity:0.72;}
	.st3{fill:#3675BB;}
	.st4{opacity:0.72;fill:#3675BB;}
</style>
<g>
	<path class="st0" d="M73.8,54.1C62.2,63.3,48,67,47.4,67.2c-1,0.3-2.1-0.3-2.4-1.3c-0.3-1,0.2-2.1,1.1-2.5c5.6-2.3,7.4-4.5,7.9-6
		c0.3-1,0.2-2-0.4-3c-0.6-1.1-1.4-2.2-2.7-2.4c-1.3-0.2-3.6,0.1-7.7,3.3c-7.6,5.9-18.9,4-24,2.7v18.3c5.6,0.3,22.4,1.1,35.3-0.1
		c12.7-1.2,20.9-11,24.8-15.7c0.7-0.9,1.3-1.6,1.8-2.1c1.4-1.4,1-3.5-0.1-4.8C79.8,52,77.1,51.4,73.8,54.1z"/>
	<path class="st1" d="M84.1,50.9c-2.6-2.9-7.6-4-12.8,0.1c-4.4,3.5-9.3,6.2-13.6,8.1c0-0.1,0.1-0.2,0.1-0.4c0.7-2.1,0.5-4.3-0.7-6.3
		c-0.6-1-2.1-3.7-5.4-4.4c-3.1-0.6-6.7,0.7-10.9,4.1c-8.1,6.4-22.7,1.3-22.9,1.2c-0.6-0.2-1.3-0.1-1.8,0.3c-0.5,0.4-0.8,1-0.8,1.6
		v22.9c0,1.1,0.8,1.9,1.9,2c0.1,0,9.8,0.7,20.9,0.7c5.6,0,11.6-0.2,17-0.7c14.4-1.4,23.6-12.4,27.5-17.1c0.6-0.8,1.2-1.4,1.6-1.8
		C86.8,58.4,86.8,54,84.1,50.9z M19.3,76.2V57.9c5.1,1.3,16.4,3.3,24-2.7c4-3.2,6.4-3.5,7.7-3.3c1.3,0.3,2.1,1.3,2.7,2.4
		c0.6,1,0.7,2,0.4,3c-0.5,1.5-2.3,3.7-7.9,6c-1,0.4-1.5,1.5-1.1,2.5c0.3,1,1.4,1.6,2.4,1.3C48,67,62.2,63.3,73.8,54.1
		c3.4-2.7,6-2,7.3-0.5c1.1,1.3,1.5,3.4,0.1,4.8c-0.5,0.5-1.1,1.2-1.8,2.1c-3.9,4.7-12.1,14.5-24.8,15.7
		C41.7,77.3,24.8,76.5,19.3,76.2z"/>
	<g>
		<g>
			<path class="st1" d="M59.6,29.8c-1.5,1.6-3.7,2.5-6.6,3V37h-4.6v-4.1c-1.9-0.1-3.7-0.5-5.5-1c-1.7-0.5-3.1-1.2-4.3-1.9l2.5-5.6
				c1.2,0.8,2.6,1.4,4.2,1.9c1.6,0.5,3.2,0.7,4.7,0.7c2.9,0,4.4-0.7,4.4-2.2c0-0.8-0.4-1.3-1.3-1.7c-0.8-0.4-2.2-0.8-4-1.2
				c-2-0.4-3.7-0.9-5.1-1.4c-1.4-0.5-2.5-1.3-3.5-2.4c-1-1.1-1.5-2.6-1.5-4.5c0-2.2,0.8-4.1,2.4-5.7c1.6-1.6,3.9-2.5,6.9-2.9V0.8H53
				V5c1.5,0.1,2.9,0.4,4.2,0.8s2.5,0.9,3.6,1.5l-2.4,5.7c-2.6-1.4-5.1-2.1-7.5-2.1c-1.5,0-2.6,0.2-3.3,0.7c-0.7,0.5-1,1-1,1.8
				c0,0.7,0.4,1.3,1.2,1.6c0.8,0.4,2.1,0.7,4,1.1c2.1,0.4,3.8,0.9,5.1,1.4c1.3,0.5,2.5,1.3,3.5,2.4c1,1.1,1.5,2.6,1.5,4.4
				C61.9,26.4,61.1,28.2,59.6,29.8z"/>
		</g>
	</g>
	<g class="st2">
		<g>
			<path class="st3" d="M59.6,29.8c-1.5,1.6-3.7,2.5-6.6,3V37h-4.6v-4.1c-1.9-0.1-3.7-0.5-5.5-1c-1.7-0.5-3.1-1.2-4.3-1.9l2.5-5.6
				c1.2,0.8,2.6,1.4,4.2,1.9c1.6,0.5,3.2,0.7,4.7,0.7c2.9,0,4.4-0.7,4.4-2.2c0-0.8-0.4-1.3-1.3-1.7c-0.8-0.4-2.2-0.8-4-1.2
				c-2-0.4-3.7-0.9-5.1-1.4c-1.4-0.5-2.5-1.3-3.5-2.4c-1-1.1-1.5-2.6-1.5-4.5c0-2.2,0.8-4.1,2.4-5.7c1.6-1.6,3.9-2.5,6.9-2.9V0.8H53
				V5c1.5,0.1,2.9,0.4,4.2,0.8s2.5,0.9,3.6,1.5l-2.4,5.7c-2.6-1.4-5.1-2.1-7.5-2.1c-1.5,0-2.6,0.2-3.3,0.7c-0.7,0.5-1,1-1,1.8
				c0,0.7,0.4,1.3,1.2,1.6c0.8,0.4,2.1,0.7,4,1.1c2.1,0.4,3.8,0.9,5.1,1.4c1.3,0.5,2.5,1.3,3.5,2.4c1,1.1,1.5,2.6,1.5,4.4
				C61.9,26.4,61.1,28.2,59.6,29.8z"/>
		</g>
	</g>
	<path class="st1" d="M4.5,51c-1.7,0-3,1.3-3,3v25c0,1.7,1.3,3,3,3s3-1.3,3-3V54C7.5,52.3,6.2,51,4.5,51z"/>
	<path class="st4" d="M84.1,50.9c-2.6-2.9-7.6-4-12.8,0.1c-4.4,3.5-9.3,6.2-13.6,8.1c0-0.1,0.1-0.2,0.1-0.4c0.7-2.1,0.5-4.3-0.7-6.3
		c-0.6-1-2.1-3.7-5.4-4.4c-3.1-0.6-6.7,0.7-10.9,4.1c-8.1,6.4-22.7,1.3-22.9,1.2c-0.6-0.2-1.3-0.1-1.8,0.3c-0.5,0.4-0.8,1-0.8,1.6
		v22.9c0,1.1,0.8,1.9,1.9,2c0.1,0,9.8,0.7,20.9,0.7c5.6,0,11.6-0.2,17-0.7c14.4-1.4,23.6-12.4,27.5-17.1c0.6-0.8,1.2-1.4,1.6-1.8
		C86.8,58.4,86.8,54,84.1,50.9z M19.3,76.2V57.9c5.1,1.3,16.4,3.3,24-2.7c4-3.2,6.4-3.5,7.7-3.3c1.3,0.3,2.1,1.3,2.7,2.4
		c0.6,1,0.7,2,0.4,3c-0.5,1.5-2.3,3.7-7.9,6c-1,0.4-1.5,1.5-1.1,2.5c0.3,1,1.4,1.6,2.4,1.3C48,67,62.2,63.3,73.8,54.1
		c3.4-2.7,6-2,7.3-0.5c1.1,1.3,1.5,3.4,0.1,4.8c-0.5,0.5-1.1,1.2-1.8,2.1c-3.9,4.7-12.1,14.5-24.8,15.7
		C41.7,77.3,24.8,76.5,19.3,76.2z"/>
	<path class="st4" d="M4.5,51c-1.7,0-3,1.3-3,3v25c0,1.7,1.3,3,3,3s3-1.3,3-3V54C7.5,52.3,6.2,51,4.5,51z"/>
</g>
</svg>
