<?xml version="1.0" encoding="utf-8"?>
<!-- Generator: Adobe Illustrator 24.0.0, SVG Export Plug-In . SVG Version: 6.00 Build 0)  -->
<svg version="1.1" id="Capa_1" xmlns="http://www.w3.org/2000/svg" xmlns:xlink="http://www.w3.org/1999/xlink" x="0px" y="0px"
	 viewBox="0 0 88 81" style="enable-background:new 0 0 88 81;" xml:space="preserve">
<style type="text/css">
	.st0{opacity:0.51;fill:#6C96BC;}
	.st1{fill:#6C96BC;}
	.st2{opacity:0.72;fill:#3675BB;}
	.st3{fill:#3675BB;}
</style>
<g>
	<path class="st0" d="M43.4,6.5L43.4,6.5L43.4,6.5L43.4,6.5L7.7,19.1c0,0,2.4,47.8,35.7,54.8v0c0,0,0,0,0,0c0,0,0,0,0,0v0
		c33.2-7,35.7-54.8,35.7-54.8L43.4,6.5L43.4,6.5z"/>
	<path class="st1" d="M80.4,15.3L44.7,2.7c-0.4-0.2-0.9-0.2-1.3-0.2c-0.5,0-0.9,0.1-1.3,0.2L6.4,15.3c-1.7,0.6-2.8,2.2-2.7,4
		c0,0.5,0.7,12.7,5.6,25.9c6.7,18.1,18.2,29.4,33.2,32.5c0.3,0.1,0.5,0.1,0.8,0.1s0.6,0,0.8-0.1c15-3.2,26.5-14.4,33.2-32.5
		C82.4,32,83,19.8,83.1,19.3C83.1,17.5,82.1,15.9,80.4,15.3z M43.4,73.9L43.4,73.9C43.4,73.9,43.4,73.9,43.4,73.9
		C43.4,73.9,43.4,73.9,43.4,73.9L43.4,73.9c-33.2-7-35.7-54.8-35.7-54.8L43.4,6.5v0l0,0l0,0v0l35.7,12.6
		C79.1,19.1,76.7,66.9,43.4,73.9z"/>
	<path class="st2" d="M80.4,15.3L44.7,2.7c-0.4-0.2-0.9-0.2-1.3-0.2c-0.5,0-0.9,0.1-1.3,0.2L6.4,15.3c-1.7,0.6-2.8,2.2-2.7,4
		c0,0.5,0.7,12.7,5.6,25.9c6.7,18.1,18.2,29.4,33.2,32.5c0.3,0.1,0.5,0.1,0.8,0.1s0.6,0,0.8-0.1c15-3.2,26.5-14.4,33.2-32.5
		C82.4,32,83,19.8,83.1,19.3C83.1,17.5,82.1,15.9,80.4,15.3z M43.4,73.9L43.4,73.9C43.4,73.9,43.4,73.9,43.4,73.9
		C43.4,73.9,43.4,73.9,43.4,73.9L43.4,73.9c-33.2-7-35.7-54.8-35.7-54.8L43.4,6.5v0l0,0l0,0v0l35.7,12.6
		C79.1,19.1,76.7,66.9,43.4,73.9z"/>
	<path class="st3" d="M29.8,37.4c0.2,0,0.3,0.1,0.4,0.2c2.7,2.7,5.4,5.3,8,8c0.4,0.4,0.6,0.3,0.9,0c3.6-3.6,7.1-7.2,10.7-10.8
		c2.2-2.3,4.5-4.5,6.8-6.7c0.3-0.3,0.4-0.3,0.7,0c0.8,0.8,1.6,1.7,2.5,2.5c0.3,0.3,0.3,0.5,0,0.8c-3.7,3.7-7.4,7.4-11.1,11.1
		c-3.2,3.2-6.3,6.3-9.5,9.5c-0.5,0.5-0.7,0.4-1.1,0c-3.6-3.7-7.3-7.3-10.9-10.9c-0.4-0.4-0.5-0.7,0-1.1c0.8-0.7,1.5-1.5,2.3-2.3
		C29.6,37.6,29.7,37.5,29.8,37.4z"/>
</g>
</svg>
