<?xml version="1.0" encoding="utf-8"?>
<!-- Generator: Adobe Illustrator 24.0.0, SVG Export Plug-In . SVG Version: 6.00 Build 0)  -->
<svg version="1.1" id="Capa_1" xmlns="http://www.w3.org/2000/svg" xmlns:xlink="http://www.w3.org/1999/xlink" x="0px" y="0px"
	 viewBox="0 0 88 81" style="enable-background:new 0 0 88 81;" xml:space="preserve">
<style type="text/css">
	.st0{fill:#6C96BC;}
	.st1{opacity:0.51;fill:#6C96BC;}
	.st2{opacity:0.72;fill:#3675BB;}
</style>
<g>
	<g>
		<g>
			<path class="st0" d="M42.5,40.5c-9.7,0-17.6-7.9-17.6-17.6S32.8,5.4,42.5,5.4S60,13.3,60,23S52.2,40.5,42.5,40.5z M42.5,9.4
				C35,9.4,28.9,15.5,28.9,23S35,36.5,42.5,36.5S56,30.4,56,23S50,9.4,42.5,9.4z"/>
		</g>
		<g>
			<path class="st0" d="M67.3,75H17.7c-2.8,0-5.3-1.5-6.6-4c-1.3-2.5-1.1-5.4,0.5-7.7c6.1-8.6,16.4-18.8,30.9-18.8
				c14.6,0,24.8,10.2,30.8,18.8c1.6,2.3,1.8,5.2,0.5,7.7C72.6,73.5,70.1,75,67.3,75z M42.6,48.5c-12.8,0-22.1,9.3-27.7,17.1
				c-0.8,1.1-0.9,2.4-0.3,3.6c0.6,1.2,1.7,1.9,3.1,1.9h49.6c1.3,0,2.4-0.7,3.1-1.9c0.6-1.2,0.5-2.5-0.2-3.6
				C64.7,57.8,55.5,48.5,42.6,48.5z"/>
		</g>
	</g>
	<circle class="st1" cx="42.5" cy="23" r="13.6"/>
	<path class="st1" d="M42.6,48.5c-12.8,0-22.1,9.3-27.7,17.1c-0.8,1.1-0.9,2.4-0.3,3.6c0.6,1.2,1.7,1.9,3.1,1.9h49.6
		c1.3,0,2.4-0.7,3.1-1.9c0.6-1.2,0.5-2.5-0.2-3.6C64.7,57.8,55.5,48.5,42.6,48.5z"/>
	<path class="st2" d="M42.5,40.5C52.2,40.5,60,32.6,60,23S52.2,5.4,42.5,5.4S24.9,13.3,24.9,23S32.8,40.5,42.5,40.5z M42.5,9.4
		C50,9.4,56,15.5,56,23S50,36.5,42.5,36.5S28.9,30.4,28.9,23S35,9.4,42.5,9.4z"/>
	<path class="st2" d="M42.6,44.5c-14.5,0-24.8,10.2-30.9,18.8c-1.6,2.3-1.8,5.2-0.5,7.7c1.3,2.5,3.8,4,6.6,4h49.6
		c2.8,0,5.3-1.5,6.6-4c1.3-2.5,1.1-5.4-0.5-7.7C67.4,54.7,57.2,44.5,42.6,44.5z M70.4,69.1c-0.6,1.2-1.7,1.9-3.1,1.9H17.7
		c-1.3,0-2.5-0.7-3.1-1.9c-0.6-1.2-0.5-2.5,0.3-3.6c5.5-7.8,14.8-17.1,27.7-17.1c12.8,0,22,9.3,27.5,17.1C70.9,66.7,71,68,70.4,69.1
		z"/>
</g>
</svg>
