<?xml version="1.0" encoding="utf-8"?>
<!-- Generator: Adobe Illustrator 22.1.0, SVG Export Plug-In . SVG Version: 6.00 Build 0)  -->
<svg version="1.1" id="Capa_1" xmlns="http://www.w3.org/2000/svg" xmlns:xlink="http://www.w3.org/1999/xlink" x="0px" y="0px"
	 width="29.53px" height="25.181px" viewBox="0 0 29.53 25.181" enable-background="new 0 0 29.53 25.181" xml:space="preserve">
<g>
	<g>
		<path opacity="0.2" fill="#64B7FF" d="M19.804,21.92c-0.617-0.216-1.182-0.541-1.679-0.97l-0.256-0.219l-1.497,0.864l-0.026-0.029
			c-0.494-0.557-1.067-1.659-1.416-2.5l1.483-0.856l-0.061-0.33c-0.119-0.646-0.119-1.3,0-1.944l0.061-0.331l-1.446-0.833
			l0.036-0.283c0.3-0.814,0.765-1.588,1.343-2.238l0.026-0.029l1.492,0.864l0.255-0.217c0.501-0.426,1.067-0.753,1.684-0.973
			l0.317-0.113v-1.726l0.037-0.008c0.927-0.19,1.907-0.189,2.835,0l0.037,0.008v1.726l0.319,0.111
			c0.616,0.215,1.181,0.541,1.679,0.97l0.256,0.22l1.497-0.864l0.025,0.028c0.633,0.713,1.124,1.562,1.419,2.454l0.012,0.036
			l-1.498,0.865l0.061,0.33c0.121,0.644,0.121,1.298,0,1.944l-0.061,0.33l1.502,0.867l-0.012,0.037
			c-0.297,0.896-0.788,1.746-1.42,2.455l-0.026,0.029l-1.494-0.863l-0.256,0.217c-0.504,0.427-1.07,0.755-1.685,0.973l-0.316,0.112
			v1.727l-0.037,0.007c-0.929,0.19-1.908,0.19-2.844-0.001l-0.027-0.004v-1.731L19.804,21.92z"/>
		<path fill="#64B7FF" d="M21.574,19.645c1.51,0,2.739-1.229,2.739-2.739s-1.229-2.739-2.739-2.739c-1.51,0-2.739,1.229-2.739,2.739
			S20.064,19.645,21.574,19.645z"/>
	</g>
	<g>
		<path fill="#5B5B5F" d="M12.009,20.863l-0.131-0.36c-0.019-0.051-0.07-0.207-0.086-0.259c-0.324-1.096-0.209-2.212,0.258-3.15
			c-0.486-0.957-0.6-2.09-0.254-3.184c0.113-0.364,0.248-0.723,0.402-1.075c-0.695,0.204-1.426,0.325-2.187,0.325
			c-1.162,0-2.261-0.259-3.258-0.715H6.007C2.691,12.444,0,15.135,0,18.451v1.859c0,1.184,0.961,2.145,2.145,2.145h10.665
			c-0.217-0.372-0.424-0.753-0.603-1.148C12.131,21.166,12.064,21.017,12.009,20.863z"/>
		<path fill="#5B5B5F" d="M10.011,10.586c2.924,0,5.293-2.369,5.293-5.293C15.305,2.369,12.935,0,10.011,0
			C7.088,0,4.719,2.369,4.719,5.293C4.719,8.216,7.088,10.586,10.011,10.586z"/>
	</g>
	<path fill="#5B5B5F" d="M28.949,18.019l-0.822-0.474c0.041-0.417,0.042-0.84,0-1.277l0.821-0.474
		c0.468-0.269,0.685-0.822,0.528-1.349c-0.361-1.158-0.991-2.248-1.823-3.153c-0.366-0.395-0.966-0.486-1.426-0.218l-0.82,0.475
		c-0.341-0.246-0.709-0.458-1.108-0.64V9.964c0-0.54-0.381-1.013-0.903-1.126c-1.191-0.267-2.449-0.267-3.634-0.001
		c-0.527,0.114-0.91,0.588-0.91,1.127v0.95c-0.381,0.173-0.747,0.384-1.105,0.639l-0.822-0.476
		c-0.476-0.274-1.061-0.183-1.422,0.217c-0.833,0.899-1.463,1.99-1.824,3.153c-0.165,0.522,0.05,1.077,0.524,1.35l0.822,0.474
		c-0.04,0.419-0.041,0.843,0.001,1.278l-0.818,0.472c-0.468,0.266-0.686,0.819-0.531,1.348l0.372,1.002l0.028-0.029
		c0.404,0.841,0.92,1.634,1.426,2.183c0.364,0.391,0.961,0.482,1.423,0.216l0.821-0.474c0.341,0.245,0.708,0.458,1.107,0.639v0.948
		c0,0.538,0.38,1.012,0.903,1.127c0.592,0.133,1.204,0.201,1.821,0.201c0.615,0,1.226-0.067,1.815-0.2
		c0.526-0.116,0.908-0.59,0.908-1.128v-0.949c0.38-0.173,0.746-0.384,1.105-0.639l0.827,0.477c0.474,0.27,1.058,0.18,1.419-0.218
		c0.833-0.901,1.467-2,1.835-3.191C29.628,18.823,29.406,18.282,28.949,18.019z M19.909,21.62c-0.58-0.203-1.11-0.509-1.577-0.911
		l-0.427-0.365l-1.46,0.843c-0.384-0.499-0.805-1.294-1.11-1.986l1.432-0.826l-0.102-0.551c-0.112-0.607-0.112-1.222,0.001-1.829
		l0.101-0.552l-1.465-0.844c0.258-0.701,0.644-1.37,1.14-1.969l1.458,0.844l0.426-0.363c0.47-0.4,1.004-0.708,1.585-0.915
		l0.528-0.188V10.32c0.739-0.125,1.508-0.126,2.273,0.001v1.688l0.532,0.184c0.579,0.202,1.109,0.508,1.577,0.911l0.428,0.367
		l1.463-0.845c0.482,0.581,0.869,1.247,1.138,1.968l-1.465,0.846l0.103,0.551c0.113,0.605,0.113,1.22,0,1.827l-0.103,0.551
		l1.469,0.848c-0.26,0.703-0.645,1.371-1.14,1.97l-1.459-0.843l-0.426,0.361c-0.474,0.403-1.008,0.711-1.586,0.917l-0.527,0.188
		v1.688c-0.735,0.125-1.504,0.126-2.273,0.001v-1.692L19.909,21.62z"/>
</g>
</svg>
