<svg id="Capa_1" data-name="Capa 1" xmlns="http://www.w3.org/2000/svg" xmlns:xlink="http://www.w3.org/1999/xlink" viewBox="0 0 23.54 29.82"><defs><style>.cls-1{fill:#ededed;opacity:0.85;}.cls-2{fill:url(#Degradado_sin_nombre_70);}.cls-3{fill:url(#Degradado_sin_nombre_2);}</style><linearGradient id="Degradado_sin_nombre_70" x1="0.98" y1="5.41" x2="26.22" y2="22.91" gradientUnits="userSpaceOnUse"><stop offset="0" stop-color="#242675"/><stop offset="0.66" stop-color="#354aec"/><stop offset="1" stop-color="#358cba"/></linearGradient><linearGradient id="Degradado_sin_nombre_2" x1="7.99" y1="9.24" x2="16.89" y2="15.8" gradientUnits="userSpaceOnUse"><stop offset="0" stop-color="#00b8ff"/><stop offset="0.42" stop-color="#00d9c5"/><stop offset="0.81" stop-color="#00f495"/><stop offset="1" stop-color="#00ff83"/></linearGradient></defs><ellipse class="cls-1" cx="11.77" cy="28.5" rx="7.6" ry="1.32"/><path class="cls-2" d="M23,7.76C20.58,0,11.77,0,11.77,0S3,0,.5,7.76A12,12,0,0,0,3.37,19.39l8.4,9.11h0l8.4-9.11A12,12,0,0,0,23,7.76Z"/><path class="cls-3" d="M7.32,10.81c.55-3.45,1.47-4.62,3.43-4.61,1.66,0,3.77,0,5.42,0,.65,0,1.15.34,1.14,1.5,0,.34,0,.48-.26.47-2,0-4.14,0-6.13,0-.79,0-1.51,1-1.73,2.33l-1.28,7c0,.35-.1.36-.27.36-.55,0-1.85-.13-1.44-1.93Zm8.42.19-.54,2.78a2,2,0,0,1-2,1.85,23.94,23.94,0,0,1-2.66.06c-.35,0-.41,0-.53.42l-.2.9c-.17.81,0,.82.93.82h2c4.23,0,4.48-5.06,4.52-5.33,0,0,.06-.58.08-.83.06-.62-.05-1.16-1.34-1.15-.17,0-.24,0-.32.41Zm-3,2.29c1.13,0,1.07-2.08,1.08-2.14h0a.58.58,0,0,0-.53-.67H11.46c-.13,0-.18.1-.22.32s-.33,1.76-.44,2.36a.08.08,0,0,0,.09.11C11.3,13.27,12.74,13.27,12.75,13.29Z"/></svg>