<?xml version="1.0" encoding="utf-8"?>
<!-- Generator: Adobe Illustrator 22.1.0, SVG Export Plug-In . SVG Version: 6.00 Build 0)  -->
<svg version="1.1" id="Capa_1" xmlns="http://www.w3.org/2000/svg" xmlns:xlink="http://www.w3.org/1999/xlink" x="0px" y="0px"
	 width="16.016px" height="16.441px" viewBox="0 0 16.016 16.441" enable-background="new 0 0 16.016 16.441" xml:space="preserve">
<path fill="#4A72B2" d="M3.49,16.441h-3.2V4.957h3.2V16.441z M11.695,4.957c-1.514,0-2.463,0.604-3.059,1.403V4.957h-3.2v11.484h3.2
	V10.26c0-1.632,0.929-2.259,2.09-2.259c1.161,0,2.09,0.507,2.09,1.7v6.74h3.2v-6.74C16.015,8.885,16.185,4.957,11.695,4.957z
	 M1.89,0C0.846,0,0,0.846,0,1.89c0,1.044,0.846,1.89,1.89,1.89c1.044,0,1.89-0.846,1.89-1.89C3.78,0.846,2.933,0,1.89,0z"/>
</svg>
