<?xml version="1.0" encoding="utf-8"?>
<!-- Generator: Adobe Illustrator 22.1.0, SVG Export Plug-In . SVG Version: 6.00 Build 0)  -->
<svg version="1.1" id="Capa_1" xmlns="http://www.w3.org/2000/svg" xmlns:xlink="http://www.w3.org/1999/xlink" x="0px" y="0px"
	 width="20.399px" height="14.926px" viewBox="0 0 20.399 14.926" enable-background="new 0 0 20.399 14.926" xml:space="preserve">
<path fill="#4A72B2" d="M4.77,12.401c-2.709-1.001-3.13-3.71-3.13-3.71c0.639,0.766,2.188,1.113,2.188,1.113
	C1.531,8.089,1.641,5.157,1.641,5.157C2.398,6.04,4.299,6.511,4.299,6.511c-2.945-2.12-2.65-5.036-2.65-5.036
	c4.123,3.799,10.009,4.096,10.009,4.096l0.004-0.001c-0.442-0.583-0.708-1.307-0.708-2.095C10.954,1.556,12.51,0,14.429,0
	c1.611,0,2.963,1.098,3.356,2.586c0.618-0.065,1.875-0.232,2.614-0.58c0,0-0.298,1.124-2.497,1.426c0,0.014,0.002,0.028,0.002,0.043
	c0,0.051-0.005,0.1-0.007,0.15c0.643-0.004,1.452-0.049,2.012-0.223c0,0-0.377,0.899-2.146,1.048
	c-0.009,0.028-0.016,0.056-0.025,0.084C15.518,19.504,0,13.898,0,13.898C3.298,13.688,4.77,12.401,4.77,12.401z"/>
</svg>
