<?xml version="1.0" encoding="utf-8"?>
<!-- Generator: Adobe Illustrator 22.1.0, SVG Export Plug-In . SVG Version: 6.00 Build 0)  -->
<svg version="1.1" id="Capa_1" xmlns="http://www.w3.org/2000/svg" xmlns:xlink="http://www.w3.org/1999/xlink" x="0px" y="0px"
	 width="14.724px" height="14.638px" viewBox="0 0 14.724 14.638" enable-background="new 0 0 14.724 14.638" xml:space="preserve">
<path fill="#4A72B2" d="M11.537,0H3.185C1.731,0,0,0.627,0,3.614v7.409c0,2.987,1.731,3.614,3.185,3.614h8.352
	c1.454,0,3.187-0.627,3.187-3.614V3.614C14.724,0.627,12.991,0,11.537,0z M1.533,3.614c0-1.734,0.633-2.082,1.652-2.082l8.36,0
	c1.016,0.002,1.645,0.353,1.645,2.081v7.409c0,1.734-0.633,2.082-1.653,2.082H3.185c-1.019,0-1.652-0.348-1.652-2.082V3.614z
	 M7.362,11.07c-2.068,0-3.752-1.683-3.752-3.751s1.684-3.751,3.752-3.751c2.067,0,3.75,1.683,3.75,3.751S9.429,11.07,7.362,11.07z
	 M7.362,4.568c-1.518,0-2.752,1.234-2.752,2.751s1.234,2.751,2.752,2.751c1.517,0,2.75-1.234,2.75-2.751S8.878,4.568,7.362,4.568z
	 M12.401,3.433c0,0.621-0.504,1.125-1.125,1.125c-0.621,0-1.125-0.504-1.125-1.125s0.504-1.125,1.125-1.125
	C11.897,2.308,12.401,2.811,12.401,3.433z"/>
</svg>
