<?xml version="1.0" encoding="utf-8"?>
<!-- Generator: Adobe Illustrator 22.1.0, SVG Export Plug-In . SVG Version: 6.00 Build 0)  -->
<svg version="1.1" id="Capa_1" xmlns="http://www.w3.org/2000/svg" xmlns:xlink="http://www.w3.org/1999/xlink" x="0px" y="0px"
	 width="16.148px" height="12.004px" viewBox="0 0 16.148 12.004" enable-background="new 0 0 16.148 12.004" xml:space="preserve">
<path fill="#4A72B2" d="M14.766,0c-1.003,0-5.488,0-6.573,0c0,0-0.086,0-0.238,0C6.869,0,2.384,0,1.381,0C0.238,0,0,0.905,0,1.857
	c0,0.952,0,4.145,0,4.145s0,3.193,0,4.145c0,0.952,0.238,1.857,1.381,1.857c1.003,0,5.488,0,6.573,0c0.152,0,0.238,0,0.238,0
	c1.086,0,5.571,0,6.573,0c1.143,0,1.381-0.905,1.381-1.857c0-0.952,0-4.145,0-4.145s0-3.193,0-4.145C16.148,0.905,15.91,0,14.766,0z
	 M9.955,6.907L7.238,8.476C6.541,8.878,5.67,8.375,5.67,7.571V4.433c0-0.805,0.871-1.307,1.567-0.905l2.717,1.569
	C10.651,5.499,10.651,6.505,9.955,6.907z"/>
</svg>
