<?xml version="1.0" encoding="utf-8"?>
<!-- Generator: Adobe Illustrator 22.1.0, SVG Export Plug-In . SVG Version: 6.00 Build 0)  -->
<svg version="1.1" id="Capa_1" xmlns="http://www.w3.org/2000/svg" xmlns:xlink="http://www.w3.org/1999/xlink" x="0px" y="0px"
	 width="31.826px" height="27.213px" viewBox="0 0 31.826 27.213" enable-background="new 0 0 31.826 27.213" xml:space="preserve">
<g>
	<g>
		<path fill="#5B5B5F" d="M26.386,14.236l2.745,2.54l-9.397,9.191l-3.176,1.243c-0.369,0.04-0.682-0.266-0.641-0.627l1.073-3.158
			L26.386,14.236z M31.486,12.759l-1.103-0.934c-0.453-0.443-1.189-0.443-1.642,0l-1.367,1.337l2.745,2.54l1.367-1.337
			C31.94,13.921,31.94,13.202,31.486,12.759z"/>
		<polygon opacity="0.35" fill="#64B7FF" points="4.614,4.072 7.81,4.072 8.86,1.717 17.524,1.717 19.055,4.072 23.288,4.577 
			25.223,6.007 25.223,11.741 14.57,22.969 4.614,22.326 1.165,20.725 1.585,5.418 		"/>
		<g>
			<path fill="#5B5B5F" d="M22.804,2.958h-3.125l-0.24-0.636C18.919,0.933,17.573,0,16.089,0H10.29C8.807,0,7.46,0.933,6.939,2.323
				L6.702,2.958H3.58C1.606,2.958,0,4.564,0,6.538v13.31c0,1.974,1.606,3.579,3.58,3.579h10.554l2.525-2.652L3.58,20.703
				c-0.472,0-0.856-0.384-0.856-0.856V6.538c0-0.472,0.384-0.856,0.856-0.856h5.012L9.49,3.277c0.125-0.332,0.446-0.554,0.8-0.554
				h5.799c0.354,0,0.676,0.224,0.801,0.556l0.904,2.402h5.009c0.472,0,0.856,0.384,0.856,0.856v6.674l2.723-2.562V6.538
				C26.384,4.564,24.778,2.958,22.804,2.958z"/>
			<path fill="#5B5B5F" d="M13.192,5.955c-3.694,0-6.699,3.005-6.699,6.699s3.005,6.698,6.699,6.698
				c3.693,0,6.698-3.005,6.698-6.698S16.886,5.955,13.192,5.955z"/>
		</g>
		<circle fill="#FFFFFF" cx="13.192" cy="12.654" r="4.332"/>
		<circle fill="#009ADA" cx="13.192" cy="12.654" r="4.332"/>
	</g>
</g>
</svg>
