<svg id="Capa_1" data-name="Capa 1" xmlns="http://www.w3.org/2000/svg" xmlns:xlink="http://www.w3.org/1999/xlink" viewBox="0 0 149.58 24.25"><defs><style>.cls-1{fill:url(#Degradado_sin_nombre_85);}.cls-2{fill:#fff;}</style><linearGradient id="Degradado_sin_nombre_85" x1="3.88" y1="6.34" x2="22.38" y2="19.98" gradientUnits="userSpaceOnUse"><stop offset="0" stop-color="#64b8ff"/><stop offset="0.39" stop-color="#42d7cd"/><stop offset="0.8" stop-color="#22f49d"/><stop offset="1" stop-color="#15ff8b"/></linearGradient></defs><title>logo-peygold</title><path class="cls-1" d="M2.48,9.6C3.63,2.42,5.54,0,9.63,0c3.43,0,7.83,0,11.26,0,1.34,0,2.38.7,2.38,3.12,0,.7-.1,1-.54,1-4.12,0-8.62,0-12.75,0-1.64,0-3.14,2-3.6,4.85C6.37,9,3.71,23.5,3.71,23.5c-.08.73-.2.73-.55.74-1.14,0-3.86-.28-3-4ZM20,10l-1.12,5.78c-.56,3.22-2.43,3.62-4.09,3.84a54.52,54.52,0,0,1-5.53.14c-.71,0-.84-.07-1.1.86l-.4,1.88c-.37,1.69,0,1.7,1.93,1.7,1.16,0,3.06,0,4.22,0,8.8,0,9.31-10.51,9.4-11.08,0-.07.11-1.22.16-1.72.13-1.3-.11-2.42-2.8-2.4-.34,0-.49.09-.65.85Zm-6.22,4.77c2.35,0,2.22-4.33,2.25-4.47h0a1.18,1.18,0,0,0-1.11-1.38c-1.45,0-2.38,0-3.81,0-.29,0-.39.22-.46.66,0,.18-.7,3.68-.93,4.92,0,.09,0,.23.18.24C10.76,14.72,13.76,14.73,13.78,14.77Z"/><path class="cls-2" d="M46.93,3.27H37.56c-2,0-3.25,1.3-3.63,3.86,0,.12-2,10.56-2.5,13.17,0,.05,0,.25.23.25h2.71a.36.36,0,0,0,.36-.29l.84-4.65c.11-.73.36-.77,1-.78.89,0,2.21,0,3.11,0h2.12c3.8,0,4.16-2.32,4.51-4.53L47.57,4A.59.59,0,0,0,46.93,3.27Zm-4.5,8.15a1.56,1.56,0,0,1-1.11.66l-.23,0c-.14,0-.51,0-1.13,0S38.37,12,37,12l-.53,0s-.26,0-.18-.29c0,0,.71-3.24,1.08-5.09,0-.28.05-.54.37-.53H42.9c.76,0,.89.18.76.75,0,0-.1.64-.1.67A18.26,18.26,0,0,1,42.43,11.42Z"/><path class="cls-2" d="M63.24,3.26H52.81a.91.91,0,0,0-.89.73l-3.11,16.4a.17.17,0,0,0,0,.11.19.19,0,0,0,.11,0H59.36a.9.9,0,0,0,.89-.74l.28-1.59a.12.12,0,0,0,0-.11.16.16,0,0,0-.1,0H53.05a.54.54,0,0,1-.53-.65l.67-3.48a1.31,1.31,0,0,1,1.28-1.06H60.2a.9.9,0,0,0,.89-.74l.3-1.59c0-.06,0-.1,0-.11a.12.12,0,0,0-.1,0H54.51a.51.51,0,0,1-.41-.2A.5.5,0,0,1,54,9.74l.56-2.93a1.31,1.31,0,0,1,1.29-1.06h6.33A.9.9,0,0,0,63.05,5l.32-1.6c0-.06,0-.1,0-.11A.12.12,0,0,0,63.24,3.26Z"/><path class="cls-2" d="M78.23,3.26c-.16,0-.22,0-.32.18l-5.27,8.19a.42.42,0,0,1-.45.21.45.45,0,0,1-.38-.33l-2.28-8-.07-.25s0,0,0,0H66.52c-.17,0-.12.2-.12.2L69.94,15.2l0,.5-.83,4.35c-.14.49.13.49.34.49h2.18c.48,0,.58-.2.64-.52l.81-4.26.16-.4,8.22-12s0-.05,0-.06a0,0,0,0,0,0,0Z"/><path class="cls-2" d="M129.17,18.06h-6.89a.63.63,0,0,1-.48-.23.59.59,0,0,1-.13-.51l2.62-13.81a.2.2,0,0,0,0-.18.24.24,0,0,0-.17-.07h-2.17a.86.86,0,0,0-.85.7L118,20.29a.22.22,0,0,0,0,.18.21.21,0,0,0,.17.07h10.07a.85.85,0,0,0,.85-.7l.29-1.53a.23.23,0,0,0,0-.18A.21.21,0,0,0,129.17,18.06Z"/><path class="cls-2" d="M144.23,3.26h-6.14c-.37,0-.72.13-.88.9l-3,15.55a.7.7,0,0,0,.69.83h6.38c4.85,0,6.18-1.8,6.7-4.51l1.46-7.67a5.1,5.1,0,0,0,.12-1.08C149.58,4.72,147.63,3.26,144.23,3.26Zm2,5.31L145,15.21c-.36,1.84-1,2.85-3.68,2.85h-2.78a.74.74,0,0,1-.55-.26.73.73,0,0,1-.15-.59l2.08-10.89a.71.71,0,0,1,.7-.57h2.8c2,0,2.93.61,2.93,2A4.46,4.46,0,0,1,146.27,8.57Z"/><path class="cls-2" d="M95.39,3.27h-.7c-2.38,0-4.51,0-6.55,0-2.35,0-4.38,2.55-4.82,6-.46,2.27-1.66,8.19-1.69,8.49-.18,2.19.7,2.45,1.49,2.68l.15.05a3.35,3.35,0,0,0,.48,0h6.39c4.12,0,4.78-.84,5.91-7.54v-.08a.17.17,0,0,1,0-.07c.05-.33.08-.63.1-.83a1.89,1.89,0,0,0-.42-1.21,1.48,1.48,0,0,0-1.15-.46c-1.08,0-3.64,0-4.6,0,0,0-.14,0-.17.26l-.13.73c-.06.33-.13.63-.19.87a2.83,2.83,0,0,0-.07.28l0,.13c0,.11,0,.19,0,.29l3.28,0H93l-.06.34c0,.09-.21,1-.34,1.58l-.12.55c-.21,1-.46,2.21-2.36,2.21l-1.44,0-2.18.05-1.34,0h-.34l0-.34c.08-.74.71-3.68,1.76-8.3l0-.21h0C87,7,88.09,5.7,89.27,5.7h.57c2.48,0,4.11,0,6.82,0a.23.23,0,0,0,.18,0,.86.86,0,0,0,.09-.49,2.14,2.14,0,0,0-.45-1.52A1.44,1.44,0,0,0,95.39,3.27Z"/><path class="cls-2" d="M109,3.13c-4.54,0-6.76,1.52-7.4,5.07l-1.33,7.24a5,5,0,0,0-.11,1.12c0,2.65,2,4.11,5.72,4.11,5.51,0,7-2.05,7.59-5.14l1.31-7.12a5.39,5.39,0,0,0,.07-.88C114.82,4.78,112.64,3.13,109,3.13Zm2.81,5.33v0l-1.25,6.86c-.37,2-1.68,2.89-4.14,2.89-2.27,0-3.24-.63-3.24-2.09a5,5,0,0,1,.08-.9l1.25-6.83c.35-1.93,1.67-2.83,4.14-2.83,2.19,0,3.22.72,3.22,2.27A4.49,4.49,0,0,1,111.78,8.46Z"/></svg>