<svg id="Capa_1" data-name="Capa 1" xmlns="http://www.w3.org/2000/svg" xmlns:xlink="http://www.w3.org/1999/xlink" viewBox="0 0 21.41 22.09"><defs><style>.cls-1{fill:url(#Degradado_sin_nombre_16);}</style><linearGradient id="Degradado_sin_nombre_16" x1="3.53" y1="5.77" x2="20.4" y2="18.21" gradientUnits="userSpaceOnUse"><stop offset="0" stop-color="#64b8ff"/><stop offset="0.39" stop-color="#42d7cd"/><stop offset="0.8" stop-color="#22f49d"/><stop offset="1" stop-color="#15ff8b"/></linearGradient></defs><title>admin peygold</title><path class="cls-1" d="M2.26,8.75C3.31,2.21,5.05,0,8.77,0,11.9,0,15.91,0,19,0c1.22,0,2.17.64,2.16,2.85,0,.63-.09.89-.49.89-3.75,0-7.86,0-11.62,0-1.49,0-2.85,1.85-3.28,4.42,0,.08-2.43,13.26-2.43,13.26-.07.66-.18.67-.5.68-1,0-3.52-.26-2.73-3.65Zm16,.36-1,5.27c-.5,2.93-2.21,3.3-3.72,3.49a45.31,45.31,0,0,1-5,.13c-.65,0-.77-.06-1,.78L7.07,20.5c-.33,1.54,0,1.55,1.76,1.55,1.06,0,2.78,0,3.84,0,8,0,8.48-9.58,8.57-10.1,0-.06.1-1.1.14-1.56.12-1.19-.1-2.21-2.54-2.19-.31,0-.45.09-.59.78Zm-5.67,4.34c2.14,0,2-3.94,2-4.06h0a1.09,1.09,0,0,0-1-1.27c-1.32,0-2.16,0-3.47,0-.26,0-.35.2-.42.6l-.84,4.49A.16.16,0,0,0,9,13.4C9.8,13.41,12.53,13.42,12.56,13.45Z"/></svg>