<?xml version="1.0" encoding="utf-8"?>
<!-- Generator: Adobe Illustrator 23.0.0, SVG Export Plug-In . SVG Version: 6.00 Build 0)  -->
<svg version="1.1" id="Capa_1" xmlns="http://www.w3.org/2000/svg" xmlns:xlink="http://www.w3.org/1999/xlink" x="0px" y="0px"
	 viewBox="0 0 469 76.02" style="enable-background:new 0 0 469 76.02;" xml:space="preserve">
<style type="text/css">
	.st0{fill:url(#SVGID_1_);}
	.st1{fill:#333333;}
</style>
<g>
	<g>
		<linearGradient id="SVGID_1_" gradientUnits="userSpaceOnUse" x1="12.1646" y1="19.8725" x2="70.1854" y2="62.6553">
			<stop  offset="0" style="stop-color:#00B8FF"/>
			<stop  offset="0.4169" style="stop-color:#00D9C5"/>
			<stop  offset="0.8067" style="stop-color:#00F495"/>
			<stop  offset="1" style="stop-color:#00FF83"/>
		</linearGradient>
		<path class="st0" d="M7.79,30.11C11.39,7.6,17.38,0,30.19,0.04c10.78-0.08,24.56-0.02,35.32,0.03c4.21,0.02,7.47,2.2,7.44,9.79
			c-0.01,2.19-0.29,3.08-1.68,3.07c-12.92-0.13-27.04-0.12-39.97-0.11c-5.14,0.01-9.83,6.37-11.29,15.21
			c-0.05,0.29-8.38,45.65-8.38,45.65c-0.24,2.28-0.62,2.29-1.7,2.33c-3.59,0.11-12.11-0.88-9.4-12.56L7.79,30.11z M62.73,31.34
			c0,0-3.52,18.13-3.52,18.13c-1.75,10.11-7.63,11.36-12.83,12.04c-5.52,0.73-12.17,0.33-17.34,0.43c-2.23,0.04-2.64-0.2-3.44,2.7
			l-1.26,5.9c-1.15,5.29-0.06,5.33,6.06,5.32c3.63,0.04,9.57-0.03,13.21-0.06C71.19,75.84,72.8,42.85,73.1,41.06
			c0.03-0.21,0.35-3.8,0.48-5.38c0.42-4.09-0.34-7.6-8.75-7.54c-1.07,0.06-1.53,0.3-2.04,2.69C62.73,31.34,62.73,31.34,62.73,31.34z
			 M43.21,46.3c7.37,0,6.97-13.57,7.04-13.99c0,0,0.01-0.04,0.01-0.04c0.15-2.71-1.6-4.36-3.47-4.34
			c-4.54,0.04-7.45,0.06-11.96-0.05c-0.9-0.02-1.21,0.68-1.44,2.07c-0.1,0.56-2.18,11.54-2.9,15.42c-0.05,0.28-0.01,0.73,0.56,0.74
			C33.74,46.16,43.13,46.17,43.21,46.3z"/>
	</g>
	<g>
		<g>
			<path class="st1" d="M147.14,10.25c-4.35,0-7.66-0.01-12.44-0.02c-4.92-0.01-9.91-0.02-14.63-0.02c-0.78,0-1.55,0-2.31,0
				c-6.34,0.01-10.17,4.08-11.37,12.11c-0.07,0.37-6.29,33.11-7.84,41.3c-0.03,0.15-0.13,0.8,0.71,0.8h8.52
				c0.55,0,1.03-0.4,1.12-0.94l2.64-14.55c0.33-2.31,1.1-2.44,3.27-2.47c2.8-0.04,6.93-0.03,9.75-0.01l0.28,0
				c2.23,0.01,3.96,0.03,6.39,0.01c11.9-0.09,13.03-7.26,14.12-14.18l3.81-19.82C149.25,12.25,149.33,10.25,147.14,10.25z
				 M133.03,35.8c-0.89,1.23-2.05,1.93-3.46,2.09l-0.75,0.05c-0.42-0.08-1.58-0.1-3.52-0.13c-2.04-0.04-5.01-0.09-9.2-0.24
				l-1.68-0.06c-0.01,0-0.79-0.02-0.56-0.93c0,0,2.24-10.16,3.41-15.95c0.07-0.89,0.14-1.7,1.13-1.64l16.11,0
				c2.37,0,2.77,0.56,2.37,2.35c-0.02,0.1-0.32,2-0.32,2.08C136.57,23.41,134.67,33.55,133.03,35.8z"/>
			<path class="st1" d="M198.28,10.21h-32.7c-1.36,0-2.53,0.97-2.78,2.3l-9.77,51.41c-0.03,0.17,0.04,0.29,0.09,0.34
				c0.05,0.06,0.15,0.15,0.32,0.15h32.67c1.37,0,2.55-0.98,2.79-2.34l0.89-4.98c0.03-0.17-0.04-0.29-0.09-0.34s-0.15-0.15-0.32-0.15
				h-23.05c-0.51,0-0.99-0.23-1.31-0.62c-0.32-0.39-0.45-0.9-0.35-1.4l2.1-10.92c0.37-1.93,2.06-3.33,4.03-3.33h17.95
				c1.36,0,2.53-0.97,2.78-2.31l0.94-5c0.03-0.17-0.04-0.29-0.09-0.35c-0.04-0.06-0.15-0.15-0.32-0.15h-21.15
				c-0.51,0-0.98-0.22-1.31-0.61c-0.32-0.39-0.45-0.9-0.36-1.4l1.75-9.17c0.37-1.94,2.06-3.34,4.03-3.34h19.87
				c1.35,0,2.52-0.96,2.78-2.28l1-5.02c0.03-0.17-0.04-0.29-0.09-0.35S198.45,10.21,198.28,10.21z"/>
			<path class="st1" d="M245.3,10.21c-0.5,0-0.68,0-1.02,0.56l-16.5,25.7c-0.31,0.49-0.84,0.73-1.44,0.65
				c-0.57-0.08-1.03-0.48-1.19-1.04l-7.13-24.95l-0.23-0.79c-0.02-0.08-0.09-0.13-0.17-0.13h-9.04c-0.54,0-0.38,0.63-0.38,0.63
				l11.09,36.83c0.03,0.53,0.05,1.04,0.08,1.57l-2.59,13.63c-0.44,1.56,0.42,1.56,1.06,1.56h6.85c1.51,0,1.83-0.65,2-1.65
				l2.55-13.36c0.18-0.42,0.35-0.83,0.52-1.26L255.5,10.5c0.05-0.07,0.03-0.14,0.01-0.19c-0.02-0.04-0.07-0.1-0.16-0.1H245.3z"/>
			<path class="st1" d="M405.02,56.61H383.4c-0.58,0-1.13-0.26-1.5-0.7c-0.37-0.45-0.52-1.03-0.42-1.6l8.24-43.3
				c0.04-0.2-0.01-0.4-0.14-0.55c-0.13-0.15-0.32-0.24-0.52-0.24h-6.83c-1.3,0-2.41,0.92-2.66,2.2l-9.73,51.21
				c-0.05,0.27,0.06,0.46,0.14,0.55c0.13,0.15,0.32,0.24,0.52,0.24h31.6c1.3,0,2.42-0.93,2.66-2.21l0.91-4.81
				c0.04-0.2-0.01-0.39-0.14-0.55C405.41,56.7,405.23,56.61,405.02,56.61z"/>
			<path class="st1" d="M452.24,10.21h-19.26c-1.15,0-2.27,0.41-2.74,2.84L420.9,61.8c-0.26,1.36,0.78,2.62,2.16,2.62h20
				c15.19,0,19.38-5.65,21-14.14l4.6-24.07c0.25-1.25,0.35-2.19,0.35-3.38C469,14.81,462.89,10.21,452.24,10.21z M458.64,26.86
				l-3.97,20.82c-1.1,5.79-3.27,8.93-11.53,8.93h-8.72c-0.66,0-1.29-0.29-1.71-0.8c-0.42-0.51-0.59-1.18-0.47-1.83l6.51-34.15
				c0.2-1.05,1.11-1.81,2.18-1.81h8.78c6.36,0,9.2,1.92,9.2,6.22C458.92,24.98,458.82,25.94,458.64,26.86z"/>
			<path class="st1" d="M299.09,10.26l-2.2-0.01c-7.45-0.03-14.14-0.05-20.54-0.01c-7.36,0.05-13.71,8.02-15.11,18.95
				c-1.45,7.12-5.2,25.67-5.29,26.61c-0.58,6.87,2.2,7.7,4.66,8.42l0.49,0.15c0.17,0.05,0.96,0.04,1.49,0.04l0.49,0
				c0.78,0.01,3.49,0.01,5.53,0.01l14.03-0.01c12.92,0,14.99-2.65,18.52-23.65l0.03-0.23c0.01-0.08,0.01-0.16,0.03-0.23
				c0.15-1.04,0.27-1.96,0.33-2.6c0.02-1.01-0.32-2.65-1.33-3.79c-0.86-0.96-2.07-1.45-3.62-1.45c-3.37,0.02-11.4,0.03-14.4-0.02
				c-0.16,0-0.46,0-0.54,0.82c-0.02,0.15-0.18,1.05-0.4,2.28c-0.18,1.04-0.42,1.97-0.61,2.71c-0.09,0.36-0.17,0.66-0.22,0.9
				l-0.08,0.4c-0.08,0.36-0.13,0.6-0.18,0.92c1.46,0.02,9.34,0.12,10.29,0.14l1.12,0.02l-0.2,1.09c-0.05,0.28-0.65,3.05-1.07,4.94
				l-0.38,1.73c-0.65,3.08-1.45,6.92-7.39,6.92c-1.16,0-2.61,0.03-4.53,0.07l-6.82,0.14c-1.5,0.04-2.73,0.06-4.21,0.08l-1.08,0.01
				l0.12-1.06c0.26-2.32,2.23-11.57,5.54-26.04l0.15-0.66v0c0,0,0-0.01,0-0.01v-0.01c1.04-5.77,4.47-9.95,8.16-9.95l1.8,0
				c7.76,0,12.89-0.01,21.39,0.07c0.4,0,0.47-0.08,0.54-0.16c0.25-0.26,0.28-0.92,0.29-1.53c0.01-2.2-0.47-3.8-1.41-4.77
				C301.73,10.66,300.61,10.26,299.09,10.26z"/>
			<path class="st1" d="M341.68,9.82c-14.24,0-21.19,4.75-23.22,15.88l-4.17,22.72c-0.22,1.07-0.33,2.21-0.33,3.49
				c0,8.32,6.37,12.9,17.93,12.9c17.29,0,22.03-6.45,23.81-16.13l4.09-22.31c0.17-0.99,0.25-1.84,0.25-2.76
				C360.04,14.98,353.18,9.82,341.68,9.82z M350.5,26.51l-0.01,0.09l-3.92,21.49c-1.15,6.18-5.27,9.05-12.98,9.05
				c-7.13,0-10.17-1.96-10.17-6.54c0-0.84,0.09-1.79,0.27-2.81l3.92-21.42c1.11-6.06,5.24-8.89,12.98-8.89
				c6.88,0,10.09,2.26,10.09,7.12C350.67,25.2,350.58,25.87,350.5,26.51z"/>
		</g>
	</g>
</g>
</svg>
