<?xml version="1.0" encoding="utf-8"?>
<!-- Generator: Adobe Illustrator 22.1.0, SVG Export Plug-In . SVG Version: 6.00 Build 0)  -->
<svg version="1.1" id="Capa_1" xmlns="http://www.w3.org/2000/svg" xmlns:xlink="http://www.w3.org/1999/xlink" x="0px" y="0px"
	 width="45.475px" height="45.729px" viewBox="0 0 45.475 45.729" enable-background="new 0 0 45.475 45.729" xml:space="preserve">
<g>
	<g>
		<path fill="#293E8B" d="M10.459,4.661c-0.065,0.05-0.13,0.1-0.195,0.15C10.286,4.706,10.338,4.639,10.459,4.661z"/>
		<path fill="#049AE0" d="M8.448,15.406c-0.03-0.075-0.059-0.15-0.088-0.226c-0.113-0.357-0.109-0.776-0.513-0.981
			c0,0-0.011-0.02-0.011-0.02c-0.067-0.724-0.36-1.395-0.487-2.111c-0.161-0.911,0.165-1.052,0.941-0.941
			c1.817,0.259,3.493,0.925,5.136,1.703c0.398,0.188,0.414,0.514,0.474,0.892c0.089,0.563,0.247,0.924,0.948,1.08
			c1.311,0.293,2.084,1.376,3.302,1.896c1.098,0.468,2.097,0.766,3.073,1.553c0.138,0.111,0.534,0.814,0.589,0.664
			c0.976-2.677,3.193-2.496,3.154-0.152c0.128,0.015,0.286,0.014,0.391-0.047c0.967-0.561,2.366-0.265,2.993-1.515
			c0.057-0.114,0.281-0.172,0.438-0.205c1.473-0.31-0.939-1.895,0.438-2.376c0.349-0.122,3.36-0.673,3.322-1.085
			c-0.025-0.276-0.005-0.545,0.292-0.674c1.697-0.74,3.478-1.224,5.265-1.68c0.438-0.112,0.603,0.036,0.571,0.588
			c-0.049,0.837-0.35,1.603-0.467,2.413c-1.934,3.802-5.389,5.501-9.243,6.569c-2.071,0.574-4.209,0.87-6.376,0.781
			c-4.527-0.186-8.762-1.243-12.364-4.172c-0.056-0.048-0.112-0.097-0.168-0.145c0,0-0.06-0.036-0.06-0.036
			c-0.265-0.507-0.692-0.866-1.125-1.22c0,0,0,0.001,0,0.001C8.832,15.695,8.71,15.497,8.448,15.406z"/>
		<path fill="#103790" d="M10.055,17.213c0.056,0.048,0.112,0.097,0.168,0.145C10.167,17.309,10.111,17.261,10.055,17.213z"/>
		<path fill="#F4F7F8" d="M32.572,12.188c-0.649,0.213-1.102,0.037-1.64-0.453c-1.738-1.581-3.542-3.093-5.382-4.556
			c-1.332-1.059-2.101-1.046-3.526-0.122c-0.831,0.539-1.618,1.147-2.424,1.724c-0.368,0.323-0.746,0.523-1.372-0.007
			c-0.173-0.189-0.408-0.336-0.087-0.631c0.285-0.263,0.499-0.603,0.745-0.908c0.984-0.871,1.876-1.854,3.218-2.233
			c1.77-0.501,3.39-0.056,5.004,0.629c2.691,1.144,5.381,1.128,8.054-0.083c0.398-0.181,0.673,0.01,0.957,0.274
			c1.29,1.201,2.441,4.412,2.438,4.477C38.479,10.324,33.492,11.736,32.572,12.188z"/>
		<path fill="#049AE0" d="M11.559,4.647c1.399-1.075,2.879-1.635,4.387-2.113c4.959-1.574,9.904-1.533,14.81,0.233
			c1.179,0.424,2.353,0.88,3.394,1.607c0.162,0.113,0.375,0.195,0.377,0.42c0.003,0.291-0.25,0.359-0.469,0.434
			c-2.183,0.75-4.337,0.761-6.476-0.199c-1.682-0.755-3.416-1.267-5.289-0.802c-0.352,0.088-0.773,0.101-1.037,0.308
			c-1.151,0.904-2.572,0.997-3.896,1.368c-0.464,0.13-1.011,0.161-1.476,0.051C14.475,5.622,13.04,5.346,11.559,4.647z"/>
		<path fill="#293E8B" d="M11.854,5.575c-0.201-0.07-0.403-0.141-0.604-0.211C11.564,5.112,11.766,5.18,11.854,5.575z"/>
		<path fill="#F5F7F9" d="M23.071,17.336c-0.906,1.24-1.664,1.226-2.445-0.083c-0.17-0.285-0.296-0.417-0.602-0.238
			c-0.057,0.033-0.116,0.065-0.179,0.085c-1.034,0.338-1.151-1.124-1.717-1.049c-1.047,0.138-1.501-0.178-1.661-1.123
			c-0.051-0.299-0.061-0.445-0.473-0.377c-1.096,0.182-1.306-0.034-1.359-1.177c0.721-0.705,1.308-0.793,1.708-0.111
			c0.302,0.516,0.423,0.341,0.766,0.108c0.823-0.56,1.3-0.443,1.847,0.47c0.165,0.275,0.219,0.264,0.496,0.175
			c1.205-0.389,1.761,0.052,1.632,1.305c-0.042,0.405-0.011,0.5,0.427,0.496C22.689,15.806,22.93,16.072,23.071,17.336z"/>
		<path fill="#F5F7F9" d="M31.754,13.42c-2.163-1.903-4.283-3.857-6.584-5.597c-1.103-0.834-1.611-0.839-2.792-0.069
			c-0.693,0.452-1.337,0.98-2.04,1.414c-1.019,0.629-2.218,0.455-3.055-0.382c-0.019-0.065-0.039-0.131-0.058-0.196
			c-0.018-0.047-0.041-0.093-0.05-0.142c-0.003-0.018,0.029-0.042,0.045-0.063L17.219,8.39c0.122-0.614,0.6-0.961,1.016-1.355
			c0.112-0.189,0.225-0.377,0.447-0.75c-2.505,0.914-4.656,0.023-6.828-0.71c-0.201-0.07-0.403-0.141-0.604-0.211
			c-0.132-0.021-0.265-0.042-0.397-0.064C9.096,6.204,8.252,7.822,7.537,9.54c0,0-0.025,0.054-0.025,0.054
			c-0.02,0.13-0.039,0.261-0.059,0.391c0,0,0.004,0.028,0.004,0.028c0.02,0.102,0.04,0.204,0.058,0.304
			c0.595,0.45,0.987,0.537,1.645,0.642c1.71,0.273,3.628,0.615,5.091,1.511c0.803-0.247,1.601-0.668,2.399,0.037
			c0.198,0.175,0.438-0.008,0.659-0.049c0.256-0.048,1.03-0.272,1.236-0.18c0.468,0.209,0.457,0.96,0.933,1.142
			c0.51,0.196,1.044-0.069,1.587,0.039c0.111,0.022,0.265,0.156,0.284,0.259c0.082,0.448,0.198,1.211,0.47,1.481
			c0.453,0.45,1.166,0.31,1.608,0.769l0,0c0.426,0.589,0.094,1.298,0.304,1.921c0.573,0.109,1.177,0.636,1.685-0.127
			c0.184-0.155-0.029-0.19-0.029-0.19c-0.376-0.426-0.654-0.742-1.029-1.168c-0.046-0.052,0.101-0.241,0.167-0.218
			c0.588,0.213,0.798,0.797,1.106,0.965c0.336,0.719,1.009,0.525,1.408,0.241c0.071,0.017,0.125-0.006,0.162-0.069
			c0.063-0.052,0.125-0.105,0.188-0.157c0.29-0.256,0.109-0.502-0.018-0.748c0.018-0.207-0.427-0.498-0.431-0.561
			c-0.223-0.559-0.325-0.756-0.983-1.234c0.745,0.494,0.734,0.616,1.21,0.947c0.041,0.067,0.28,0.139,0.321,0.206
			c0,0,0.005,0.002,0.005,0.001c0.103,0.083,0.207,0.165,0.308,0.249c0.643,0.537,1.236,0.343,1.744-0.181
			c0.551-0.569,0.036-0.953-0.32-1.329c-0.523-0.551-1.068-1.081-1.595-1.628c-0.174-0.181,0.31-0.317,0.685,0.011
			c0.094,0.082,0.848,0.663,1.623,1.369c0.379,0.346,0.792,0.467,1.273,0.287C31.746,14.354,31.835,13.924,31.754,13.42z"/>
		<path fill="#293E8B" d="M7.457,10.012c0.02,0.102,0.039,0.204,0.058,0.304C7.495,10.214,7.476,10.113,7.457,10.012z"/>
		<path fill="#D6F3F8" d="M27.201,17.323c0.062-0.052,0.125-0.105,0.187-0.157C27.388,17.292,27.32,17.339,27.201,17.323z"/>
		<path fill="#293E8B" d="M38.325,10.37c0.077-0.023,0.154-0.047,0.231-0.07C38.479,10.324,38.402,10.347,38.325,10.37z"/>
		<path fill="#293E8B" d="M17.22,8.385c0.002,0.068,0.003,0.137,0.005,0.205c-0.018-0.047-0.041-0.093-0.05-0.142
			C17.172,8.431,17.204,8.407,17.22,8.385z"/>
		<path fill="#092A8D" d="M7.066,13.97c0.002,0,0.004-0.004,0.006-0.004C7.06,12.944,7.044,11.493,7.066,13.97z"/>
		<path fill="#293E8B" d="M39.608,10.644c-0.336-2.74-2.284-9.779-15.167-10.592c-7.917-0.5-15.802,2.601-17.75,9.344
			c0.107,0.061-1.594,4.575,2.653,9.196c2.477,2.695,5.773,3.944,9.323,4.466c5.182,0.762,10.601,0.258,15.191-2.547
			C39.852,16.848,39.77,11.967,39.608,10.644z M7.046,11.468c-0.004,0.218-0.009,0.436-0.003,0.654
			c-0.006-0.219-0.001-0.438,0.003-0.657C7.046,11.466,7.046,11.467,7.046,11.468z M7.066,13.97c0.002,0,0.005,0.001,0.007,0.001
			c0.005,0.404,0.008,0.687,0.008,0.719C7.077,14.45,7.071,14.21,7.066,13.97z M35.161,5.549L35.161,5.549
			c0.398-0.181,0.673,0.01,0.957,0.274c0.94,0.875,1.838,2.808,2.207,3.834c0.231,0.643-0.171,0.765-0.171,0.765
			c-0.517,0.075-4.661,1.314-5.582,1.765c-0.649,0.213-1.102,0.037-1.64-0.453c-1.738-1.581-3.542-3.093-5.382-4.556
			c-1.332-1.059-2.101-1.046-3.526-0.122c-0.831,0.539-1.618,1.147-2.424,1.724c-0.451,0.241-0.875,0.323-1.372-0.007
			c-0.173-0.189-0.407-0.336-0.087-0.631c0.285-0.263,0.499-0.603,0.745-0.909c0.984-0.871,1.876-1.854,3.218-2.233
			c1.77-0.501,3.39-0.056,5.004,0.629C29.798,6.776,32.489,6.76,35.161,5.549z M15.946,2.534c4.959-1.574,9.904-1.533,14.81,0.233
			c1.179,0.424,2.353,0.88,3.395,1.607c0.162,0.113,0.375,0.195,0.377,0.42c0.003,0.291-0.25,0.359-0.469,0.434
			c-2.183,0.75-4.337,0.761-6.476-0.199c-1.682-0.755-3.416-1.267-5.289-0.802c-0.353,0.088-0.773,0.101-1.037,0.308
			c-1.151,0.904-2.572,0.997-3.896,1.368c-0.464,0.13-1.011,0.161-1.476,0.051c-1.411-0.333-2.845-0.609-4.326-1.308
			C12.958,3.572,14.438,3.012,15.946,2.534z M10.853,5.301c0.132,0.021,0.264,0.042,0.397,0.063
			c0.314-0.252,0.516-0.184,0.604,0.211c2.172,0.733,4.324,1.624,6.828,0.71c-0.222,0.373-0.334,0.561-0.447,0.75
			c-0.415,0.393-0.893,0.74-1.015,1.353c0-0.001,0-0.002,0-0.003L17.219,8.39c0,0,0.001,0,0.001,0
			c0.002,0.067,0.003,0.133,0.005,0.2c0.019,0.065,0.039,0.131,0.058,0.196l0,0c0.837,0.837,2.037,1.011,3.055,0.382
			c0.703-0.434,1.347-0.962,2.04-1.414c1.181-0.77,1.688-0.765,2.792,0.069c2.301,1.739,4.421,3.693,6.584,5.597
			c0.081,0.504-0.008,0.934-0.544,1.135c-0.481,0.181-0.894,0.06-1.273-0.287c-0.775-0.706-0.975-0.999-1.858-1.769
			c-0.375-0.327-0.624,0.208-0.45,0.389c0.527,0.547,1.073,1.077,1.595,1.628c0.356,0.376,0.871,0.76,0.32,1.329
			c-0.508,0.524-1.101,0.718-1.744,0.181c-0.101-0.085-0.205-0.166-0.308-0.249v0c0,0-0.005-0.002-0.005-0.002v0
			c-0.041-0.067-0.786-0.935-1.386-1.458c-0.4-0.349-0.612,0.112-0.373,0.345c0.588,0.574,1.642,1.756,1.642,1.756
			c0.127,0.246,0.174,0.437-0.116,0.693c0,0.126-0.806,0.839-1.435,0.233c0,0-0.928-1.046-1.188-1.294
			c-0.173-0.165-0.518,0.067-0.274,0.353c0.336,0.396,0.686,0.779,1.029,1.168l0.001,0.003c0.032,0.041,0.051,0.166,0.028,0.187
			c-0.507,0.763-1.112,0.236-1.685,0.127v0c-0.21-0.623,0.115-1.777-0.312-2.365c-0.442-0.459-0.935-0.07-1.388-0.521
			c-0.272-0.27-0.283-0.697-0.365-1.145c-0.019-0.103-0.212-0.506-0.659-0.624c-0.696-0.183-1.008,0.112-1.459-0.118
			c-0.22-0.112-0.421-0.512-0.816-0.839c-0.416-0.345-1.168,0.132-1.424,0.18c-0.221,0.041-0.46,0.224-0.659,0.049
			c-0.799-0.705-1.597-0.284-2.4-0.037c-1.462-0.896-2.918-1.214-4.736-1.738c-0.512-0.148-0.851-0.193-1.255-0.318
			c-0.185-0.057-0.234-0.243-0.236-0.437C8.009,8.958,9.387,6.055,10.853,5.301z M21.511,15.817c1.178-0.011,1.418,0.255,1.56,1.519
			c-0.906,1.24-1.664,1.226-2.445-0.083c-0.17-0.285-0.296-0.417-0.602-0.238c-0.057,0.033-0.116,0.065-0.179,0.085
			c-1.034,0.338-1.151-1.124-1.718-1.049c-1.047,0.138-1.5-0.178-1.661-1.123c-0.051-0.299-0.061-0.445-0.473-0.377
			c-1.096,0.182-1.306-0.034-1.359-1.177v0c0.72-0.705,1.308-0.793,1.708-0.111c0.302,0.516,0.423,0.341,0.766,0.108
			c0.823-0.56,1.3-0.443,1.846,0.47c0.165,0.275,0.219,0.264,0.496,0.175c1.205-0.389,1.761,0.052,1.632,1.305
			C21.042,15.726,21.073,15.821,21.511,15.817z M28.964,20.749c-2.101,0.454-4.213,0.935-6.376,0.781
			C9.348,20.586,7.89,13.559,7.745,11.553c-0.015-0.201,0.15-0.42,0.371-0.37c1.05,0.235,3.952,1.005,5.31,1.647
			c0.398,0.188,0.414,0.514,0.474,0.892c0.089,0.563,0.13,1.267,0.831,1.424c0.48,0.107,1.139,0.046,1.227,0.594
			c0.094,0.58,0.906,1.473,2.068,1.282c0.642,0.883,1.46,1.164,2.167,0.906c0,0,0.581,0.637,1.056,0.86
			c0.591,0.509,1.706-0.247,2.007-0.435c0,0,0.996,0.59,1.565,0.553c0.128,0.015,0.431-0.128,0.536-0.189
			c0.967-0.561,2.366-0.265,2.993-1.515c0.057-0.114,0.281-0.172,0.438-0.206c0.872-0.184,1.915-0.573,1.939-1.573
			c0,0,0.894-0.212,1.499-0.804c0.264-0.258,0.36-0.673,0.322-1.085c-0.025-0.276-0.005-0.545,0.292-0.674
			c1.697-0.74,3.478-1.224,5.265-1.68c0.438-0.112,0.603,0.036,0.57,0.588C38.625,12.604,36.234,19.178,28.964,20.749z"/>
	</g>
	<g>
		<path fill="#102C8A" d="M5.891,33.886H4.139v-3.961v-0.355c0-0.406-0.123-0.702-0.368-0.889c-0.245-0.186-0.521-0.279-0.825-0.279
			S2.37,28.494,2.133,28.68c-0.237,0.187-0.355,0.482-0.355,0.889v4.316H0v-3.961c0-1.151,0.301-1.921,0.901-2.311
			c0.601-0.389,1.266-0.601,1.993-0.635c0.39,0,0.771,0.042,1.143,0.127c0.372,0.085,0.711,0.254,1.016,0.508
			c0.254-0.22,0.555-0.376,0.901-0.47c0.347-0.093,0.707-0.148,1.079-0.165c0.745,0,1.431,0.195,2.057,0.584
			c0.626,0.39,0.939,1.177,0.939,2.361v3.961H9.141c-0.254,0-0.461-0.08-0.622-0.241c-0.161-0.161-0.241-0.368-0.241-0.622v-3.453
			c0-0.406-0.123-0.702-0.368-0.889c-0.245-0.186-0.521-0.279-0.825-0.279s-0.58,0.093-0.825,0.279
			c-0.245,0.187-0.368,0.482-0.368,0.889v0.355V33.886z"/>
		<path fill="#102C8A" d="M15.209,31.804h1.27c-0.187,0.711-0.542,1.253-1.066,1.625c-0.524,0.39-1.185,0.584-1.98,0.584
			c-0.965,0-1.718-0.313-2.26-0.939c-0.542-0.609-0.813-1.481-0.813-2.615c0-1.083,0.263-1.93,0.787-2.539
			c0.542-0.626,1.295-0.939,2.26-0.939c1.016,0,1.803,0.305,2.361,0.914c0.542,0.626,0.813,1.498,0.813,2.615
			c0,0.068,0,0.127,0,0.178s0,0.085,0,0.102c0,0.085-0.009,0.144-0.025,0.178h-4.393c0.017,0.525,0.144,0.914,0.381,1.168
			c0.22,0.271,0.55,0.406,0.99,0.406c0.288,0,0.533-0.059,0.736-0.178c0.051-0.017,0.098-0.046,0.14-0.089
			c0.042-0.042,0.089-0.089,0.14-0.14c0.017-0.051,0.08-0.118,0.19-0.203C14.85,31.846,15.006,31.804,15.209,31.804z M12.162,29.823
			h2.59c-0.034-0.457-0.152-0.795-0.355-1.016c-0.22-0.237-0.533-0.355-0.939-0.355c-0.372,0-0.677,0.119-0.914,0.355
			C12.306,29.045,12.179,29.383,12.162,29.823z"/>
		<path fill="#102C8A" d="M16.859,33.886V30.61c0-0.66,0.098-1.214,0.292-1.663c0.194-0.448,0.461-0.808,0.8-1.079
			c0.321-0.254,0.698-0.44,1.13-0.559c0.432-0.118,0.876-0.178,1.333-0.178c0.034,0,0.076,0,0.127,0s0.093,0,0.127,0v1.803h-0.584
			c-0.491,0-0.854,0.119-1.092,0.355c-0.237,0.237-0.355,0.609-0.355,1.117v3.479H16.859z"/>
		<path fill="#102C8A" d="M25.543,31.804h1.27c-0.187,0.711-0.542,1.253-1.066,1.625c-0.524,0.39-1.185,0.584-1.98,0.584
			c-0.965,0-1.718-0.313-2.26-0.939c-0.542-0.609-0.813-1.481-0.813-2.615c0-1.083,0.263-1.93,0.787-2.539
			c0.542-0.626,1.295-0.939,2.26-0.939c1.016,0,1.803,0.305,2.361,0.914c0.305,0.373,0.524,0.804,0.66,1.295h-1.777
			c-0.085-0.169-0.169-0.296-0.254-0.381c-0.22-0.237-0.533-0.355-0.939-0.355c-0.372,0-0.677,0.119-0.914,0.355
			c-0.305,0.339-0.457,0.897-0.457,1.676c0,0.779,0.152,1.329,0.457,1.65c0.22,0.271,0.55,0.406,0.99,0.406
			c0.288,0,0.533-0.059,0.736-0.178c0.051-0.017,0.098-0.046,0.14-0.089c0.042-0.042,0.089-0.089,0.14-0.14
			c0.034-0.051,0.102-0.118,0.203-0.203C25.188,31.846,25.34,31.804,25.543,31.804z"/>
		<path fill="#102C8A" d="M31.408,33.606c-0.355,0.187-0.732,0.3-1.13,0.343c-0.397,0.042-0.749,0.063-1.054,0.063
			c-0.609,0-1.143-0.165-1.6-0.495s-0.686-0.876-0.686-1.638c0-0.711,0.207-1.219,0.622-1.523s0.943-0.508,1.587-0.609
			c0.085,0,0.187-0.013,0.305-0.038s0.254-0.046,0.406-0.063c0.745-0.102,1.117-0.321,1.117-0.66c0-0.254-0.131-0.419-0.394-0.495
			s-0.504-0.114-0.724-0.114c-0.237,0-0.448,0.034-0.635,0.102c-0.187,0.068-0.321,0.195-0.406,0.381h-1.701
			c0.067-0.524,0.305-0.956,0.711-1.295c0.457-0.389,1.108-0.584,1.955-0.584c0.948,0,1.659,0.161,2.133,0.482
			c0.491,0.339,0.736,0.813,0.736,1.422v2.311c0,0.677-0.123,1.206-0.368,1.587S31.747,33.437,31.408,33.606z M31.002,30.483
			c-0.237,0.119-0.567,0.229-0.99,0.33l-0.584,0.127c-0.305,0.085-0.524,0.195-0.66,0.33c-0.118,0.187-0.178,0.373-0.178,0.559
			c0,0.254,0.076,0.457,0.229,0.609c0.152,0.136,0.372,0.203,0.66,0.203c0.474,0,0.847-0.135,1.117-0.406
			c0.271-0.271,0.406-0.643,0.406-1.117V30.483z"/>
		<path fill="#102C8A" d="M37.375,25.126h0.863c0.237,0,0.44,0.089,0.609,0.267s0.254,0.377,0.254,0.597v4.951
			c0,1.202-0.347,2.015-1.041,2.438c-0.694,0.423-1.447,0.635-2.26,0.635c-0.44,0-0.872-0.072-1.295-0.216s-0.762-0.376-1.016-0.698
			c-0.491-0.626-0.736-1.481-0.736-2.564c0-1.066,0.245-1.921,0.736-2.564c0.508-0.66,1.159-0.99,1.955-0.99
			c0.423,0,0.796,0.085,1.117,0.254c0.339,0.203,0.609,0.466,0.813,0.787V25.126z M34.48,30.458c0,0.677,0.127,1.193,0.381,1.549
			s0.618,0.533,1.092,0.533c0.457,0,0.813-0.178,1.066-0.533c0.237-0.355,0.355-0.872,0.355-1.549c0-0.609-0.127-1.092-0.381-1.447
			c-0.271-0.338-0.635-0.508-1.092-0.508c-0.44,0-0.787,0.178-1.041,0.533C34.607,29.375,34.48,29.848,34.48,30.458z"/>
		<path fill="#102C8A" d="M40.244,33.276c-0.355-0.305-0.609-0.715-0.762-1.231c-0.152-0.516-0.229-1.054-0.229-1.612
			c0-0.457,0.063-0.914,0.19-1.371s0.326-0.838,0.597-1.143c0.44-0.508,1.007-0.808,1.701-0.901c0.694-0.093,1.32-0.038,1.879,0.165
			c0.644,0.254,1.117,0.694,1.422,1.32c0.288,0.559,0.432,1.21,0.432,1.955c0,0.542-0.06,1.007-0.178,1.396
			c-0.118,0.39-0.271,0.72-0.457,0.99c-0.406,0.559-0.923,0.906-1.549,1.041c-0.559,0.152-1.121,0.165-1.688,0.038
			S40.583,33.581,40.244,33.276z M41.463,28.807c-0.355,0.39-0.517,0.969-0.482,1.739c0.034,0.771,0.178,1.308,0.432,1.612
			c0.102,0.136,0.279,0.25,0.533,0.343c0.254,0.093,0.512,0.102,0.774,0.025s0.495-0.267,0.698-0.571s0.313-0.795,0.33-1.473
			c0-0.609-0.098-1.066-0.292-1.371s-0.419-0.499-0.673-0.584c-0.254-0.084-0.508-0.089-0.762-0.013S41.581,28.689,41.463,28.807z"
			/>
		<path fill="#13A0DD" d="M11.934,44.511c0,0.237-0.085,0.44-0.254,0.609c-0.169,0.169-0.372,0.254-0.609,0.254h-0.863v-6.322
			c0-1.185,0.347-1.993,1.041-2.425s1.447-0.647,2.26-0.647c0.423,0,0.851,0.081,1.282,0.241c0.432,0.161,0.774,0.394,1.028,0.698
			c0.508,0.66,0.762,1.507,0.762,2.539c0,1.066-0.254,1.93-0.762,2.59c-0.508,0.644-1.159,0.965-1.955,0.965
			c-0.423,0-0.796-0.076-1.117-0.229c-0.339-0.169-0.609-0.432-0.813-0.787V44.511z M14.828,39.534c0-0.66-0.127-1.168-0.381-1.523
			s-0.618-0.533-1.092-0.533c-0.457,0-0.813,0.178-1.066,0.533c-0.237,0.322-0.355,0.83-0.355,1.523
			c0,0.644,0.127,1.126,0.381,1.447c0.254,0.355,0.618,0.533,1.092,0.533c0.44,0,0.787-0.178,1.041-0.533
			S14.828,40.143,14.828,39.534z"/>
		<path fill="#13A0DD" d="M21.201,42.606c-0.355,0.187-0.732,0.3-1.13,0.343c-0.397,0.042-0.749,0.063-1.054,0.063
			c-0.609,0-1.143-0.165-1.6-0.495s-0.686-0.876-0.686-1.638c0-0.711,0.207-1.219,0.622-1.523s0.943-0.508,1.587-0.609
			c0.085,0,0.187-0.013,0.305-0.038s0.254-0.046,0.406-0.063c0.745-0.102,1.117-0.321,1.117-0.66c0-0.254-0.131-0.419-0.394-0.495
			s-0.504-0.114-0.724-0.114c-0.237,0-0.448,0.034-0.635,0.102c-0.187,0.068-0.321,0.195-0.406,0.381H16.91
			c0.067-0.524,0.305-0.956,0.711-1.295c0.457-0.389,1.108-0.584,1.955-0.584c0.948,0,1.659,0.161,2.133,0.482
			c0.491,0.339,0.736,0.813,0.736,1.422v2.311c0,0.677-0.123,1.206-0.368,1.587S21.54,42.437,21.201,42.606z M20.795,39.483
			c-0.237,0.119-0.567,0.229-0.99,0.33l-0.584,0.127c-0.305,0.085-0.524,0.195-0.66,0.33c-0.118,0.187-0.178,0.373-0.178,0.559
			c0,0.254,0.076,0.457,0.229,0.609c0.152,0.136,0.372,0.203,0.66,0.203c0.474,0,0.847-0.135,1.117-0.406
			c0.271-0.271,0.406-0.643,0.406-1.117V39.483z"/>
		<path fill="#13A0DD" d="M27.168,42.479v-0.432c-0.305,0.474-0.715,0.771-1.231,0.889s-1.028,0.076-1.536-0.127
			s-0.943-0.58-1.308-1.13c-0.364-0.55-0.546-1.273-0.546-2.171c0-1.049,0.241-1.9,0.724-2.552c0.482-0.651,1.257-0.978,2.323-0.978
			c0.813,0,1.565,0.22,2.26,0.66c0.694,0.44,1.041,1.253,1.041,2.438v3.58c0,1.185-0.347,1.993-1.041,2.425s-1.447,0.647-2.26,0.647
			c-1.558,0-2.522-0.728-2.895-2.184h1.854c0.136,0.237,0.343,0.419,0.622,0.546s0.559,0.161,0.838,0.102
			c0.279-0.06,0.533-0.225,0.762-0.495C27.003,43.427,27.134,43.021,27.168,42.479z M24.273,39.559c0,1.168,0.339,1.815,1.016,1.942
			s1.177-0.029,1.498-0.47c0.152-0.186,0.263-0.478,0.33-0.876c0.067-0.397,0.072-0.791,0.013-1.181
			c-0.06-0.389-0.199-0.736-0.419-1.041s-0.542-0.457-0.965-0.457c-0.575,0-0.965,0.212-1.168,0.635
			C24.375,38.535,24.273,39.018,24.273,39.559z"/>
		<path fill="#13A0DD" d="M30.037,42.276c-0.355-0.305-0.609-0.715-0.762-1.231c-0.152-0.516-0.229-1.054-0.229-1.612
			c0-0.457,0.063-0.914,0.19-1.371s0.326-0.838,0.597-1.143c0.44-0.508,1.007-0.808,1.701-0.901c0.694-0.093,1.32-0.038,1.879,0.165
			c0.644,0.254,1.117,0.694,1.422,1.32c0.288,0.559,0.432,1.21,0.432,1.955c0,0.542-0.06,1.007-0.178,1.396
			c-0.118,0.39-0.271,0.72-0.457,0.99c-0.406,0.559-0.923,0.906-1.549,1.041c-0.559,0.152-1.121,0.165-1.688,0.038
			S30.376,42.581,30.037,42.276z M31.256,37.807c-0.355,0.39-0.517,0.969-0.482,1.739c0.034,0.771,0.178,1.308,0.432,1.612
			c0.102,0.136,0.279,0.25,0.533,0.343c0.254,0.093,0.512,0.102,0.774,0.025s0.495-0.267,0.698-0.571s0.313-0.795,0.33-1.473
			c0-0.609-0.098-1.066-0.292-1.371s-0.419-0.499-0.673-0.584c-0.254-0.084-0.508-0.089-0.762-0.013S31.374,37.689,31.256,37.807z"
			/>
	</g>
</g>
</svg>
