<?xml version="1.0" encoding="utf-8"?>
<!-- Generator: Adobe Illustrator 22.1.0, SVG Export Plug-In . SVG Version: 6.00 Build 0)  -->
<svg version="1.1" id="Capa_1" xmlns="http://www.w3.org/2000/svg" xmlns:xlink="http://www.w3.org/1999/xlink" x="0px" y="0px"
	 width="149.576px" height="24.245px" viewBox="0 0 149.576 24.245" enable-background="new 0 0 149.576 24.245"
	 xml:space="preserve">
<path fill="none" d="M2.484,9.604C3.633,2.424,5.543,0,9.627,0.013c3.437-0.026,7.832-0.006,11.265,0.009
	c1.341,0.006,2.381,0.702,2.373,3.123c-0.002,0.697-0.094,0.983-0.536,0.979C18.61,4.083,14.106,4.085,9.981,4.09
	c-1.641,0.002-3.136,2.031-3.6,4.852C6.365,9.035,3.708,23.501,3.708,23.501c-0.078,0.726-0.197,0.732-0.543,0.742
	c-1.145,0.035-3.863-0.281-2.997-4.006L2.484,9.604z M20.005,9.995c0,0-1.122,5.782-1.122,5.782
	c-0.558,3.224-2.433,3.623-4.093,3.841c-1.762,0.231-3.881,0.106-5.531,0.137c-0.711,0.014-0.842-0.065-1.096,0.861L7.76,22.499
	c-0.366,1.687-0.02,1.699,1.934,1.698c1.159,0.013,3.053-0.009,4.215-0.019c8.797,0.01,9.308-10.511,9.404-11.082
	c0.009-0.068,0.112-1.212,0.154-1.715c0.133-1.303-0.107-2.422-2.792-2.404c-0.342,0.018-0.489,0.096-0.65,0.856
	C20.005,9.995,20.005,9.995,20.005,9.995z M13.781,14.765c2.351,0,2.224-4.327,2.244-4.461c0,0,0.002-0.012,0.002-0.012
	c0.049-0.863-0.511-1.391-1.108-1.386c-1.448,0.013-2.375,0.02-3.814-0.014c-0.286-0.007-0.386,0.216-0.458,0.661
	c-0.033,0.18-0.694,3.679-0.924,4.919c-0.017,0.09-0.002,0.233,0.18,0.236C10.759,14.721,13.756,14.725,13.781,14.765z
	 M46.927,3.269c-1.387,0-2.443-0.002-3.968-0.005c-1.569-0.002-3.159-0.005-4.666-0.005c-0.248,0-0.494,0-0.736,0
	C35.534,3.261,34.314,4.56,33.93,7.12c-0.023,0.117-2.006,10.56-2.5,13.171c-0.009,0.047-0.042,0.254,0.226,0.254h2.718
	c0.176,0,0.327-0.126,0.359-0.299l0.842-4.642c0.106-0.736,0.351-0.778,1.043-0.788c0.894-0.014,2.211-0.008,3.11-0.003l0.09,0.001
	c0.713,0.005,1.264,0.009,2.038,0.002c3.796-0.03,4.155-2.314,4.503-4.524l1.215-6.322C47.601,3.907,47.625,3.269,46.927,3.269z
	 M42.427,11.418c-0.283,0.392-0.653,0.615-1.103,0.665l-0.239,0.017c-0.134-0.024-0.505-0.031-1.121-0.042
	c-0.652-0.012-1.599-0.028-2.933-0.076l-0.535-0.019c-0.003,0-0.252-0.008-0.179-0.298c0,0,0.716-3.24,1.087-5.088
	c0.021-0.283,0.046-0.542,0.362-0.524l5.137-0.002c0.756,0,0.882,0.178,0.755,0.749c-0.007,0.031-0.101,0.639-0.103,0.664
	C43.556,7.466,42.948,10.699,42.427,11.418z M63.341,3.306c0.015,0.018,0.038,0.057,0.028,0.111L63.05,5.019
	c-0.084,0.423-0.455,0.728-0.886,0.728h-6.337c-0.629,0-1.169,0.447-1.287,1.065l-0.557,2.925c-0.031,0.159,0.011,0.321,0.113,0.446
	c0.103,0.124,0.255,0.196,0.417,0.196h6.745c0.055,0,0.088,0.03,0.102,0.048c0.015,0.018,0.039,0.057,0.029,0.11l-0.301,1.595
	c-0.08,0.427-0.453,0.736-0.888,0.736h-5.726c-0.628,0-1.168,0.446-1.287,1.063l-0.67,3.484c-0.031,0.158,0.01,0.321,0.113,0.446
	c0.103,0.125,0.256,0.197,0.417,0.197H60.4c0.055,0,0.088,0.03,0.103,0.048c0.015,0.018,0.038,0.056,0.029,0.109L60.248,19.8
	c-0.077,0.431-0.452,0.745-0.89,0.745h-10.42c-0.055,0-0.088-0.031-0.103-0.048c-0.015-0.018-0.038-0.056-0.029-0.11l3.116-16.395
	c0.081-0.426,0.453-0.734,0.886-0.734h10.428C63.292,3.258,63.325,3.288,63.341,3.306z M81.439,3.258
	c0.029,0,0.044,0.017,0.051,0.031c0.007,0.014,0.013,0.036-0.003,0.06l-8.213,12.009c-0.056,0.135-0.11,0.266-0.166,0.4
	l-0.812,4.261c-0.052,0.321-0.153,0.527-0.637,0.527h-2.183c-0.203,0-0.476,0-0.337-0.497l0.827-4.345
	c-0.009-0.169-0.017-0.331-0.026-0.5L66.403,3.458c0,0-0.051-0.2,0.121-0.2h2.883c0.026,0,0.048,0.017,0.056,0.042l0.072,0.252
	l2.273,7.957c0.051,0.178,0.196,0.305,0.379,0.332c0.189,0.025,0.359-0.053,0.458-0.208l5.262-8.197
	c0.109-0.178,0.166-0.178,0.325-0.178H81.439z M129.336,18.133c0.041,0.05,0.058,0.112,0.045,0.176l-0.289,1.533
	c-0.077,0.408-0.433,0.703-0.848,0.703h-10.078c-0.064,0-0.125-0.028-0.165-0.077c-0.024-0.029-0.061-0.09-0.044-0.176l3.103-16.333
	c0.077-0.407,0.433-0.702,0.847-0.702h2.177c0.064,0,0.124,0.028,0.165,0.077c0.04,0.049,0.057,0.113,0.045,0.176l-2.629,13.809
	c-0.034,0.182,0.014,0.369,0.133,0.511c0.118,0.143,0.292,0.225,0.478,0.225h6.896C129.236,18.056,129.295,18.083,129.336,18.133z
	 M144.232,3.258h-6.143c-0.368,0-0.724,0.131-0.875,0.906l-2.98,15.547c-0.083,0.433,0.249,0.834,0.689,0.834h6.377
	c4.845,0,6.181-1.803,6.698-4.511l1.466-7.678c0.081-0.398,0.112-0.699,0.112-1.078C149.576,4.723,147.628,3.258,144.232,3.258z
	 M146.271,8.566l-1.265,6.641c-0.352,1.847-1.042,2.848-3.676,2.848h-2.781c-0.212,0-0.41-0.094-0.546-0.257
	c-0.135-0.163-0.19-0.377-0.149-0.584l2.077-10.892c0.063-0.334,0.356-0.576,0.695-0.576h2.801c2.029,0,2.934,0.611,2.934,1.983
	C146.361,7.968,146.329,8.272,146.271,8.566z M96.479,3.656c0.302,0.31,0.453,0.823,0.45,1.523
	c-0.001,0.194-0.013,0.405-0.091,0.489C96.815,5.694,96.79,5.72,96.664,5.72c-2.713-0.025-4.347-0.023-6.823-0.022l-0.574,0
	c-1.179,0.001-2.274,1.336-2.604,3.175v0.003c0,0.001-0.001,0.002-0.001,0.004V8.878L86.614,9.09
	c-1.055,4.615-1.682,7.564-1.766,8.304l-0.039,0.34l0.344-0.002c0.47-0.004,0.863-0.013,1.342-0.025l2.174-0.045
	c0.613-0.013,1.074-0.023,1.444-0.023c1.896,0,2.151-1.223,2.358-2.206l0.12-0.552c0.133-0.603,0.325-1.486,0.341-1.577l0.063-0.349
	l-0.356-0.007c-0.303-0.006-2.816-0.037-3.282-0.043c0.015-0.102,0.032-0.18,0.056-0.294l0.026-0.127
	c0.017-0.077,0.042-0.175,0.071-0.288c0.06-0.233,0.136-0.532,0.194-0.863c0.07-0.394,0.121-0.681,0.127-0.728
	c0.027-0.261,0.12-0.261,0.172-0.261c0.958,0.017,3.519,0.014,4.594,0.008c0.492,0,0.88,0.156,1.153,0.463
	c0.323,0.364,0.43,0.886,0.424,1.209c-0.019,0.203-0.056,0.498-0.105,0.828c-0.005,0.023-0.007,0.049-0.01,0.075l-0.009,0.074
	c-1.126,6.698-1.789,7.543-5.908,7.543l-4.476,0.004c-0.65,0-1.516,0-1.764-0.003l-0.155,0.001c-0.167,0.001-0.42,0.003-0.475-0.013
	l-0.156-0.047c-0.783-0.231-1.67-0.494-1.486-2.686c0.032-0.298,1.228-6.216,1.689-8.486c0.444-3.486,2.47-6.029,4.818-6.045
	c2.04-0.013,4.173-0.008,6.551,0.002l0.701,0.003C95.873,3.273,96.229,3.399,96.479,3.656z M108.972,3.131
	c-4.543,0-6.758,1.515-7.405,5.066l-1.331,7.247c-0.071,0.342-0.106,0.705-0.106,1.115c0,2.653,2.031,4.114,5.717,4.114
	c5.515,0,7.024-2.057,7.594-5.145l1.304-7.116c0.054-0.315,0.079-0.586,0.079-0.879C114.825,4.776,112.637,3.131,108.972,3.131z
	 M111.782,8.455l-0.004,0.029l-1.249,6.855c-0.367,1.97-1.682,2.888-4.138,2.888c-2.274,0-3.245-0.624-3.245-2.087
	c0-0.269,0.029-0.571,0.085-0.897l1.249-6.831c0.355-1.934,1.67-2.835,4.138-2.835c2.195,0,3.218,0.721,3.218,2.27
	C111.836,8.037,111.809,8.249,111.782,8.455z"/>
</svg>
