<?xml version="1.0" encoding="utf-8"?>
<!-- Generator: Adobe Illustrator 21.0.2, SVG Export Plug-In . SVG Version: 6.00 Build 0)  -->
<svg version="1.1" id="Capa_1" xmlns="http://www.w3.org/2000/svg" xmlns:xlink="http://www.w3.org/1999/xlink" x="0px" y="0px"
	 viewBox="0 0 33.8 33.8" style="enable-background:new 0 0 33.8 33.8;" xml:space="preserve">
<style type="text/css">
	.st0{fill:#3472B6;}
	.st1{fill:#FFFFFF;}
</style>
<title>notificacion-bell</title>
<path class="st0" d="M12,0h9.8c6.6,0,12,5.4,12,12v9.7c0,6.6-5.4,12-12,12H12c-6.6,0-12-5.4-12-12V12C0,5.4,5.4,0,12,0z"/>
<path class="st1" d="M23.4,21.1l-0.1-0.1c-0.6-0.7-1.7-1.8-1.7-5c0-2.3-1.6-4.3-3.9-4.8h-0.2v-0.9c0-0.4-0.3-0.8-0.7-0.9
	c-0.4,0-0.8,0.3-0.9,0.7c0,0.1,0,0.1,0,0.2v0.9h-0.2c-2.3,0.4-3.9,2.4-3.9,4.8c0,3.2-1.1,4.3-1.7,5l-0.1,0.1
	c-0.1,0.1-0.2,0.3-0.2,0.5c0,0.4,0.4,0.8,0.8,0.8h3.8c0.3,1.3,1.6,2.2,3,1.9c0.9-0.2,1.7-0.9,1.9-1.9h3.8c0.4,0,0.8-0.3,0.8-0.8
	c0,0,0,0,0,0C23.6,21.4,23.5,21.2,23.4,21.1z M11.1,21.3l0.3-0.4c1-1.5,1.5-3.2,1.4-5c-0.1-2.1,1.5-4,3.7-4.1c2.1-0.1,4,1.5,4.1,3.7
	c0,0.1,0,0.3,0,0.4c-0.1,1.8,0.4,3.5,1.4,5l0.3,0.4H11.1z"/>
</svg>
