<?xml version="1.0" encoding="utf-8"?>
<!-- Generator: Adobe Illustrator 21.0.2, SVG Export Plug-In . SVG Version: 6.00 Build 0)  -->
<svg version="1.1" id="Capa_1" xmlns="http://www.w3.org/2000/svg" xmlns:xlink="http://www.w3.org/1999/xlink" x="0px" y="0px"
	 viewBox="0 0 34.8 34.8" style="enable-background:new 0 0 34.8 34.8;" xml:space="preserve">
<style type="text/css">
	.st0{fill:#3472B6;}
	.st1{fill:#FFFFFF;}
	.st2{fill:#15FF8B;}
</style>
<title>notificacion-bell-active</title>
<path class="st0" d="M13,1h9.8c6.6,0,12,5.4,12,12v9.7c0,6.6-5.4,12-12,12H13c-6.6,0-12-5.4-12-12V13C1,6.4,6.4,1,13,1z"/>
<path class="st1" d="M24.4,22.1l-0.1-0.1c-0.6-0.7-1.7-1.8-1.7-5c0-2.3-1.6-4.3-3.9-4.8h-0.2v-0.9c0-0.4-0.3-0.8-0.7-0.9
	c-0.4,0-0.8,0.3-0.9,0.7c0,0.1,0,0.1,0,0.2v0.9h-0.2c-2.3,0.4-3.9,2.4-3.9,4.8c0,3.2-1.1,4.3-1.7,5l-0.1,0.1
	c-0.1,0.1-0.2,0.3-0.2,0.5c0,0.4,0.4,0.8,0.8,0.8h3.8c0.3,1.3,1.6,2.2,3,1.9c0.9-0.2,1.7-0.9,1.9-1.9h3.8c0.4,0,0.8-0.3,0.8-0.8
	c0,0,0,0,0,0C24.6,22.4,24.5,22.2,24.4,22.1z M12.1,22.3l0.3-0.4c1-1.5,1.5-3.2,1.4-5c-0.1-2.1,1.5-4,3.7-4.1c2.1-0.1,4,1.5,4.1,3.7
	c0,0.1,0,0.3,0,0.4c-0.1,1.8,0.4,3.5,1.4,5l0.3,0.4H12.1z"/>
<path class="st2" d="M5.6,10.1C3,10.1,1,8.1,1,5.6S3,1,5.6,1s4.6,2,4.6,4.6l0,0C10.1,8.1,8.1,10.1,5.6,10.1z"/>
<path class="st1" d="M5.6,2c2,0,3.6,1.6,3.6,3.6S7.5,9.1,5.6,9.1S2,7.5,2,5.6S3.6,2,5.6,2L5.6,2 M5.6,0C2.5,0,0,2.5,0,5.6
	s2.5,5.6,5.6,5.6s5.6-2.5,5.6-5.6S8.6,0,5.6,0C5.6,0,5.6,0,5.6,0z"/>
</svg>
