<?xml version="1.0" encoding="utf-8"?>
<!-- Generator: Adobe Illustrator 19.1.1, SVG Export Plug-In . SVG Version: 6.00 Build 0)  -->
<svg version="1.1" id="Layer_1" xmlns="http://www.w3.org/2000/svg" xmlns:xlink="http://www.w3.org/1999/xlink" x="0px" y="0px"
	 viewBox="0 0 110 100" style="enable-background:new 0 0 110 100;" xml:space="preserve">
<style type="text/css">
	.st0{clip-path:url(#SVGID_2_);}
	.st1{opacity:0.6;clip-path:url(#SVGID_4_);fill:#fff;}
	.st2{fill:#fff;}
	.st3{fill:#ffffff;}
	.st4{fill:#ffffff;}
	.st5{fill:#ffffff;}
	.st6{fill:none;stroke:#ffffff;stroke-width:4;stroke-linejoin:round;stroke-miterlimit:10;}
	.st7{fill:none;stroke:#ffffff;stroke-width:0.5;stroke-miterlimit:10;}
	.st8{opacity:0.75;fill:#FFFFFF;}
	.st9{fill-rule:evenodd;clip-rule:evenodd;fill:url(#SVGID_5_);}
	.st10{fill-rule:evenodd;clip-rule:evenodd;fill:url(#SVGID_6_);}
	.st11{fill:url(#SVGID_7_);}
	.st12{fill:#ffffff;}
	.st13{fill:#ffffff;}
	.st14{fill:#fff;}
	.st15{fill:none;stroke:#FFFFFF;stroke-miterlimit:10;}
	.st16{fill:#FFFFFF;}
	.st17{fill-rule:evenodd;clip-rule:evenodd;fill:#ffffff;}
	.st18{fill-rule:evenodd;clip-rule:evenodd;fill:#ffffff;}
	.st19{fill:#ffffff;}
</style>
<g>
	<path class="st5" d="M101.8,41.1c0-0.1,0-0.2,0-0.3c0-0.1,0-0.1-0.1-0.2c0-0.1-0.1-0.2-0.1-0.3c0-0.1-0.1-0.1-0.1-0.2
		c-0.1-0.1-0.1-0.1-0.2-0.2c-0.1-0.1-0.1-0.1-0.2-0.2c0,0-0.1-0.1-0.1-0.1l-16.2-12v-4c0-1.1-0.9-2-2-2h-6L56.2,6.2
		c-0.7-0.5-1.7-0.5-2.4,0L33.2,21.6h-5.3c-1.1,0-2,0.9-2,2v3.5L9,39.6c0,0-0.1,0.1-0.1,0.1c-0.1,0.1-0.1,0.1-0.2,0.2
		C8.7,40,8.6,40,8.6,40.1c0,0.1-0.1,0.1-0.1,0.2c0,0.1-0.1,0.2-0.1,0.3c0,0.1-0.1,0.1-0.1,0.2c0,0.1,0,0.2,0,0.3c0,0.1,0,0.1,0,0.2
		v50.9c0,0,0,0,0,0v0.1c0,1.1,0.9,2,2,2h89.6c1.1,0,2-0.9,2-2V41.2C101.8,41.2,101.8,41.1,101.8,41.1z M60.9,65.6l32.8,24.5H16.2
		l32.8-24.5l4.9,2.8c0.3,0.2,0.6,0.3,1,0.3c0.3,0,0.7-0.1,1-0.3l0.9-0.5L60.9,65.6z M12.2,44.7L26.8,53c0,0,0,0,0,0l18.4,10.5
		L12.2,88.1V44.7z M64.7,63.5l19.1-10.9c0,0,0,0,0,0l14-7.9v43.4L64.7,63.5z M80.8,25.6v24.1L55,64.4L29.8,50.1V25.6H80.8z"/>
	<path class="st5" d="M49.1,42.6c0.5,0.4,1.1,0.8,1.7,1c0.6,0.2,1.3,0.5,2,0.6l1.2,0.3v3.8c-1.1,0-2.2-0.3-3.4-0.6
		c-1.1-0.4-1.9-0.7-2.3-1h-0.4v3.9c0.7,0.4,1.6,0.6,2.8,0.9c1.2,0.2,2.3,0.4,3.3,0.4v4.8h2.2v-4.9c1-0.1,2-0.3,2.8-0.6
		c0.8-0.3,1.5-0.8,2.1-1.3c0.6-0.5,1-1.1,1.3-1.8c0.3-0.7,0.5-1.4,0.5-2.2c0-1.5-0.5-2.6-1.4-3.4c-0.9-0.8-2.3-1.4-4.2-1.8l-1.2-0.3
		v-3.4c1,0.1,1.9,0.2,2.7,0.4c0.8,0.2,1.5,0.6,2.2,1h0.4v-3.9c-0.6-0.2-1.4-0.5-2.4-0.7c-1.1-0.2-2-0.3-2.8-0.4v-3.1h-2.2v3.2
		c-2,0.2-3.6,0.8-4.7,1.7c-1.1,1-1.7,2.1-1.7,3.5c0,0.9,0.1,1.7,0.4,2.3C48.2,41.7,48.6,42.2,49.1,42.6z M56,44.8
		c0.7,0.1,1.2,0.3,1.5,0.6c0.3,0.3,0.5,0.7,0.5,1.1c0,0.6-0.2,1-0.6,1.2C57,48,56.5,48.2,56,48.2V44.8z M52.8,37.6
		c0.4-0.3,0.8-0.4,1.3-0.4v3.2c-0.8-0.2-1.3-0.4-1.5-0.7c-0.2-0.3-0.3-0.6-0.3-1C52.2,38.2,52.4,37.8,52.8,37.6z"/>
	<circle class="st5" cx="47.1" cy="80.8" r="2"/>
	<circle class="st5" cx="55" cy="80.8" r="2"/>
	<circle class="st5" cx="62.9" cy="80.8" r="2"/>
</g>
</svg>
