<svg id="Capa_1" data-name="Capa 1" xmlns="http://www.w3.org/2000/svg" viewBox="0 0 68.99 55.06"><defs><style>.cls-1{fill:#3675bb;}</style></defs><title>Iconos</title><path class="cls-1" d="M34.54,2.64h0Z"/><path class="cls-1" d="M16.92,31.85h0C16.75,31.88,17,31.83,16.92,31.85Z"/><path class="cls-1" d="M68.92,6.65l-.37-.09c-.42-.09-.84-.15-1.31-.21l-.84-.08C63,6,59.7,6.06,56.3,6.05h-.39l-1.77,0h-.08A5.2,5.2,0,0,1,52.67,6c-.36-.11,0,0-.43-.18L50.1,4.91l-.07,0c-1.14-.64-2.28-1.31-3.42-2h0a6.07,6.07,0,0,0-3.29-1,6.13,6.13,0,0,0-6.13,5.91c-.21,1.5-.38,3.07-.62,4.49-.07.43-.33.57-.72.34C31.27,9.94,26.57,7,22,4.22c-.42-.25-.68,0-.74.39-.1.83,0,2-.12,2.81,0,.32-.21.48-.54.35C14.31,5.28,7.84,2.55,1.58.11.79-.2.38.16.29.94.11,2.57.11,4.5,0,6.29c0,0-.11-.33,0,.19A5.52,5.52,0,0,0,.75,8.81,9.4,9.4,0,0,0,4.81,13c1.22.57,4.39,2.32,6.07,3.1.26.12.85.43,1.24.63l3.54,1.76,2.41,1.21,1.87.93,2.37,1.17,3.76,1.86a2.26,2.26,0,0,1,.45.24c.23.13,0,.12.09.17h0c-.11.79-.25,1.67-.37,2.41s-.13.87-.26,1.7-.38,2.25-.49,3.22v.12c0,1.08.07,2.18.12,3.26a.32.32,0,0,1-.1.26c-.08.09-.25.24-.32.31a.37.37,0,0,1-.14.1l-4.56,2a.9.9,0,0,0-.54,1,7,7,0,0,0,.12.71,1,1,0,0,1-.33.87c-.74.62-2.17,1.79-2.73,2.25s-.23.14-.61.47c.2.23.65.94.76,1.09s0,0,0,0c.39.57.75,1.08,1.11,1.62-.69,1-1.53,2.06-2.18,3a.73.73,0,0,0,.13,1.08c.34.35,1,.84,1.35,1.16s1,.72,1.3,1,.18.13.33.35a5,5,0,0,1,.45.77c.05.11-.13.24-.14.34-.05.51-.13.86.53,1.09s1.72.56,2.48.78a.87.87,0,0,0,.75,0c.35-.15,1.3-.63,1.63-.77a.71.71,0,0,1,.58-.08c1,.17,2.07.45,3.09.62.16,0,.21,0,.25-.21s0-.39,0-.7a.88.88,0,0,1,.63-.76c.46-.15,1.34-.35,1.81-.55s.69-.4.63-1c-.47-4.29-1.09-8.75-1.56-13,0-.49.08-.65.47-.94s1.08-.61,1.53-.9l.05,0A22.49,22.49,0,0,1,35,35.41a.81.81,0,0,1,.3-.06c.21,0,.76,0,1.06,0h.07l.12,0c.37-.07,1.74-.35,2.32-.54l.24-.06.2-.1a13.54,13.54,0,0,0,1.62-.8,13,13,0,0,0,4.61-5.35c0-.08,0,.17.19-.39s.77-2.69,1-3.56a.43.43,0,0,0,0,0c.27-1.22.43-1.84.71-3.24s.68-3.6,1-5.15a.32.32,0,0,1,0-.09c.36-1.15.76-2.32,1.19-3.45l0-.08c.19-.4.4-.79.63-1.18l.19-.3a11,11,0,0,1,3.23-3.33l.26-.14a6.91,6.91,0,0,1,2.15-.42h.07L58,7c3.56-.11,7-.16,10.48-.18h.44s.08,0,.09-.06S69,6.68,68.92,6.65Z"/></svg>