<svg xmlns="http://www.w3.org/2000/svg" xmlns:xlink="http://www.w3.org/1999/xlink" width="75.482" height="12.52" viewBox="0 0 75.482 12.52">
  <defs>
    <rect id="rect-1" width="75.482" height="12.52" x="0" y="0"/>
    <mask id="mask-2" maskContentUnits="userSpaceOnUse" maskUnits="userSpaceOnUse">
      <rect width="75.482" height="12.52" x="0" y="0" fill="black"/>
      <use fill="white" xlink:href="#rect-1"/>
    </mask>
    <linearGradient id="linearGradient-4" x1="2.235" x2="11.264" y1="3.275" y2="10.304" gradientUnits="userSpaceOnUse">
      <stop offset="0" stop-color="rgb(0,184,255)"/>
      <stop offset=".42" stop-color="rgb(0,217,197)"/>
      <stop offset=".807" stop-color="rgb(0,244,149)"/>
      <stop offset="1" stop-color="rgb(0,255,131)"/>
    </linearGradient>
  </defs>
  <g>
    <use fill="none" xlink:href="#rect-1"/>
    <g mask="url(#mask-2)">
      <path fill="url(#linearGradient-4)" fill-rule="evenodd" d="M1.25126648 4.95877395C1.83132935 1.25455032 2.80084228.00003372 4.8559265.00851761 6.31570435-.00576462 8.12286377.004001 9.6918335.01254593c.29241943.00158691.5765686.00311279.84866333.00445556.6795044 0 1.20153808.36444092 1.20153808 1.61053467 0 .35601807-.04971313.50860596-.2734375.50860596-2.07992553-.01696778-4.35046387-.01696778-6.4303894-.01696778-.8286438 0-1.58270264 1.05108643-1.81472779 2.50054932-.00830078.05090332-1.35072326 7.51867676-1.35072326 7.51867676-.04142761.37298584-.09944153.38146973-.27345276.38146973-.58006287.01696777-1.94734192-.144104-1.5081482-2.06829834l1.16011048-5.49279786zm3.65437317 2.5175171c-.00830078.0423584 0 .11865234.09112549.11865234.4309082 0 1.94735717.00848388 1.95562744.02545166 1.06652832 0 1.1194458-1.8126831 1.13146972-2.22460938.00131226-.04571533.00216675-.07421875.0038147-.08099365v-.00848389c.02484131-.44927978-.25689697-.72052002-.5552063-.71203613l-.21881103.00256348c-.6166687.00738525-1.05752564.01263427-1.7119751-.00256348-.14086914 0-.19885254.11016846-.23202515.3390503-.01657104.09326171-.34802246 1.89874267-.46401977 2.54296874zm5.20394897-2.39886475c.08288575-.38989258.1574707-.43225098.33148194-.44073487 1.350708-.01696777 1.4750061.56793213 1.40872192 1.23754883-.01660156.2543335-.0663147.84765625-.07458496.8815918-.00308228.01849365-.00698853.05682373-.0126648.11260986-.0852661.83953858-.5704956 5.61694336-4.73553466 5.6090088-.22470093 0-.502594.00250243-.79302979.0050659-.47003174.00421144-.97296142.008667-1.33660889.00341798-.9861145 0-1.16012573 0-.97781372-.87304688l.19888306-.97485351c.12145996-.4348755.18728638-.43572998.47149658-.43933106.02600098-.0003662.05383301-.00067138.0836792-.0014038.25704956-.00524903.53604126-.00238038.82489014.00048828l.00427246.00006103c.65032959.0065918 1.35043335.01367188 1.96340942-.06835937.83694458-.1102295 1.78161621-.32214356 2.0633545-1.98352051l.56347656-2.98376465.01657104-.08477783z"/>
      <g>
        <path fill="rgb(79,79,79)" fill-rule="evenodd" d="M18.95135498 1.6868013h4.73162842c.34802246 0 .33972168.3305664.32315063.36450195l-.6131897 3.26342773c-.17401122 1.13586426-.35632324 2.31414795-2.2705078 2.3310547-.25793458.00561523-.46862794.00378417-.68499757.00195312-.11038208-.00097657-.22219848-.00195313-.34255981-.00195313h-.04141235c-.44747925-.00848388-1.11868286-.00848388-1.56616211 0-.35632324.00848389-.48062134.02545166-.53033448.40692139l-.42263793 2.39880371c-.01657105.08477783-.0911255.1525879-.1822815.1525879h-1.37557983c-.14086914 0-.1242981-.10168458-.11599732-.12713624.2485962-1.34777832 1.25125122-6.73883057 1.259552-6.79815674.19888306-1.3223877.81207276-1.9920044 1.83132935-1.9920044zm1.90588379 4.55194092c.22375488-.03393555.41433716-.144104.5552063-.34759522.26516723-.36444092.57177734-2.0343628.56350708-2.04278564 0-.0084839.04971313-.32214356.04971313-.33911133.06628418-.29663086 0-.38989258-.38119507-.38989258h-2.59368896c-.15744019-.00848389-.17401123.12713623-.18231201.27124023-.1822815.95782471-.54690552 2.62774659-.54690552 2.62774659-.03314209.15258789.091156.15258789.091156.15258789l.27346802.00842285c.67947388.02545166 1.15182496.03393555 1.48327637.04241943.3066101.00848389.49719238.01696778.56347656.02539063l.1242981-.00842285z"/>
        <path fill="rgb(79,79,79)" fill-rule="evenodd" d="M31.91151795 1.67835402h-5.26196154c-.2154504 0-.40604113.16105417-.4474739.38144409l-1.57444518 8.45958236c-.00828655.0254296.00828655.05085921.0165731.05933575.00828656.00847653.02485967.0254296.04971933.0254296h5.26196154c.22373695 0 .41432768-.16105417.4474739-.3814441l.1408714-.82222393c.00828656-.0254296-.00828654-.05085921-.0165731-.05933575-.00828655-.00847653-.0165731-.01695307-.04971932-.01695307h-3.71237602c-.08286553 0-.15744452-.03390614-.20716384-.10171842-.04971932-.06781229-.07457898-.1441011-.05800587-.22886646l.3397487-1.79702551c.05800587-.32210835.33146214-.5509748.64635118-.5509748h2.8920072c.2154504 0 .40604113-.16105418.4474739-.3814441l.14915797-.82222393c.00828655-.02542961-.00828656-.05085922-.01657311-.05933575-.00828655-.00847654-.02485966-.0254296-.04971932-.0254296h-3.39748698c-.08286554 0-.15744452-.03390615-.20716384-.10171843-.04971932-.06781229-.07457899-.1441011-.05800588-.22886646l.28174282-1.5088233c.05800588-.32210835.33146215-.55097481.64635119-.55097481h3.19860969c.2154504 0 .40604113-.16105417.4474739-.37296756l.15744451-.83070047c.00828656-.0254296-.00828655-.05085921-.0165731-.05933575-.00828656-.00847653-.02485966-.0254296-.04971933-.0254296z"/>
        <path fill="rgb(79,79,79)" fill-rule="evenodd" d="M39.4771414 1.67835402c-.08286554 0-.1077252 0-.16573107.09324188l-2.65169716 4.22979118c-.04971932.07628882-.13258485.1186715-.2320235.11019496-.09115209-.01695307-.16573107-.07628881-.19059073-.1695307l-1.1435444-4.11111969-.04143277-.12714803c0-.01695307-.0165731-.0254296-.02485966-.0254296h-1.45843343c-.08286554 0-.05800588.10171842-.05800588.10171842l1.78160903 6.06072283c.00828655.08476536.00828655.16953071.0165731.25429606l-.41432768 2.2462819c-.06629242.25429606.06629243.25429606.17401763.25429606h1.10211163c.24031006 0 .29831593-.11019496.3231756-.27124914l.40604112-2.2038992c.02485966-.0678123.05800587-.13562458.08286553-.20343686l4.1432768-6.1963474c.00828656-.00847653.00828656-.0254296 0-.03390614 0-.00847653-.00828654-.01695307-.02485965-.01695307h-1.6241645v.00847654z"/>
        <path fill="rgb(79,79,79)" fill-rule="evenodd" d="M65.1820307 9.32418897h-3.48035252c-.09115209 0-.18230417-.04238267-.24031005-.1186715-.05800588-.07628881-.08286554-.1695307-.06629243-.2627726l1.32584858-7.12876629c.00828655-.03390614 0-.06781228-.02485966-.09324189-.02485966-.0254296-.04971932-.04238267-.08286554-.04238267h-1.10211163c-.20716384 0-.38946802.15257763-.43090079.36449102l-1.56615863 8.43415275c-.00828655.04238268.00828656.07628882.02485966.09324189.0165731.0254296.04971932.04238268.08286554.04238268h5.08794392c.20716384 0 .38946802-.15257764.43090078-.36449103l.14915797-.7883178c.00828655-.03390613 0-.06781227-.02485966-.09324188-.01657311-.03390614-.04971932-.04238268-.08286554-.04238268z"/>
        <path fill="rgb(79,79,79)" fill-rule="evenodd" d="M69.68991089 1.67837845h3.09918213c1.71530151 0 2.69311523.76287841 2.69311523 2.06829834 0 .19494628-.01657104.35601806-.05801391.55944824l-.7374878 3.96697998c-.26516723 1.3986206-.93637085 2.33105469-3.3809204 2.33105469h-3.21517945c-.22372437 0-.38946533-.21191407-.34802246-.43231202l1.5081482-8.02728271c.07458495-.39837647.25686645-.46618652.43917846-.46618652zm3.48864746 6.17089843l.63806152-3.42456054c.02487183-.1525879.04144287-.31359864.05801392-.43231202 0-.7119751-.45578003-1.02563476-1.48330689-1.02563476h-1.41699218c-.16574097 0-.31488037.12713623-.34805298.2966919l-1.05236817 5.61993408c-.02487182.11016845.00827027.22039794.07455445.30517578.0663147.0847168.16574096.13562011.27346802.13562011h1.40042114c1.3258667 0 1.67388916-.51708984 1.85620117-1.47491455z"/>
        <path fill="rgb(79,79,79)" fill-rule="evenodd" d="M48.13658992 1.68683055h-.3563218c-1.20155027-.00847653-2.27880224-.00847653-3.3063349 0-1.1766906.00847654-2.20422325 1.32233953-2.4279602 3.11936504-.2320235 1.16976189-.83694191 4.22979118-.85351502 4.38236882-.0911521 1.13585574.3563218 1.26300377.74578982 1.3901518l.08286554.02542961c.02485966.00847654.15744452.00847654.24031005.00847654h3.22346936c2.07992495 0 2.4113871-.44077984 2.9831593-3.89072976l.00828655-.03390615c0-.01695307 0-.0254296.00828656-.04238267.02485966-.16953071.04143276-.32210835.04971932-.42382677 0-.16953071-.04971932-.43230331-.2154504-.62726363-.1408714-.16105417-.33146214-.23734299-.58005875-.23734299-.53862598 0-1.83132835.00847654-2.32023501 0-.02485966 0-.07457898 0-.08286554.13562457 0 .0254296-.02485966.1695307-.06629243.37296756-.03314621.1695307-.06629242.32210834-.09943864.44925637-.0165731.05933575-.02485966.11019497-.03314621.15257764l-.01657311.06781229c-.00828655.05933574-.02485966.10171842-.02485966.15257763.2320235 0 1.4998662.01695307 1.65731072.02542961h.18230418l-.04143277.15257764c-.00828655.05085921-.1077252.50011559-.17401762.8137474l-.05800588.2882022c-.1077252.50859213-.2320235 1.13585575-1.19326372 1.13585575-.19059073 0-.42261423.00847654-.72921672.00847654l-1.09382507.0254296c-.24031006.00847654-.43918734.00847654-.6794974.00847654h-.17401762l.0165731-.17800725c.04143277-.38144409.3563218-1.90722047.8949478-4.28912692l.02485965-.11019496c.16573108-.94937197.72093017-1.63597134 1.31756203-1.63597134h.29002937c1.2512696 0 2.0716384 0 3.4472063.00847653.06629243 0 .07457899-.01695307.0911521-.0254296.04143276-.04238268.04971932-.15257764.04971932-.25429607 0-.36449102-.07457899-.62726362-.22373695-.78831779-.14087141-.1186715-.31488904-.18648378-.56348565-.18648378z"/>
        <path fill="rgb(79,79,79)" fill-rule="evenodd" d="M51.25231934 4.23825393c.32318115-1.8394165 1.44186401-2.6192627 3.73724365-2.6192627 1.85620117 0 2.95831299.84765626 2.9500122 2.28021241 0 .15252686-.01657104.29663086-.04141235.45770264l-.65466308 3.67034912c-.28173829 1.5935669-1.0440979 2.6531372-3.82836914 2.6531372-1.85620118 0-2.88372803-.75439453-2.88372803-2.1276245 0-.21191407.01657104-.39837647.04971313-.57635499l.67120362-3.73815918zm5.16253662.14416504V4.3654512c.00827026-.1102295.0248413-.22039795.0248413-.32214355 0-.79675293-.51376342-1.16973877-1.6241455-1.16973877-1.24298096 0-1.9059143.46618652-2.08822632 1.46643066l-.62976074 3.52624512c-.02487183.16955566-.04144287.3305664-.04144287.46618652 0 .75445557.4888916 1.07653809 1.64074707 1.07653809 1.24298095 0 1.90588379-.47467041 2.0881958-1.49188233l.62979126-3.53466797z"/>
      </g>
    </g>
  </g>
</svg>
