<?xml version="1.0" encoding="utf-8"?>
<!-- Generator: Adobe Illustrator 22.1.0, SVG Export Plug-In . SVG Version: 6.00 Build 0)  -->
<svg version="1.1" id="Capa_1" xmlns="http://www.w3.org/2000/svg" xmlns:xlink="http://www.w3.org/1999/xlink" x="0px" y="0px"
	 width="34.633px" height="4.205px" viewBox="0 0 34.633 4.205" enable-background="new 0 0 34.633 4.205" xml:space="preserve">
<g>
	<defs>
		<path id="SVGID_127_" d="M671.384,379.584h-814.513c-20.856,0-37.92-17.064-37.92-37.92V80.159
			c0-11.614,9.502-21.116,21.116-21.116h848.122c11.614,0,21.116,9.502,21.116,21.116v261.505
			C709.305,362.52,692.24,379.584,671.384,379.584z"/>
	</defs>
	<clipPath id="SVGID_2_">
		<use xlink:href="#SVGID_127_"  overflow="visible"/>
	</clipPath>
	<g clip-path="url(#SVGID_2_)">
		
			<image overflow="visible" width="500" height="500" xlink:href="../../PeyGold/Michael-Udine-.png"  transform="matrix(1.7833 0 0 1.7833 -181.0493 -197.3573)">
		</image>
	</g>
</g>
<path fill="#FFFFFF" d="M4.205,2.102c0,1.161-0.941,2.102-2.102,2.102S0,3.264,0,2.102S0.941,0,2.102,0S4.205,0.941,4.205,2.102z
	 M12.107,0c-1.161,0-2.102,0.941-2.102,2.102s0.941,2.102,2.102,2.102s2.102-0.941,2.102-2.102S13.268,0,12.107,0z M22.526,0
	c-1.161,0-2.102,0.941-2.102,2.102s0.941,2.102,2.102,2.102c1.161,0,2.102-0.941,2.102-2.102S23.687,0,22.526,0z M32.531,0
	c-1.161,0-2.102,0.941-2.102,2.102s0.941,2.102,2.102,2.102c1.161,0,2.102-0.941,2.102-2.102S33.692,0,32.531,0z"/>
</svg>
