<svg id="Capa_1" data-name="Capa 1" xmlns="http://www.w3.org/2000/svg" viewBox="0 0 71.43 114.24"><defs><style>.cls-1{fill:#fff;}.cls-2{opacity:0.83;}.cls-3{fill:#6c96bc;}.cls-4{fill:#3675bb;}.cls-5{opacity:0.72;}</style></defs><title>Iconos</title><rect class="cls-1" width="71.43" height="114.24" rx="11.93"/><g class="cls-2"><rect class="cls-3" x="2" y="2" width="67.43" height="110.24" rx="9.93"/><path class="cls-4" d="M59.5,114.24H11.93A11.94,11.94,0,0,1,0,102.31V11.93A11.94,11.94,0,0,1,11.93,0H59.5A11.94,11.94,0,0,1,71.43,11.93v90.38A11.94,11.94,0,0,1,59.5,114.24ZM11.93,4A7.94,7.94,0,0,0,4,11.93v90.38a7.94,7.94,0,0,0,7.93,7.93H59.5a7.94,7.94,0,0,0,7.93-7.93V11.93A7.94,7.94,0,0,0,59.5,4Z"/></g><path class="cls-4" d="M32,54.41h-17a2.81,2.81,0,0,1-2.8-2.8v-17a2.81,2.81,0,0,1,2.8-2.81H32a2.81,2.81,0,0,1,2.81,2.81v17A2.81,2.81,0,0,1,32,54.41Zm-16.76-3H31.83V34.84H15.26Z"/><path class="cls-4" d="M32,78.4h-17a2.8,2.8,0,0,1-2.8-2.8v-17a2.8,2.8,0,0,1,2.8-2.8H32a2.8,2.8,0,0,1,2.81,2.8v17A2.81,2.81,0,0,1,32,78.4Zm-16.76-3H31.83V58.83H15.26Z"/><path class="cls-4" d="M56.37,54.41h-17a2.8,2.8,0,0,1-2.8-2.8v-17a2.81,2.81,0,0,1,2.8-2.81h17a2.8,2.8,0,0,1,2.8,2.81v17A2.8,2.8,0,0,1,56.37,54.41Zm-16.77-3H56.17V34.84H39.6Z"/><path class="cls-4" d="M38.49,60.25H43v6.92c0,1.21,0,2.43,0,3.63,0,.32-.16.88-.25.88-1.45.06-2.9,0-4.4,0V60.41"/><path class="cls-4" d="M53.19,57.42h4.48v6.92c0,1.21,0,2.42,0,3.63,0,.32-.17.87-.26.88-1.44.05-2.89,0-4.39,0V57.58"/><path class="cls-4" d="M48,71.24h6.47v2.84h3.15V76.9H54.43V74.12H51.29V76.9H48V71.23Z"/><path class="cls-4" d="M43.49,76.71V72.24h4.75c.83,0,1.66,0,2.49,0,.22,0,.6.16.6.25,0,1.45,0,2.9,0,4.4H43.6"/><rect class="cls-4" x="48.34" y="62.49" width="4.67" height="4.67"/><g class="cls-5"><rect class="cls-4" x="4.11" y="10.6" width="63.21" height="4"/></g><g class="cls-5"><rect class="cls-4" x="3.89" y="93.87" width="63.64" height="4"/></g><rect class="cls-4" x="33.16" y="101.43" width="5.1" height="5.1" rx="2.55"/></svg>