<svg id="Capa_1" data-name="Capa 1" xmlns="http://www.w3.org/2000/svg" viewBox="0 0 95.5 94.75"><defs><style>.cls-1{fill:#fff;}.cls-2{opacity:0.83;}.cls-3{fill:#6c96bc;}.cls-4{fill:#3675bb;}</style></defs><title>Iconos</title><rect class="cls-1" width="44.78" height="44.78" rx="4.73"/><rect class="cls-1" y="49.97" width="44.78" height="44.78" rx="4.72"/><rect class="cls-1" x="50.72" width="44.78" height="44.78" rx="4.72"/><path class="cls-1" d="M62.85,58.07H53.53l-.39.33V82c3.13,0,6.14,0,9.16-.08.18,0,.51-1.17.52-1.83.07-2.52,0-5,0-7.56Z"/><path class="cls-1" d="M93.48,52.17H84.17l-.39.33V62.72H74.06v9.72h9.72v3.61c3.12,0,6.14,0,9.15-.08.19,0,.51-1.17.53-1.83.06-2.51,0-5,0-7.56Z"/><path class="cls-1" d="M73.38,81h0v0Z"/><path class="cls-1" d="M86.86,81H73.4V83H64v9.32l.23.39H80.34c0-2,0-3.89,0-5.8h6.41v5.79h6.68V86.87H86.86Z"/><g class="cls-2"><rect class="cls-3" x="2" y="2" width="40.78" height="40.78" rx="2.73"/><path class="cls-4" d="M40.05,44.78H4.73A4.73,4.73,0,0,1,0,40.05V4.73A4.73,4.73,0,0,1,4.73,0H40.05a4.73,4.73,0,0,1,4.73,4.73V40.05A4.73,4.73,0,0,1,40.05,44.78ZM4.73,4A.73.73,0,0,0,4,4.73V40.05a.73.73,0,0,0,.73.73H40.05a.73.73,0,0,0,.73-.73V4.73A.73.73,0,0,0,40.05,4Z"/></g><g class="cls-2"><rect class="cls-3" x="2" y="51.97" width="40.78" height="40.78" rx="2.72"/><path class="cls-4" d="M40.06,94.75H4.72A4.73,4.73,0,0,1,0,90V54.69A4.73,4.73,0,0,1,4.72,50H40.06a4.73,4.73,0,0,1,4.72,4.72V90A4.73,4.73,0,0,1,40.06,94.75ZM4.72,54a.72.72,0,0,0-.72.72V90a.72.72,0,0,0,.72.72H40.06a.72.72,0,0,0,.72-.72V54.69a.72.72,0,0,0-.72-.72Z"/></g><g class="cls-2"><rect class="cls-3" x="52.72" y="2" width="40.78" height="40.78" rx="2.72"/><path class="cls-4" d="M90.78,44.78H55.44a4.72,4.72,0,0,1-4.72-4.72V4.72A4.72,4.72,0,0,1,55.44,0H90.78A4.73,4.73,0,0,1,95.5,4.72V40.06A4.73,4.73,0,0,1,90.78,44.78ZM55.44,4a.72.72,0,0,0-.72.72V40.06a.72.72,0,0,0,.72.72H90.78a.72.72,0,0,0,.72-.72V4.72A.72.72,0,0,0,90.78,4Z"/></g><path class="cls-4" d="M53.53,58.07h9.32V72.49c0,2.52,0,5,0,7.56,0,.66-.34,1.82-.52,1.83-3,.11-6,.08-9.16.08V58.4"/><path class="cls-4" d="M84.17,52.17h9.31V66.58c0,2.52,0,5,0,7.56,0,.66-.34,1.83-.53,1.83-3,.12-6,.08-9.15.08V52.5"/><path class="cls-4" d="M73.38,81H86.86v5.91h6.56v5.87H86.74V87H80.19v5.8H73.4V80.94Z"/><path class="cls-4" d="M64,92.36V83h9.89c1.73,0,3.47,0,5.19,0,.46,0,1.25.34,1.26.53.08,3,0,6,0,9.16H64.18"/><rect class="cls-4" x="74.06" y="62.72" width="9.72" height="9.72"/></svg>