<?xml version="1.0" encoding="utf-8"?>
<!-- Generator: Adobe Illustrator 24.1.1, SVG Export Plug-In . SVG Version: 6.00 Build 0)  -->
<svg version="1.1" id="Layer_1" xmlns="http://www.w3.org/2000/svg" xmlns:xlink="http://www.w3.org/1999/xlink" x="0px" y="0px"
	 viewBox="0 0 105 168" style="enable-background:new 0 0 105 168;" xml:space="preserve">
<style type="text/css">
	.st0{fill:#FFFFFF;}
	.st1{fill:#6C96BC;}
	.st2{opacity:0.51;fill:#6C96BC;}
	.st3{opacity:0.72;fill:#3675BB;}
	.st4{fill:#3675BB;}
	.st5{opacity:0.7;}
	.st6{fill:none;stroke:#3675BB;stroke-width:1.5;stroke-miterlimit:10;}
</style>
<g>
	<path class="st0" d="M66.2,9.3h-44c-6.1,0-11,4.9-11,11v83.6c0,6.1,4.9,11,11,11h44c6.1,0,11-4.9,11-11V20.4
		C77.3,14.3,72.3,9.3,66.2,9.3z"/>
	<path class="st1" d="M14.9,103.9c0,4,3.3,7.3,7.3,7.3h44c4,0,7.3-3.3,7.3-7.3v-4.1H14.9V103.9z"/>
	<path class="st2" d="M73.5,22.8H15v-3.6c-0.1,0.4-0.1,0.8-0.1,1.1v75.8h58.7V20.4c0-0.4,0-0.8-0.1-1.1V22.8z"/>
	<path class="st1" d="M66.2,13h-44c-3.6,0-6.6,2.6-7.2,6.1h58.4C72.9,15.7,69.8,13,66.2,13z"/>
	<path class="st1" d="M66.2,9.3h-44c-6.1,0-11,4.9-11,11v83.6c0,6.1,4.9,11,11,11h44c6.1,0,11-4.9,11-11V20.4
		C77.3,14.3,72.3,9.3,66.2,9.3z M22.2,13h44c3.6,0,6.6,2.6,7.2,6.1H15C15.6,15.7,18.6,13,22.2,13z M73.6,103.9c0,4-3.3,7.3-7.3,7.3
		h-44c-4,0-7.3-3.3-7.3-7.3v-4.1h58.7V103.9z M73.6,96.1H14.9V20.4c0-0.4,0-0.8,0.1-1.1v3.6h58.5v-3.6c0.1,0.4,0.1,0.8,0.1,1.1V96.1
		z"/>
	<path class="st3" d="M66.2,9.3h-44c-6.1,0-11,4.9-11,11v83.6c0,6.1,4.9,11,11,11h44c6.1,0,11-4.9,11-11V20.4
		C77.3,14.3,72.3,9.3,66.2,9.3z M22.2,13h44c3.6,0,6.6,2.6,7.2,6.1H15C15.6,15.7,18.6,13,22.2,13z M73.6,103.9c0,4-3.3,7.3-7.3,7.3
		h-44c-4,0-7.3-3.3-7.3-7.3v-4.1h58.7V103.9z M73.6,96.1H14.9V20.4c0-0.4,0-0.8,0.1-1.1v3.6h58.5v-3.6c0.1,0.4,0.1,0.8,0.1,1.1V96.1
		z"/>
	<g>
		<path class="st4" d="M94.7,156.7H68.6c-1.4,0-2.4-1.1-2.4-2.4v-5.7c0-1.4,1.1-2.4,2.4-2.4h26.1c1.4,0,2.4,1.1,2.4,2.4v5.7
			C97.2,155.6,96.1,156.7,94.7,156.7z"/>
		<path class="st4" d="M90.3,90.1c-8.5-8.4-13-12.1-13-12.1v16.7c0,0,3.4,9.9,0.8,12.4c-2.6,2.6-5.6,5.3-17.5-3.6
			c-5.9-4.4-8.9-5.9-11-6.1l0,0c0,0,0,0,0,0c-0.6,0-1.1,0-1.6,0.2c-2.9,0.6-4.1,2.5-4.6,4c-0.2,0.5-0.3,1.1-0.3,1.7
			c0,0.1,0,0.2,0,0.2l0,0c0.1,2.7,2,5.9,4.4,7.5c3.7,2.4,18.6,12,19.8,15.9c1.2,3.9,0.8,14.4,0.8,14.4h26.1c0,0,1-21.6,2.7-31.7
			S98.8,98.5,90.3,90.1z"/>
	</g>
	<g>
		<g class="st5">
			<g>
				<g>
					<path class="st4" d="M47.2,63.9c1.2,0,2.5,0,3.8,0c0,2,0,3.9,0,5.8c0,1,0,2,0,3c0,0.3-0.1,0.7-0.2,0.7c-1.2,0-2.4,0-3.7,0
						c0-3.2,0-6.3,0-9.5"/>
				</g>
				<g>
					<path class="st4" d="M59.5,61.6c1.2,0,2.5,0,3.8,0c0,2,0,3.9,0,5.8c0,1,0,2,0,3c0,0.3-0.1,0.7-0.2,0.7c-1.2,0-2.4,0-3.7,0
						c0-3.2,0-6.3,0-9.5"/>
				</g>
				<g>
					<path class="st4" d="M55.1,73.1c1.8,0,3.6,0,5.4,0c0,0.8,0,1.6,0,2.4c0.9,0,1.8,0,2.6,0c0,0.8,0,1.6,0,2.4c-0.9,0-1.8,0-2.7,0
						c0-0.8,0-1.5,0-2.3c-0.9,0-1.7,0-2.6,0c0,0.8,0,1.5,0,2.3c-0.9,0-1.8,0-2.7,0C55.1,76.3,55.1,74.7,55.1,73.1
						C55.1,73.1,55.1,73.1,55.1,73.1z"/>
				</g>
				<g>
					<path class="st4" d="M51.3,77.7c0-1.2,0-2.5,0-3.8c1.4,0,2.7,0,4,0c0.7,0,1.4,0,2.1,0c0.2,0,0.5,0.1,0.5,0.2c0,1.2,0,2.4,0,3.7
						c-2.2,0-4.3,0-6.5,0"/>
				</g>
				<g>
					<rect x="55.4" y="65.8" class="st4" width="3.9" height="3.9"/>
				</g>
				<g>
					<path class="st4" d="M48.8,62.8c0-1.2,0-2.5,0-3.8c2,0,3.9,0,5.8,0c1,0,2,0,3,0c0.3,0,0.7,0.1,0.7,0.2c0,1.2,0,2.4,0,3.7
						c-3.2,0-6.3,0-9.5,0"/>
				</g>
				<g>
					<path class="st4" d="M31.4,58.6c0-1.2,0-2.5,0-3.8c2,0,3.9,0,5.8,0c1,0,2,0,3,0c0.3,0,0.7,0.1,0.7,0.2c0,1.2,0,2.4,0,3.7
						c-3.2,0-6.3,0-9.5,0"/>
				</g>
				<g>
					<path class="st4" d="M43,63c0-1.8,0-3.6,0-5.4c0.8,0,1.6,0,2.4,0c0-0.9,0-1.8,0-2.6c0.8,0,1.6,0,2.4,0c0,0.9,0,1.8,0,2.7
						c-0.8,0-1.5,0-2.3,0c0,0.9,0,1.7,0,2.6c0.8,0,1.5,0,2.3,0c0,0.9,0,1.8,0,2.7C46.2,63,44.6,63,43,63C43,63,43,63,43,63z"/>
				</g>
				<g>
					<path class="st4" d="M32.1,67.2c0-0.9,0-1.8,0-2.6c0.8,0,1.6,0,2.4,0c0,0.9,0,1.8,0,2.7C33.7,67.2,32.9,67.2,32.1,67.2"/>
				</g>
				<g>
					
						<rect x="35.7" y="58.8" transform="matrix(4.510176e-11 -1 1 4.510176e-11 -23.1293 98.3744)" class="st4" width="3.9" height="3.9"/>
				</g>
				<rect x="49" y="67.9" class="st4" width="4.2" height="3.5"/>
				<rect x="40.3" y="72.1" class="st4" width="5.6" height="5.8"/>
				<rect x="33.4" y="67.8" class="st4" width="12.2" height="3.5"/>
				<rect x="33.5" y="72.5" class="st4" width="2.9" height="1.9"/>
				<rect x="35.6" y="70.6" class="st4" width="1.8" height="6.6"/>
				<rect x="38.4" y="75.1" class="st4" width="1.9" height="1.7"/>
				
					<rect x="25.5" y="64.1" transform="matrix(-1.836970e-16 1 -1 -1.836970e-16 95.3016 38.7106)" class="st4" width="5.6" height="5.8"/>
				
					<rect x="29.5" y="60.1" transform="matrix(-1.836970e-16 1 -1 -1.836970e-16 91.98 30.1065)" class="st4" width="2.9" height="1.9"/>
				
					<rect x="29.6" y="59.4" transform="matrix(-1.836970e-16 1 -1 -1.836970e-16 93.1806 32.1475)" class="st4" width="1.8" height="6.6"/>
				<g>
					<path class="st4" d="M43.8,67.3c-1.8,0-3.6,0-5.4,0c0-0.8,0-1.6,0-2.4c-0.9,0-1.8,0-2.6,0c0-0.8,0-1.6,0-2.4c0.9,0,1.8,0,2.7,0
						c0,0.8,0,1.5,0,2.3c0.9,0,1.7,0,2.6,0c0-0.8,0-1.5,0-2.3c0.9,0,1.8,0,2.7,0C43.8,64.1,43.8,65.7,43.8,67.3
						C43.8,67.3,43.8,67.3,43.8,67.3z"/>
				</g>
			</g>
			<g>
				<g>
					<path class="st4" d="M47.2,53.8c1.2,0,2.5,0,3.8,0c0-2,0-3.9,0-5.8c0-1,0-2,0-3c0-0.3-0.1-0.7-0.2-0.7c-1.2,0-2.4,0-3.7,0
						c0,3.2,0,6.3,0,9.5"/>
				</g>
				<g>
					<path class="st4" d="M59.5,57.3c1.2,0,2.5,0,3.8,0c0-2,0-3.9,0-5.8c0-1,0-2,0-3c0-0.3-0.1-0.7-0.2-0.7c-1.2,0-2.4,0-3.7,0
						c0,3.2,0,6.3,0,9.5"/>
				</g>
				<g>
					<path class="st4" d="M56.4,42.2c-0.9,0-1.7,0-2.6,0c0-0.8,0-1.5,0-2.3c-0.9,0-1.8,0-2.7,0c0,1.6,0,3.2,0,4.8c0,0,0,0,0,0
						c1.8,0,3.6,0,5.4,0C56.5,43.8,56.5,43,56.4,42.2"/>
				</g>
				<g>
					<path class="st4" d="M47.3,40c0,1.2,0,2.5,0,3.8c1.4,0,2.7,0,4,0c0.7,0,1.4,0,2.1,0c0.2,0,0.5-0.1,0.5-0.2c0-1.2,0-2.4,0-3.7
						c-2.2,0-4.3,0-6.5,0"/>
				</g>
				<g>
					<rect x="55.4" y="48.1" class="st4" width="3.9" height="3.9"/>
				</g>
				<g>
					<path class="st4" d="M37.8,48c0,1.8,0,3.6,0,5.4c0.8,0,1.6,0,2.4,0c0,0.9,0,1.8,0,2.6c0.8,0,1.6,0,2.4,0c0-0.9,0-1.8,0-2.7
						c-0.8,0-1.5,0-2.3,0c0-0.9,0-1.7,0-2.6c0.8,0,1.5,0,2.3,0c0-0.9,0-1.8,0-2.7C40.9,48,39.3,48,37.8,48C37.8,48,37.8,48,37.8,48z
						"/>
				</g>
				<g>
					<path class="st4" d="M57.6,53.4c-1.8,0-3.6,0-5.4,0c0,0.8,0,1.6,0,2.4c-0.9,0-1.8,0-2.6,0c0,0.8,0,1.6,0,2.4c0.9,0,1.8,0,2.7,0
						c0-0.8,0-1.5,0-2.3c0.9,0,1.7,0,2.6,0c0,0.8,0,1.5,0,2.3c0.9,0,1.8,0,2.7,0C57.6,56.6,57.6,55,57.6,53.4
						C57.6,53.4,57.6,53.4,57.6,53.4z"/>
				</g>
				<rect x="49" y="46.3" class="st4" width="4.2" height="3.5"/>
				<rect x="40.3" y="39.9" class="st4" width="5.6" height="5.8"/>
				<rect x="33.4" y="46.5" class="st4" width="12.2" height="3.5"/>
				<rect x="33.5" y="43.3" class="st4" width="2.9" height="1.9"/>
				<rect x="35.6" y="40.6" class="st4" width="1.8" height="6.6"/>
				<rect x="38.4" y="40.9" class="st4" width="1.9" height="1.7"/>
				
					<rect x="25.5" y="47.9" transform="matrix(6.123234e-17 -1 1 6.123234e-17 -22.4696 79.0606)" class="st4" width="5.6" height="5.8"/>
				
					<rect x="29.5" y="55.8" transform="matrix(6.123234e-17 -1 1 6.123234e-17 -25.7912 87.6647)" class="st4" width="2.9" height="1.9"/>
				
					<rect x="29.6" y="51.8" transform="matrix(6.123234e-17 -1 1 6.123234e-17 -24.5906 85.6237)" class="st4" width="1.8" height="6.6"/>
			</g>
			<g>
				<path class="st4" d="M31.1,40.9v5.4h-5.4v-5.4H31.1 M31.6,40.4h-6.4v6.4h6.4V40.4L31.6,40.4z"/>
			</g>
			<g>
				<rect x="26.8" y="42" class="st4" width="3.2" height="3.2"/>
			</g>
			<g>
				<path class="st4" d="M62.7,40.9v5.4h-5.4v-5.4H62.7 M63.2,40.4h-6.4v6.4h6.4V40.4L63.2,40.4z"/>
			</g>
			<g>
				<rect x="58.4" y="42" class="st4" width="3.2" height="3.2"/>
			</g>
			<g>
				<path class="st4" d="M31.1,71.7v5.4h-5.4v-5.4H31.1 M31.6,71.2h-6.4v6.4h6.4V71.2L31.6,71.2z"/>
			</g>
			<g>
				<rect x="26.8" y="72.8" class="st4" width="3.2" height="3.2"/>
			</g>
		</g>
		<g>
			<polyline class="st6" points="58.6,36.6 67.2,36.6 67.2,45.2 			"/>
			<polyline class="st6" points="29.8,36.6 21.2,36.6 21.2,45.2 			"/>
			<polyline class="st6" points="58.6,81.2 67.2,81.2 67.2,72.6 			"/>
			<polyline class="st6" points="29.8,81.2 21.2,81.2 21.2,72.6 			"/>
		</g>
	</g>
</g>
</svg>
