<svg id="Capa_1" data-name="Capa 1" xmlns="http://www.w3.org/2000/svg" viewBox="0 0 42.88 42.88"><defs><style>.cls-1{fill:#fff;}.cls-2{fill:#009bdb;}</style></defs><title>recibir</title><circle class="cls-1" cx="21.44" cy="21.44" r="21.44"/><path class="cls-2" d="M22.45,32.21H25L21.56,36l-3.45-3.79h2.56V24h1.78ZM34.59,13.76V27.51a1.14,1.14,0,0,1-1.13,1.13H24.85V27.07h5.42v-.25a2.51,2.51,0,0,1,2.5-2.5H33V17h-.25a2.5,2.5,0,0,1-2.5-2.5V14.2H11.9v.25A2.5,2.5,0,0,1,9.4,17H9.15v7.37H9.4a2.51,2.51,0,0,1,2.5,2.5v.25h6.37v1.57H8.71a1.13,1.13,0,0,1-1.12-1.13V13.76a1.12,1.12,0,0,1,1.12-1.12H33.46A1.13,1.13,0,0,1,34.59,13.76ZM9.12,25.21V27h1.61A2.11,2.11,0,0,0,9.12,25.21Zm1.61-11.16H9.12v1.78A2.11,2.11,0,0,0,10.73,14.05ZM33.07,25.21A2.11,2.11,0,0,0,31.46,27h1.61Zm0-11.16H31.46a2.11,2.11,0,0,0,1.61,1.78Zm-13,7.75a2.47,2.47,0,0,1-.34-1.26,2,2,0,0,1,1.7-2.13,2,2,0,0,1,1.7,2.13,2.48,2.48,0,0,1-.3,1.2A2.68,2.68,0,0,1,24,23a4.06,4.06,0,0,0,.79-2.43,3.62,3.62,0,0,0-3.38-3.82,3.62,3.62,0,0,0-3.38,3.82,4.08,4.08,0,0,0,.89,2.57A2.68,2.68,0,0,1,20.07,21.8Z"/></svg>