<svg id="Capa_1" data-name="Capa 1" xmlns="http://www.w3.org/2000/svg" viewBox="0 0 20.18 25.83"><defs><style>.cls-1{fill:#3675bb;}</style></defs><title>reportes</title><path class="cls-1" d="M18.91,25.83H1.27A1.27,1.27,0,0,1,0,24.56V1.27A1.27,1.27,0,0,1,1.27,0h10.4a1.26,1.26,0,0,1,.9.38c3.77,3.82,4.68,4.91,5.57,6,.46.54.89,1,1.7,1.93a1.24,1.24,0,0,1,.34.86V24.56A1.27,1.27,0,0,1,18.91,25.83ZM2.53,23.3H17.65V9.61C17,8.9,16.6,8.43,16.21,8c-.83-1-1.68-2-5.07-5.44H2.53Z"/><path class="cls-1" d="M18.91,11.69H11.67a1.25,1.25,0,0,1-1.26-1.26V1.61a1.27,1.27,0,1,1,2.53,0V9.16h6a1.27,1.27,0,1,1,0,2.53Z"/><path class="cls-1" d="M8.32,9.68A2.15,2.15,0,0,1,7,10.25v.83H6.15v-.8a4.13,4.13,0,0,1-1.06-.19,3,3,0,0,1-.82-.37L4.6,9A.28.28,0,0,1,5,8.82L5.56,9a3.25,3.25,0,0,0,.91.14c.56,0,.85-.14.85-.43a.34.34,0,0,0-.25-.33,4.88,4.88,0,0,0-.77-.22,9.9,9.9,0,0,1-1-.27,1.77,1.77,0,0,1-.68-.47,1.24,1.24,0,0,1-.28-.86,1.49,1.49,0,0,1,.46-1.1,2.24,2.24,0,0,1,1.33-.56V4.1H7v.8a3.62,3.62,0,0,1,.81.15,2.78,2.78,0,0,1,.7.29L8.26,6a.41.41,0,0,1-.53.22A2.86,2.86,0,0,0,6.65,6,1.14,1.14,0,0,0,6,6.16a.37.37,0,0,0-.2.34.33.33,0,0,0,.23.31A4.13,4.13,0,0,0,6.82,7a9.9,9.9,0,0,1,1,.27,1.75,1.75,0,0,1,.68.46,1.24,1.24,0,0,1,.28.86A1.46,1.46,0,0,1,8.32,9.68Z"/></svg>