<?xml version="1.0" encoding="utf-8"?>
<!-- Generator: Adobe Illustrator 22.1.0, SVG Export Plug-In . SVG Version: 6.00 Build 0)  -->
<svg version="1.1" id="Capa_1" xmlns="http://www.w3.org/2000/svg" xmlns:xlink="http://www.w3.org/1999/xlink" x="0px" y="0px"
	 width="23.021px" height="16.95px" viewBox="0 0 23.021 16.95" enable-background="new 0 0 23.021 16.95" xml:space="preserve">
<g>
	<defs>
		<path id="SVGID_123_" d="M606.117,428.856h-814.513c-20.856,0-37.92-17.064-37.92-37.92V129.431
			c0-11.614,9.502-21.116,21.116-21.116h848.122c11.614,0,21.116,9.502,21.116,21.116v261.505
			C644.038,411.792,626.973,428.856,606.117,428.856z"/>
	</defs>
	<clipPath id="SVGID_1_">
		<use xlink:href="#SVGID_123_"  overflow="visible"/>
	</clipPath>
	<g clip-path="url(#SVGID_1_)">
		
			<image overflow="visible" width="500" height="500" xlink:href="PeyGold/Michael-Udine-.png"  transform="matrix(1.7833 0 0 1.7833 -246.3162 -148.0854)">
		</image>
	</g>
</g>
<g>
	<rect y="0.128" opacity="0.2" fill="#64B7FF" width="22.894" height="16.822"/>
	<g>
		<path fill="#64B7FF" d="M5.665,9.325c0.05,0.049,0.132,0.049,0.18,0l2.631-2.631l3.926,3.926c0.157,0.158,0.385,0.248,0.627,0.248
			h0.001c0.24,0,0.468-0.09,0.625-0.248l5-4.999l1.983,1.982c0.222,0.224,0.478,0.141,0.551,0.11
			c0.074-0.031,0.314-0.155,0.314-0.469V1.645c0-0.036-0.013-0.067-0.038-0.092c-0.023-0.023-0.055-0.036-0.089-0.036h-5.6
			c-0.315,0-0.438,0.239-0.468,0.313c-0.031,0.074-0.112,0.331,0.11,0.553L17.4,4.366l-4.372,4.373L9.103,4.813
			c-0.334-0.334-0.919-0.334-1.254,0L4.592,8.071c-0.033,0.033-0.038,0.071-0.038,0.09c0,0.02,0.005,0.058,0.037,0.09L5.665,9.325z"
			/>
		<path fill="#FFFFFF" d="M22.894,15.176H1.774V0.128C1.774,0.058,1.717,0,1.647,0H0.129C0.058,0,0,0.058,0,0.128v15.935
			c0,0.489,0.398,0.887,0.888,0.887h22.006c0.071,0,0.128-0.058,0.128-0.128v-1.518C23.021,15.235,22.963,15.176,22.894,15.176z"/>
	</g>
</g>
</svg>
