<svg fill="#fff" height="512" viewBox="0 0 64 64" width="512" xmlns="http://www.w3.org/2000/svg"><g id="bill-payment-invoice-4" data-name="bill-payment-invoice"><path d="m24.928 4.154-3.481 1.746a1.006 1.006 0 0 1 -1-.063l-2.447-1.637-2.445 1.63a1 1 0 0 1 -1.11 0l-1.445-.961v20.131h14v-19.465zm-9.928 4.846h3v2h-3zm3 10h-3v-2h3zm7 0h-5v-2h5zm0-4h-10v-2h10zm0-4h-5v-2h5z"/><path d="m11 14h-4a1 1 0 0 0 -1 1v29h52v-29a1 1 0 0 0 -1-1h-28v7a3 3 0 0 1 0 6h-18a3 3 0 0 1 0-6zm28 28a2 2 0 1 1 2-2 2 2 0 0 1 -2 2zm0-6a2 2 0 1 1 2-2 2 2 0 0 1 -2 2zm0-6a2 2 0 1 1 2-2 2 2 0 0 1 -2 2zm6 12a2 2 0 1 1 2-2 2 2 0 0 1 -2 2zm0-6a2 2 0 1 1 2-2 2 2 0 0 1 -2 2zm0-6a2 2 0 1 1 2-2 2 2 0 0 1 -2 2zm6 12a2 2 0 1 1 2-2 2 2 0 0 1 -2 2zm0-6a2 2 0 1 1 2-2 2 2 0 0 1 -2 2zm0-6a2 2 0 1 1 2-2 2 2 0 0 1 -2 2zm-17-13a1 1 0 0 1 1-1h20a1 1 0 0 1 1 1v6a1 1 0 0 1 -1 1h-20a1 1 0 0 1 -1-1z"/><path d="m36 18h18v4h-18z"/><path d="m29 23v2a1 1 0 0 0 0-2z"/><path d="m11 25v-2a1 1 0 0 0 0 2z"/><circle cx="32" cy="53" r="1"/><path d="m4 60h56v-14h-56zm2-12a1 1 0 0 1 1-1h50a1 1 0 0 1 1 1v10a1 1 0 0 1 -1 1h-50a1 1 0 0 1 -1-1z"/><path d="m56 49h-48v8h48zm-24 7a3 3 0 1 1 3-3 3 3 0 0 1 -3 3z"/></g></svg>