<?xml version="1.0" encoding="utf-8"?>
<!-- Generator: Adobe Illustrator 24.1.1, SVG Export Plug-In . SVG Version: 6.00 Build 0)  -->
<svg version="1.1" id="Capa_1" xmlns="http://www.w3.org/2000/svg" xmlns:xlink="http://www.w3.org/1999/xlink" x="0px" y="0px"
	 viewBox="0 0 226.4 143.8" style="enable-background:new 0 0 226.4 143.8;" xml:space="preserve">
<style type="text/css">
	.st0{clip-path:url(#SVGID_2_);fill:#706F6F;}
	.st1{opacity:0.39;clip-path:url(#SVGID_2_);}
	.st2{fill:#DADADA;}
	.st3{fill:#EDEDED;}
	.st4{fill:#F6F6F6;}
	.st5{clip-path:url(#SVGID_2_);}
	.st6{fill:#1A1A1A;}
	.st7{opacity:0.8;}
	.st8{fill:#111110;}
	.st9{fill:#1D1D1B;}
	.st10{fill:#3C3C3B;}
	.st11{fill:#575756;}
	.st12{fill:#C6C6C6;}
	.st13{fill:#9D9D9C;}
	.st14{fill:#FFFFFF;}
</style>
<g>
	<defs>
		<path id="SVGID_1_" d="M219.4,143.8H7c-3.9,0-7-3.1-7-7V7c0-3.9,3.1-7,7-7h212.4c3.9,0,7,3.1,7,7v129.8
			C226.4,140.7,223.3,143.8,219.4,143.8z"/>
	</defs>
	<clipPath id="SVGID_2_">
		<use xlink:href="#SVGID_1_"  style="overflow:visible;"/>
	</clipPath>
	<path class="st0" d="M219.4,143.8H7c-3.9,0-7-3.1-7-7V7c0-3.9,3.1-7,7-7h212.4c3.9,0,7,3.1,7,7v129.8
		C226.4,140.7,223.3,143.8,219.4,143.8z"/>
	<g class="st1">
		<polygon class="st2" points="65.1,11.2 63.1,-9.7 90.1,8.6 		"/>
		<polygon class="st3" points="74.2,19 90.1,8.6 65.1,11.2 		"/>
		<polygon class="st3" points="87.9,56.7 109,29.9 76.3,31.8 		"/>
		<polygon class="st4" points="109,29.9 90.1,8.6 74.2,19 		"/>
		<polygon class="st2" points="74.2,19 78.6,27.3 76.3,31.8 109,29.9 		"/>
		<polygon class="st2" points="109,29.9 131.4,68.3 87.9,56.7 		"/>
		<polygon class="st4" points="119.4,47.7 163.1,49.1 131.4,68.3 		"/>
		<polygon class="st3" points="97.2,80.3 121.2,65.6 87.9,56.7 		"/>
		<polygon class="st3" points="113.4,37.4 147.9,48.6 119.4,47.7 		"/>
		<polygon class="st4" points="109,29.9 128.8,7 137.1,45.1 113.4,37.4 		"/>
		<polygon class="st2" points="90.1,8.6 128.8,7 109,29.9 		"/>
		<polygon class="st4" points="76.6,-0.6 121.2,7.3 90.1,8.6 		"/>
		<polygon class="st2" points="97.2,80.3 124.9,99.8 121.2,65.6 		"/>
		<polygon class="st3" points="124.9,99.8 103.9,115.3 97.2,80.3 		"/>
		<polygon class="st2" points="121.2,65.6 155,74.9 124,91.5 		"/>
		<polygon class="st2" points="103.9,115.3 133.6,93.5 147.9,119.1 		"/>
		<polygon class="st4" points="103.9,115.3 103.3,130.6 124.2,117.1 		"/>
		<polygon class="st2" points="103.3,130.6 101.3,147.1 126.9,147.1 		"/>
		<polygon class="st3" points="124.2,117.1 126.2,146.7 103.3,130.6 		"/>
		<polygon class="st3" points="147.9,119.1 155,74.9 130.5,88 		"/>
		<polygon class="st4" points="130.5,88 124,91.5 124.9,99.8 133.6,93.5 		"/>
		<polygon class="st2" points="137.1,45.1 147.9,48.6 163.1,49.1 147.5,29.3 		"/>
		<polygon class="st3" points="128.8,7 147.5,29.3 137.1,45.1 		"/>
		<polygon class="st3" points="131.4,68.3 178.1,81.2 163.1,49.1 		"/>
		<polygon class="st2" points="147.9,119.1 178.1,81.2 155,74.9 		"/>
		<polygon class="st2" points="124.2,117.1 183.4,122.2 126.2,146.7 		"/>
		<polygon class="st3" points="178.1,81.2 183.4,122.2 147.9,119.1 		"/>
		<polygon class="st3" points="125.3,147.1 169.1,147.1 168,128.8 		"/>
		<polygon class="st2" points="163.1,49.1 202.9,49.1 175.1,74.9 		"/>
		<polygon class="st3" points="175.1,74.9 187.3,99.8 195.7,55.8 		"/>
		<polygon class="st2" points="178.1,81.2 187.3,99.8 183.4,122.2 		"/>
		<polygon class="st3" points="163.1,49.1 178.1,12.9 202.9,49.1 		"/>
		<polygon class="st2" points="143.4,24.4 178.1,12.9 163.1,49.1 		"/>
		<polygon class="st3" points="183.4,122.2 200.1,148 168,128.8 		"/>
		<polygon class="st4" points="168,128.8 169.1,147.1 200.1,148 		"/>
		<polygon class="st2" points="183.4,122.2 237.4,122.2 200.1,148 		"/>
		<polygon class="st4" points="237.4,122.2 204.4,89.7 183.4,122.2 		"/>
		<polygon class="st2" points="204.4,89.7 190.6,81.2 183.4,122.2 		"/>
		<polygon class="st4" points="195.7,55.8 231.9,65.1 190.6,81.2 		"/>
		<polygon class="st3" points="143.4,24.4 188.9,9.4 151.5,-19.7 		"/>
		<polygon class="st2" points="128.8,7 151.5,-19.7 143.4,24.4 		"/>
		<polygon class="st3" points="94.7,2.7 121.2,7.3 128.8,7 135.2,-0.6 		"/>
		<polygon class="st4" points="202.9,146.5 228.6,128.3 229.5,149.6 		"/>
		<polygon class="st2" points="231.9,65.1 237.4,122.2 204.4,89.7 		"/>
		<polygon class="st3" points="190.6,81.2 204.4,89.7 231.9,65.1 		"/>
		<polygon class="st2" points="195.7,55.8 228.4,26.1 231.9,65.1 		"/>
		<polygon class="st4" points="178.1,12.9 228.4,26.1 202.9,49.1 		"/>
		<polygon class="st2" points="178.1,12.9 227.5,-3.4 228.4,26.1 		"/>
		<polygon class="st3" points="173.4,-2.6 188.9,9.4 214.5,1.2 		"/>
		<polygon class="st4" points="65.1,11.2 63.1,-12.7 39.1,15.8 		"/>
		<polygon class="st2" points="39.1,15.8 -3.9,-2.6 63.1,-12.7 		"/>
		<polygon class="st3" points="39.1,15.8 74.2,19 65.1,11.2 		"/>
		<polygon class="st4" points="91.9,66.9 50.4,101.7 100.9,99.8 97.2,80.3 		"/>
		<polygon class="st3" points="62.9,101.2 89.9,135.1 100.9,99.8 		"/>
		<polygon class="st3" points="0.9,-0.6 0.9,45.1 33.4,13.3 		"/>
		<polygon class="st4" points="33.4,13.3 39.1,51.1 12.6,33.6 		"/>
		<polygon class="st2" points="89.9,135.1 103.3,130.6 103.9,115.3 100.9,99.8 		"/>
		<polygon class="st2" points="12.6,33.6 -11,56.7 39.1,51.1 		"/>
		<polygon class="st3" points="29.6,52.2 -7,56.3 12.6,95.1 		"/>
		<polygon class="st2" points="12.6,95.1 50.4,101.7 51.6,68.3 		"/>
		<polygon class="st4" points="29.6,52.2 51.6,68.3 12.6,95.1 		"/>
		<polygon class="st2" points="62.9,101.2 89.9,135.1 44.3,141.6 		"/>
		<polygon class="st3" points="51.6,68.3 91.9,66.9 50.4,101.7 		"/>
		<polygon class="st4" points="39.1,15.8 62.9,41.9 78.6,27.3 74.2,19 		"/>
		<polygon class="st4" points="-1.6,66.9 12.6,95.1 -3.5,117.1 		"/>
		<polygon class="st3" points="-3.5,117.1 50.4,101.7 12.6,95.1 		"/>
		<polygon class="st2" points="-3.5,117.1 -0.5,149.5 33.6,128.8 		"/>
		<polygon class="st4" points="33.6,128.8 38.2,105.2 -3.5,117.1 		"/>
		<polygon class="st3" points="89.9,135.1 101.3,147.1 103.3,130.6 		"/>
		<polygon class="st4" points="33.6,128.8 44.3,141.6 62.9,101.2 		"/>
		<polygon class="st2" points="38.2,105.2 33.6,128.8 62.9,101.2 50.4,101.7 		"/>
		<polygon class="st3" points="33.6,128.8 51.3,149.9 -0.5,149.5 		"/>
		<polygon class="st4" points="66.3,138.4 44.3,141.6 55.8,155.6 		"/>
		<polygon class="st3" points="66.3,138.4 101.3,147.1 55.8,155.6 		"/>
		<polygon class="st4" points="66.3,138.4 89.9,135.1 101.3,147.1 		"/>
	</g>
	<g class="st5">
		<polygon class="st6" points="122.3,86.8 104.9,68.7 99,63.7 111.9,48.5 107.9,33.8 97.6,19.1 88.8,12 96.5,18.1 98.8,-0.3 
			82.7,-12.6 72,-3.8 54.7,-10.1 30,-9 14.5,7.2 28.1,-7.3 11.8,-13.2 -0.2,5.1 7.3,22.3 -0.2,40.9 7.3,54.5 13,60.3 -5,67.2 
			-9.6,78.9 -12,97.2 -12,110.3 -12,122.5 -12,129.7 -3.8,129.7 -5.9,133.5 -6.2,133.5 -12,132 -12,143.7 -12,150.9 -3.8,150.9 
			-6.2,155.2 11.8,155.2 38.4,156.1 52.4,156.1 57.3,157.2 57.3,158.2 62.1,157.1 76.1,157.1 102.7,156.2 120.7,156.2 118.3,151.9 
			126.5,151.9 126.5,144.7 126.5,133 120.7,134.5 118.3,130.1 126.5,130.1 126.5,122.9 126.5,110.7 		"/>
		<g class="st7">
			<g>
				<g>
					<g>
						<polygon class="st8" points="104.9,68.7 122.3,86.8 90.3,70 						"/>
						<polygon class="st9" points="90.3,70 76.9,77.8 90.9,88.6 						"/>
						<polygon class="st10" points="90.3,70 90.8,85.7 111.4,81.1 						"/>
						<polygon class="st9" points="111.4,81.1 107.2,94 122.3,86.8 						"/>
						<polygon class="st8" points="90.8,85.7 107.2,94 111.4,81.1 						"/>
						<polygon class="st10" points="112.2,91.7 116.7,109.8 122.3,86.8 						"/>
						<polygon class="st8" points="112.2,91.7 114.7,101.9 88.2,101.9 						"/>
						<polygon class="st8" points="90.9,88.6 76.2,101.9 76.9,77.8 						"/>
						<polygon class="st9" points="90.8,85.7 90.8,100.8 107.2,94 						"/>
						<polygon class="st10" points="76.2,101.9 88.2,101.9 90.8,100.8 90.9,88.6 						"/>
						<polygon class="st10" points="76.9,77.8 64.4,84.6 76.7,85.7 						"/>
						<polygon class="st9" points="64.4,84.6 76.2,101.9 76.7,85.7 						"/>
						<polygon class="st8" points="64.4,84.6 57.3,88.6 72,95.8 						"/>
						<polygon class="st9" points="57.3,88.6 57.3,109.8 72,95.8 						"/>
						<polygon class="st8" points="63.7,103.6 73.1,119.9 57.3,119.9 						"/>
						<polygon class="st10" points="63.7,103.6 57.3,109.8 57.3,119.9 						"/>
						<polygon class="st11" points="72,95.8 70.4,115.2 63.7,103.6 						"/>
						<polygon class="st8" points="72,95.8 83.9,112.4 70.4,115.2 						"/>
						<polygon class="st9" points="83.9,112.4 100.8,101.9 76.2,101.9 						"/>
						<polygon class="st9" points="100.8,101.9 100.8,121.5 116.7,109.8 						"/>
						<polygon class="st11" points="100.8,101.9 114.7,101.9 116.7,109.8 						"/>
						<polygon class="st10" points="83.9,112.4 100.8,114.2 100.8,101.9 						"/>
						<polygon class="st11" points="90.3,113.1 80.7,119 101.1,124.9 						"/>
						<polygon class="st8" points="101.1,124.9 100.8,114.2 90.3,113.1 						"/>
						<polygon class="st10" points="126.5,110.7 100.8,121.5 116.7,109.8 						"/>
						<polygon class="st8" points="114.9,115.6 126.5,122.9 126.5,110.7 						"/>
						<polygon class="st9" points="83.9,112.4 71.3,104.2 70.4,115.2 						"/>
						<polygon class="st8" points="70.4,115.2 79.1,129.7 81.8,112.8 						"/>
						<polygon class="st10" points="90.3,113.1 83.9,112.4 81.8,112.8 80.7,119 						"/>
						<polygon class="st9" points="67.9,119.9 62.1,135.3 57.3,119.9 						"/>
						<polygon class="st9" points="101.1,124.9 100.8,121.5 110.2,117.6 						"/>
						<polygon class="st11" points="110.2,117.6 112.8,128.4 114.9,115.6 						"/>
						<polygon class="st10" points="114.9,115.6 112.5,130.1 126.5,122.9 						"/>
						<polygon class="st8" points="112.5,130.1 101.1,124.9 110.2,117.6 112.8,128.4 						"/>
						<polygon class="st8" points="62.1,135.3 76.1,135.3 65.6,126 						"/>
						<polygon class="st11" points="65.6,126 67.9,119.9 73.1,119.9 						"/>
						<polygon class="st10" points="73.1,119.9 76.1,135.3 65.6,126 						"/>
						<polygon class="st8" points="57.3,119.9 57.3,136.4 62.1,135.3 						"/>
						<polygon class="st9" points="76.1,135.3 79.1,129.7 73.1,119.9 						"/>
						<polygon class="st9" points="80.7,119 79.8,124.9 91.1,122 						"/>
						<polygon class="st9" points="126.5,130.1 112.5,130.1 126.5,122.9 						"/>
						<polygon class="st10" points="76.1,135.3 102.7,134.5 79.1,129.7 						"/>
						<polygon class="st11" points="79.8,124.9 79.1,129.7 88.2,131.5 						"/>
						<polygon class="st8" points="88.2,131.5 96.3,123.8 79.8,124.9 						"/>
						<polygon class="st10" points="91.1,122 79.8,124.9 96.3,123.8 						"/>
						<polygon class="st9" points="96.3,123.8 102.7,134.5 88.2,131.5 						"/>
						<polygon class="st10" points="102.7,134.5 112.5,130.1 101.1,124.9 96.3,123.8 						"/>
						<polygon class="st8" points="102.7,134.5 120.7,134.5 118.3,130.1 112.5,130.1 						"/>
						<g>
							<polygon class="st9" points="67.9,141.6 62.1,157.1 57.3,141.6 							"/>
							<polygon class="st11" points="110.2,139.3 112.8,150.2 114.9,137.4 							"/>
							<polygon class="st10" points="114.9,137.4 112.5,151.9 126.5,144.7 							"/>
							<polygon class="st8" points="112.5,151.9 101.1,146.7 110.2,139.3 112.8,150.2 							"/>
							<polygon class="st11" points="65.6,147.7 67.9,141.6 73.1,141.6 							"/>
							<polygon class="st10" points="73.1,141.6 76.1,157.1 65.6,147.7 							"/>
							<polygon class="st8" points="57.3,141.6 57.3,158.2 62.1,157.1 							"/>
							<polygon class="st9" points="76.1,157.1 79.1,151.4 73.1,141.6 							"/>
							<polygon class="st10" points="73.1,141.6 76.1,135.3 79.8,146.7 							"/>
							<polygon class="st11" points="73.1,141.6 79.1,151.4 79.8,146.7 							"/>
							<polygon class="st11" points="79.8,146.7 83.6,135.1 76.1,135.3 							"/>
							<polygon class="st9" points="82,140 91.8,145.9 79.8,146.7 							"/>
							<polygon class="st9" points="83.6,135.1 93.3,141 95.7,134.7 							"/>
							<polygon class="st8" points="83.6,135.1 82,140 87.6,143.3 							"/>
							<polygon class="st10" points="95.7,134.7 103.6,144.6 96.3,145.6 							"/>
							<polygon class="st10" points="83.6,135.1 90.3,139.2 87.6,143.3 							"/>
							<polygon class="st10" points="57.3,136.4 57.3,141.6 69.4,135.3 62.1,135.3 							"/>
							<polygon class="st8" points="69.4,135.3 73.1,141.6 57.3,141.6 							"/>
							<polygon class="st9" points="69.4,135.3 76.1,135.3 73.1,141.6 							"/>
							<polygon class="st8" points="90.3,139.2 93.3,141 91.8,145.9 							"/>
							<polygon class="st11" points="90.3,139.2 87.6,143.3 91.8,145.9 							"/>
							<polygon class="st11" points="95.7,134.7 93.3,141 91.8,145.9 96.3,145.6 							"/>
							<polygon class="st8" points="95.7,134.7 102.7,134.5 100.7,141 							"/>
							<polygon class="st11" points="100.7,141 114.9,134.5 102.7,134.5 							"/>
							<polygon class="st9" points="100.7,141 103.6,144.6 110.2,139.3 104.7,139.2 							"/>
							<polygon class="st9" points="104.7,139.2 110.2,139.3 114.9,134.5 							"/>
							<polygon class="st10" points="110.2,139.3 114.9,137.4 120.7,134.5 114.9,134.5 							"/>
							<polygon class="st8" points="126.5,133 120.7,134.5 126.5,144.7 							"/>
							<polygon class="st9" points="120.7,134.5 114.9,137.4 126.5,144.7 							"/>
						</g>
						<g>
							<polygon class="st9" points="46.7,140.7 52.4,156.1 57.3,140.7 							"/>
							<polygon class="st11" points="4.3,138.3 1.7,149.2 -0.3,136.4 							"/>
							<polygon class="st10" points="-0.3,136.4 2,150.9 -12,143.7 							"/>
							<polygon class="st8" points="2,150.9 13.4,145.7 4.3,138.3 1.7,149.2 							"/>
							<polygon class="st11" points="48.9,146.7 46.7,140.7 41.4,140.7 							"/>
							<polygon class="st10" points="41.4,140.7 38.4,156.1 48.9,146.7 							"/>
							<polygon class="st8" points="57.3,140.7 57.3,157.2 52.4,156.1 							"/>
							<polygon class="st9" points="38.4,156.1 35.4,150.4 41.4,140.7 							"/>
							<polygon class="st9" points="-12,150.9 2,150.9 -12,143.7 							"/>
							<polygon class="st10" points="41.4,140.7 38.4,134.4 34.7,145.7 							"/>
							<polygon class="st11" points="41.4,140.7 35.4,150.4 34.7,145.7 							"/>
							<polygon class="st11" points="34.7,145.7 30.9,134.1 38.4,134.4 							"/>
							<polygon class="st9" points="32.5,139 22.7,144.9 34.7,145.7 							"/>
							<polygon class="st9" points="30.9,134.1 21.2,140 18.8,133.7 							"/>
							<polygon class="st8" points="30.9,134.1 32.5,139 26.9,142.4 							"/>
							<polygon class="st10" points="18.8,133.7 10.9,143.7 18.2,144.6 							"/>
							<polygon class="st10" points="30.9,134.1 24.2,138.2 26.9,142.4 							"/>
							<polygon class="st10" points="57.3,135.4 57.3,140.7 45.1,134.4 52.4,134.4 							"/>
							<polygon class="st8" points="45.1,134.4 41.4,140.7 57.3,140.7 							"/>
							<polygon class="st9" points="45.1,134.4 38.4,134.4 41.4,140.7 							"/>
							<polygon class="st8" points="24.2,138.2 21.2,140 22.7,144.9 							"/>
							<polygon class="st11" points="24.2,138.2 26.9,142.4 22.7,144.9 							"/>
							<polygon class="st11" points="18.8,133.7 21.2,140 22.7,144.9 18.2,144.6 							"/>
							<polygon class="st11" points="18.2,144.6 10.9,143.7 13.4,145.7 							"/>
							<polygon class="st8" points="18.8,133.7 11.8,133.5 13.8,140 							"/>
							<polygon class="st11" points="13.8,140 -0.3,133.5 11.8,133.5 							"/>
							<polygon class="st9" points="13.8,140 10.9,143.7 4.3,138.3 9.8,138.2 							"/>
							<polygon class="st9" points="9.8,138.2 4.3,138.3 -0.3,133.5 							"/>
							<polygon class="st10" points="4.3,138.3 -0.3,136.4 -6.2,133.5 -0.3,133.5 							"/>
						</g>
					</g>
					<g>
						<polygon class="st10" points="-5,67.2 24.2,69.6 11.2,62.2 						"/>
						<polygon class="st9" points="1.7,76.6 9.6,68.3 -5,67.2 						"/>
						<polygon class="st8" points="9.6,68.3 -7.8,86.4 24.2,69.6 						"/>
						<polygon class="st9" points="24.2,69.6 37.6,77.4 23.6,88.2 						"/>
						<polygon class="st10" points="24.2,69.6 23.7,85.3 3.1,80.7 						"/>
						<polygon class="st9" points="3.1,80.7 7.3,93.6 -7.8,86.4 						"/>
						<polygon class="st8" points="23.7,85.3 7.3,93.6 3.1,80.7 						"/>
						<polygon class="st10" points="2.3,91.2 -2.2,109.4 -7.8,86.4 						"/>
						<polygon class="st8" points="2.3,91.2 -0.2,101.5 26.3,101.5 						"/>
						<polygon class="st8" points="23.6,88.2 38.3,101.5 37.6,77.4 						"/>
						<polygon class="st9" points="23.7,85.3 23.7,100.4 7.3,93.6 						"/>
						<polygon class="st10" points="38.3,101.5 26.3,101.5 23.7,100.4 23.6,88.2 						"/>
						<polygon class="st10" points="37.6,77.4 50.1,84.2 37.8,85.3 						"/>
						<polygon class="st9" points="50.1,84.2 38.3,101.5 37.8,85.3 						"/>
						<polygon class="st8" points="50.1,84.2 57.2,88.2 42.5,95.4 						"/>
						<polygon class="st9" points="57.2,88.2 57.2,109.4 42.5,95.4 						"/>
						<polygon class="st8" points="50.8,103.2 41.4,119.5 57.2,119.5 						"/>
						<polygon class="st10" points="50.8,103.2 57.2,109.4 57.2,119.5 						"/>
						<polygon class="st11" points="42.5,95.4 44.1,114.8 50.8,103.2 						"/>
						<polygon class="st8" points="42.5,95.4 30.6,112 44.1,114.8 						"/>
						<polygon class="st9" points="30.6,112 13.7,101.5 38.3,101.5 						"/>
						<polygon class="st9" points="13.7,101.5 13.7,121.1 -2.2,109.4 						"/>
						<polygon class="st11" points="13.7,101.5 -0.2,101.5 -2.2,109.4 						"/>
						<polygon class="st10" points="30.6,112 13.7,113.8 13.7,101.5 						"/>
						<polygon class="st11" points="24.2,112.7 33.8,118.6 13.4,124.5 						"/>
						<polygon class="st8" points="13.4,124.5 13.7,113.8 24.2,112.7 						"/>
						<polygon class="st10" points="-12,110.3 13.7,121.1 -2.2,109.4 						"/>
						<polygon class="st9" points="30.6,112 43.2,103.8 44.1,114.8 						"/>
						<polygon class="st8" points="44.1,114.8 35.4,129.3 32.7,112.4 						"/>
						<polygon class="st10" points="24.2,112.7 30.6,112 32.7,112.4 33.8,118.6 						"/>
						<polygon class="st9" points="46.6,119.5 52.4,134.9 57.2,119.5 						"/>
						<polygon class="st9" points="13.4,124.5 13.7,121.1 4.3,117.2 						"/>
						<polygon class="st11" points="4.3,117.2 1.7,128 -0.4,115.2 						"/>
						<polygon class="st10" points="-0.4,115.2 2,129.7 -12,122.5 						"/>
						<polygon class="st8" points="2,129.7 13.4,124.5 4.3,117.2 1.7,128 						"/>
						<polygon class="st8" points="52.4,134.9 38.4,134.9 48.9,125.6 						"/>
						<polygon class="st11" points="48.9,125.6 46.6,119.5 41.4,119.5 						"/>
						<polygon class="st10" points="41.4,119.5 38.4,134.9 48.9,125.6 						"/>
						<polygon class="st8" points="57.2,119.5 57.2,136 52.4,134.9 						"/>
						<polygon class="st9" points="38.4,134.9 35.4,129.3 41.4,119.5 						"/>
						<polygon class="st9" points="33.8,118.6 34.7,124.5 23.4,121.6 						"/>
						<polygon class="st9" points="-12,129.7 2,129.7 -12,122.5 						"/>
						<polygon class="st10" points="38.4,134.9 11.8,134.1 35.4,129.3 						"/>
						<polygon class="st11" points="34.7,124.5 35.4,129.3 26.3,131.1 						"/>
						<polygon class="st8" points="26.3,131.1 18.2,123.4 34.7,124.5 						"/>
						<polygon class="st10" points="23.4,121.6 34.7,124.5 18.2,123.4 						"/>
						<polygon class="st9" points="18.2,123.4 11.8,134.1 26.3,131.1 						"/>
						<polygon class="st10" points="11.8,134.1 2,129.7 13.4,124.5 18.2,123.4 						"/>
						<polygon class="st8" points="11.8,134.1 -6.2,134.1 -3.8,129.7 2,129.7 						"/>
					</g>
				</g>
			</g>
			<g>
				<polygon class="st11" points="72,-3.8 82.7,-12.6 86.5,10.2 				"/>
				<polygon class="st10" points="82.7,-12.6 98.8,-0.3 96.5,18.1 				"/>
				<polygon class="st8" points="86.5,10.2 96.5,18.1 82.7,-12.6 				"/>
				<polygon class="st8" points="11.8,-13.2 14.5,7.2 28.1,-7.3 				"/>
				<polygon class="st12" points="14.5,7.2 14.8,29.6 30.5,4.4 				"/>
				<polygon class="st2" points="14.5,7.2 30,-9 41.9,3.6 				"/>
				<polygon class="st12" points="30,-9 50,12.2 54.7,-10.1 				"/>
				<polygon class="st3" points="54.7,-10.1 72,-3.8 74.2,15.8 				"/>
				<polygon class="st2" points="54.7,-10.1 50,12.2 74.2,15.8 				"/>
				<polygon class="st2" points="14.8,29.6 33.1,33.8 26.5,10.8 				"/>
				<polygon class="st3" points="33.1,33.8 50,12.2 26.5,10.8 				"/>
				<polygon class="st2" points="26.5,10.8 50,12.2 30,5.1 				"/>
				<polygon class="st4" points="30,5.1 41.9,3.6 50,12.2 				"/>
				<polygon class="st10" points="33.1,33.8 24,42.3 33.2,52.7 				"/>
				<polygon class="st11" points="33.1,33.8 37.1,28.7 42.8,37.8 				"/>
				<polygon class="st9" points="33.1,33.8 33.1,44 42.8,37.8 				"/>
				<polygon class="st8" points="42.8,37.8 33.2,52.7 33.1,44 				"/>
				<polygon class="st13" points="14.8,29.6 33.1,33.8 13.6,52.3 				"/>
				<polygon class="st2" points="37.1,28.7 46.4,43.2 54,23.5 				"/>
				<polygon class="st12" points="37.1,28.7 50,12.2 54,23.5 				"/>
				<polygon class="st3" points="54,23.5 64.9,14.4 50,12.2 				"/>
				<polygon class="st12" points="54,23.5 64.9,14.4 75.3,32.8 				"/>
				<polygon class="st12" points="72,-3.8 88.8,12 74.2,15.8 				"/>
				<polygon class="st12" points="13.6,52.3 24.4,71.7 24,42.3 				"/>
				<polygon class="st3" points="24,42.3 39.1,59.4 24.4,71.7 				"/>
				<polygon class="st4" points="33.2,52.7 42.8,37.8 55.3,56.4 				"/>
				<polygon class="st3" points="46.4,43.2 62.9,35.9 54,23.5 				"/>
				<polygon class="st2" points="54,23.5 67.6,29.4 62.9,35.9 				"/>
				<polygon class="st10" points="62.9,35.9 67.6,29.4 75.3,32.8 				"/>
				<polygon class="st9" points="62.9,35.9 68.7,44.5 75.3,32.8 				"/>
				<polygon class="st8" points="68.7,44.5 80.9,46.6 75.3,32.8 				"/>
				<polygon class="st10" points="68.7,44.5 75.3,52.9 80.9,46.6 				"/>
				<polygon class="st2" points="46.4,43.2 62.9,35.9 66.7,41.5 				"/>
				<polygon class="st13" points="55.3,56.4 58.1,42.3 46.4,43.2 				"/>
				<polygon class="st3" points="55.3,56.4 70.8,59.6 56.7,49.5 				"/>
				<polygon class="st4" points="64.9,14.4 84.3,17.2 75.3,32.8 				"/>
				<polygon class="st2" points="74.2,15.8 97.6,19.1 88.8,12 				"/>
				<polygon class="st13" points="97.6,19.1 107.9,33.8 87.3,34.8 				"/>
				<polygon class="st12" points="84.3,17.2 87.3,34.8 97.6,19.1 				"/>
				<polygon class="st3" points="75.3,32.8 84.3,17.2 88.5,41.3 				"/>
				<polygon class="st3" points="66.7,41.5 63.7,54.5 58.1,42.3 				"/>
				<polygon class="st2" points="58.1,42.3 56.7,49.5 63.7,54.5 				"/>
				<polygon class="st2" points="107.9,33.8 111.9,48.5 95.3,34.4 				"/>
				<polygon class="st12" points="95.3,34.4 99,63.7 111.9,48.5 				"/>
				<polygon class="st3" points="89.7,48.4 80.9,46.6 75.3,52.9 				"/>
				<polygon class="st2" points="88.5,41.3 80.9,46.6 89.7,48.4 				"/>
				<polygon class="st3" points="75.3,32.8 80.9,46.6 88.5,41.3 				"/>
				<polygon class="st2" points="63.7,54.5 72,48.8 66.7,41.5 				"/>
				<polygon class="st4" points="72,48.8 63.7,54.5 77.8,64.6 				"/>
				<polygon class="st2" points="72,48.8 75.3,52.9 73.7,53.4 				"/>
				<polygon class="st2" points="77.8,64.6 90.5,57 73.7,53.4 				"/>
				<polygon class="st8" points="47.7,58.9 44.4,63.5 56,69.5 				"/>
				<polygon class="st10" points="47.7,58.9 61.8,59.2 56,69.5 				"/>
				<polygon class="st2" points="33.2,52.7 43.6,64.7 50.2,55.4 				"/>
				<polygon class="st12" points="50.2,55.4 47.7,58.9 70.8,59.6 				"/>
				<polygon class="st2" points="95.3,34.4 89.7,48.4 96.8,46.2 				"/>
				<polygon class="st2" points="90.5,57 99,63.7 96.8,46.2 				"/>
				<polygon class="st12" points="99,63.7 77.8,64.6 90.5,57 				"/>
				<polygon class="st2" points="61.8,59.2 76.1,71.9 70.8,59.6 				"/>
				<polygon class="st3" points="39.1,59.4 51.1,73.5 33.3,80.2 				"/>
				<polygon class="st2" points="39.1,59.4 24.4,71.7 33.3,80.2 				"/>
				<polygon class="st12" points="56.7,79.8 67.1,75.3 53.6,76.5 				"/>
				<polygon class="st12" points="52.4,75.2 67.1,75.3 53.6,76.5 				"/>
				<polygon class="st2" points="56,69.5 52.4,75.2 43.6,64.7 44.4,63.5 				"/>
				<polygon class="st2" points="56,69.5 67.1,75.3 52.4,75.2 				"/>
				<polygon class="st3" points="44.4,76 56.7,79.8 51,73.5 				"/>
				<polygon class="st3" points="56,69.5 77.2,80.9 66.1,63.1 				"/>
				<polygon class="st12" points="76.1,71.9 77.2,80.9 66.1,63.1 				"/>
				<polygon class="st12" points="33.3,80.2 58.4,86 44.4,76 				"/>
				<polygon class="st3" points="56.7,79.8 58.4,86 44.4,76 				"/>
				<polygon class="st2" points="58.4,86 77.2,80.9 56.7,79.8 				"/>
				<polygon class="st3" points="67.1,75.3 56.7,79.8 77.2,80.9 				"/>
				<polygon class="st3" points="76.1,71.9 80.3,79 77.2,80.9 				"/>
				<polygon class="st12" points="87.2,64.2 76.1,71.9 80.3,79 				"/>
				<polygon class="st3" points="70.8,59.6 77.8,64.6 76.1,71.9 				"/>
				<polygon class="st3" points="87.2,64.2 76.1,71.9 77.8,64.6 				"/>
				<polygon class="st3" points="87.2,64.2 80.3,79 99,63.7 				"/>
			</g>
			<polygon class="st9" points="104.9,68.7 99,63.7 91.8,70 			"/>
			<polygon class="st9" points="17.1,58.7 9.6,68.3 23.3,70.1 			"/>
			<polygon class="st11" points="-5,67.2 17.1,58.7 9.6,68.3 			"/>
			<polygon class="st9" points="122.3,86.8 126.5,110.7 116.7,109.8 			"/>
			<polygon class="st10" points="-5,67.2 -9.6,78.9 -7.8,86.4 1.7,76.6 			"/>
			<polygon class="st3" points="14.5,7.2 7.3,22.3 14.8,29.6 			"/>
			<polygon class="st2" points="7.3,22.3 5.7,40.9 14.8,29.6 			"/>
			<polygon class="st12" points="5.7,40.9 13.6,52.3 14.8,29.6 			"/>
			<polygon class="st4" points="73.7,53.4 96.8,46.2 90.5,57 			"/>
			<polygon class="st4" points="87.3,34.8 95.3,34.4 89.7,48.4 			"/>
			<polygon class="st4" points="24.4,71.7 7.3,54.5 13.6,52.3 			"/>
			<polygon class="st2" points="5.7,40.9 7.3,54.5 13.6,52.3 			"/>
			<polygon class="st12" points="7.3,22.3 -0.2,40.9 5.7,40.9 			"/>
			<polygon class="st3" points="-0.2,40.9 7.3,54.5 5.7,40.9 			"/>
			<polygon class="st8" points="11.8,-13.2 -0.2,5.1 7.3,22.3 14.5,7.2 			"/>
			<polygon class="st10" points="-0.2,5.1 14.5,7.2 11.8,-13.2 			"/>
		</g>
	</g>
	<g class="st5">
		<g>
			<g>
				<g>
					<path class="st14" d="M143.5,24.2c0.6-3.7,1.6-4.9,3.7-4.9c1.8,0,4,0,5.8,0c0.7,0,1.2,0.4,1.2,1.6c0,0.4,0,0.5-0.3,0.5
						c-2.1,0-4.4,0-6.5,0c-0.8,0-1.6,1-1.8,2.5c0,0-1.4,7.5-1.4,7.5c0,0.4-0.1,0.4-0.3,0.4c-0.6,0-2-0.1-1.5-2.1L143.5,24.2z
						 M152.5,24.4l-0.6,3c-0.3,1.7-1.2,1.9-2.1,2c-0.9,0.1-2,0.1-2.8,0.1c-0.4,0-0.4,0-0.6,0.4l-0.2,1c-0.2,0.9,0,0.9,1,0.9
						c0.6,0,1.6,0,2.2,0c4.5,0,4.8-5.4,4.8-5.7c0,0,0.1-0.6,0.1-0.9c0.1-0.7-0.1-1.2-1.4-1.2C152.6,23.9,152.5,23.9,152.5,24.4
						C152.5,24.4,152.5,24.4,152.5,24.4z M149.3,26.8c1.2,0,1.1-2.2,1.1-2.3l0,0c0-0.4-0.3-0.7-0.6-0.7c-0.7,0-1.2,0-2,0
						c-0.1,0-0.2,0.1-0.2,0.3c0,0.1-0.4,1.9-0.5,2.5c0,0,0,0.1,0.1,0.1C147.7,26.8,149.3,26.8,149.3,26.8z"/>
				</g>
				<g>
					<path class="st14" d="M166.2,20.9c-0.7,0-1.3,0-2,0c-0.8,0-1.6,0-2.4,0c-0.1,0-0.3,0-0.4,0c-1,0-1.7,0.7-1.9,2
						c0,0.1-1,5.4-1.3,6.7c0,0,0,0.1,0.1,0.1h1.4c0.1,0,0.2-0.1,0.2-0.2l0.4-2.4c0.1-0.4,0.2-0.4,0.5-0.4c0.5,0,1.1,0,1.6,0l0,0
						c0.4,0,0.6,0,1,0c1.9,0,2.1-1.2,2.3-2.3l0.6-3.2C166.6,21.3,166.6,20.9,166.2,20.9z M163.9,25.1c-0.1,0.2-0.3,0.3-0.6,0.3
						l-0.1,0c-0.1,0-0.3,0-0.6,0c-0.3,0-0.8,0-1.5,0l-0.3,0c0,0-0.1,0-0.1-0.2c0,0,0.4-1.7,0.6-2.6c0-0.1,0-0.3,0.2-0.3l2.6,0
						c0.4,0,0.5,0.1,0.4,0.4c0,0-0.1,0.3-0.1,0.3C164.5,23.1,164.2,24.7,163.9,25.1z"/>
					<path class="st14" d="M174.6,20.9h-5.3c-0.2,0-0.4,0.2-0.5,0.4l-1.6,8.4c0,0,0,0,0,0.1c0,0,0,0,0.1,0h5.3
						c0.2,0,0.4-0.2,0.5-0.4l0.1-0.8c0,0,0,0,0-0.1c0,0,0,0-0.1,0h-3.8c-0.1,0-0.2,0-0.2-0.1c-0.1-0.1-0.1-0.1-0.1-0.2l0.3-1.8
						c0.1-0.3,0.3-0.5,0.7-0.5h2.9c0.2,0,0.4-0.2,0.5-0.4l0.2-0.8c0,0,0,0,0-0.1c0,0,0,0-0.1,0h-3.5c-0.1,0-0.2,0-0.2-0.1
						c-0.1-0.1-0.1-0.1-0.1-0.2l0.3-1.5c0.1-0.3,0.3-0.5,0.7-0.5h3.2c0.2,0,0.4-0.2,0.5-0.4L174.6,20.9
						C174.7,21,174.7,21,174.6,20.9C174.6,20.9,174.6,20.9,174.6,20.9z"/>
					<path class="st14" d="M182.3,20.9c-0.1,0-0.1,0-0.2,0.1l-2.7,4.2c-0.1,0.1-0.1,0.1-0.2,0.1c-0.1,0-0.2-0.1-0.2-0.2l-1.2-4.1
						l0-0.1c0,0,0,0,0,0h-1.5c-0.1,0-0.1,0.1-0.1,0.1l1.8,6c0,0.1,0,0.2,0,0.3l-0.4,2.2c-0.1,0.3,0.1,0.3,0.2,0.3h1.1
						c0.2,0,0.3-0.1,0.3-0.3l0.4-2.2c0-0.1,0.1-0.1,0.1-0.2l4.2-6.2c0,0,0,0,0,0c0,0,0,0,0,0H182.3z"/>
					<path class="st14" d="M208.4,28.5h-3.5c-0.1,0-0.2,0-0.2-0.1c-0.1-0.1-0.1-0.2-0.1-0.3l1.3-7.1c0,0,0-0.1,0-0.1
						c0,0-0.1,0-0.1,0h-1.1c-0.2,0-0.4,0.2-0.4,0.4l-1.6,8.4c0,0,0,0.1,0,0.1c0,0,0.1,0,0.1,0h5.2c0.2,0,0.4-0.2,0.4-0.4l0.1-0.8
						C208.5,28.6,208.5,28.6,208.4,28.5C208.4,28.5,208.4,28.5,208.4,28.5z"/>
					<path class="st14" d="M216.1,20.9h-3.1c-0.2,0-0.4,0.1-0.4,0.5l-1.5,8c0,0.2,0.1,0.4,0.4,0.4h3.3c2.5,0,3.2-0.9,3.4-2.3
						l0.8-3.9c0-0.2,0.1-0.4,0.1-0.6C218.8,21.7,217.8,20.9,216.1,20.9z M217.1,23.7l-0.6,3.4c-0.2,0.9-0.5,1.5-1.9,1.5h-1.4
						c-0.1,0-0.2,0-0.3-0.1c-0.1-0.1-0.1-0.2-0.1-0.3l1.1-5.6c0-0.2,0.2-0.3,0.4-0.3h1.4c1,0,1.5,0.3,1.5,1
						C217.2,23.3,217.2,23.5,217.1,23.7z"/>
					<path class="st14" d="M191.1,20.9l-0.4,0c-1.2,0-2.3,0-3.4,0c-1.2,0-2.2,1.3-2.5,3.1c-0.2,1.2-0.8,4.2-0.9,4.3
						c-0.1,1.1,0.4,1.3,0.8,1.4l0.1,0c0,0,0.2,0,0.2,0l0.1,0c0.1,0,0.6,0,0.9,0l2.3,0c2.1,0,2.4-0.4,3-3.9l0,0c0,0,0,0,0,0
						c0-0.2,0-0.3,0.1-0.4c0-0.2-0.1-0.4-0.2-0.6c-0.1-0.2-0.3-0.2-0.6-0.2c-0.6,0-1.9,0-2.4,0c0,0-0.1,0-0.1,0.1c0,0,0,0.2-0.1,0.4
						c0,0.2-0.1,0.3-0.1,0.4c0,0.1,0,0.1,0,0.1l0,0.1c0,0.1,0,0.1,0,0.2c0.2,0,1.5,0,1.7,0l0.2,0l0,0.2c0,0-0.1,0.5-0.2,0.8
						l-0.1,0.3c-0.1,0.5-0.2,1.1-1.2,1.1c-0.2,0-0.4,0-0.7,0l-1.1,0c-0.2,0-0.4,0-0.7,0l-0.2,0l0-0.2c0-0.4,0.4-1.9,0.9-4.3l0-0.1v0
						c0,0,0,0,0,0v0c0.2-0.9,0.7-1.6,1.3-1.6l0.3,0c1.3,0,2.1,0,3.5,0c0.1,0,0.1,0,0.1,0c0,0,0-0.2,0-0.3c0-0.4-0.1-0.6-0.2-0.8
						C191.5,21,191.3,20.9,191.1,20.9z"/>
					<path class="st14" d="M198,20.9c-2.3,0-3.5,0.8-3.8,2.6l-0.7,3.7c0,0.2-0.1,0.4-0.1,0.6c0,1.4,1,2.1,2.9,2.1
						c2.8,0,3.6-1.1,3.9-2.6l0.7-3.6c0-0.2,0-0.3,0-0.5C201,21.7,199.9,20.9,198,20.9z M199.5,23.6L199.5,23.6l-0.6,3.5
						c-0.2,1-0.9,1.5-2.1,1.5c-1.2,0-1.7-0.3-1.7-1.1c0-0.1,0-0.3,0-0.5l0.6-3.5c0.2-1,0.9-1.5,2.1-1.5c1.1,0,1.6,0.4,1.6,1.2
						C199.5,23.4,199.5,23.5,199.5,23.6z"/>
				</g>
			</g>
			<g>
				<path class="st14" d="M172.2,39.7c-0.4-0.2-0.7-0.5-0.9-0.9s-0.3-0.8-0.3-1.3c0-0.5,0.1-0.9,0.3-1.3s0.5-0.7,0.9-0.9
					c0.4-0.2,0.8-0.3,1.3-0.3c0.4,0,0.7,0.1,1,0.2s0.6,0.3,0.8,0.6l-0.4,0.4c-0.4-0.4-0.8-0.6-1.3-0.6c-0.4,0-0.7,0.1-1,0.2
					s-0.5,0.4-0.7,0.7c-0.2,0.3-0.2,0.6-0.2,0.9c0,0.3,0.1,0.7,0.2,0.9c0.2,0.3,0.4,0.5,0.7,0.7c0.3,0.2,0.6,0.2,1,0.2
					c0.5,0,1-0.2,1.3-0.6l0.4,0.4c-0.2,0.2-0.5,0.4-0.8,0.6c-0.3,0.1-0.7,0.2-1,0.2C173,40,172.5,39.9,172.2,39.7z"/>
				<path class="st14" d="M180.1,39.9l-1-1.5c-0.1,0-0.2,0-0.3,0h-1.2v1.5h-0.7v-4.8h1.9c0.6,0,1.1,0.1,1.5,0.4
					c0.4,0.3,0.5,0.7,0.5,1.2c0,0.4-0.1,0.7-0.3,0.9c-0.2,0.3-0.4,0.4-0.8,0.6l1.1,1.6H180.1z M179.8,37.6c0.2-0.2,0.3-0.5,0.3-0.8
					c0-0.3-0.1-0.6-0.3-0.8c-0.2-0.2-0.6-0.3-1-0.3h-1.2v2.1h1.2C179.2,37.9,179.5,37.8,179.8,37.6z"/>
				<path class="st14" d="M186,39.3v0.6h-3.5v-4.8h3.4v0.6h-2.7v1.5h2.4v0.6h-2.4v1.5H186z M184.7,33.9h0.8l-1.1,0.9h-0.6
					L184.7,33.9z"/>
				<path class="st14" d="M187.8,35.2h2c0.5,0,1,0.1,1.3,0.3c0.4,0.2,0.7,0.5,0.9,0.8s0.3,0.8,0.3,1.2c0,0.5-0.1,0.9-0.3,1.2
					s-0.5,0.6-0.9,0.8c-0.4,0.2-0.8,0.3-1.3,0.3h-2V35.2z M189.8,39.3c0.4,0,0.7-0.1,1-0.2c0.3-0.2,0.5-0.4,0.7-0.6
					c0.2-0.3,0.2-0.6,0.2-0.9s-0.1-0.7-0.2-0.9c-0.2-0.3-0.4-0.5-0.7-0.6c-0.3-0.1-0.6-0.2-1-0.2h-1.3v3.6H189.8z"/>
				<path class="st14" d="M194.1,35.2h0.7v4.8h-0.7V35.2z"/>
				<path class="st14" d="M197.9,35.7h-1.6v-0.6h3.9v0.6h-1.6v4.2h-0.7V35.7z"/>
				<path class="st14" d="M202.4,39.7c-0.4-0.2-0.7-0.5-0.9-0.9c-0.2-0.4-0.3-0.8-0.3-1.2s0.1-0.9,0.3-1.2c0.2-0.4,0.5-0.7,0.9-0.9
					c0.4-0.2,0.8-0.3,1.3-0.3c0.5,0,0.9,0.1,1.3,0.3c0.4,0.2,0.7,0.5,0.9,0.9c0.2,0.4,0.3,0.8,0.3,1.3c0,0.5-0.1,0.9-0.3,1.3
					c-0.2,0.4-0.5,0.7-0.9,0.9c-0.4,0.2-0.8,0.3-1.3,0.3C203.2,40,202.8,39.9,202.4,39.7z M204.6,39.1c0.3-0.2,0.5-0.4,0.7-0.7
					c0.2-0.3,0.2-0.6,0.2-0.9c0-0.3-0.1-0.7-0.2-0.9c-0.2-0.3-0.4-0.5-0.7-0.7s-0.6-0.2-0.9-0.2s-0.7,0.1-1,0.2
					c-0.3,0.2-0.5,0.4-0.7,0.7c-0.2,0.3-0.2,0.6-0.2,0.9c0,0.3,0.1,0.7,0.2,0.9c0.2,0.3,0.4,0.5,0.7,0.7c0.3,0.2,0.6,0.2,1,0.2
					S204.3,39.3,204.6,39.1z"/>
			</g>
		</g>
	</g>
</g>
</svg>
