<svg id="Capa_1" data-name="Capa 1" xmlns="http://www.w3.org/2000/svg" viewBox="0 0 61.69 39.19"><defs><style>.cls-1{fill:#fff;}.cls-2{opacity:0.83;}.cls-3{fill:#6c96bc;}.cls-4{fill:#3675bb;}</style></defs><title>Iconos</title><path class="cls-1" d="M59.36,0h-57A2.33,2.33,0,0,0,0,2.33V36.86a2.33,2.33,0,0,0,2.33,2.33h57a2.33,2.33,0,0,0,2.33-2.33V2.33A2.33,2.33,0,0,0,59.36,0Z"/><g class="cls-2"><rect class="cls-3" x="1.13" y="1.13" width="59.42" height="36.92" rx="1.19"/><path class="cls-4" d="M59.36,2.27a.06.06,0,0,1,.06.06V36.86a.06.06,0,0,1-.06.06h-57a.05.05,0,0,1-.06-.06V2.33a.05.05,0,0,1,.06-.06h57m0-2.27h-57A2.33,2.33,0,0,0,0,2.33V36.86a2.33,2.33,0,0,0,2.33,2.33h57a2.33,2.33,0,0,0,2.33-2.33V2.33A2.33,2.33,0,0,0,59.36,0Z"/></g><rect class="cls-4" y="10.36" width="61.69" height="8.1"/><rect class="cls-4" x="4.93" y="29.47" width="23.81" height="2.27" rx="1.13"/></svg>