<?xml version="1.0" encoding="utf-8"?>
<!-- Generator: Adobe Illustrator 23.0.0, SVG Export Plug-In . SVG Version: 6.00 Build 0)  -->
<svg version="1.1" id="Capa_1" xmlns="http://www.w3.org/2000/svg" xmlns:xlink="http://www.w3.org/1999/xlink" x="0px" y="0px"
	 viewBox="0 0 226.41 143.84" style="enable-background:new 0 0 226.41 143.84;" xml:space="preserve">
<style type="text/css">
	.st0{clip-path:url(#SVGID_2_);fill:#D1B35D;}
	.st1{opacity:0.22;clip-path:url(#SVGID_2_);}
	.st2{fill:#A97728;}
	.st3{fill:#BA913E;}
	.st4{fill:#F2E887;}
	.st5{clip-path:url(#SVGID_2_);}
	.st6{fill:#825A20;}
	.st7{fill:#D1B35D;}
	.st8{fill:#DFC96D;}
	.st9{fill:#EFC981;}
	.st10{fill:#33140E;}
	.st11{fill:#512115;}
	.st12{fill:#FFFFFF;}
	.st13{fill:#E41A1B;}
	.st14{fill:#F59C23;}
	.st15{fill:#EB5E1D;}
	.st16{clip-path:url(#SVGID_6_);fill:#D1B35D;}
	.st17{opacity:0.22;clip-path:url(#SVGID_6_);}
	.st18{clip-path:url(#SVGID_6_);}
	.st19{clip-path:url(#SVGID_8_);fill:#27348B;}
	.st20{opacity:0.15;clip-path:url(#SVGID_8_);}
	.st21{fill:#27348B;}
	.st22{fill:#3575BA;}
	.st23{fill:#4398D4;}
	.st24{clip-path:url(#SVGID_8_);}
	.st25{opacity:0.6;clip-path:url(#SVGID_8_);}
	.st26{fill:#36A9E1;}
	.st27{fill:#1D71B8;}
	.st28{fill:#007FC8;}
	.st29{fill:#4853A0;}
	.st30{fill:#6DC1B3;}
	.st31{fill:#59C2DB;}
	.st32{fill:#432918;}
	.st33{fill:#683C11;}
	.st34{clip-path:url(#SVGID_12_);fill:#27348B;}
	.st35{opacity:0.15;clip-path:url(#SVGID_12_);}
	.st36{clip-path:url(#SVGID_12_);}
	.st37{opacity:0.6;clip-path:url(#SVGID_12_);}
	.st38{fill:none;}
	.st39{font-family:'Montserrat-Medium';}
	.st40{font-size:6.8154px;}
	.st41{clip-path:url(#SVGID_14_);fill:#27348B;}
	.st42{opacity:0.15;clip-path:url(#SVGID_14_);}
	.st43{clip-path:url(#SVGID_14_);}
	.st44{opacity:0.6;}
	.st45{clip-path:url(#SVGID_18_);fill:#27348B;}
	.st46{opacity:0.31;clip-path:url(#SVGID_18_);fill:#FFFFFF;}
	.st47{opacity:0.31;clip-path:url(#SVGID_18_);}
	.st48{filter:url(#Adobe_OpacityMaskFilter);}
	.st49{mask:url(#SVGID_19_);}
	.st50{filter:url(#Adobe_OpacityMaskFilter_1_);}
	.st51{mask:url(#SVGID_20_);}
	.st52{filter:url(#Adobe_OpacityMaskFilter_2_);}
	.st53{mask:url(#SVGID_21_);}
	.st54{opacity:0.31;clip-path:url(#SVGID_18_);fill:url(#SVGID_22_);}
	.st55{filter:url(#Adobe_OpacityMaskFilter_3_);}
	.st56{mask:url(#SVGID_23_);}
	.st57{fill:url(#SVGID_24_);}
	.st58{filter:url(#Adobe_OpacityMaskFilter_4_);}
	.st59{mask:url(#SVGID_25_);}
	.st60{fill:url(#SVGID_26_);}
	.st61{filter:url(#Adobe_OpacityMaskFilter_5_);}
	.st62{mask:url(#SVGID_27_);}
	.st63{fill:url(#SVGID_28_);}
	.st64{opacity:0.31;clip-path:url(#SVGID_18_);fill:url(#SVGID_29_);}
	.st65{opacity:0.31;clip-path:url(#SVGID_18_);fill:url(#SVGID_30_);}
	.st66{opacity:0.87;fill:url(#SVGID_31_);}
	.st67{opacity:0.42;clip-path:url(#SVGID_18_);}
	.st68{filter:url(#Adobe_OpacityMaskFilter_6_);}
	.st69{mask:url(#SVGID_32_);}
	.st70{fill:url(#SVGID_33_);}
	.st71{fill:url(#SVGID_34_);}
	.st72{opacity:0.5;clip-path:url(#SVGID_18_);}
	.st73{clip-path:url(#SVGID_36_);fill:#706F6F;}
	.st74{opacity:0.39;clip-path:url(#SVGID_36_);}
	.st75{fill:#DADADA;}
	.st76{fill:#EDEDED;}
	.st77{fill:#F6F6F6;}
	.st78{clip-path:url(#SVGID_36_);}
	.st79{fill:#1A1A1A;}
	.st80{opacity:0.8;}
	.st81{fill:#111110;}
	.st82{fill:#1D1D1B;}
	.st83{fill:#3C3C3B;}
	.st84{fill:#575756;}
	.st85{fill:#C6C6C6;}
	.st86{fill:#9D9D9C;}
	.st87{fill:#030203;}
	.st88{fill:#B2B2B2;}
	.st89{fill:#706F6F;}
	.st90{fill:#878787;}
	.st91{fill:#C9C0C3;}
	.st92{fill:#878285;}
	.st93{fill:#4F4D4E;}
	.st94{opacity:0.74;}
</style>
<g>
	<defs>
		<path id="SVGID_5_" d="M215.48,309.94H3.1c-3.87,0-7.01-3.14-7.01-7.01V173.11c0-3.87,3.14-7.01,7.01-7.01h212.38
			c3.87,0,7.01,3.14,7.01,7.01v129.81C222.5,306.8,219.35,309.94,215.48,309.94z"/>
	</defs>
	<clipPath id="SVGID_2_">
		<use xlink:href="#SVGID_5_"  style="overflow:visible;"/>
	</clipPath>
	<g class="st5">
		<g>
			<polygon class="st2" points="110,159.58 106.72,143.42 119.6,165.34 111.92,169.66 			"/>
			<polygon class="st4" points="114.33,156.38 113.16,143.42 106.72,143.42 			"/>
			<polygon class="st8" points="113.16,143.42 104.88,131.9 106.72,143.42 			"/>
			<polygon class="st2" points="124.94,145.66 127.82,128.75 131.76,145.66 			"/>
			<polygon class="st2" points="119.6,145.66 126.94,133.92 124.94,145.66 			"/>
			<polygon class="st4" points="127.82,128.75 133.81,135.9 131.76,145.66 			"/>
			<polygon class="st2" points="133.81,135.9 133.81,118.41 130.81,132.33 			"/>
			<polygon class="st6" points="127.82,128.75 132.61,123.98 130.81,132.33 			"/>
			<polygon class="st2" points="127.82,128.75 126.94,117.02 132.61,123.98 			"/>
			<polygon class="st8" points="126.94,117.02 133.81,118.41 132.61,123.98 			"/>
			<polygon class="st2" points="133.81,118.41 129.77,104.11 129.77,117.59 			"/>
			<polygon class="st6" points="126.94,117.02 123.27,104.11 129.77,117.59 			"/>
			<polygon class="st4" points="123.27,104.11 129.77,104.11 129.77,117.59 			"/>
			<polygon class="st7" points="129.77,104.11 123.27,89.82 126.94,104.11 			"/>
			<polygon class="st2" points="123.27,104.11 123.27,89.82 126.94,104.11 			"/>
			<polygon class="st2" points="119.6,145.66 113.16,137.21 124.1,138.47 			"/>
			<polygon class="st6" points="113.16,137.21 116.19,132.91 121.65,138.19 			"/>
			<polygon class="st2" points="113.16,137.21 107.34,127.15 116.19,132.91 			"/>
			<polygon class="st4" points="110.16,128.99 110.16,118.41 116.19,132.91 			"/>
			<polygon class="st8" points="107.34,127.15 110.16,122.14 110.16,128.99 			"/>
			<polygon class="st9" points="110.16,118.41 104.88,108.49 109.02,124.16 110.16,122.14 			"/>
			<polygon class="st6" points="107.34,127.15 104.03,117.59 109.02,124.16 			"/>
			<polygon class="st2" points="104.03,117.59 104.88,108.49 109.02,124.16 			"/>
			<polygon class="st2" points="104.03,117.59 101.15,109.98 104.88,108.49 			"/>
			<polygon class="st4" points="101.15,109.98 100.3,99.21 104.88,108.49 			"/>
			<polygon class="st4" points="123.27,89.82 119.6,91.21 123.27,104.11 			"/>
		</g>
		<g>
			<polygon class="st2" points="110,159.58 106.72,143.42 119.6,165.34 111.92,169.66 			"/>
			<polygon class="st4" points="114.33,156.38 113.16,143.42 106.72,143.42 			"/>
			<polygon class="st8" points="113.16,143.42 104.88,131.9 106.72,143.42 			"/>
			<polygon class="st2" points="124.94,145.66 127.82,128.75 131.76,145.66 			"/>
			<polygon class="st2" points="119.6,145.66 126.94,133.92 124.94,145.66 			"/>
			<polygon class="st4" points="127.82,128.75 133.81,135.9 131.76,145.66 			"/>
			<polygon class="st2" points="133.81,135.9 133.81,118.41 130.81,132.33 			"/>
			<polygon class="st6" points="127.82,128.75 132.61,123.98 130.81,132.33 			"/>
			<polygon class="st2" points="127.82,128.75 126.94,117.02 132.61,123.98 			"/>
			<polygon class="st8" points="126.94,117.02 133.81,118.41 132.61,123.98 			"/>
			<polygon class="st2" points="133.81,118.41 129.77,104.11 129.77,117.59 			"/>
			<polygon class="st6" points="126.94,117.02 123.27,104.11 129.77,117.59 			"/>
			<polygon class="st4" points="123.27,104.11 129.77,104.11 129.77,117.59 			"/>
			<polygon class="st7" points="129.77,104.11 123.27,89.82 126.94,104.11 			"/>
			<polygon class="st2" points="123.27,104.11 123.27,89.82 126.94,104.11 			"/>
			<polygon class="st2" points="119.6,145.66 113.16,137.21 124.1,138.47 			"/>
			<polygon class="st6" points="113.16,137.21 116.19,132.91 121.65,138.19 			"/>
			<polygon class="st2" points="113.16,137.21 107.34,127.15 116.19,132.91 			"/>
			<polygon class="st4" points="110.16,128.99 110.16,118.41 116.19,132.91 			"/>
			<polygon class="st8" points="107.34,127.15 110.16,122.14 110.16,128.99 			"/>
			<polygon class="st9" points="110.16,118.41 104.88,108.49 109.02,124.16 110.16,122.14 			"/>
			<polygon class="st6" points="107.34,127.15 104.03,117.59 109.02,124.16 			"/>
			<polygon class="st2" points="104.03,117.59 104.88,108.49 109.02,124.16 			"/>
			<polygon class="st2" points="104.03,117.59 101.15,109.98 104.88,108.49 			"/>
			<polygon class="st4" points="101.15,109.98 100.3,99.21 104.88,108.49 			"/>
			<polygon class="st4" points="123.27,89.82 119.6,91.21 123.27,104.11 			"/>
		</g>
		<g>
			<polygon class="st2" points="11.02,159.58 14.3,143.42 1.42,165.34 9.1,169.66 			"/>
			<polygon class="st4" points="6.68,156.38 7.86,143.42 14.3,143.42 			"/>
			<polygon class="st8" points="7.86,143.42 16.14,131.9 14.3,143.42 			"/>
			<polygon class="st2" points="1.42,145.66 -5.92,133.92 -3.92,145.66 			"/>
			<polygon class="st2" points="1.42,145.66 7.86,137.21 -3.08,138.47 			"/>
			<polygon class="st6" points="7.86,137.21 4.83,132.91 -0.63,138.19 			"/>
			<polygon class="st2" points="7.86,137.21 13.68,127.15 4.83,132.91 			"/>
			<polygon class="st4" points="10.86,128.99 10.86,118.41 4.83,132.91 			"/>
			<polygon class="st8" points="13.68,127.15 10.86,122.14 10.86,128.99 			"/>
			<polygon class="st9" points="10.86,118.41 16.14,108.49 12,124.16 10.86,122.14 			"/>
			<polygon class="st6" points="13.68,127.15 16.99,117.59 12,124.16 			"/>
			<polygon class="st2" points="16.99,117.59 16.14,108.49 12,124.16 			"/>
			<polygon class="st2" points="16.99,117.59 19.87,109.98 16.14,108.49 			"/>
			<polygon class="st4" points="19.87,109.98 20.72,99.21 16.14,108.49 			"/>
			<polygon class="st4" points="-2.25,89.82 1.42,91.21 -2.25,104.11 			"/>
		</g>
	</g>
</g>
<g>
	<defs>
		<path id="SVGID_11_" d="M219.4,143.84H7.01c-3.87,0-7.01-3.14-7.01-7.01V7.01C0,3.14,3.14,0,7.01,0H219.4
			c3.87,0,7.01,3.14,7.01,7.01v129.81C226.41,140.7,223.27,143.84,219.4,143.84z"/>
	</defs>
	<clipPath id="SVGID_4_">
		<use xlink:href="#SVGID_11_"  style="overflow:visible;"/>
	</clipPath>
	<path style="clip-path:url(#SVGID_4_);fill:#27348B;" d="M219.4,143.84H7.01c-3.87,0-7.01-3.14-7.01-7.01V7.01
		C0,3.14,3.14,0,7.01,0H219.4c3.87,0,7.01,3.14,7.01,7.01v129.81C226.41,140.7,223.27,143.84,219.4,143.84z"/>
	<g style="opacity:0.15;clip-path:url(#SVGID_4_);">
		<polygon class="st21" points="63.24,9.73 61.24,-11.16 88.25,7.15 		"/>
		<polygon class="st22" points="72.27,17.58 88.25,7.15 63.24,9.73 		"/>
		<polygon class="st22" points="86.03,55.29 107.1,28.41 74.42,30.34 		"/>
		<polygon class="st23" points="107.1,28.41 88.25,7.15 72.27,17.58 		"/>
		<polygon class="st21" points="72.27,17.58 76.72,25.9 74.42,30.34 107.1,28.41 		"/>
		<polygon class="st21" points="107.1,28.41 129.46,66.85 86.03,55.29 		"/>
		<polygon class="st23" points="117.46,46.22 161.17,47.63 129.46,66.85 		"/>
		<polygon class="st22" points="95.27,78.88 119.28,64.14 86.03,55.29 		"/>
		<polygon class="st22" points="111.47,35.92 145.95,47.14 117.46,46.22 		"/>
		<polygon class="st23" points="107.1,28.41 126.89,5.59 135.23,43.65 111.47,35.92 		"/>
		<polygon class="st21" points="88.25,7.15 126.89,5.59 107.1,28.41 		"/>
		<polygon class="st23" points="74.74,-2.01 119.28,5.9 88.25,7.15 		"/>
		<polygon class="st21" points="95.27,78.88 123.03,98.4 119.28,64.14 		"/>
		<polygon class="st22" points="123.03,98.4 102.03,113.88 95.27,78.88 		"/>
		<polygon class="st21" points="119.28,64.14 153.06,73.42 122.12,90.03 		"/>
		<polygon class="st21" points="102.03,113.88 131.71,92.05 145.95,117.69 		"/>
		<polygon class="st23" points="102.03,113.88 101.39,129.18 122.26,115.63 		"/>
		<polygon class="st21" points="101.39,129.18 99.44,145.69 124.96,145.69 		"/>
		<polygon class="st22" points="122.26,115.63 124.3,145.23 101.39,129.18 		"/>
		<polygon class="st22" points="145.95,117.69 153.06,73.42 128.64,86.53 		"/>
		<polygon class="st23" points="128.64,86.53 122.12,90.03 123.03,98.4 131.71,92.05 		"/>
		<polygon class="st21" points="135.23,43.65 145.95,47.14 161.17,47.63 145.61,27.88 		"/>
		<polygon class="st22" points="126.89,5.59 145.61,27.88 135.23,43.65 		"/>
		<polygon class="st22" points="129.46,66.85 176.17,79.76 161.17,47.63 		"/>
		<polygon class="st21" points="145.95,117.69 176.17,79.76 153.06,73.42 		"/>
		<polygon class="st21" points="122.26,115.63 181.53,120.76 124.3,145.23 		"/>
		<polygon class="st22" points="176.17,79.76 181.53,120.76 145.95,117.69 		"/>
		<polygon class="st22" points="123.35,145.69 167.17,145.69 166.09,127.36 		"/>
		<polygon class="st21" points="161.17,47.63 201.03,47.63 173.21,73.42 		"/>
		<polygon class="st22" points="173.21,73.42 185.44,98.4 193.82,54.32 		"/>
		<polygon class="st21" points="176.17,79.76 185.44,98.4 181.53,120.76 		"/>
		<polygon class="st22" points="161.17,47.63 176.17,11.41 201.03,47.63 		"/>
		<polygon class="st21" points="141.46,22.94 176.17,11.41 161.17,47.63 		"/>
		<polygon class="st22" points="181.53,120.76 198.25,146.54 166.09,127.36 		"/>
		<polygon class="st23" points="166.09,127.36 167.17,145.69 198.25,146.54 		"/>
		<polygon class="st21" points="181.53,120.76 235.53,120.76 198.25,146.54 		"/>
		<polygon class="st23" points="235.53,120.76 202.53,88.25 181.53,120.76 		"/>
		<polygon class="st21" points="202.53,88.25 188.7,79.76 181.53,120.76 		"/>
		<polygon class="st23" points="193.82,54.32 229.96,63.7 188.7,79.76 		"/>
		<polygon class="st22" points="141.46,22.94 186.99,7.98 149.6,-21.16 		"/>
		<polygon class="st21" points="126.89,5.59 149.6,-21.16 141.46,22.94 		"/>
		<polygon class="st22" points="92.82,1.2 119.28,5.9 126.89,5.59 133.34,-2.01 		"/>
		<polygon class="st23" points="201.03,145.04 226.67,126.89 227.6,148.18 		"/>
		<polygon class="st21" points="229.96,63.7 235.53,120.76 202.53,88.25 		"/>
		<polygon class="st22" points="188.7,79.76 202.53,88.25 229.96,63.7 		"/>
		<polygon class="st21" points="193.82,54.32 226.53,24.62 229.96,63.7 		"/>
		<polygon class="st23" points="176.17,11.41 226.53,24.62 201.03,47.63 		"/>
		<polygon class="st21" points="176.17,11.41 225.57,-4.88 226.53,24.62 		"/>
		<polygon class="st22" points="171.52,-4.08 186.99,7.98 212.61,-0.24 		"/>
		<polygon class="st23" points="63.24,9.73 61.24,-14.18 37.23,14.32 		"/>
		<polygon class="st21" points="37.23,14.32 -5.84,-4.08 61.24,-14.18 		"/>
		<polygon class="st22" points="37.23,14.32 72.27,17.58 63.24,9.73 		"/>
		<polygon class="st23" points="90,65.41 48.5,100.26 99.04,98.4 95.27,78.88 		"/>
		<polygon class="st22" points="61.03,99.8 88.01,133.65 99.04,98.4 		"/>
		<polygon class="st22" points="-1,-2.01 -1,43.65 31.48,11.87 		"/>
		<polygon class="st23" points="31.48,11.87 37.23,49.68 10.72,32.18 		"/>
		<polygon class="st21" points="88.01,133.65 101.39,129.18 102.03,113.88 99.04,98.4 		"/>
		<polygon class="st21" points="10.72,32.18 -12.92,55.29 37.23,49.68 		"/>
		<polygon class="st22" points="27.7,50.74 -8.87,54.83 10.72,93.6 		"/>
		<polygon class="st21" points="10.72,93.6 48.5,100.26 49.75,66.85 		"/>
		<polygon class="st23" points="27.7,50.74 49.75,66.85 10.72,93.6 		"/>
		<polygon class="st21" points="61.03,99.8 88.01,133.65 42.37,140.1 		"/>
		<polygon class="st22" points="49.75,66.85 90,65.41 48.5,100.26 		"/>
		<polygon class="st23" points="37.23,14.32 61.03,40.46 76.72,25.9 72.27,17.58 		"/>
		<polygon class="st23" points="-3.52,65.41 10.72,93.6 -5.42,115.63 		"/>
		<polygon class="st22" points="-5.42,115.63 48.5,100.26 10.72,93.6 		"/>
		<polygon class="st21" points="-5.42,115.63 -2.42,148.03 31.66,127.36 		"/>
		<polygon class="st23" points="31.66,127.36 36.32,103.73 -5.42,115.63 		"/>
		<polygon class="st22" points="88.01,133.65 99.44,145.69 101.39,129.18 		"/>
		<polygon class="st23" points="31.66,127.36 42.37,140.1 61.03,99.8 		"/>
		<polygon class="st21" points="36.32,103.73 31.66,127.36 61.03,99.8 48.5,100.26 		"/>
		<polygon class="st22" points="31.66,127.36 49.36,148.41 -2.42,148.03 		"/>
		<polygon class="st23" points="64.44,136.98 42.37,140.1 53.94,154.14 		"/>
		<polygon class="st22" points="64.44,136.98 99.44,145.69 53.94,154.14 		"/>
		<polygon class="st23" points="64.44,136.98 88.01,133.65 99.44,145.69 		"/>
	</g>
	<g style="clip-path:url(#SVGID_4_);">
		<polygon class="st21" points="157.37,9.14 142.24,8.7 157.37,10.58 164.42,10.58 		"/>
		<polygon class="st21" points="142.24,8.7 133.07,8.7 121.03,11.6 133.07,11.06 139.6,10.86 146.12,10.58 157.37,10.58 146.28,9.2 
					"/>
		<polygon class="st21" points="133.07,8.7 124.74,8.46 115.61,8.7 107.41,5.14 101.32,14.07 104.07,10.03 94.44,14.07 98.71,12.24 
			104.07,10.03 97.43,7.85 95.66,7.27 104.07,10.03 101.54,5.99 97.43,-0.6 83.59,-0.6 78.05,1.35 70.68,10.67 68.25,28.68 
			83.59,38.13 82.29,29.45 81,20.77 75.78,19.99 90.51,22.19 102.92,37.06 106.81,25.92 113.13,15.79 121.03,11.6 126.09,10.38 		
			"/>
		<polygon class="st21" points="107.41,5.14 97.43,-0.6 104.07,10.03 		"/>
		<path class="st21" d="M90.51,22.19L81,20.77l2.58,17.36l-4.15,8.4L73.5,58.55l-3,6.08l-2.32,4.7l-1.43,2.85l-0.26-0.24l0.26,0.23
			l16.84-34.03L47.8,61.47l-0.01,0.01l35.8-23.35L28.42,53.65l10.39,5.67l1.39-0.66l-1.33,8.61l-0.71,4.64l0.52,0.89l2.5,4.28
			l-3.01-5.17l-1.46,9.61l0.41,10.39l-25.01,23.97l3.96,5.76l22.77-31.38l3.24,4.41l0,0l0,0l-0.55,1.2l0.55-1.2l-3.24-4.41
			l-17.4,49.48l0.58-1.27l0.01,0.01l-0.76,1.66l17.57-49.88L8.48,132.09l5.85,4.99l-1.35,2.58l8.29,0.47l-2.71,5.94l10.75,3.39
			l2.88-12.35l4.19,4.9l-0.99,4.19l10.94,2.25l0.2-4.43l9.07-2.69l-5.06-41.47l6.08-3.53l8.05-3.81l-6.3-4.59l-0.71-0.52l-8.54,0.65
			v0l9.5-0.74l-0.97,0.09l7.01,5.11h3.5l7.74-1.76l2.35-4.01l3.31-5.66l-5.66,9.67l6.73-3.52l7.42-6.94l4.75-8.17l-17.46,2.35
			l-4.56,6.21l0.08-0.12l-5.63-0.67l2.59,5.53l1.3,3.6l-0.99-2.75l-3.03,0.29l0,0l3.04-0.29l-0.31-0.86l-1.44-3.07l-2.23-1.7
			l-1.37-1.04l3.6,2.75l-1.15-2.46l-1.86-0.22l7.49,0.89l4.48-6.09l-3.52,0.46l7.55-1.02l3.5-5.44l6.1-9.32l3.82-5.9l-6.15,9.48
			l-7.28,11.18l13.42-1.79l3.04-10.78l2.02-9.13l3.06-15.16l-9.31-11.14L90.51,22.19z M76.93,81.63l3.77-5.61l-5.21,7.86
			L76.93,81.63z M61.45,67.54l-5.16-2.04l-1.19-0.47L61.45,67.54z M50.62,69.27L50.62,69.27l3.78-3.58l0.69-0.65L50.62,69.27
			L47,72.71l0,0L50.62,69.27z M51.56,72.89l-4.52-0.09l7.29,0.14L51.56,72.89z M51.92,77.96l-5.6,5.25l0.01-0.01L51.92,77.96z
			 M41.83,70.83l5.56,3.94l-0.33-0.23l-3.48-2.47L41.83,70.83z M32.26,136.77L32.26,136.77l8.87-25.64l4.38-12.65l-1.5-1.66
			l1.5,1.66L32.26,136.77z M66.35,85.18l-3.26-2.26l-11.36,0.76l-6.27,0.34l9.33-0.55l8.3-0.55l-2.37-1.64L66.35,85.18z
			 M63.07,76.45l-1.84-0.29l3.85,0.59L63.07,76.45z M60.09,71.77l2.38-0.38l2.88-0.46l0,0L60.09,71.77z M67.51,77.12l2.33-2.13
			l3.79-3.47L67.51,77.12z M79.34,71.68l-4.1-3.27l4.13,3.29L79.34,71.68z M84.88,60.44L79.5,71.63l0,0l5.62-11.75L84.88,60.44z
			 M85.77,58.35L85.77,58.35l0.34-6.98l0.6-10.74l0,0L85.77,58.35z M88.91,42.21l-2.79-9.91v0L88.91,42.21L88.91,42.21z"/>
		<polygon class="st21" points="24.19,14.05 -35.6,-10.18 -36.45,9.13 -39.23,8.46 -33.89,17.15 83.59,38.13 24.61,1.88 		"/>
		<polygon class="st21" points="-23.22,28.18 83.59,38.13 -28.4,18.13 		"/>
		<polygon class="st21" points="-4.21,39.14 83.59,38.13 -10.19,29.45 		"/>
		<polygon class="st21" points="12.01,48.22 16.9,47.53 26.11,54.3 83.59,38.13 3.9,39.14 		"/>
		<polygon class="st21" points="12.81,115.2 36.37,92.59 10.81,113.67 		"/>
		<polygon class="st21" points="21.43,104.91 36.37,92.59 20.44,99.45 		"/>
	</g>
	<g style="opacity:0.6;clip-path:url(#SVGID_4_);">
		<polygon class="st26" points="157.37,9.14 164.42,10.58 157.37,10.58 		"/>
		<polygon class="st27" points="157.37,9.14 157.37,10.58 142.24,8.7 		"/>
		<polygon class="st23" points="157.37,10.58 146.12,10.58 146.28,9.2 		"/>
		<polygon class="st28" points="146.12,10.58 142.24,8.7 146.28,9.2 		"/>
		<polygon class="st29" points="142.24,8.7 133.07,8.7 139.6,10.86 		"/>
		<polygon class="st22" points="142.24,8.7 146.12,10.58 139.6,10.86 		"/>
		<polygon class="st27" points="133.07,8.7 133.07,11.06 139.6,10.86 		"/>
		<polygon class="st22" points="133.07,8.7 124.74,8.46 126.09,10.38 		"/>
		<polygon class="st23" points="133.07,8.7 121.03,11.6 133.07,11.06 		"/>
		<polygon class="st22" points="124.74,8.46 115.61,8.7 121.03,11.6 		"/>
		<polygon class="st29" points="124.74,8.46 126.09,10.38 121.03,11.6 		"/>
		<polygon class="st23" points="121.03,11.6 113.13,15.79 115.61,8.7 		"/>
		<polygon class="st30" points="113.13,15.79 106.81,25.92 101.32,14.07 		"/>
		<polygon class="st22" points="115.61,8.7 107.41,5.14 113.13,15.79 		"/>
		<polygon class="st23" points="107.41,5.14 101.32,14.07 113.13,15.79 		"/>
		<polygon class="st31" points="106.81,25.92 102.92,37.06 103.75,19.31 		"/>
		<polygon class="st32" points="104.07,10.03 101.54,5.99 95.66,7.27 		"/>
		<polygon class="st33" points="104.07,10.03 98.71,12.24 97.43,7.85 		"/>
		<polygon class="st29" points="104.07,10.03 97.43,-0.6 107.41,5.14 		"/>
		<polygon class="st22" points="97.43,-0.6 83.59,-0.6 95.66,7.27 		"/>
		<polygon class="st28" points="101.54,5.99 95.66,7.27 97.43,-0.6 		"/>
		<polygon class="st22" points="104.07,10.03 94.44,14.07 101.32,14.07 		"/>
		<polygon class="st23" points="98.71,12.24 97.43,7.85 94.44,14.07 		"/>
		<polygon class="st28" points="97.43,7.85 95.66,7.27 94.44,14.07 		"/>
		<polygon class="st29" points="94.44,14.07 86.58,1.35 95.66,7.27 		"/>
		<polygon class="st29" points="86.58,1.35 70.68,10.67 78.05,1.35 		"/>
		<polygon class="st28" points="86.58,1.35 83.59,-0.6 78.05,1.35 		"/>
		<polygon class="st28" points="94.44,14.07 70.68,10.67 86.58,1.35 		"/>
		<polygon class="st23" points="102.92,37.06 90.51,22.19 103.75,19.31 		"/>
		<polygon class="st31" points="101.32,14.07 90.51,22.19 103.75,19.31 		"/>
		<polygon class="st23" points="102.92,37.06 99.87,52.22 88.77,42.27 		"/>
		<polygon class="st23" points="90.51,22.19 94.44,14.07 101.32,14.07 		"/>
		<polygon class="st29" points="90.51,22.19 75.78,19.99 94.44,14.07 		"/>
		<polygon class="st22" points="94.44,14.07 70.68,10.67 75.78,19.99 		"/>
		<polygon class="st29" points="70.68,10.67 68.25,28.68 75.78,19.99 		"/>
		<polygon class="st31" points="93.62,25.92 88.91,42.21 102.92,37.06 		"/>
		<polygon class="st28" points="93.62,25.92 86.11,32.28 88.91,42.21 		"/>
		<polygon class="st23" points="90.51,22.19 86.11,32.28 93.62,25.92 		"/>
		<polygon class="st28" points="90.51,22.19 83.59,38.13 81,20.77 		"/>
		<polygon class="st29" points="83.59,38.13 68.25,28.68 82.29,29.45 		"/>
		<polygon class="st29" points="81,20.77 75.78,19.99 82.29,29.45 		"/>
		<polygon class="st22" points="75.78,19.99 68.25,28.68 82.29,29.45 		"/>
		<polygon class="st22" points="83.59,38.13 24.61,1.88 24.19,14.07 		"/>
		<polygon class="st29" points="83.59,38.13 -35.6,-10.18 -36.46,9.2 		"/>
		<polygon class="st30" points="83.59,38.13 -39.23,8.46 -33.89,17.15 		"/>
		<polygon class="st23" points="83.59,38.13 -23.22,28.18 -28.4,18.13 		"/>
		<polygon class="st28" points="83.59,38.13 -4.21,39.14 -10.19,29.45 		"/>
		<polygon class="st23" points="88.97,42.44 83.59,38.13 86.11,32.28 		"/>
		<polygon class="st29" points="83.59,38.13 12.01,48.22 3.9,39.14 		"/>
		<polygon class="st23" points="83.59,38.13 26.11,54.3 16.9,47.53 		"/>
		<polygon class="st28" points="83.59,38.13 38.81,59.32 28.42,53.65 		"/>
		<polygon class="st22" points="83.59,38.13 45.86,62.74 40.2,58.66 		"/>
		<polygon class="st30" points="83.59,38.13 54.4,65.69 47.8,61.47 		"/>
		<polygon class="st23" points="83.59,38.13 61.45,67.54 55.1,65.03 		"/>
		<polygon class="st22" points="83.59,38.13 66.75,72.16 61.45,67.54 		"/>
		<polygon class="st29" points="86.71,40.53 79.44,46.52 83.59,38.13 		"/>
		<polygon class="st28" points="86.71,40.53 91.57,44.64 85.76,58.55 		"/>
		<polygon class="st22" points="86.71,40.53 86.11,51.37 79.44,46.52 		"/>
		<polygon class="st31" points="99.87,52.22 97.85,61.35 91.57,44.64 		"/>
		<polygon class="st30" points="97.85,61.35 88.66,62.74 94.81,53.26 		"/>
		<polygon class="st23" points="91.57,44.64 90.98,59.15 94.81,53.26 		"/>
		<polygon class="st29" points="85.76,58.55 79.44,46.52 86.11,51.37 		"/>
		<polygon class="st29" points="91.57,44.64 84.88,60.44 90.98,59.15 		"/>
		<polygon class="st28" points="85.76,58.55 73.5,58.55 79.44,46.52 		"/>
		<polygon class="st28" points="90.98,59.15 84.88,68.48 84.88,60.44 		"/>
		<polygon class="st22" points="85.76,58.55 79.44,71.76 78.26,58.55 		"/>
		<polygon class="st31" points="97.85,61.35 94.81,72.13 88.66,62.74 		"/>
		<polygon class="st23" points="79.44,71.76 70.49,64.62 78.26,58.55 		"/>
		<polygon class="st23" points="88.66,62.74 81.38,73.92 94.81,72.13 		"/>
		<polygon class="st30" points="94.81,72.13 77.35,74.48 90.06,80.3 		"/>
		<polygon class="st23" points="84.88,60.44 84.88,68.48 79.44,71.76 		"/>
		<polygon class="st29" points="78.26,58.55 73.5,58.55 70.49,64.62 		"/>
		<polygon class="st29" points="84.88,68.48 73.84,74.94 81.38,73.92 		"/>
		<polygon class="st28" points="79.44,71.76 79.34,71.68 73.36,66.91 73.84,74.94 		"/>
		<polygon class="st29" points="73.36,66.91 68.17,69.32 70.49,64.62 		"/>
		<polygon class="st23" points="68.17,69.32 73.63,71.52 73.36,66.91 		"/>
		<polygon class="st31" points="90.06,80.3 82.64,87.24 80.7,76.01 		"/>
		<polygon class="st30" points="82.64,87.24 75.91,90.76 81.57,81.09 		"/>
		<polygon class="st31" points="80.7,76.01 77.35,74.48 76.93,81.63 		"/>
		<polygon class="st30" points="80.7,76.01 75.49,83.88 81.57,81.09 		"/>
		<polygon class="st23" points="81.57,81.09 78.26,86.75 75.49,83.88 		"/>
		<polygon class="st28" points="77.35,74.48 72.87,80.57 73.84,74.94 		"/>
		<polygon class="st29" points="77.35,74.48 71.59,82.33 76.93,81.63 		"/>
		<polygon class="st31" points="75.91,90.76 68.17,92.52 78.26,86.75 		"/>
		<polygon class="st30" points="68.17,92.52 75.49,83.88 78.26,86.75 		"/>
		<polygon class="st28" points="76.93,81.63 75.49,83.88 69.83,85.42 		"/>
		<polygon class="st22" points="69.83,85.42 71.13,89.03 75.49,83.88 		"/>
		<polygon class="st22" points="73.63,71.52 68.17,69.32 69.84,74.99 		"/>
		<polygon class="st23" points="73.63,71.52 67.5,77.12 73.84,74.94 		"/>
		<polygon class="st22" points="73.84,74.94 61.45,79.21 72.87,80.57 		"/>
		<polygon class="st23" points="69.84,74.99 66.75,72.17 68.17,69.32 		"/>
		<polygon class="st22" points="76.93,81.63 71.59,82.33 69.83,85.42 		"/>
		<polygon class="st29" points="72.87,80.57 67.24,79.9 69.83,85.42 		"/>
		<polygon class="st29" points="65.38,70.93 61.45,67.54 62.46,71.39 		"/>
		<polygon class="st29" points="63.07,76.45 61.45,79.21 67.5,77.12 		"/>
		<polygon class="st22" points="62.46,71.39 56.57,72.34 61.45,67.54 		"/>
		<polygon class="st23" points="71.13,89.03 68.17,92.52 64.67,92.52 		"/>
		<polygon class="st28" points="70.14,86.28 71.13,89.03 68.39,90.51 		"/>
		<polygon class="st23" points="70.14,86.28 69.83,85.42 65.22,86.75 		"/>
		<polygon class="st22" points="70.14,86.28 69,89.03 67.1,86.57 		"/>
		<polygon class="st23" points="69,89.03 68.39,90.51 67.1,86.57 		"/>
		<polygon class="st28" points="67.1,86.57 64.67,92.52 68.39,90.51 		"/>
		<polygon class="st28" points="65.22,86.75 69.83,85.42 68.39,82.35 		"/>
		<polygon class="st30" points="68.39,82.35 67.24,79.9 64.79,79.6 		"/>
		<polygon class="st23" points="68.39,82.35 66.15,80.65 66.35,85.18 		"/>
		<polygon class="st28" points="69.84,74.99 65.38,70.93 65.09,76.76 		"/>
		<polygon class="st31" points="69.84,74.99 67.5,77.12 65.09,76.76 		"/>
		<polygon class="st23" points="65.38,70.93 65.09,76.76 61.24,76.16 		"/>
		<polygon class="st28" points="61.24,76.16 60.07,71.78 65.38,70.93 		"/>
		<polygon class="st28" points="61.45,67.54 53.77,75.11 56.29,65.51 		"/>
		<polygon class="st29" points="56.29,65.51 55.1,65.03 50.63,69.28 		"/>
		<polygon class="st23" points="56.29,65.51 54.34,72.94 50.63,69.28 		"/>
		<polygon class="st23" points="61.24,76.16 51.92,77.96 60.07,71.78 		"/>
		<polygon class="st30" points="60.07,71.78 56.57,72.34 54.56,75.95 		"/>
		<polygon class="st23" points="56.57,72.34 52.09,76.74 54.56,75.95 		"/>
		<polygon class="st23" points="54.4,65.69 46.84,72.85 47.8,61.47 		"/>
		<polygon class="st28" points="47.8,61.47 38.87,67.27 44.86,69.1 		"/>
		<polygon class="st22" points="47.8,61.47 46.84,73.55 44.86,69.1 		"/>
		<polygon class="st29" points="40.2,58.66 38.87,67.27 45.86,62.74 		"/>
		<polygon class="st22" points="66.15,80.65 66.35,85.18 60.72,81.27 		"/>
		<polygon class="st22" points="67.1,86.57 57.66,87.42 64.67,92.52 		"/>
		<polygon class="st23" points="66.35,85.18 63.09,82.91 65.22,86.75 		"/>
		<polygon class="st28" points="66.15,80.65 64.79,79.6 60.72,81.27 		"/>
		<polygon class="st28" points="63.07,76.45 61.24,76.16 60.72,81.27 		"/>
		<polygon class="st23" points="64.79,79.6 61.71,79.24 60.72,81.27 		"/>
		<polygon class="st22" points="61.24,76.16 60.72,81.27 51.92,77.96 		"/>
		<polygon class="st22" points="54.56,75.95 52.09,76.74 51.92,77.96 		"/>
		<polygon class="st22" points="54.34,72.94 46.9,72.8 50.63,69.28 		"/>
		<polygon class="st29" points="63.09,82.91 58.63,87.33 65.22,86.75 		"/>
		<polygon class="st28" points="58.63,87.33 51.73,83.67 63.09,82.91 		"/>
		<polygon class="st23" points="63.09,82.91 60.72,81.27 54.79,83.47 		"/>
		<polygon class="st28" points="51.92,77.96 54.79,83.47 60.72,81.27 		"/>
		<polygon class="st23" points="58.63,87.33 49.11,88.07 53.07,84.38 		"/>
		<polygon class="st30" points="64.67,92.52 56.62,96.34 58.38,87.94 		"/>
		<polygon class="st28" points="56.62,96.34 49.11,88.07 58.38,87.94 		"/>
		<polygon class="st29" points="58.38,87.94 57.66,87.42 49.11,88.07 		"/>
		<polygon class="st29" points="54.34,72.94 53.77,75.11 51.56,72.89 		"/>
		<polygon class="st28" points="53.77,75.11 52.09,76.74 51.56,72.89 		"/>
		<polygon class="st28" points="54.4,65.69 47.8,61.47 50.63,69.28 		"/>
		<polygon class="st22" points="54.4,65.69 50.89,63.45 50.63,69.28 		"/>
		<polygon class="st29" points="51.92,77.96 54.79,83.47 45.45,84.01 		"/>
		<polygon class="st22" points="52.09,76.74 48.55,75.59 51.92,77.96 		"/>
		<polygon class="st23" points="51.56,72.89 46.9,72.8 48.55,75.59 		"/>
		<polygon class="st29" points="51.56,72.89 52.09,76.74 48.55,75.59 		"/>
		<polygon class="st23" points="51.92,77.96 47.07,74.54 46.33,83.19 		"/>
		<polygon class="st23" points="46.33,83.19 42.19,87.09 36.7,81.52 		"/>
		<polygon class="st22" points="36.7,81.52 46.9,76.58 46.33,83.19 		"/>
		<polygon class="st28" points="48.55,75.59 41.81,70.82 44.94,68.89 		"/>
		<polygon class="st28" points="47.07,74.54 44.55,77.72 46.9,76.58 		"/>
		<polygon class="st23" points="47.07,74.54 43.58,72.07 41.18,77.08 		"/>
		<polygon class="st31" points="47.07,74.54 44.55,77.72 41.18,77.08 		"/>
		<polygon class="st31" points="43.58,72.07 41.81,70.82 38.68,72.8 		"/>
		<polygon class="st28" points="43.58,72.07 41.18,77.08 38.68,72.8 		"/>
		<polygon class="st28" points="41.18,77.08 36.7,81.52 44.55,77.72 		"/>
		<polygon class="st22" points="53.07,84.38 42.07,94.67 45.45,84.01 		"/>
		<polygon class="st31" points="53.07,84.38 51.73,83.67 45.45,84.01 		"/>
		<polygon class="st22" points="49.11,88.07 55.6,141.33 46.33,144.08 		"/>
		<polygon class="st29" points="49.11,88.07 35.38,146.2 46.33,148.45 		"/>
		<polygon class="st28" points="49.11,88.07 32.16,137.09 36.37,142.02 		"/>
		<polygon class="st30" points="42.07,94.67 45.51,98.48 49.11,88.07 		"/>
		<polygon class="st31" points="56.62,96.34 50.54,99.87 49.11,88.07 		"/>
		<polygon class="st22" points="42.07,94.67 45.51,98.48 41.13,111.13 32.16,137.09 		"/>
		<polygon class="st23" points="22.02,138.48 22.01,138.46 27.01,127.55 27.02,127.53 27.02,127.53 42.07,94.67 29.31,149.47 
			18.55,146.08 		"/>
		<polygon class="st28" points="45.45,84.01 38.83,90.26 42.07,94.67 		"/>
		<polygon class="st30" points="42.07,94.67 38.83,90.26 21.43,139.74 		"/>
		<polygon class="st28" points="21.26,140.14 12.98,139.67 38.83,90.26 		"/>
		<polygon class="st29" points="14.33,137.09 8.48,132.09 38.83,90.26 		"/>
		<polygon class="st23" points="38.83,90.26 12.11,115.88 16.07,121.64 		"/>
		<polygon class="st22" points="36.37,92.59 10.81,113.67 12.81,115.2 		"/>
		<polygon class="st29" points="36.37,92.59 20.44,99.45 21.43,104.91 		"/>
		<polygon class="st22" points="44.94,68.89 38.87,67.27 38.68,72.8 		"/>
		<polygon class="st29" points="38.16,71.91 36.7,81.52 41.18,77.08 		"/>
		<polygon class="st22" points="36.7,81.52 38.83,90.26 42.19,87.09 		"/>
		<polygon class="st23" points="38.87,67.27 38.16,71.91 38.68,72.8 		"/>
		<polygon class="st23" points="36.7,81.52 37.14,92.59 38.83,90.26 		"/>
	</g>
	<g style="clip-path:url(#SVGID_4_);">
		<g>
			<g>
				<path class="st12" d="M143.48,24.18c0.59-3.68,1.57-4.92,3.66-4.91c1.76-0.01,4.01,0,5.77,0c0.69,0,1.22,0.36,1.22,1.6
					c0,0.36-0.05,0.5-0.27,0.5c-2.11-0.02-4.42-0.02-6.53-0.02c-0.84,0-1.61,1.04-1.84,2.49c-0.01,0.05-1.37,7.46-1.37,7.46
					c-0.04,0.37-0.1,0.37-0.28,0.38c-0.59,0.02-1.98-0.14-1.54-2.05L143.48,24.18z M152.46,24.38l-0.57,2.96
					c-0.29,1.65-1.25,1.86-2.1,1.97c-0.9,0.12-1.99,0.05-2.83,0.07c-0.36,0.01-0.43-0.03-0.56,0.44l-0.21,0.96
					c-0.19,0.86-0.01,0.87,0.99,0.87c0.59,0.01,1.56,0,2.16-0.01c4.51,0,4.77-5.38,4.82-5.68c0-0.04,0.06-0.62,0.08-0.88
					c0.07-0.67-0.05-1.24-1.43-1.23c-0.18,0.01-0.25,0.05-0.33,0.44C152.46,24.38,152.46,24.38,152.46,24.38z M149.27,26.83
					c1.2,0,1.14-2.22,1.15-2.29l0-0.01c0.03-0.44-0.26-0.71-0.57-0.71c-0.74,0.01-1.22,0.01-1.95-0.01c-0.15,0-0.2,0.11-0.23,0.34
					c-0.02,0.09-0.36,1.88-0.47,2.52c-0.01,0.05,0,0.12,0.09,0.12C147.72,26.8,149.26,26.81,149.27,26.83z"/>
			</g>
			<g>
				<path class="st12" d="M166.25,20.94c-0.71,0-1.25,0-2.03,0c-0.8,0-1.62,0-2.39,0c-0.13,0-0.25,0-0.38,0
					c-1.04,0-1.66,0.67-1.86,1.98c-0.01,0.06-1.03,5.41-1.28,6.75c0,0.02-0.02,0.13,0.12,0.13h1.39c0.09,0,0.17-0.06,0.18-0.15
					l0.43-2.38c0.05-0.38,0.18-0.4,0.53-0.4c0.46-0.01,1.13,0,1.59,0l0.05,0c0.37,0,0.65,0,1.04,0c1.94-0.02,2.13-1.19,2.31-2.32
					l0.62-3.24C166.59,21.27,166.6,20.94,166.25,20.94z M163.94,25.11c-0.14,0.2-0.33,0.31-0.57,0.34l-0.12,0.01
					c-0.07-0.01-0.26-0.02-0.57-0.02c-0.33-0.01-0.82-0.01-1.5-0.04l-0.27-0.01c0,0-0.13,0-0.09-0.15c0,0,0.37-1.66,0.56-2.61
					c0.01-0.14,0.02-0.28,0.19-0.27l2.63,0c0.39,0,0.45,0.09,0.39,0.38c0,0.02-0.05,0.33-0.05,0.34
					C164.52,23.09,164.21,24.74,163.94,25.11z"/>
				<path class="st12" d="M174.6,20.93h-5.34c-0.22,0-0.41,0.16-0.45,0.38l-1.6,8.4c0,0.03,0.01,0.05,0.01,0.06
					c0.01,0.01,0.02,0.02,0.05,0.02h5.34c0.22,0,0.42-0.16,0.46-0.38l0.15-0.81c0-0.03-0.01-0.05-0.01-0.06s-0.02-0.02-0.05-0.02
					h-3.77c-0.08,0-0.16-0.04-0.21-0.1c-0.05-0.06-0.07-0.15-0.06-0.23l0.34-1.78c0.06-0.32,0.34-0.54,0.66-0.54h2.93
					c0.22,0,0.41-0.16,0.45-0.38l0.15-0.82c0.01-0.03-0.01-0.05-0.01-0.06c-0.01-0.01-0.02-0.02-0.05-0.02h-3.46
					c-0.08,0-0.16-0.04-0.21-0.1c-0.05-0.06-0.07-0.15-0.06-0.23l0.29-1.5c0.06-0.32,0.34-0.55,0.66-0.55h3.25
					c0.22,0,0.41-0.16,0.45-0.37l0.16-0.82c0.01-0.03-0.01-0.05-0.01-0.06S174.63,20.93,174.6,20.93z"/>
				<path class="st12" d="M182.28,20.93c-0.08,0-0.11,0-0.17,0.09l-2.7,4.2c-0.05,0.08-0.14,0.12-0.23,0.11
					c-0.09-0.01-0.17-0.08-0.19-0.17l-1.16-4.08l-0.04-0.13c0-0.01-0.02-0.02-0.03-0.02h-1.48c-0.09,0-0.06,0.1-0.06,0.1l1.81,6.02
					c0,0.09,0.01,0.17,0.01,0.26l-0.42,2.23c-0.07,0.25,0.07,0.25,0.17,0.25h1.12c0.25,0,0.3-0.11,0.33-0.27l0.42-2.18
					c0.03-0.07,0.06-0.14,0.09-0.21l4.21-6.15c0.01-0.01,0.01-0.02,0-0.03c0-0.01-0.01-0.02-0.03-0.02H182.28z"/>
				<path class="st12" d="M208.38,28.51h-3.53c-0.1,0-0.18-0.04-0.24-0.12c-0.06-0.07-0.09-0.17-0.07-0.26l1.35-7.07
					c0.01-0.03,0-0.07-0.02-0.09c-0.02-0.03-0.05-0.04-0.08-0.04h-1.12c-0.21,0-0.39,0.15-0.43,0.36l-1.59,8.37
					c-0.01,0.04,0.01,0.08,0.02,0.09c0.02,0.03,0.05,0.04,0.08,0.04h5.16c0.21,0,0.4-0.15,0.43-0.36l0.15-0.79
					c0.01-0.03,0-0.06-0.02-0.09C208.44,28.53,208.41,28.51,208.38,28.51z"/>
				<path class="st12" d="M216.09,20.93h-3.15c-0.19,0-0.37,0.07-0.45,0.46l-1.53,7.96c-0.04,0.22,0.13,0.43,0.35,0.43h3.27
					c2.48,0,3.17-0.92,3.43-2.31l0.75-3.93c0.04-0.2,0.06-0.36,0.06-0.55C218.83,21.68,217.83,20.93,216.09,20.93z M217.14,23.65
					l-0.65,3.4c-0.18,0.95-0.53,1.46-1.88,1.46h-1.42c-0.11,0-0.21-0.05-0.28-0.13c-0.07-0.08-0.1-0.19-0.08-0.3l1.06-5.58
					c0.03-0.17,0.18-0.29,0.36-0.29h1.43c1.04,0,1.5,0.31,1.5,1.02C217.18,23.35,217.17,23.5,217.14,23.65z"/>
				<path class="st12" d="M191.07,20.94l-0.36,0c-1.22-0.01-2.31-0.01-3.36,0c-1.2,0.01-2.24,1.31-2.47,3.1
					c-0.24,1.16-0.85,4.19-0.87,4.35c-0.09,1.12,0.36,1.26,0.76,1.38l0.08,0.02c0.03,0.01,0.16,0.01,0.24,0.01l0.08,0
					c0.13,0,0.57,0,0.9,0l2.29,0c2.11,0,2.45-0.43,3.03-3.86l0-0.04c0-0.01,0-0.03,0-0.04c0.02-0.17,0.04-0.32,0.05-0.42
					c0-0.17-0.05-0.43-0.22-0.62c-0.14-0.16-0.34-0.24-0.59-0.24c-0.55,0-1.86,0.01-2.35,0c-0.03,0-0.07,0-0.09,0.13
					c0,0.02-0.03,0.17-0.07,0.37c-0.03,0.17-0.07,0.32-0.1,0.44c-0.01,0.06-0.03,0.11-0.04,0.15l-0.01,0.07
					c-0.01,0.06-0.02,0.1-0.03,0.15c0.24,0,1.53,0.02,1.68,0.02l0.18,0l-0.03,0.18c-0.01,0.05-0.11,0.5-0.17,0.81l-0.06,0.28
					c-0.11,0.5-0.24,1.13-1.21,1.13c-0.19,0-0.43,0-0.74,0.01l-1.11,0.02c-0.25,0.01-0.45,0.01-0.69,0.01l-0.18,0l0.02-0.17
					c0.04-0.38,0.36-1.89,0.9-4.25l0.02-0.11v0c0,0,0,0,0,0v0c0.17-0.94,0.73-1.63,1.33-1.63l0.29,0c1.27,0,2.11,0,3.5,0.01
					c0.06,0,0.08-0.01,0.09-0.03c0.04-0.04,0.05-0.15,0.05-0.25c0-0.36-0.08-0.62-0.23-0.78C191.5,21.01,191.32,20.94,191.07,20.94z
					"/>
				<path class="st12" d="M198.03,20.87c-2.33,0-3.46,0.78-3.79,2.6l-0.68,3.71c-0.04,0.18-0.05,0.36-0.05,0.57
					c0,1.36,1.04,2.11,2.93,2.11c2.83,0,3.6-1.05,3.89-2.64l0.67-3.65c0.03-0.16,0.04-0.3,0.04-0.45
					C201.03,21.71,199.91,20.87,198.03,20.87z M199.47,23.6l0,0.01l-0.64,3.51c-0.19,1.01-0.86,1.48-2.12,1.48
					c-1.17,0-1.66-0.32-1.66-1.07c0-0.14,0.01-0.29,0.04-0.46l0.64-3.5c0.18-0.99,0.86-1.45,2.12-1.45c1.12,0,1.65,0.37,1.65,1.16
					C199.5,23.38,199.48,23.49,199.47,23.6z"/>
			</g>
		</g>
		<rect x="154.64" y="34.87" class="st38" width="67.85" height="16.63"/>
		<text transform="matrix(1 0 0 1 175.3657 39.926)" class="st12 st39 st40">PESOS</text>
	</g>
</g>
</svg>
