<?xml version="1.0" encoding="utf-8"?>
<!-- Generator: Adobe Illustrator 23.0.0, SVG Export Plug-In . SVG Version: 6.00 Build 0)  -->
<svg version="1.1" id="Capa_1" xmlns="http://www.w3.org/2000/svg" xmlns:xlink="http://www.w3.org/1999/xlink" x="0px" y="0px"
	 viewBox="0 0 226.41 143.84" style="enable-background:new 0 0 226.41 143.84;" xml:space="preserve">
<style type="text/css">
	.st0{clip-path:url(#SVGID_2_);fill:#D1B35D;}
	.st1{opacity:0.22;clip-path:url(#SVGID_2_);}
	.st2{fill:#A97728;}
	.st3{fill:#BA913E;}
	.st4{fill:#F2E887;}
	.st5{clip-path:url(#SVGID_2_);}
	.st6{fill:#825A20;}
	.st7{fill:#D1B35D;}
	.st8{fill:#DFC96D;}
	.st9{fill:#EFC981;}
	.st10{fill:#33140E;}
	.st11{fill:#512115;}
	.st12{fill:#FFFFFF;}
	.st13{fill:#E41A1B;}
	.st14{fill:#F59C23;}
	.st15{fill:#EB5E1D;}
	.st16{clip-path:url(#SVGID_6_);fill:#D1B35D;}
	.st17{opacity:0.22;clip-path:url(#SVGID_6_);}
	.st18{clip-path:url(#SVGID_6_);}
	.st19{clip-path:url(#SVGID_8_);fill:#27348B;}
	.st20{opacity:0.15;clip-path:url(#SVGID_8_);}
	.st21{fill:#27348B;}
	.st22{fill:#3575BA;}
	.st23{fill:#4398D4;}
	.st24{clip-path:url(#SVGID_8_);}
	.st25{opacity:0.6;clip-path:url(#SVGID_8_);}
	.st26{fill:#36A9E1;}
	.st27{fill:#1D71B8;}
	.st28{fill:#007FC8;}
	.st29{fill:#4853A0;}
	.st30{fill:#6DC1B3;}
	.st31{fill:#59C2DB;}
	.st32{fill:#432918;}
	.st33{fill:#683C11;}
	.st34{clip-path:url(#SVGID_12_);fill:#27348B;}
	.st35{opacity:0.15;clip-path:url(#SVGID_12_);}
	.st36{clip-path:url(#SVGID_12_);}
	.st37{opacity:0.6;clip-path:url(#SVGID_12_);}
	.st38{clip-path:url(#SVGID_14_);fill:#27348B;}
	.st39{opacity:0.15;clip-path:url(#SVGID_14_);}
	.st40{clip-path:url(#SVGID_14_);}
	.st41{opacity:0.6;}
	.st42{clip-path:url(#SVGID_18_);fill:#27348B;}
	.st43{opacity:0.31;clip-path:url(#SVGID_18_);fill:#FFFFFF;}
	.st44{opacity:0.31;clip-path:url(#SVGID_18_);}
	.st45{filter:url(#Adobe_OpacityMaskFilter);}
	.st46{mask:url(#SVGID_19_);}
	.st47{filter:url(#Adobe_OpacityMaskFilter_1_);}
	.st48{mask:url(#SVGID_20_);}
	.st49{filter:url(#Adobe_OpacityMaskFilter_2_);}
	.st50{mask:url(#SVGID_21_);}
	.st51{opacity:0.31;clip-path:url(#SVGID_18_);fill:url(#SVGID_22_);}
	.st52{filter:url(#Adobe_OpacityMaskFilter_3_);}
	.st53{mask:url(#SVGID_23_);}
	.st54{fill:url(#SVGID_24_);}
	.st55{filter:url(#Adobe_OpacityMaskFilter_4_);}
	.st56{mask:url(#SVGID_25_);}
	.st57{fill:url(#SVGID_26_);}
	.st58{filter:url(#Adobe_OpacityMaskFilter_5_);}
	.st59{mask:url(#SVGID_27_);}
	.st60{fill:url(#SVGID_28_);}
	.st61{opacity:0.31;clip-path:url(#SVGID_18_);fill:url(#SVGID_29_);}
	.st62{opacity:0.31;clip-path:url(#SVGID_18_);fill:url(#SVGID_30_);}
	.st63{opacity:0.87;fill:url(#SVGID_31_);}
	.st64{opacity:0.42;clip-path:url(#SVGID_18_);}
	.st65{filter:url(#Adobe_OpacityMaskFilter_6_);}
	.st66{mask:url(#SVGID_32_);}
	.st67{fill:url(#SVGID_33_);}
	.st68{fill:url(#SVGID_34_);}
	.st69{opacity:0.5;clip-path:url(#SVGID_18_);}
	.st70{clip-path:url(#SVGID_36_);fill:#706F6F;}
	.st71{opacity:0.39;clip-path:url(#SVGID_36_);}
	.st72{fill:#DADADA;}
	.st73{fill:#EDEDED;}
	.st74{fill:#F6F6F6;}
	.st75{clip-path:url(#SVGID_36_);}
	.st76{fill:#1A1A1A;}
	.st77{opacity:0.8;}
	.st78{fill:#111110;}
	.st79{fill:#1D1D1B;}
	.st80{fill:#3C3C3B;}
	.st81{fill:#575756;}
	.st82{fill:#C6C6C6;}
	.st83{fill:#9D9D9C;}
	.st84{fill:none;}
	.st85{fill:#030203;}
	.st86{fill:#B2B2B2;}
	.st87{fill:#706F6F;}
	.st88{fill:#878787;}
	.st89{fill:#C9C0C3;}
	.st90{fill:#878285;}
	.st91{fill:#4F4D4E;}
	.st92{opacity:0.74;}
</style>
<g>
	<defs>
		<path id="SVGID_5_" d="M219.4,143.84H7.01c-3.87,0-7.01-3.14-7.01-7.01V7.01C0,3.14,3.14,0,7.01,0H219.4
			c3.87,0,7.01,3.14,7.01,7.01v129.81C226.41,140.7,223.27,143.84,219.4,143.84z"/>
	</defs>
	<clipPath id="SVGID_2_">
		<use xlink:href="#SVGID_5_"  style="overflow:visible;"/>
	</clipPath>
	<path class="st0" d="M219.4,143.84H7.01c-3.87,0-7.01-3.14-7.01-7.01V7.01C0,3.14,3.14,0,7.01,0H219.4c3.87,0,7.01,3.14,7.01,7.01
		v129.81C226.41,140.7,223.27,143.84,219.4,143.84z"/>
	<g class="st1">
		<polygon class="st2" points="63.24,9.73 61.24,-11.16 88.25,7.15 		"/>
		<polygon class="st3" points="72.27,17.58 88.25,7.15 63.24,9.73 		"/>
		<polygon class="st3" points="86.03,55.29 107.1,28.41 74.42,30.34 		"/>
		<polygon class="st4" points="107.1,28.41 88.25,7.15 72.27,17.58 		"/>
		<polygon class="st2" points="72.27,17.58 76.72,25.9 74.42,30.34 107.1,28.41 		"/>
		<polygon class="st2" points="107.1,28.41 129.46,66.85 86.03,55.29 		"/>
		<polygon class="st4" points="117.46,46.22 161.17,47.63 129.46,66.85 		"/>
		<polygon class="st3" points="95.27,78.88 119.28,64.14 86.03,55.29 		"/>
		<polygon class="st3" points="111.47,35.92 145.95,47.14 117.46,46.22 		"/>
		<polygon class="st4" points="107.1,28.41 126.89,5.59 135.23,43.65 111.47,35.92 		"/>
		<polygon class="st2" points="88.25,7.15 126.89,5.59 107.1,28.41 		"/>
		<polygon class="st4" points="74.74,-2.01 119.28,5.9 88.25,7.15 		"/>
		<polygon class="st2" points="95.27,78.88 123.03,98.4 119.28,64.14 		"/>
		<polygon class="st3" points="123.03,98.4 102.03,113.88 95.27,78.88 		"/>
		<polygon class="st2" points="119.28,64.14 153.06,73.42 122.12,90.03 		"/>
		<polygon class="st2" points="102.03,113.88 131.71,92.05 145.95,117.69 		"/>
		<polygon class="st4" points="102.03,113.88 101.39,129.18 122.26,115.63 		"/>
		<polygon class="st2" points="101.39,129.18 99.44,145.69 124.96,145.69 		"/>
		<polygon class="st3" points="122.26,115.63 124.3,145.23 101.39,129.18 		"/>
		<polygon class="st3" points="145.95,117.69 153.06,73.42 128.64,86.53 		"/>
		<polygon class="st4" points="128.64,86.53 122.12,90.03 123.03,98.4 131.71,92.05 		"/>
		<polygon class="st2" points="135.23,43.65 145.95,47.14 161.17,47.63 145.61,27.88 		"/>
		<polygon class="st3" points="126.89,5.59 145.61,27.88 135.23,43.65 		"/>
		<polygon class="st3" points="129.46,66.85 176.17,79.76 161.17,47.63 		"/>
		<polygon class="st2" points="145.95,117.69 176.17,79.76 153.06,73.42 		"/>
		<polygon class="st2" points="122.26,115.63 181.53,120.76 124.3,145.23 		"/>
		<polygon class="st3" points="176.17,79.76 181.53,120.76 145.95,117.69 		"/>
		<polygon class="st3" points="123.35,145.69 167.17,145.69 166.09,127.36 		"/>
		<polygon class="st2" points="161.17,47.63 201.03,47.63 173.21,73.42 		"/>
		<polygon class="st3" points="173.21,73.42 185.44,98.4 193.82,54.32 		"/>
		<polygon class="st2" points="176.17,79.76 185.44,98.4 181.53,120.76 		"/>
		<polygon class="st3" points="161.17,47.63 176.17,11.41 201.03,47.63 		"/>
		<polygon class="st2" points="141.46,22.94 176.17,11.41 161.17,47.63 		"/>
		<polygon class="st3" points="181.53,120.76 198.25,146.54 166.09,127.36 		"/>
		<polygon class="st4" points="166.09,127.36 167.17,145.69 198.25,146.54 		"/>
		<polygon class="st2" points="181.53,120.76 235.53,120.76 198.25,146.54 		"/>
		<polygon class="st4" points="235.53,120.76 202.53,88.25 181.53,120.76 		"/>
		<polygon class="st2" points="202.53,88.25 188.7,79.76 181.53,120.76 		"/>
		<polygon class="st4" points="193.82,54.32 229.96,63.7 188.7,79.76 		"/>
		<polygon class="st3" points="141.46,22.94 186.99,7.98 149.6,-21.16 		"/>
		<polygon class="st2" points="126.89,5.59 149.6,-21.16 141.46,22.94 		"/>
		<polygon class="st3" points="92.82,1.2 119.28,5.9 126.89,5.59 133.34,-2.01 		"/>
		<polygon class="st4" points="201.03,145.04 226.67,126.89 227.6,148.18 		"/>
		<polygon class="st2" points="229.96,63.7 235.53,120.76 202.53,88.25 		"/>
		<polygon class="st3" points="188.7,79.76 202.53,88.25 229.96,63.7 		"/>
		<polygon class="st2" points="193.82,54.32 226.53,24.62 229.96,63.7 		"/>
		<polygon class="st4" points="176.17,11.41 226.53,24.62 201.03,47.63 		"/>
		<polygon class="st2" points="176.17,11.41 225.57,-4.88 226.53,24.62 		"/>
		<polygon class="st3" points="171.52,-4.08 186.99,7.98 212.61,-0.24 		"/>
		<polygon class="st4" points="63.24,9.73 61.24,-14.18 37.23,14.32 		"/>
		<polygon class="st2" points="37.23,14.32 -5.84,-4.08 61.24,-14.18 		"/>
		<polygon class="st3" points="37.23,14.32 72.27,17.58 63.24,9.73 		"/>
		<polygon class="st4" points="90,65.41 48.5,100.26 99.04,98.4 95.27,78.88 		"/>
		<polygon class="st3" points="61.03,99.8 88.01,133.65 99.04,98.4 		"/>
		<polygon class="st3" points="-1,-2.01 -1,43.65 31.48,11.87 		"/>
		<polygon class="st4" points="31.48,11.87 37.23,49.68 10.72,32.18 		"/>
		<polygon class="st2" points="88.01,133.65 101.39,129.18 102.03,113.88 99.04,98.4 		"/>
		<polygon class="st2" points="10.72,32.18 -12.92,55.29 37.23,49.68 		"/>
		<polygon class="st3" points="27.7,50.74 -8.87,54.83 10.72,93.6 		"/>
		<polygon class="st2" points="10.72,93.6 48.5,100.26 49.75,66.85 		"/>
		<polygon class="st4" points="27.7,50.74 49.75,66.85 10.72,93.6 		"/>
		<polygon class="st2" points="61.03,99.8 88.01,133.65 42.37,140.1 		"/>
		<polygon class="st3" points="49.75,66.85 90,65.41 48.5,100.26 		"/>
		<polygon class="st4" points="37.23,14.32 61.03,40.46 76.72,25.9 72.27,17.58 		"/>
		<polygon class="st4" points="-3.52,65.41 10.72,93.6 -5.42,115.63 		"/>
		<polygon class="st3" points="-5.42,115.63 48.5,100.26 10.72,93.6 		"/>
		<polygon class="st2" points="-5.42,115.63 -2.42,148.03 31.66,127.36 		"/>
		<polygon class="st4" points="31.66,127.36 36.32,103.73 -5.42,115.63 		"/>
		<polygon class="st3" points="88.01,133.65 99.44,145.69 101.39,129.18 		"/>
		<polygon class="st4" points="31.66,127.36 42.37,140.1 61.03,99.8 		"/>
		<polygon class="st2" points="36.32,103.73 31.66,127.36 61.03,99.8 48.5,100.26 		"/>
		<polygon class="st3" points="31.66,127.36 49.36,148.41 -2.42,148.03 		"/>
		<polygon class="st4" points="64.44,136.98 42.37,140.1 53.94,154.14 		"/>
		<polygon class="st3" points="64.44,136.98 99.44,145.69 53.94,154.14 		"/>
		<polygon class="st4" points="64.44,136.98 88.01,133.65 99.44,145.69 		"/>
	</g>
	<g class="st5">
		<g>
			<polygon class="st6" points="84,24.36 103.2,11.56 87.04,11.56 			"/>
			<polygon class="st2" points="84,24.36 75.04,20.04 87.04,11.56 			"/>
			<polygon class="st2" points="80.93,15.88 82.08,1.48 87.04,11.56 			"/>
			<polygon class="st4" points="82.08,1.48 84,-13.08 87.04,11.56 			"/>
			<polygon class="st2" points="87.04,11.56 103.2,2.52 103.2,11.56 			"/>
			<polygon class="st6" points="103.2,11.56 115.84,3.56 103.2,6.28 			"/>
			<polygon class="st7" points="103.2,2.52 115.84,3.56 103.2,6.28 			"/>
			<polygon class="st6" points="103.2,2.52 113.92,-6.52 115.84,3.56 			"/>
			<polygon class="st2" points="113.92,-6.52 110.64,-22.68 123.52,-0.76 115.84,3.56 			"/>
			<polygon class="st8" points="75.04,20.04 69.01,25.96 80.11,31.35 			"/>
			<polygon class="st7" points="80.11,31.35 84,24.36 75.04,20.04 			"/>
			<polygon class="st8" points="80.11,31.35 87.81,37 84,24.36 			"/>
			<polygon class="st4" points="69.01,25.96 64.43,25.96 64.43,35.42 72.97,27.88 			"/>
			<polygon class="st7" points="81.75,35.42 80.11,31.35 72.97,27.88 			"/>
			<polygon class="st10" points="90.3,45.24 80.93,51.19 88.43,51.19 			"/>
			<polygon class="st11" points="80.93,51.19 85.1,43.93 90.3,45.24 			"/>
			<polygon class="st7" points="64.43,35.42 64.43,43.93 78.4,42.23 			"/>
			<polygon class="st4" points="64.43,35.42 81.75,35.42 73.15,39.67 			"/>
			<polygon class="st8" points="78.4,42.23 80.93,51.19 85.1,43.93 			"/>
			<polygon class="st3" points="69.73,43.28 80.93,51.19 78.4,42.23 			"/>
			<polygon class="st4" points="87.81,37 90.3,45.24 85.1,43.93 			"/>
			<polygon class="st3" points="80.11,31.35 85.1,43.93 87.81,37 			"/>
			<polygon class="st8" points="81.75,35.42 78.4,42.23 73.15,39.67 			"/>
			<polygon class="st7" points="81.75,35.42 85.1,43.93 78.4,42.23 			"/>
			<polygon class="st8" points="72.97,27.88 72.97,35.42 81.75,35.42 			"/>
			<polygon class="st3" points="72.97,27.88 64.43,35.42 72.97,35.42 			"/>
			<polygon class="st7" points="88.43,51.19 83.96,63.99 80.93,51.19 			"/>
			<polygon class="st8" points="64.43,43.93 70.4,52.9 69.73,43.28 			"/>
			<polygon class="st7" points="70.4,52.9 77.45,48.74 69.73,43.28 			"/>
			<polygon class="st8" points="77.45,48.74 83.96,63.99 80.93,51.19 			"/>
			<polygon class="st4" points="70.4,52.9 80.11,54.96 77.45,48.74 			"/>
			<polygon class="st4" points="83.96,63.99 78.4,77.48 77.36,62.28 			"/>
			<polygon class="st7" points="77.36,62.28 69.73,67.62 78.4,77.48 			"/>
			<polygon class="st10" points="69.73,67.62 75.33,73.99 67.41,79.67 			"/>
			<polygon class="st11" points="69.73,67.62 64.43,67.62 67.41,79.67 			"/>
			<polygon class="st10" points="67.41,79.67 64.43,79.67 64.43,67.62 			"/>
			<polygon class="st8" points="70.4,52.9 69.73,67.62 81.75,59.3 			"/>
			<polygon class="st4" points="70.4,52.9 82.02,59.45 80.11,54.96 			"/>
			<polygon class="st7" points="81.75,59.3 77.36,62.28 83.96,63.99 82.02,59.45 			"/>
			<polygon class="st4" points="70.4,52.9 64.43,67.62 69.73,67.62 			"/>
			<polygon class="st7" points="64.43,43.93 64.43,67.62 70.4,52.9 			"/>
			<polygon class="st7" points="78.4,77.48 70.4,86.07 67.41,79.67 			"/>
			<polygon class="st8" points="67.41,79.67 75.33,73.99 78.4,77.48 			"/>
			<polygon class="st4" points="70.4,86.07 64.43,86.07 64.43,79.67 67.41,79.67 			"/>
			<polygon class="st3" points="87.81,52.95 91.95,71.56 85.61,59.25 			"/>
			<polygon class="st2" points="85.61,59.25 88.78,96.95 91.95,71.56 			"/>
			<polygon class="st3" points="85.61,59.25 82.46,67.62 84.68,99.09 			"/>
			<polygon class="st6" points="85.61,59.25 84.68,99.09 88.78,96.95 			"/>
			<polygon class="st3" points="91.95,71.56 95.04,117.81 88.78,96.95 			"/>
			<polygon class="st6" points="78.4,77.48 84.68,99.09 82.46,67.62 			"/>
			<polygon class="st3" points="78.4,77.48 78.4,125.65 80.93,86.18 			"/>
			<polygon class="st2" points="78.4,77.48 75.33,80.78 78.4,106.77 			"/>
			<polygon class="st3" points="74.4,81.78 72.93,83.35 75.25,111.73 76.86,92.13 75.33,80.78 			"/>
			<polygon class="st7" points="76.78,93.15 75.25,111.73 78.4,105.33 			"/>
			<polygon class="st2" points="78.4,125.65 82.46,124.85 80.93,86.18 			"/>
			<polygon class="st3" points="80.93,86.18 88.78,113.01 84.68,114.13 			"/>
			<polygon class="st7" points="80.93,86.18 82.46,129.17 84.68,114.13 			"/>
			<polygon class="st6" points="70.4,86.07 75.25,111.73 72.93,83.35 			"/>
			<polygon class="st2" points="70.4,86.07 67.41,86.18 68.59,151.41 			"/>
			<polygon class="st3" points="67.41,86.18 64.43,86.07 64.43,132.69 			"/>
			<polygon class="st7" points="67.41,86.18 68.64,130.13 64.65,129.17 			"/>
			<polygon class="st7" points="91.95,71.56 97.44,94.69 94.19,105.15 			"/>
			<polygon class="st2" points="97.44,94.69 101.28,129.17 94.19,105.15 			"/>
			<polygon class="st7" points="84.68,99.09 88.78,96.95 99.68,132.69 			"/>
			<polygon class="st3" points="75.25,111.73 78.4,125.65 78.4,105.33 			"/>
			<polygon class="st3" points="70.4,86.07 74.06,144.69 69.2,129.17 			"/>
			<polygon class="st7" points="70.4,86.07 79.04,129.17 73.05,128.53 			"/>
			<polygon class="st2" points="88.78,113.01 90.89,113.01 84.68,99.09 			"/>
			<polygon class="st2" points="84.68,114.13 88.78,113.01 90.89,113.01 83.17,124.34 			"/>
			<polygon class="st6" points="99.68,132.69 87.78,117.81 90.89,113.01 			"/>
			<polygon class="st2" points="79.04,129.17 74.06,144.69 73.05,128.53 			"/>
			<polygon class="st3" points="64.65,129.17 68.64,130.13 68.64,152.05 			"/>
			<polygon class="st7" points="69.2,129.17 77.36,154.45 68.64,152.05 			"/>
			<polygon class="st3" points="78.4,125.65 82.46,124.85 82.03,154.98 			"/>
			<polygon class="st7" points="79.04,129.17 82.03,155.73 76.83,136.07 			"/>
			<polygon class="st3" points="76.83,136.07 81.69,154.45 74.03,144.12 			"/>
			<polygon class="st2" points="82.46,129.17 83.55,123.78 84.68,155.73 			"/>
			<polygon class="st6" points="82.46,129.17 82.03,155.73 84.68,155.73 			"/>
			<polygon class="st6" points="83.55,123.78 84.49,153.48 87.78,117.81 			"/>
			<polygon class="st3" points="87.78,117.81 90.03,154.98 86.99,126.4 			"/>
			<polygon class="st7" points="86.99,126.4 90.03,157.43 84.68,155.73 84.49,150.5 			"/>
			<polygon class="st2" points="87.78,117.81 94.05,125.65 93.12,159.67 			"/>
			<polygon class="st6" points="87.78,117.81 90.03,158.29 93.05,159.13 			"/>
			<polygon class="st6" points="94.19,105.15 95.04,117.81 99.68,132.69 101.28,129.17 			"/>
			<polygon class="st7" points="94.05,125.65 96.36,128.53 93.29,153.48 			"/>
			<polygon class="st3" points="96.36,128.53 99.68,132.69 94.69,159.67 			"/>
			<polygon class="st2" points="96.36,128.53 93.33,152.74 93.05,159.13 94.69,159.67 			"/>
			<polygon class="st2" points="84,24.36 99.52,17.96 87.81,37 			"/>
			<polygon class="st6" points="87.81,37 90.3,45.24 96.11,37.64 			"/>
			<polygon class="st3" points="99.52,17.96 96.11,37.64 87.81,37 			"/>
			<polygon class="st6" points="96.11,37.64 106.13,34.34 98.61,23.22 			"/>
			<polygon class="st2" points="99.52,17.96 106.13,34.34 98.61,23.22 			"/>
			<polygon class="st3" points="106.13,34.34 114.99,20.04 102.14,24.44 			"/>
			<polygon class="st6" points="99.52,17.96 110.64,21.53 102.14,24.44 			"/>
			<polygon class="st2" points="99.52,17.96 108.8,11.56 110.64,21.53 			"/>
			<polygon class="st6" points="114.99,20.04 108.8,11.56 110.64,21.53 			"/>
			<polygon class="st2" points="114.99,20.04 120.64,5.32 108.8,11.56 			"/>
		</g>
		<g>
			<polygon class="st6" points="84,24.36 103.2,11.56 87.04,11.56 			"/>
			<polygon class="st2" points="84,24.36 75.04,20.04 87.04,11.56 			"/>
			<polygon class="st2" points="80.93,15.88 82.08,1.48 87.04,11.56 			"/>
			<polygon class="st4" points="82.08,1.48 84,-13.08 87.04,11.56 			"/>
			<polygon class="st2" points="87.04,11.56 103.2,2.52 103.2,11.56 			"/>
			<polygon class="st6" points="103.2,11.56 115.84,3.56 103.2,6.28 			"/>
			<polygon class="st7" points="103.2,2.52 115.84,3.56 103.2,6.28 			"/>
			<polygon class="st6" points="103.2,2.52 113.92,-6.52 115.84,3.56 			"/>
			<polygon class="st2" points="113.92,-6.52 110.64,-22.68 123.52,-0.76 115.84,3.56 			"/>
			<polygon class="st8" points="75.04,20.04 69.01,25.96 80.11,31.35 			"/>
			<polygon class="st7" points="80.11,31.35 84,24.36 75.04,20.04 			"/>
			<polygon class="st8" points="80.11,31.35 87.81,37 84,24.36 			"/>
			<polygon class="st4" points="69.01,25.96 64.43,25.96 64.43,35.42 72.97,27.88 			"/>
			<polygon class="st7" points="81.75,35.42 80.11,31.35 72.97,27.88 			"/>
			<polygon class="st10" points="90.3,45.24 80.93,51.19 88.43,51.19 			"/>
			<polygon class="st11" points="80.93,51.19 85.1,43.93 90.3,45.24 			"/>
			<polygon class="st7" points="64.43,35.42 64.43,43.93 78.4,42.23 			"/>
			<polygon class="st4" points="64.43,35.42 81.75,35.42 73.15,39.67 			"/>
			<polygon class="st8" points="78.4,42.23 80.93,51.19 85.1,43.93 			"/>
			<polygon class="st3" points="69.73,43.28 80.93,51.19 78.4,42.23 			"/>
			<polygon class="st4" points="87.81,37 90.3,45.24 85.1,43.93 			"/>
			<polygon class="st3" points="80.11,31.35 85.1,43.93 87.81,37 			"/>
			<polygon class="st8" points="81.75,35.42 78.4,42.23 73.15,39.67 			"/>
			<polygon class="st7" points="81.75,35.42 85.1,43.93 78.4,42.23 			"/>
			<polygon class="st8" points="72.97,27.88 72.97,35.42 81.75,35.42 			"/>
			<polygon class="st3" points="72.97,27.88 64.43,35.42 72.97,35.42 			"/>
			<polygon class="st7" points="88.43,51.19 83.96,63.99 80.93,51.19 			"/>
			<polygon class="st8" points="64.43,43.93 70.4,52.9 69.73,43.28 			"/>
			<polygon class="st7" points="70.4,52.9 77.45,48.74 69.73,43.28 			"/>
			<polygon class="st8" points="77.45,48.74 83.96,63.99 80.93,51.19 			"/>
			<polygon class="st4" points="70.4,52.9 80.11,54.96 77.45,48.74 			"/>
			<polygon class="st4" points="83.96,63.99 78.4,77.48 77.36,62.28 			"/>
			<polygon class="st7" points="77.36,62.28 69.73,67.62 78.4,77.48 			"/>
			<polygon class="st10" points="69.73,67.62 75.33,73.99 67.41,79.67 			"/>
			<polygon class="st11" points="69.73,67.62 64.43,67.62 67.41,79.67 			"/>
			<polygon class="st10" points="67.41,79.67 64.43,79.67 64.43,67.62 			"/>
			<polygon class="st8" points="70.4,52.9 69.73,67.62 81.75,59.3 			"/>
			<polygon class="st4" points="70.4,52.9 82.02,59.45 80.11,54.96 			"/>
			<polygon class="st7" points="81.75,59.3 77.36,62.28 83.96,63.99 82.02,59.45 			"/>
			<polygon class="st4" points="70.4,52.9 64.43,67.62 69.73,67.62 			"/>
			<polygon class="st7" points="64.43,43.93 64.43,67.62 70.4,52.9 			"/>
			<polygon class="st7" points="78.4,77.48 70.4,86.07 67.41,79.67 			"/>
			<polygon class="st8" points="67.41,79.67 75.33,73.99 78.4,77.48 			"/>
			<polygon class="st4" points="70.4,86.07 64.43,86.07 64.43,79.67 67.41,79.67 			"/>
			<polygon class="st3" points="87.81,52.95 91.95,71.56 85.61,59.25 			"/>
			<polygon class="st2" points="85.61,59.25 88.78,96.95 91.95,71.56 			"/>
			<polygon class="st3" points="85.61,59.25 82.46,67.62 84.68,99.09 			"/>
			<polygon class="st6" points="85.61,59.25 84.68,99.09 88.78,96.95 			"/>
			<polygon class="st3" points="91.95,71.56 95.04,117.81 88.78,96.95 			"/>
			<polygon class="st6" points="78.4,77.48 84.68,99.09 82.46,67.62 			"/>
			<polygon class="st3" points="78.4,77.48 78.4,125.65 80.93,86.18 			"/>
			<polygon class="st2" points="78.4,77.48 75.33,80.78 78.4,106.77 			"/>
			<polygon class="st3" points="74.4,81.78 72.93,83.35 75.25,111.73 76.86,92.13 75.33,80.78 			"/>
			<polygon class="st7" points="76.78,93.15 75.25,111.73 78.4,105.33 			"/>
			<polygon class="st2" points="78.4,125.65 82.46,124.85 80.93,86.18 			"/>
			<polygon class="st3" points="80.93,86.18 88.78,113.01 84.68,114.13 			"/>
			<polygon class="st7" points="80.93,86.18 82.46,129.17 84.68,114.13 			"/>
			<polygon class="st6" points="70.4,86.07 75.25,111.73 72.93,83.35 			"/>
			<polygon class="st2" points="70.4,86.07 67.41,86.18 68.59,151.41 			"/>
			<polygon class="st3" points="67.41,86.18 64.43,86.07 64.43,132.69 			"/>
			<polygon class="st7" points="67.41,86.18 68.64,130.13 64.65,129.17 			"/>
			<polygon class="st7" points="91.95,71.56 97.44,94.69 94.19,105.15 			"/>
			<polygon class="st2" points="97.44,94.69 101.28,129.17 94.19,105.15 			"/>
			<polygon class="st7" points="84.68,99.09 88.78,96.95 99.68,132.69 			"/>
			<polygon class="st3" points="75.25,111.73 78.4,125.65 78.4,105.33 			"/>
			<polygon class="st3" points="70.4,86.07 74.06,144.69 69.2,129.17 			"/>
			<polygon class="st7" points="70.4,86.07 79.04,129.17 73.05,128.53 			"/>
			<polygon class="st2" points="88.78,113.01 90.89,113.01 84.68,99.09 			"/>
			<polygon class="st2" points="84.68,114.13 88.78,113.01 90.89,113.01 83.17,124.34 			"/>
			<polygon class="st6" points="99.68,132.69 87.78,117.81 90.89,113.01 			"/>
			<polygon class="st2" points="79.04,129.17 74.06,144.69 73.05,128.53 			"/>
			<polygon class="st3" points="64.65,129.17 68.64,130.13 68.64,152.05 			"/>
			<polygon class="st7" points="69.2,129.17 77.36,154.45 68.64,152.05 			"/>
			<polygon class="st3" points="78.4,125.65 82.46,124.85 82.03,154.98 			"/>
			<polygon class="st7" points="79.04,129.17 82.03,155.73 76.83,136.07 			"/>
			<polygon class="st3" points="76.83,136.07 81.69,154.45 74.03,144.12 			"/>
			<polygon class="st2" points="82.46,129.17 83.55,123.78 84.68,155.73 			"/>
			<polygon class="st6" points="82.46,129.17 82.03,155.73 84.68,155.73 			"/>
			<polygon class="st6" points="83.55,123.78 84.49,153.48 87.78,117.81 			"/>
			<polygon class="st3" points="87.78,117.81 90.03,154.98 86.99,126.4 			"/>
			<polygon class="st7" points="86.99,126.4 90.03,157.43 84.68,155.73 84.49,150.5 			"/>
			<polygon class="st2" points="87.78,117.81 94.05,125.65 93.12,159.67 			"/>
			<polygon class="st6" points="87.78,117.81 90.03,158.29 93.05,159.13 			"/>
			<polygon class="st6" points="94.19,105.15 95.04,117.81 99.68,132.69 101.28,129.17 			"/>
			<polygon class="st7" points="94.05,125.65 96.36,128.53 93.29,153.48 			"/>
			<polygon class="st3" points="96.36,128.53 99.68,132.69 94.69,159.67 			"/>
			<polygon class="st2" points="96.36,128.53 93.33,152.74 93.05,159.13 94.69,159.67 			"/>
			<polygon class="st2" points="84,24.36 99.52,17.96 87.81,37 			"/>
			<polygon class="st6" points="87.81,37 90.3,45.24 96.11,37.64 			"/>
			<polygon class="st3" points="99.52,17.96 96.11,37.64 87.81,37 			"/>
			<polygon class="st6" points="96.11,37.64 106.13,34.34 98.61,23.22 			"/>
			<polygon class="st2" points="99.52,17.96 106.13,34.34 98.61,23.22 			"/>
			<polygon class="st3" points="106.13,34.34 114.99,20.04 102.14,24.44 			"/>
			<polygon class="st6" points="99.52,17.96 110.64,21.53 102.14,24.44 			"/>
			<polygon class="st2" points="99.52,17.96 108.8,11.56 110.64,21.53 			"/>
			<polygon class="st6" points="114.99,20.04 108.8,11.56 110.64,21.53 			"/>
			<polygon class="st2" points="114.99,20.04 120.64,5.32 108.8,11.56 			"/>
		</g>
		<g>
			<polygon class="st6" points="44.85,24.36 25.65,11.56 41.81,11.56 			"/>
			<polygon class="st2" points="44.85,24.36 53.81,20.04 41.81,11.56 			"/>
			<polygon class="st2" points="47.93,15.88 46.77,1.48 41.81,11.56 			"/>
			<polygon class="st4" points="46.77,1.48 44.85,-13.08 41.81,11.56 			"/>
			<polygon class="st2" points="41.81,11.56 25.65,2.52 25.65,11.56 			"/>
			<polygon class="st6" points="25.65,11.56 13.01,3.56 25.65,6.28 			"/>
			<polygon class="st7" points="25.65,2.52 13.01,3.56 25.65,6.28 			"/>
			<polygon class="st6" points="25.65,2.52 14.93,-6.52 13.01,3.56 			"/>
			<polygon class="st2" points="14.93,-6.52 18.21,-22.68 5.33,-0.76 13.01,3.56 			"/>
			<polygon class="st8" points="53.81,20.04 59.84,25.96 48.75,31.35 			"/>
			<polygon class="st7" points="48.75,31.35 44.85,24.36 53.81,20.04 			"/>
			<polygon class="st8" points="48.75,31.35 41.04,37 44.85,24.36 			"/>
			<polygon class="st4" points="59.84,25.96 64.43,25.96 64.43,35.42 55.89,27.88 			"/>
			<polygon class="st7" points="47.1,35.42 48.75,31.35 55.89,27.88 			"/>
			<polygon class="st10" points="38.55,45.24 47.93,51.19 40.43,51.19 			"/>
			<polygon class="st11" points="47.93,51.19 43.76,43.93 38.55,45.24 			"/>
			<polygon class="st7" points="64.43,35.42 64.43,43.93 50.45,42.23 			"/>
			<polygon class="st4" points="64.43,35.42 47.1,35.42 55.7,39.67 			"/>
			<polygon class="st8" points="50.45,42.23 47.93,51.19 43.76,43.93 			"/>
			<polygon class="st3" points="59.13,43.28 47.93,51.19 50.45,42.23 			"/>
			<polygon class="st4" points="41.04,37 38.55,45.24 43.76,43.93 			"/>
			<polygon class="st3" points="48.75,31.35 43.76,43.93 41.04,37 			"/>
			<polygon class="st8" points="47.1,35.42 50.45,42.23 55.7,39.67 			"/>
			<polygon class="st7" points="47.1,35.42 43.76,43.93 50.45,42.23 			"/>
			<polygon class="st8" points="55.89,27.88 55.89,35.42 47.1,35.42 			"/>
			<polygon class="st3" points="55.89,27.88 64.43,35.42 55.89,35.42 			"/>
			<polygon class="st7" points="40.43,51.19 44.89,63.99 47.93,51.19 			"/>
			<polygon class="st8" points="64.43,43.93 58.45,52.9 59.13,43.28 			"/>
			<polygon class="st7" points="58.45,52.9 51.4,48.74 59.13,43.28 			"/>
			<polygon class="st8" points="51.4,48.74 44.89,63.99 47.93,51.19 			"/>
			<polygon class="st4" points="58.45,52.9 48.75,54.96 51.4,48.74 			"/>
			<polygon class="st4" points="44.89,63.99 50.45,77.48 51.5,62.28 			"/>
			<polygon class="st7" points="51.5,62.28 59.13,67.62 50.45,77.48 			"/>
			<polygon class="st10" points="59.13,67.62 53.53,73.99 61.44,79.67 			"/>
			<polygon class="st11" points="59.13,67.62 64.43,67.62 61.44,79.67 			"/>
			<polygon class="st10" points="61.44,79.67 64.43,79.67 64.43,67.62 			"/>
			<polygon class="st8" points="58.45,52.9 59.13,67.62 47.1,59.3 			"/>
			<polygon class="st4" points="58.45,52.9 46.83,59.45 48.75,54.96 			"/>
			<polygon class="st7" points="47.1,59.3 51.5,62.28 44.89,63.99 46.83,59.45 			"/>
			<polygon class="st4" points="58.45,52.9 64.43,67.62 59.13,67.62 			"/>
			<polygon class="st7" points="64.43,43.93 64.43,67.62 58.45,52.9 			"/>
			<polygon class="st7" points="50.45,77.48 58.45,86.07 61.44,79.67 			"/>
			<polygon class="st8" points="61.44,79.67 53.53,73.99 50.45,77.48 			"/>
			<polygon class="st4" points="58.45,86.07 64.43,86.07 64.43,79.67 61.44,79.67 			"/>
			<polygon class="st3" points="41.04,52.95 36.91,71.56 43.24,59.25 			"/>
			<polygon class="st2" points="43.24,59.25 40.07,96.95 36.91,71.56 			"/>
			<polygon class="st3" points="43.24,59.25 46.39,67.62 44.18,99.09 			"/>
			<polygon class="st6" points="43.24,59.25 44.18,99.09 40.07,96.95 			"/>
			<polygon class="st3" points="36.91,71.56 33.81,117.81 40.07,96.95 			"/>
			<polygon class="st6" points="50.45,77.48 44.18,99.09 46.39,67.62 			"/>
			<polygon class="st3" points="50.45,77.48 50.45,125.65 47.93,86.18 			"/>
			<polygon class="st2" points="50.45,77.48 53.53,80.78 50.45,106.77 			"/>
			<polygon class="st3" points="54.45,81.78 55.92,83.35 53.6,111.73 51.99,92.13 53.53,80.78 			"/>
			<polygon class="st7" points="52.07,93.15 53.6,111.73 50.45,105.33 			"/>
			<polygon class="st2" points="50.45,125.65 46.39,124.85 47.93,86.18 			"/>
			<polygon class="st3" points="47.93,86.18 40.07,113.01 44.18,114.13 			"/>
			<polygon class="st7" points="47.93,86.18 46.39,129.17 44.18,114.13 			"/>
			<polygon class="st6" points="58.45,86.07 53.6,111.73 55.92,83.35 			"/>
			<polygon class="st2" points="58.45,86.07 61.44,86.18 60.27,151.41 			"/>
			<polygon class="st3" points="61.44,86.18 64.43,86.07 64.43,132.69 			"/>
			<polygon class="st7" points="61.44,86.18 60.22,130.13 64.2,129.17 			"/>
			<polygon class="st7" points="36.91,71.56 31.41,94.69 34.66,105.15 			"/>
			<polygon class="st2" points="31.41,94.69 27.57,129.17 34.66,105.15 			"/>
			<polygon class="st7" points="44.18,99.09 40.07,96.95 29.17,132.69 			"/>
			<polygon class="st3" points="53.6,111.73 50.45,125.65 50.45,105.33 			"/>
			<polygon class="st3" points="58.45,86.07 54.79,144.69 59.65,129.17 			"/>
			<polygon class="st7" points="58.45,86.07 49.81,129.17 55.8,128.53 			"/>
			<polygon class="st2" points="40.07,113.01 37.96,113.01 44.18,99.09 			"/>
			<polygon class="st2" points="44.18,114.13 40.07,113.01 37.96,113.01 45.68,124.34 			"/>
			<polygon class="st6" points="29.17,132.69 41.07,117.81 37.96,113.01 			"/>
			<polygon class="st2" points="49.81,129.17 54.79,144.69 55.8,128.53 			"/>
			<polygon class="st3" points="64.2,129.17 60.22,130.13 60.22,152.05 			"/>
			<polygon class="st7" points="59.65,129.17 51.5,154.45 60.22,152.05 			"/>
			<polygon class="st3" points="50.45,125.65 46.39,124.85 46.83,154.98 			"/>
			<polygon class="st7" points="49.81,129.17 46.83,155.73 52.03,136.07 			"/>
			<polygon class="st3" points="52.03,136.07 47.16,154.45 54.83,144.12 			"/>
			<polygon class="st2" points="46.39,129.17 45.3,123.78 44.18,155.73 			"/>
			<polygon class="st6" points="46.39,129.17 46.83,155.73 44.18,155.73 			"/>
			<polygon class="st6" points="45.3,123.78 44.36,153.48 41.07,117.81 			"/>
			<polygon class="st3" points="41.07,117.81 38.83,154.98 41.86,126.4 			"/>
			<polygon class="st7" points="41.86,126.4 38.83,157.43 44.18,155.73 44.36,150.5 			"/>
			<polygon class="st2" points="41.07,117.81 34.8,125.65 35.73,159.67 			"/>
			<polygon class="st6" points="41.07,117.81 38.83,158.29 35.8,159.13 			"/>
			<polygon class="st6" points="34.66,105.15 33.81,117.81 29.17,132.69 27.57,129.17 			"/>
			<polygon class="st7" points="34.8,125.65 32.5,128.53 35.56,153.48 			"/>
			<polygon class="st3" points="32.5,128.53 29.17,132.69 34.16,159.67 			"/>
			<polygon class="st2" points="32.5,128.53 35.52,152.74 35.8,159.13 34.16,159.67 			"/>
			<polygon class="st2" points="44.85,24.36 29.33,17.96 41.04,37 			"/>
			<polygon class="st6" points="41.04,37 38.55,45.24 32.75,37.64 			"/>
			<polygon class="st3" points="29.33,17.96 32.75,37.64 41.04,37 			"/>
			<polygon class="st6" points="32.75,37.64 22.72,34.34 30.24,23.22 			"/>
			<polygon class="st2" points="29.33,17.96 22.72,34.34 30.24,23.22 			"/>
			<polygon class="st3" points="22.72,34.34 13.87,20.04 26.72,24.44 			"/>
			<polygon class="st6" points="29.33,17.96 18.21,21.53 26.72,24.44 			"/>
			<polygon class="st2" points="29.33,17.96 20.05,11.56 18.21,21.53 			"/>
			<polygon class="st6" points="13.87,20.04 20.05,11.56 18.21,21.53 			"/>
			<polygon class="st2" points="13.87,20.04 8.21,5.32 20.05,11.56 			"/>
		</g>
	</g>
	<g class="st5">
		<g>
			<g>
				<g>
					<path class="st12" d="M143.48,24.18c0.59-3.68,1.57-4.92,3.66-4.91c1.76-0.01,4.01,0,5.77,0c0.69,0,1.22,0.36,1.22,1.6
						c0,0.36-0.05,0.5-0.27,0.5c-2.11-0.02-4.42-0.02-6.53-0.02c-0.84,0-1.61,1.04-1.84,2.49c-0.01,0.05-1.37,7.46-1.37,7.46
						c-0.04,0.37-0.1,0.37-0.28,0.38c-0.59,0.02-1.98-0.14-1.54-2.05L143.48,24.18z M152.46,24.38l-0.57,2.96
						c-0.29,1.65-1.25,1.86-2.1,1.97c-0.9,0.12-1.99,0.05-2.83,0.07c-0.36,0.01-0.43-0.03-0.56,0.44l-0.21,0.96
						c-0.19,0.86-0.01,0.87,0.99,0.87c0.59,0.01,1.56,0,2.16-0.01c4.51,0,4.77-5.38,4.82-5.68c0-0.04,0.06-0.62,0.08-0.88
						c0.07-0.67-0.05-1.24-1.43-1.23c-0.18,0.01-0.25,0.05-0.33,0.44C152.46,24.38,152.46,24.38,152.46,24.38z M149.27,26.83
						c1.2,0,1.14-2.22,1.15-2.29l0-0.01c0.03-0.44-0.26-0.71-0.57-0.71c-0.74,0.01-1.22,0.01-1.95-0.01c-0.15,0-0.2,0.11-0.23,0.34
						c-0.02,0.09-0.36,1.88-0.47,2.52c-0.01,0.05,0,0.12,0.09,0.12C147.72,26.8,149.26,26.81,149.27,26.83z"/>
				</g>
				<g>
					<path class="st12" d="M166.25,20.94c-0.71,0-1.25,0-2.03,0c-0.8,0-1.62,0-2.39,0c-0.13,0-0.25,0-0.38,0
						c-1.04,0-1.66,0.67-1.86,1.98c-0.01,0.06-1.03,5.41-1.28,6.75c0,0.02-0.02,0.13,0.12,0.13h1.39c0.09,0,0.17-0.06,0.18-0.15
						l0.43-2.38c0.05-0.38,0.18-0.4,0.53-0.4c0.46-0.01,1.13,0,1.59,0l0.05,0c0.37,0,0.65,0,1.04,0c1.94-0.02,2.13-1.19,2.31-2.32
						l0.62-3.24C166.59,21.27,166.6,20.94,166.25,20.94z M163.94,25.11c-0.14,0.2-0.33,0.31-0.57,0.34l-0.12,0.01
						c-0.07-0.01-0.26-0.02-0.57-0.02c-0.33-0.01-0.82-0.01-1.5-0.04l-0.27-0.01c0,0-0.13,0-0.09-0.15c0,0,0.37-1.66,0.56-2.61
						c0.01-0.14,0.02-0.28,0.19-0.27l2.63,0c0.39,0,0.45,0.09,0.39,0.38c0,0.02-0.05,0.33-0.05,0.34
						C164.52,23.09,164.21,24.74,163.94,25.11z"/>
					<path class="st12" d="M174.6,20.93h-5.34c-0.22,0-0.41,0.16-0.45,0.38l-1.6,8.4c0,0.03,0.01,0.05,0.01,0.06
						c0.01,0.01,0.02,0.02,0.05,0.02h5.34c0.22,0,0.42-0.16,0.46-0.38l0.15-0.81c0-0.03-0.01-0.05-0.01-0.06s-0.02-0.02-0.05-0.02
						h-3.77c-0.08,0-0.16-0.04-0.21-0.1c-0.05-0.06-0.07-0.15-0.06-0.23l0.34-1.78c0.06-0.32,0.34-0.54,0.66-0.54h2.93
						c0.22,0,0.41-0.16,0.45-0.38l0.15-0.82c0.01-0.03-0.01-0.05-0.01-0.06c-0.01-0.01-0.02-0.02-0.05-0.02h-3.46
						c-0.08,0-0.16-0.04-0.21-0.1c-0.05-0.06-0.07-0.15-0.06-0.23l0.29-1.5c0.06-0.32,0.34-0.55,0.66-0.55h3.25
						c0.22,0,0.41-0.16,0.45-0.37l0.16-0.82c0.01-0.03-0.01-0.05-0.01-0.06S174.63,20.93,174.6,20.93z"/>
					<path class="st12" d="M182.28,20.93c-0.08,0-0.11,0-0.17,0.09l-2.7,4.2c-0.05,0.08-0.14,0.12-0.23,0.11
						c-0.09-0.01-0.17-0.08-0.19-0.17l-1.16-4.08l-0.04-0.13c0-0.01-0.02-0.02-0.03-0.02h-1.48c-0.09,0-0.06,0.1-0.06,0.1l1.81,6.02
						c0,0.09,0.01,0.17,0.01,0.26l-0.42,2.23c-0.07,0.25,0.07,0.25,0.17,0.25h1.12c0.25,0,0.3-0.11,0.33-0.27l0.42-2.18
						c0.03-0.07,0.06-0.14,0.09-0.21l4.21-6.15c0.01-0.01,0.01-0.02,0-0.03c0-0.01-0.01-0.02-0.03-0.02H182.28z"/>
					<path class="st12" d="M208.38,28.51h-3.53c-0.1,0-0.18-0.04-0.24-0.12c-0.06-0.07-0.09-0.17-0.07-0.26l1.35-7.07
						c0.01-0.03,0-0.07-0.02-0.09c-0.02-0.03-0.05-0.04-0.08-0.04h-1.12c-0.21,0-0.39,0.15-0.43,0.36l-1.59,8.37
						c-0.01,0.04,0.01,0.08,0.02,0.09c0.02,0.03,0.05,0.04,0.08,0.04h5.16c0.21,0,0.4-0.15,0.43-0.36l0.15-0.79
						c0.01-0.03,0-0.06-0.02-0.09C208.44,28.53,208.41,28.51,208.38,28.51z"/>
					<path class="st12" d="M216.09,20.93h-3.15c-0.19,0-0.37,0.07-0.45,0.46l-1.53,7.96c-0.04,0.22,0.13,0.43,0.35,0.43h3.27
						c2.48,0,3.17-0.92,3.43-2.31l0.75-3.93c0.04-0.2,0.06-0.36,0.06-0.55C218.83,21.68,217.83,20.93,216.09,20.93z M217.14,23.65
						l-0.65,3.4c-0.18,0.95-0.53,1.46-1.88,1.46h-1.42c-0.11,0-0.21-0.05-0.28-0.13c-0.07-0.08-0.1-0.19-0.08-0.3l1.06-5.58
						c0.03-0.17,0.18-0.29,0.36-0.29h1.43c1.04,0,1.5,0.31,1.5,1.02C217.18,23.35,217.17,23.5,217.14,23.65z"/>
					<path class="st12" d="M191.07,20.94l-0.36,0c-1.22-0.01-2.31-0.01-3.36,0c-1.2,0.01-2.24,1.31-2.47,3.1
						c-0.24,1.16-0.85,4.19-0.87,4.35c-0.09,1.12,0.36,1.26,0.76,1.38l0.08,0.02c0.03,0.01,0.16,0.01,0.24,0.01l0.08,0
						c0.13,0,0.57,0,0.9,0l2.29,0c2.11,0,2.45-0.43,3.03-3.86l0-0.04c0-0.01,0-0.03,0-0.04c0.02-0.17,0.04-0.32,0.05-0.42
						c0-0.17-0.05-0.43-0.22-0.62c-0.14-0.16-0.34-0.24-0.59-0.24c-0.55,0-1.86,0.01-2.35,0c-0.03,0-0.07,0-0.09,0.13
						c0,0.02-0.03,0.17-0.07,0.37c-0.03,0.17-0.07,0.32-0.1,0.44c-0.01,0.06-0.03,0.11-0.04,0.15l-0.01,0.07
						c-0.01,0.06-0.02,0.1-0.03,0.15c0.24,0,1.53,0.02,1.68,0.02l0.18,0l-0.03,0.18c-0.01,0.05-0.11,0.5-0.17,0.81l-0.06,0.28
						c-0.11,0.5-0.24,1.13-1.21,1.13c-0.19,0-0.43,0-0.74,0.01l-1.11,0.02c-0.25,0.01-0.45,0.01-0.69,0.01l-0.18,0l0.02-0.17
						c0.04-0.38,0.36-1.89,0.9-4.25l0.02-0.11v0c0,0,0,0,0,0v0c0.17-0.94,0.73-1.63,1.33-1.63l0.29,0c1.27,0,2.11,0,3.5,0.01
						c0.06,0,0.08-0.01,0.09-0.03c0.04-0.04,0.05-0.15,0.05-0.25c0-0.36-0.08-0.62-0.23-0.78C191.5,21.01,191.32,20.94,191.07,20.94
						z"/>
					<path class="st12" d="M198.03,20.87c-2.33,0-3.46,0.78-3.79,2.6l-0.68,3.71c-0.04,0.18-0.05,0.36-0.05,0.57
						c0,1.36,1.04,2.11,2.93,2.11c2.83,0,3.6-1.05,3.89-2.64l0.67-3.65c0.03-0.16,0.04-0.3,0.04-0.45
						C201.03,21.71,199.91,20.87,198.03,20.87z M199.47,23.6l0,0.01l-0.64,3.51c-0.19,1.01-0.86,1.48-2.12,1.48
						c-1.17,0-1.66-0.32-1.66-1.07c0-0.14,0.01-0.29,0.04-0.46l0.64-3.5c0.18-0.99,0.86-1.45,2.12-1.45c1.12,0,1.65,0.37,1.65,1.16
						C199.5,23.38,199.48,23.49,199.47,23.6z"/>
				</g>
			</g>
		</g>
	</g>
</g>
</svg>
