<svg xmlns="http://www.w3.org/2000/svg" xmlns:xlink="http://www.w3.org/1999/xlink" width="83.689" height="19" viewBox="0 0 83.689 19">
  <defs>
    <rect id="rect-1" width="83.689" height="19" x="0" y="0"/>
    <mask id="mask-2" maskContentUnits="userSpaceOnUse" maskUnits="userSpaceOnUse">
      <rect width="83.689" height="19" x="0" y="0" fill="black"/>
      <use fill="white" xlink:href="#rect-1"/>
    </mask>
    <linearGradient id="linearGradient-13" x1="3.951" x2="22.523" y1="1.9" y2="16.53" gradientUnits="userSpaceOnUse">
      <stop offset="0" stop-color="rgb(0,184,255)"/>
      <stop offset=".38" stop-color="rgb(0,217,197)"/>
      <stop offset=".77" stop-color="rgb(0,244,149)"/>
      <stop offset="1" stop-color="rgb(0,255,131)"/>
    </linearGradient>
  </defs>
  <g>
    <use fill="none" xlink:href="#rect-1"/>
    <g mask="url(#mask-2)">
      <g>
        <path fill="rgb(79,79,79)" fill-rule="evenodd" d="M24.70780419 7.35195822c-.05949706-.09260226-.11238333-.21827676-.1619642-.3770235-.04958088-.15874673-.07602402-.32741514-.07602402-.502698 0-.32741514.07271862-.56222802.22146126-.70443863.14874263-.14221062.33714997-.21496954.57183279-.21496954h5.47703432c.05949705.09260226.11238332.21827676.1619642.3770235.04958088.15874673.07602401.32741514.07602401.502698 0 .32741514-.07271862.56222802-.22146125.70443864-.14543724.14221061-.33714997.21496953-.5718328.21496953h-1.39487536V13.159443c-.09255097.0264578-.23798822.04960836-.43300634.07606615-.19501812.02645779-.39003624.03637946-.58505436.03637946-.19171272 0-.3635931-.0132289-.50903034-.0429939-.14543725-.02976502-.27104214-.0826806-.3702039-.15543952-.09916175-.07606615-.17518576-.17859008-.22476664-.31418625-.04958088-.13559617-.07602401-.31087903-.07602401-.52915579V7.35195822h-1.88407336z"/>
        <path fill="rgb(79,79,79)" fill-rule="evenodd" d="M32.08544125 4.60034934c-.21484846.21827797-.32062342.48616228-.32062342.80366302 0 .31749065.10577496.58537496.32062342.80365293.21153983.21827798.49580878.32741192.8461795.32741192.35367936 0 .63463968-.10913394.84948814-.32741192.21484845-.21827797.32062341-.48616228.32062341-.80365293 0-.31750074-.10577496-.58538505-.32062341-.80366302-.21484846-.21827797-.4991174-.32741191-.84948813-.32741191s-.63133106.10913394-.84617951.32741191zm1.50725788 8.66493006c.18179252-.0297638.3173148-.05291679.40986536-.06944887h-.00329853V8.0795551c0-.2083567-.0297574-.3803287-.0826348-.50931527-.05288748-.12898657-.13222374-.2315097-.23138146-.30756938-.09915772-.07606978-.22476423-.12567611-.37020227-.15213955-.14543805-.0231429-.31070765-.03637462-.49580878-.03637462-.18180261 0-.36690375.01323172-.54538764.04299552-.17849399.0297638-.31401627.0529168-.40656684.06944887v5.11627543c0 .2083567.0264387.3803287.0826348.50931527.05288748.12897648.13221366.2314996.23138147.30756938.09915772.07606978.22476422.12567612.37020227.15212946.14543805.023153.31070764.03638471.49580878.03638471.18179252 0 .36689366-.01323172.54538764-.04299552z"/>
        <path fill="rgb(79,79,79)" fill-rule="evenodd" d="M37.21209717 13.19913089c.42308976.13889774.87923545.20834661 1.37504423.20834661.2908761 0 .60489236-.0231429.94864585-.07274923.33715642-.04961643.6379382-.14551865.90568423-.28773694.35366926-.18520371.52885463-.46631975.52885463-.843338 0-.16536118-.04627024-.32411155-.13882081-.47624101-.09255057-.1488291-.20493269-.26788431-.34045496-.3505649-.19171838.11575484-.43962277.21827797-.7470218.30756938-.30739901.0893015-.63133105.13228692-.97509463.13228692-.36689365 0-.69412422-.06944887-.97839316-.20834661-.28425886-.13890784-.47266862-.34395409-.56521919-.62175967l3.10375772-.46631974c.28426894-.03968507.50572455-.13559739.66438699-.28772685.15866244-.15213955.23798862-.37040744.23798862-.65483392 0-.38693952-.07602765-.74081487-.2214556-1.06823688-.14543806-.32741191-.35038083-.60852794-.61480814-.843338-.26442731-.23481005-.57844358-.41671341-.9420387-.5523108-.36359512-.13558728-.77015187-.2017358-1.21307316-.2017358-.39665106 0-.78007773.05952761-1.15688716.18189327-.37681951.12237576-.71066732.31087984-1.00484195.56554252-.29418472.25465259-.53217333.5820645-.71065723.97893538-.1818026.39687088-.27104456.8731018-.27104456 1.4254126 0 .56223206.08924195 1.0516947.27104456 1.47171857.1784839.41670332.42638829.76396786.74040455 1.04177343.31401626.27780558.68090992.48285183 1.10399967.62175967zm.4991174-4.63012324c.14874667-.06613841.32062341-.09921267.52225756-.09921267.31070765 0 .54538764.0826806.70074146.25135223.16196098.16866154.25121301.33402273.27765171.50269437l-2.14850471.3505649c.00991577-.13559738.03635447-.26788431.0826348-.39686079.04628032-.12898657.11569073-.24474141.2082413-.350575.09255057-.10582348.21153983-.19181452.35697788-.25796304z"/>
        <path fill="rgb(79,79,79)" fill-rule="evenodd" d="M46.12343807 9.33629243c0-.26127067-.07271862-.44978242-.22146125-.5721497-.14543724-.12236727-.34376075-.1818973-.59827593-.1818973-.16857498 0-.33384458.01984334-.49580878.06283725-.1619642.0429939-.30409605.10583116-.41978476.18851175v4.36222802c-.0826348.0264578-.21485048.04960836-.39664703.07606615-.18179655.02645779-.3668985.03637946-.55861122.03637946-.18510195 0-.35037154-.0132289-.49580878-.03637946-.14543724-.02315057-.27104214-.07606615-.3702039-.15213229-.09916175-.07606614-.17849115-.17859008-.23137742-.3075718-.05619166-.12898172-.0826348-.30095736-.0826348-.50931245V8.53263708c0-.22489121.04958088-.41009574.14543724-.55230636.09585637-.14221062.22807204-.27119234.39664703-.3902524.2842637-.20174064.64124602-.3637946 1.07425235-.4894691.42970095-.1256745.90898277-.18851174 1.43784546-.18851174.94534208 0 1.67583368.20835509 2.18486403.62175805.50903034.41340296.7668509.9921671.7668509 1.72637075v3.93559617c-.08263479.0264578-.21485046.04960836-.39664701.07606615-.17849117.02645779-.3668985.03637946-.55861123.03637946-.18510194 0-.35037154-.0132289-.49580878-.03637946-.14543724-.02315057-.27104213-.07606615-.37020389-.15213229-.09916175-.07606614-.17849116-.17859008-.23137743-.3075718-.05619166-.12898172-.0826348-.30095736-.0826348-.50931245V9.33629243z"/>
        <path fill="rgb(79,79,79)" fill-rule="evenodd" d="M49.56435504 8.7145364c-.16857821.40679214-.251213.88633352-.251213 1.43864431 0 .50269437.07602764.95248204.22807284 1.34934282.15535382.40018133.38011804.73751451.6776013 1.02524136.29749333.28772684.66107837.50600482 1.0940839.65483392.43300552.148819.91889853.22488879 1.46429626.22488879.50241593 0 .94864585-.06283806 1.33207251-.18189327.38342667-.1190653.69743285-.2612735.94202862-.42002387.36690374-.23481005.55200488-.54900034.55200488-.94256076V5.90670673c0-.2083567-.0264387-.3803287-.07602765-.50931527-.04957886-.12898657-.12559642-.2315097-.22476422-.30756938-.09915773-.07606978-.22476423-.12567612-.37020228-.15213956-.14543805-.0231429-.31070764-.03637461-.49580878-.03637461-.19170829 0-.38011805.01323172-.56521918.04299552-.18510114.0297638-.32062342.05621715-.40325821.08268059v2.03394054c-.10246635-.03968507-.23138147-.07606978-.39003382-.10583358-.15866244-.0297638-.32062342-.04299552-.48920163-.04299552-.45945431 0-.88915122.0661485-1.28580228.19513508-.39664097.12897647-.74371317.32741191-1.04119642.59529622-.29748325.26788431-.52886471.6052175-.69743284 1.01200964zm2.27411122.25796304c.24128715-.2612634.58835935-.39024997 1.04119642-.39024997.23468 0 .43631414.04960633.60488227.15212946v2.76484424c-.0694104.05621715-.16196097.10913394-.28425886.15543992-.11899935.04629588-.25451154.06944887-.40656683.06944887-.42638829 0-.75362894-.13228693-.97839317-.39687088-.22807284-.26457386-.34045496-.65482383-.34045496-1.17406037 0-.52584735.12229789-.91940777.36359513-1.18068127z"/>
        <path fill="rgb(79,79,79)" fill-rule="evenodd" d="M60.68368803 7.0510033c-.37020228-.09260187-.78337626-.13890784-1.23621333-.13890784-.2908761 0-.60489236.01984253-.93212293.0595276-.33053919.04299552-.61810666.10914403-.8594039.2017459-.21815707.09260185-.37680943.20504625-.48258439.33402272-.10577496.13229702-.15866244.30426902-.15866244.522547 0 .16536118.03636456.3274119.11238211.48285182.07602765.15212947.16857822.26788431.2776517.3439541.24129725-.09922277.51565042-.18520373.8164322-.25135224.30079187-.06613841.61149952-.09921267.92881431-.09921267.39995968 0 .7073587.04960634.92220715.15543992.21484846.10582348.32062342.28111603.32062342.5225369v.0893015l-1.6460787.17528245c-.72058309.07605968-1.25274633.2678843-1.59650991.57876414-.34376358.31086974-.51564033.7540466-.51564033 1.33281073 0 .343944.0694104.64821302.2082413.90617606.13882081.2612735.33714634.47293056.59166797.6416022.25451154.16866155.55860195.29433766.91558992.37701825.35697788.0826806.75693756.12567612 1.19985886.12567612.98830894 0 1.75185365-.16205073 2.2972413-.48946265.1685782-.09922276.31070763-.21827797.43300552-.3571858.12230797-.13889775.1818026-.31749065.1818026-.53576863V9.21392031c0-.39356043-.07271902-.73420406-.21484845-1.02524136-.14213952-.2910272-.34376358-.52914771-.6081909-.71766188-.2644374-.18851418-.58175219-.32741192-.95526308-.42001378zm-.66107838 4.75577916c-.17188683.0297638-.33053918.04299552-.4726787.04299552-.31069755 0-.53216325-.0529168-.65776975-.15212946-.12890504-.10583358-.19501691-.24143097-.19501691-.4101026 0-.16866155.07271902-.2910272.22476422-.37701825.1520553-.08599105.34376358-.13559739.57844358-.15212947l.90568423-.07606977v1.00539882c-.0826348.04960633-.21154992.0892914-.38342667.1190552z"/>
        <path fill="rgb(79,79,79)" fill-rule="evenodd" d="M65.69797192 13.23220514c.19501691-.02646344.34045496-.04961642.43300553-.07606977v-2.31836703h.89245984c.50903317 0 .95856162-.06613842 1.34859544-.19512498.39003382-.12897648.71396585-.3141802.96848748-.5523007.25451155-.23812051.44952846-.522547.57844358-.85326936.12890504-.33072237.1950169-.7011298.1950169-1.11122231 0-.84664846-.30410048-1.5147141-.9156-2.01079765-.6114995-.4927731-1.49403348-.74081487-2.65092064-.74081487-.37020227 0-.73710601.02315299-1.10070114.06944887-.36358503.04630598-.68751707.12236566-.97177592.22158843-.16857822.05621715-.30079187.13559738-.39665106.2314996-.09915772.09922276-.14543805.23482015-.14543805.4101026v5.91992835c0 .21827798.0264387.39356043.07602764.5291578.04957886.13559739.12559642.23812052.22476423.3141802.09915772.07275933.22476422.12567612.37020227.15543992.14543805.0297638.31401627.04299552.50903317.04299552.19501691 0 .3867252-.00992127.58505073-.03637462zm1.8972917-4.35561801c-.18839966.16205073-.45944422.24473132-.80981495.24473132h-.664387V7.17335886c.09255058-.01653208.18179253-.02645335.27104456-.0297638.08924195-.00330036.19832553-.00661082.33383772-.00661082.37681952 0 .664387.08599105.8594039.25796305.19501691.171972.29418472.41671341.29418472.73420406 0 .33403282-.09585919.58537495-.28426894.74743578z"/>
        <path fill="rgb(79,79,79)" fill-rule="evenodd" d="M72.7318454 13.19913089c.42308976.13889774.87923545.20834661 1.37504423.20834661.29418472 0 .6081909-.0231429.94864585-.07274923.33715643-.04961643.63793821-.14551865.90568423-.28773694.35366927-.18520371.52885463-.46631975.52885463-.843338 0-.16536118-.04627024-.32411155-.1388208-.47624101-.09255058-.1488291-.20493269-.26788431-.34045497-.3505649-.19171837.11575484-.43962276.21827797-.74702178.30756938-.30739903.0893015-.63133106.13228692-.97509464.13228692-.36689365 0-.69412422-.06944887-.97839317-.20834661-.28425886-.13890784-.47266861-.34395409-.56521918-.62175967l3.10375771-.46631974c.28426895-.03968507.50572456-.13559739.664387-.28772685.15866244-.15213955.23798861-.37040744.23798861-.65483392 0-.38693952-.07602764-.74081487-.2214556-1.06823688-.14543805-.32741191-.35038082-.60852794-.61480813-.843338-.26442732-.23481005-.57844358-.41671341-.9420387-.5523108-.36359512-.13558728-.77015187-.2017358-1.21307317-.2017358-.39665106 0-.78007772.05952761-1.15688715.18189327-.37681951.12237576-.71066732.31087984-1.00484195.56554252-.29418472.25465259-.53217334.5820645-.71065723.97893538-.18180261.39687088-.27104456.8731018-.27104456 1.4254126 0 .56223206.08924195 1.0516947.27104456 1.47171857.1784839.41670332.42638828.76396786.74040454 1.04177343.31401627.27780558.68090992.48285183 1.10399968.62175967zm.49910732-4.63012324c.14874667-.06613841.32062341-.09921267.52225756-.09921267.31070764 0 .54538764.0826806.70074146.25135223.16196098.16866154.25121301.33402273.27765171.50269437l-2.14850471.3505649c.00991577-.13559738.03635447-.26788431.0826348-.39686079.04628032-.12898657.11569073-.24474141.2082413-.350575.09255057-.10582348.21153983-.19181452.35697788-.25796304z"/>
        <path fill="rgb(79,79,79)" fill-rule="evenodd" d="M78.67824255 11.64804178c-.09255098-.2083551-.19171273-.44316798-.29417988-.70443865-.10577254-.26127067-.21485047-.55561357-.3272338-.89295039-.11238332-.33402959-.23137742-.71766754-.35037153-1.15091384-.1222995-.42993907-.2479044-.92602262-.38342546-1.48825065.11568872-.11575283.27434753-.22158399.46936565-.3075718.19501812-.08929504.41317398-.13228895.6478568-.13228895.29417988 0 .53547348.05953003.72718621.1818973.19171273.12236728.33384458.35056571.42639555.6845953l.99161756 3.45604874h.04958088c.09916176-.28442123.19832351-.59530026.29417988-.92932985.09585636-.3340296.19171272-.68128808.2842637-1.03846823.09255097-.35718016.17849116-.7110531.25782056-1.06823325.0793294-.35718016.14874264-.70443864.20823969-1.0483899.30079066-.15874674.63132985-.2381201.99161756-.2381201.29417987 0 .53547348.06283724.7271862.18851174.19171274.1256745.2875691.34395126.2875691.65483029 0 .2248912-.02974853.4894691-.08924558.78711923-.05949705.29765013-.13552107.6151436-.23137743.9491732-.09585636.33402959-.20823969.68128807-.34045536 1.03846823-.12891028.35718016-.26443135.70443864-.4065632 1.0483899-.14213185.34395127-.2875691.66805919-.43961712.97232376-.15204802.3075718-.29748527.57876415-.43961712.8234987-.23468282.41009573-.45283868.74412533-.65446759 1.005396-.2016289.26127067-.39334163.4630113-.57844357.60852915-.18510195.14551784-.3702039.24804178-.55200044.30095736-.18510195.0562228-.37681468.08268059-.57844358.08268059-.35037154 0-.63794063-.10583116-.8527911-.31418625-.21815586-.2083551-.34706615-.48285466-.39003624-.81688425.26773674-.20835509.53547348-.44316797.80321022-.6978242.26773674-.25465622.50903035-.51592689.72718621-.78711923-.14213185-.0429939-.29417987-.1389034-.45944947-.2943429-.16526959-.15543952-.33384458-.44316798-.5255573-.87310705z"/>
      </g>
      <path fill="url(#linearGradient-13)" fill-rule="evenodd" d="M7.71147982 3.00295465c.01983155.11575485.11899431.19843544.23468.19843544v-.00330036h8.47502454c.82965659 0 1.53701024.59529623 1.67913967 1.40887042l.48919659 2.77806587.06611187.37371789.96187024 5.33125304h.00660715l.10907854.61844921c.1652696.94586113-.5619156 1.81235211-1.52047723 1.81235211h-5.25887967c-.13552227 0-.251213-.09921267-.27434813-.2314996l-.3272356-1.86857935c-.02974732-.1719821.09916276-.32742201.27434812-.32742201h1.92373545c1.17342016 0 2.06586991-1.05830552 1.86754942-2.2158338l-.50902812-2.96327968c-.02975236-.18520372-.07933122-.35717572-.14543805-.52584736-.40325821-1.04177343-1.40810016-1.75613496-2.55837512-1.75613496h-2.6443135c-1.24613414 0-2.1881678 1.12445403-1.97331934 2.35144128l.899067 5.10635416h.03966308l.23138147 1.32288947.1950169 1.10791185H7.25533414c-.13552227 0-.25120796-.09921267-.27434813-.2314996l-.66107837-3.76362215h-.01652797L4.7564587 2.7383808c-.01983154-.11575485-.1189943-.19843544-.23468504-.19843544H.64124683c-.13552228 0-.25121301-.09590222-.27434813-.22819924L.00330358.33072237C-.02644374.15875037.10576992 0 .28095528 0h6.65375544c.13552228 0 .25120797.09591231.27434813.22819924l.41978618 2.31174612.0826348.4630093zm3.76484114 5.38415974l.39664601 2.28529277v.00331045h.79329708c.41978113 0 .74040454-.10252312.96517381-.30756938.22476423-.20504625.33714634-.51923654.33714634-.9392503 0-.40018134-.1189943-.70775072-.3536743-.92271824-.22476927-.2083567-.54869626-.31419029-.97178602-.3208011h-.05288748c-.1586574 0-.29087105.00331045-.39664601.00661081-.10576992.00662091-.21154488.01984254-.32062342.03969517-.15535382.01984253-.39664601.15542982-.39664601.15542982zm-3.76814471 9.46528263c0-.63499139.4925052-1.14760702 1.1006961-1.14760702.60819089-.00331045 1.1006961.51261563 1.1006961 1.14760702 0 .6349813-.49250521 1.14760702-1.1006961 1.14760702-.6081909 0-1.1006961-.51262573-1.1006961-1.14760702zm8.82539527 0c0-.63499139.4925052-1.14760702 1.1006961-1.14760702.60819089-.00331045 1.10069609.51261563 1.10069609 1.14760702 0 .6349813-.4925052 1.14760702-1.1006961 1.14760702-.60819089 0-1.1006961-.51262573-1.1006961-1.14760702z"/>
    </g>
  </g>
</svg>
