<svg xmlns="http://www.w3.org/2000/svg" xmlns:xlink="http://www.w3.org/1999/xlink" width="27" height="10.76" viewBox="0 0 27 10.76">
  <defs>
    <rect id="rect-1" width="27" height="10.76" x="0" y="0"/>
    <mask id="mask-2" maskContentUnits="userSpaceOnUse" maskUnits="userSpaceOnUse">
      <rect width="27" height="10.76" x="0" y="0" fill="black"/>
      <use fill="white" xlink:href="#rect-1"/>
    </mask>
  </defs>
  <g>
    <use fill="none" xlink:href="#rect-1"/>
    <g mask="url(#mask-2)">
      <path fill="rgb(0,0,0)" fill-rule="evenodd" d="M21.84431644.07094676c1.88805713-.30045593 3.3958266.3564444 4.46287833 1.92796158 1.10201302 1.62280398.8611516 3.91874906-.5240294 5.3167452-1.52374049 1.53689957-3.75884967 1.78692366-5.57654688.62698341-.06819954-.04402124-.1601422-.08163187-.23784214-.07607558-.9962571.07009278-1.92172615.3453315-2.70820102.97958113-.53525154.43166404-.91079163.96462087-.98892102 1.66639774-.00949646.08419611-.0133812.1666823-.01381195.24788766h-1.57899354c0-.11753388-.0280573-.22822803-.07597165-.3273831-.05611458-.12907166-.15323688-.24019362-.28575518-.3226798-.12302185-.07650339-.25381316-.11240409-.38891997-.1077021-.00561172 0-.01079137-.00085562-.01597233-.00085562-.26460321 0-.49769779.13291933-.63539574.334648-.00517964.0051285-.00992721.00940267-.01510686.01453115.00172567.00085432.00302058.00128212.00474757.00213644-.07597164.11753257-.12043202.25729031-.12043202.40730503h-1.50302058c.00431549-.00341986.00820154-.00641191.01251703-.00983047C7.75079126 7.7122738 3.87625912 4.69831078 0 1.68221166c.02417256-.02350665.03323727-.04017488.0423023-.04017488.91942427.01495863 1.84057519.00085497 2.75740996.05855238.67812978.04273912 1.2915107.32951888 1.84446024.7197269 3.03194335 2.1395204 6.06215838 4.28117658 9.08892076 6.42796288.1489214.10556567.2399999.1072756.38503655-.00641061 1.3631649-1.07018785 2.73107867-2.1348194 4.10374133-3.19304034.1411506-.10898423.16575523-.20215486.12690526-.3709749-.54388384-2.3741574 1.01525132-4.81285162 3.49554004-5.20690633zm.7126623 6.95194487c1.47323761.04658548 2.74532532-1.14070713 2.7863304-2.62674607.0414398-1.50398962-1.19266208-2.76436607-2.68532205-2.76607568-1.61309332-.02136956-2.68014505 1.27405296-2.75827444 2.4506608-.11309331 1.69973452 1.18446054 2.89600197 2.65726608 2.94216095z"/>
    </g>
  </g>
</svg>
