<svg id="Capa_1" data-name="Capa 1" xmlns="http://www.w3.org/2000/svg" viewBox="0 0 72.65 47"><defs><style>.cls-1{fill:#fff;}.cls-2{opacity:0.65;}.cls-3{fill:#3675bb;}</style></defs><title>Iconos</title><path class="cls-1" d="M72.63,35.31,61,24a.77.77,0,0,0-1.3.53v5.16a.72.72,0,0,1-.72.7H56.11a20.23,20.23,0,0,0,0-13.7H65a2.39,2.39,0,0,0,2.4-2.4V9A2.39,2.39,0,0,0,65,6.6H48.18A20.22,20.22,0,0,0,26,6.6H13.36a.7.7,0,0,1-.71-.7V.75A.74.74,0,0,0,11.38.22L0,11.58a0,0,0,0,0,0,.08L11.4,23.05a.73.73,0,0,0,1.25-.52V17.34a.71.71,0,0,1,.71-.7H18a20.23,20.23,0,0,0,0,13.7h-12a2.41,2.41,0,0,0-2.44,2.39V38a2.44,2.44,0,0,0,2.46,2.41H25.92a20.21,20.21,0,0,0,22.29,0H59a.71.71,0,0,1,.72.7v5.18a.75.75,0,0,0,1.28.52L72.63,35.4A.06.06,0,0,0,72.63,35.31Z"/><g class="cls-2"><path class="cls-3" d="M59.69,29.64V24.48A.77.77,0,0,1,61,24L72.63,35.31a.06.06,0,0,1,0,.09L61,46.78a.75.75,0,0,1-1.28-.52V41.08a.71.71,0,0,0-.72-.7H6.08A2.44,2.44,0,0,1,3.62,38V32.73a2.41,2.41,0,0,1,2.44-2.39H59A.72.72,0,0,0,59.69,29.64Z"/><path class="cls-3" d="M12.65,5.9V.75A.74.74,0,0,0,11.38.22L0,11.58a0,0,0,0,0,0,.08L11.4,23.05a.73.73,0,0,0,1.25-.52V17.34a.71.71,0,0,1,.71-.7H65a2.39,2.39,0,0,0,2.4-2.4V9A2.39,2.39,0,0,0,65,6.6H13.36A.7.7,0,0,1,12.65,5.9Z"/></g><path class="cls-1" d="M37.06,42.6A19.1,19.1,0,1,1,56.17,23.5,19.12,19.12,0,0,1,37.06,42.6Z"/><path class="cls-3" d="M37.06,5.53a18,18,0,1,1-18,18,18,18,0,0,1,18-18m0-2.26A20.23,20.23,0,1,0,57.3,23.5,20.25,20.25,0,0,0,37.06,3.27Z"/><path class="cls-3" d="M38.17,33.81v2.45h-2V33.78c-3.38-.33-6.14-2.36-6.14-6.53h4.5a1.88,1.88,0,0,0,1.64,2.09V25.48c-2.68-.93-5.78-2.2-5.78-6.22,0-3.58,2.65-5.55,5.78-5.86V10.92h2V13.4a6.15,6.15,0,0,1,5.77,6.53H39.55a1.9,1.9,0,0,0-1.38-2.08v3.91c2.73.93,6,2.06,6,6.17C44.22,31.56,41.43,33.5,38.17,33.81ZM36.2,21v-3.1a1.47,1.47,0,0,0-1.27,1.41A1.93,1.93,0,0,0,36.2,21Zm3.51,7c0-.79-.61-1.3-1.54-1.72v3.15C39.24,29.17,39.71,28.58,39.71,27.93Z"/></svg>