<?xml version="1.0" encoding="utf-8"?>
<!-- Generator: Adobe Illustrator 24.0.0, SVG Export Plug-In . SVG Version: 6.00 Build 0)  -->
<svg version="1.1" id="Layer_1" xmlns="http://www.w3.org/2000/svg" xmlns:xlink="http://www.w3.org/1999/xlink" x="0px" y="0px"
	 viewBox="0 0 56 55" style="enable-background:new 0 0 56 55;" xml:space="preserve">
<style type="text/css">
	.st0{opacity:0.51;fill:#6C96BC;}
	.st1{fill:#6C96BC;}
	.st2{opacity:0.72;fill:#3675BB;}
	.st3{fill:#3675BB;}
</style>
<g>
	<g>
		<g>
			<g>
				
					<ellipse transform="matrix(0.7071 -0.7071 0.7071 0.7071 -11.5228 27.9689)" class="st0" cx="28" cy="27.9" rx="22.7" ry="22.7"/>
				<path class="st1" d="M28.1,1.2C13.3,1.2,1.3,13.1,1.3,27.8c0,14.7,11.9,26.7,26.6,26.8c14.7,0,26.7-11.9,26.8-26.6
					C54.7,13.2,42.8,1.2,28.1,1.2z M27.9,50.6c-12.5,0-22.7-10.2-22.6-22.7S15.5,5.2,28.1,5.2c12.5,0,22.7,10.2,22.6,22.7
					C50.7,40.5,40.5,50.6,27.9,50.6z"/>
				<path class="st2" d="M28.1,1.2C13.3,1.2,1.3,13.1,1.3,27.8c0,14.7,11.9,26.7,26.6,26.8c14.7,0,26.7-11.9,26.8-26.6
					C54.7,13.2,42.8,1.2,28.1,1.2z M27.9,50.6c-12.5,0-22.7-10.2-22.6-22.7S15.5,5.2,28.1,5.2c12.5,0,22.7,10.2,22.6,22.7
					C50.7,40.5,40.5,50.6,27.9,50.6z"/>
			</g>
		</g>
	</g>
	<g>
		<path class="st3" d="M39.3,32.5L39,32.3c-0.8-1-2.1-2.4-2.1-6.5c0-4-2.5-7.3-6.2-8.3l0-0.6c0-0.1,0-0.2,0-0.3
			c-0.3-1.2-1.4-2-2.6-2H28c0,0,0,0,0,0c-1.2,0-2.3,0.9-2.6,2c0,0.1,0,0.2,0,0.3l0,0.6c-3.7,1-6.2,4.3-6.2,8.3
			c0,4.1-1.3,5.6-2.1,6.5l-0.2,0.2c-0.4,0.4-0.7,1-0.7,1.7c0,0.6,0.3,1.3,0.7,1.7s1.1,0.8,1.7,0.8l18.9,0c0,0,0,0,0,0
			c1.3,0,2.5-1.2,2.5-2.5C39.9,33.6,39.7,32.9,39.3,32.5z M34.4,25.6C34.4,25.6,34.4,25.6,34.4,25.6L34.4,25.6
			C34.4,25.6,34.4,25.7,34.4,25.6c0,0.1,0,0.1,0,0.1c0,5.1,1.7,7,2.7,8.2l0.1,0.2l-18.5,0l0.2-0.2c1-1.2,2.8-3.1,2.8-8.2
			c0,0,0,0,0-0.1c0-0.2,0-0.5,0.1-0.7c0.2-1.6,1-3,2.2-4c1.1-1,2.6-1.5,4.1-1.5c0,0,0,0,0,0c1.5,0,2.9,0.5,4,1.4
			c1.3,1,2.1,2.5,2.3,4.2C34.3,25.2,34.4,25.4,34.4,25.6z"/>
		<path class="st3" d="M24,38.1c0.4,1.8,2.1,3.1,4,3.1c0,0,0,0,0,0c1.9,0,3.5-1.3,4-3.1l0-0.2l-8,0L24,38.1z"/>
	</g>
</g>
</svg>
