<svg id="Layer_1" data-name="Layer 1" xmlns="http://www.w3.org/2000/svg" viewBox="0 0 53.37 53.37"><defs><style>.cls-1,.cls-2{fill:#6c96bc;}.cls-1{opacity:0.51;}.cls-3,.cls-4{fill:#3675bb;}.cls-3{opacity:0.72;}</style></defs><title>bienvenido</title><circle class="cls-1" cx="28" cy="27.89" r="22.69" transform="translate(-12.84 26.76) rotate(-45)"/><path class="cls-2" d="M28,1.21A26.69,26.69,0,1,0,54.69,27.89,26.69,26.69,0,0,0,28,1.21Zm0,49.37A22.69,22.69,0,1,1,50.69,27.89,22.72,22.72,0,0,1,28,50.58Z" transform="translate(-1.31 -1.21)"/><path class="cls-3" d="M28,1.21A26.69,26.69,0,1,0,54.69,27.89,26.69,26.69,0,0,0,28,1.21Zm0,49.37A22.69,22.69,0,1,1,50.69,27.89,22.72,22.72,0,0,1,28,50.58Z" transform="translate(-1.31 -1.21)"/><path class="cls-4" d="M17.74,24.72C19,17,21,14.45,25.39,14.45h12c1.43,0,2.55.75,2.55,3.34,0,.75-.11,1.07-.58,1.07H25.77c-1.76,0-3.36,2.14-3.86,5.19,0,0-2.85,15.55-2.85,15.55-.09.78-.22.78-.59.79-1.22,0-4.13-.3-3.21-4.28Zm18.75.43-1.2,6.19c-.6,3.44-2.6,3.87-4.38,4.11a55.53,55.53,0,0,1-5.91.14c-.76,0-.9-.07-1.18.93l-.43,2c-.4,1.81,0,1.82,2.07,1.82H30c9.42,0,10-11.25,10.06-11.86,0-.08.12-1.31.17-1.84.14-1.39-.12-2.59-3-2.57-.36,0-.52.1-.69.91Zm-6.66,5.11c2.52,0,2.38-4.64,2.41-4.79h0a1.27,1.27,0,0,0-1-1.46H27c-.31,0-.41.23-.49.7,0,.19-.75,3.94-1,5.27,0,.09,0,.24.19.25C26.6,30.2,29.81,30.21,29.83,30.26Z" transform="translate(-1.31 -1.21)"/></svg>