<?xml version="1.0" encoding="utf-8"?>
<!-- Generator: Adobe Illustrator 24.1.1, SVG Export Plug-In . SVG Version: 6.00 Build 0)  -->
<svg version="1.1" id="Layer_1" xmlns="http://www.w3.org/2000/svg" xmlns:xlink="http://www.w3.org/1999/xlink" x="0px" y="0px"
	 viewBox="0 0 56 55" style="enable-background:new 0 0 56 55;" xml:space="preserve">
<style type="text/css">
	.st0{opacity:0.51;fill:#6C96BC;}
	.st1{fill:#6C96BC;}
	.st2{opacity:0.72;fill:#3675BB;}
	.st3{fill:#3675BB;}
	.st4{fill:#3675BB;stroke:#3675BB;stroke-miterlimit:10;}
	.st5{fill:#FFFFFF;}
	.st6{opacity:0.8;}
</style>
<g>
	<g>
		<g>
			<g>
				
					<ellipse transform="matrix(0.7071 -0.7071 0.7071 0.7071 -11.184 28.1277)" class="st0" cx="28.4" cy="27.6" rx="22.7" ry="22.7"/>
				<path class="st1" d="M28.4,0.9C13.6,0.9,1.7,12.8,1.7,27.6c0,14.7,11.9,26.7,26.7,26.7C43.1,54.3,55,42.3,55,27.6
					C55,12.8,43.1,0.9,28.4,0.9z M28.4,50.3c-12.5,0-22.7-10.2-22.7-22.7S15.9,4.9,28.4,4.9C40.9,4.9,51,15.1,51,27.6
					S40.9,50.3,28.4,50.3z"/>
				<path class="st2" d="M28.4,0.9C13.6,0.9,1.7,12.8,1.7,27.6c0,14.7,11.9,26.7,26.7,26.7C43.1,54.3,55,42.3,55,27.6
					C55,12.8,43.1,0.9,28.4,0.9z M28.4,50.3c-12.5,0-22.7-10.2-22.7-22.7S15.9,4.9,28.4,4.9C40.9,4.9,51,15.1,51,27.6
					S40.9,50.3,28.4,50.3z"/>
			</g>
		</g>
	</g>
	<g>
		<path class="st3" d="M41.2,16.5H15.6c-2.1,0-3.8,2.2-3.8,4.8v12.6c0,2.7,1.7,4.8,3.8,4.8h25.6c2.1,0,3.8-2.2,3.8-4.8V21.3
			C45,18.6,43.3,16.5,41.2,16.5z M41.2,36H15.6c-0.8,0-1.5-1-1.5-2.1V21.3c0-1.2,0.7-2.1,1.5-2.1h25.6c0.8,0,1.5,1,1.5,2.1v12.6
			C42.6,35,42,36,41.2,36z"/>
		<g>
			<g>
				<path class="st3" d="M19.4,31.7v0.9h-0.7v-0.9c-1.2-0.1-2.1-0.8-2.1-2.3h1.6c0,0.4,0.2,0.7,0.6,0.7v-1.4c-0.9-0.3-2-0.8-2-2.2
					c0-1.3,0.9-1.9,2-2.1v-0.9h0.7v0.9c1.1,0.1,2,0.8,2,2.3h-1.5c0-0.4-0.2-0.6-0.5-0.7v1.4c1,0.3,2.1,0.7,2.1,2.2
					C21.5,30.9,20.5,31.6,19.4,31.7z M18.7,27.2v-1.1c-0.3,0.1-0.4,0.3-0.4,0.5C18.2,26.9,18.4,27.1,18.7,27.2z M19.9,29.7
					c0-0.3-0.2-0.5-0.5-0.6v1.1C19.7,30.1,19.9,29.9,19.9,29.7z"/>
			</g>
			<g>
				<path class="st3" d="M24.9,27h14.5c0.5,0,0.8-0.5,0.8-1.1s-0.4-1.1-0.8-1.1H24.9c-0.5,0-0.8,0.5-0.8,1.1S24.4,27,24.9,27z"/>
				<path class="st3" d="M39.4,30.2H24.9c-0.5,0-0.8,0.5-0.8,1.1s0.4,1.1,0.8,1.1h14.5c0.5,0,0.8-0.5,0.8-1.1S39.8,30.2,39.4,30.2z"
					/>
			</g>
		</g>
	</g>
</g>
</svg>
