<svg id="Layer_1" data-name="Layer 1" xmlns="http://www.w3.org/2000/svg" viewBox="0 0 56 55"><defs><style>.cls-1,.cls-2{fill:#6c96bc;}.cls-1{opacity:0.51;}.cls-3,.cls-4{fill:#3675bb;}.cls-3{opacity:0.72;}</style></defs><circle class="cls-1" cx="27.49" cy="27.88" r="22.69" transform="translate(-11.66 27.61) rotate(-45)"/><path class="cls-2" d="M27.49,1.2A26.69,26.69,0,1,0,54.18,27.88,26.68,26.68,0,0,0,27.49,1.2Zm0,49.37A22.69,22.69,0,1,1,50.18,27.88,22.71,22.71,0,0,1,27.49,50.57Z"/><path class="cls-3" d="M27.49,1.2A26.69,26.69,0,1,0,54.18,27.88,26.68,26.68,0,0,0,27.49,1.2Zm0,49.37A22.69,22.69,0,1,1,50.18,27.88,22.71,22.71,0,0,1,27.49,50.57Z"/><path class="cls-4" d="M12.65,27.88a1.55,1.55,0,0,0-1.58,1.52v9.46a1.58,1.58,0,0,0,3.16,0V29.4A1.55,1.55,0,0,0,12.65,27.88Z"/><path class="cls-4" d="M45.19,27.34A3.9,3.9,0,0,0,42.26,26,5.24,5.24,0,0,0,39,27.28a25.29,25.29,0,0,1-4,2.55,3.84,3.84,0,0,0-.54-1.75A4,4,0,0,0,31.77,26,3.61,3.61,0,0,0,31,25.9a7.16,7.16,0,0,0-4.27,1.85,6.34,6.34,0,0,1-4,1.13,15.24,15.24,0,0,1-4.5-.75,1.6,1.6,0,0,0-.53-.09,1.55,1.55,0,0,0-1.55,1.55v9.2a1.57,1.57,0,0,0,1.45,1.55s4,.27,8.44.27c2.65,0,5-.1,6.89-.28,6.09-.57,9.93-5.19,11.57-7.16.26-.31.45-.55.57-.67A3.71,3.71,0,0,0,45.19,27.34ZM31.86,30.22c-.1.29-.56,1.06-2.76,2a1.57,1.57,0,0,0-.89,1.93,1.56,1.56,0,0,0,1.48,1.07,1.74,1.74,0,0,0,.39-.05A33.31,33.31,0,0,0,41,29.71a2.24,2.24,0,0,1,1.3-.57.79.79,0,0,1,.61.27c.12.13.38.58.07.89a10.78,10.78,0,0,0-.77.88c-1.52,1.82-4.66,5.6-9.47,6.06-1.83.17-4,.26-6.59.26-2.8,0-5.38-.11-6.79-.18v-5.7a17,17,0,0,0,3.46.38,9.39,9.39,0,0,0,5.91-1.8A4.29,4.29,0,0,1,31.05,29h.13c.19,0,.36.21.59.61A.65.65,0,0,1,31.86,30.22Z"/><path class="cls-4" d="M34.8,20.35a4.55,4.55,0,0,1-2.68,1.2v1.72H30.26V21.62a9.84,9.84,0,0,1-2.2-.4,6.18,6.18,0,0,1-1.71-.78l1-2.26A6.4,6.4,0,0,0,29,19a6.31,6.31,0,0,0,1.89.3c1.18,0,1.77-.3,1.77-.89a.73.73,0,0,0-.51-.69,10.41,10.41,0,0,0-1.62-.47,15.17,15.17,0,0,1-2-.56,3.44,3.44,0,0,1-1.41-1,2.64,2.64,0,0,1-.59-1.8,3.08,3.08,0,0,1,1-2.28,4.54,4.54,0,0,1,2.77-1.17V8.71h1.86v1.68a8.51,8.51,0,0,1,1.7.31,6.12,6.12,0,0,1,1.45.6l-1,2.28a6.27,6.27,0,0,0-3-.84A2.5,2.5,0,0,0,30,13a.82.82,0,0,0-.42.71.7.7,0,0,0,.49.65,10,10,0,0,0,1.6.45,14.55,14.55,0,0,1,2.05.56,3.55,3.55,0,0,1,1.41,1,2.57,2.57,0,0,1,.6,1.79A3.06,3.06,0,0,1,34.8,20.35Z"/></svg>