<svg id="Layer_1" data-name="Layer 1" xmlns="http://www.w3.org/2000/svg" viewBox="0 0 56 55"><defs><style>.cls-1,.cls-2{fill:#6c96bc;}.cls-1{opacity:0.51;}.cls-3,.cls-4{fill:#3675bb;}.cls-3{opacity:0.72;}</style></defs><circle class="cls-1" cx="27.89" cy="27.9" r="22.69" transform="translate(-11.56 27.89) rotate(-45)"/><path class="cls-2" d="M27.89,1.21A26.69,26.69,0,1,0,54.57,27.9,26.69,26.69,0,0,0,27.89,1.21Zm0,49.37A22.69,22.69,0,1,1,50.57,27.9,22.71,22.71,0,0,1,27.89,50.58Z"/><path class="cls-3" d="M27.89,1.21A26.69,26.69,0,1,0,54.57,27.9,26.69,26.69,0,0,0,27.89,1.21Zm0,49.37A22.69,22.69,0,1,1,50.57,27.9,22.71,22.71,0,0,1,27.89,50.58Z"/><path class="cls-4" d="M42.16,36.19H16.39c-.76,0-1.26-.69-1.26-1.74V18.09a1.52,1.52,0,0,0-3,0V34.45c0,2.72,1.85,4.77,4.29,4.77H42.16a1.52,1.52,0,1,0,0-3Z"/><path class="cls-4" d="M22,30.71l2.54-3.1,4.08,3.87a1.49,1.49,0,0,0,1,.41,1.56,1.56,0,0,0,1.05-.41l5.83-5.58h0l.89.93a1.22,1.22,0,0,0,.9.39,1.27,1.27,0,0,0,.47-.09A1.25,1.25,0,0,0,39.62,26V21.38a1.26,1.26,0,0,0-1.26-1.27H34a1.27,1.27,0,0,0-.91,2.14l1.4,1.46h0l-4.79,4.58-4.21-4a1.56,1.56,0,0,0-1.14-.42,1.53,1.53,0,0,0-1.08.56l-3.57,4.36A1.51,1.51,0,1,0,22,30.71Z"/></svg>