<?xml version="1.0" encoding="utf-8"?>
<!-- Generator: Adobe Illustrator 24.0.0, SVG Export Plug-In . SVG Version: 6.00 Build 0)  -->
<svg version="1.1" id="Layer_1" xmlns="http://www.w3.org/2000/svg" xmlns:xlink="http://www.w3.org/1999/xlink" x="0px" y="0px"
	 viewBox="0 0 56 55" style="enable-background:new 0 0 56 55;" xml:space="preserve">
<style type="text/css">
	.st0{opacity:0.51;fill:#6C96BC;}
	.st1{fill:#6C96BC;}
	.st2{opacity:0.72;fill:#3675BB;}
	.st3{fill:#3675BB;}
</style>
<g>
	<g>
		<g>
			
				<ellipse transform="matrix(0.7071 -0.7071 0.7071 0.7071 -11.5228 27.9689)" class="st0" cx="28" cy="27.9" rx="22.7" ry="22.7"/>
			<path class="st1" d="M28,1.2C13.3,1.2,1.3,13.2,1.3,27.9c0,14.7,11.9,26.7,26.7,26.7c14.7,0,26.7-11.9,26.7-26.7
				C54.7,13.2,42.7,1.2,28,1.2z M28,50.6c-12.5,0-22.7-10.2-22.7-22.7S15.5,5.2,28,5.2c12.5,0,22.7,10.2,22.7,22.7
				S40.5,50.6,28,50.6z"/>
			<path class="st2" d="M28,1.2C13.3,1.2,1.3,13.2,1.3,27.9c0,14.7,11.9,26.7,26.7,26.7c14.7,0,26.7-11.9,26.7-26.7
				C54.7,13.2,42.7,1.2,28,1.2z M28,50.6c-12.5,0-22.7-10.2-22.7-22.7S15.5,5.2,28,5.2c12.5,0,22.7,10.2,22.7,22.7
				S40.5,50.6,28,50.6z"/>
		</g>
	</g>
</g>
<g>
	<g>
		<circle class="st3" cx="28" cy="27.9" r="2.9"/>
	</g>
	<g>
		<path class="st3" d="M23.3,27.1l-2.4-2.3l-0.2-0.2c-0.2-0.1-0.3-0.1-0.5-0.1c-0.6,0-1,0.4-1,0.9l0,0.8h-3.7h-1.9h-0.3
			c-0.3,0-0.5,0.2-0.5,0.5v2c0,0.3,0.2,0.5,0.5,0.5h1h1.2h3.7l0,1.2c0.2,0.5,0.6,0.7,0.9,0.7c0.2,0,0.5-0.1,0.6-0.2c0,0,0,0,0,0
			l2.5-2.6C23.7,28,23.6,27.4,23.3,27.1z"/>
	</g>
	<path class="st3" d="M39.2,17.8H16.8c-2.2,0-4,2-4,4.5v0.8c0,0.2,0.2,0.4,0.4,0.4h1.6c0,0,0,0,0,0h0.8c1.2,0,2.2-1,2.2-2.2
		c0-0.3-0.1-0.6-0.2-0.8h20.7c-0.1,0.3-0.2,0.5-0.2,0.8c0,1.2,1,2.2,2.2,2.2c0.1,0,0.2,0,0.3,0v8.7c-0.1,0-0.2,0-0.3,0
		c-1.2,0-2.2,1-2.2,2.2c0,0.3,0.1,0.6,0.2,0.8H17.6c0.1-0.3,0.2-0.5,0.2-0.8c0-1.2-1-2.2-2.2-2.2h-1.2l0,0h-1.1
		c-0.2,0-0.4,0.2-0.4,0.4v0.8c0,2.5,1.8,4.5,4,4.5h22.4c2.2,0,4-2,4-4.5V22.3C43.2,19.8,41.4,17.8,39.2,17.8z"/>
</g>
</svg>
