<?xml version="1.0" encoding="utf-8"?>
<!-- Generator: Adobe Illustrator 24.0.0, SVG Export Plug-In . SVG Version: 6.00 Build 0)  -->
<svg version="1.1" id="Layer_1" xmlns="http://www.w3.org/2000/svg" xmlns:xlink="http://www.w3.org/1999/xlink" x="0px" y="0px"
	 viewBox="0 0 56 55" style="enable-background:new 0 0 56 55;" xml:space="preserve">
<style type="text/css">
	.st0{opacity:0.51;fill:#6C96BC;}
	.st1{fill:#6C96BC;}
	.st2{opacity:0.72;fill:#3675BB;}
	.st3{fill:#3675BB;}
</style>
<g>
	<g>
		<g>
			
				<ellipse transform="matrix(0.7071 -0.7071 0.7071 0.7071 -11.2354 27.8498)" class="st0" cx="28" cy="27.5" rx="22.7" ry="22.7"/>
			<path class="st1" d="M28,0.8C13.3,0.8,1.3,12.7,1.3,27.5c0,14.7,11.9,26.7,26.7,26.7c14.7,0,26.7-11.9,26.7-26.7
				C54.7,12.7,42.7,0.8,28,0.8z M28,50.2C15.5,50.2,5.3,40,5.3,27.5S15.5,4.8,28,4.8c12.5,0,22.7,10.2,22.7,22.7S40.5,50.2,28,50.2z
				"/>
			<path class="st2" d="M28,0.8C13.3,0.8,1.3,12.7,1.3,27.5c0,14.7,11.9,26.7,26.7,26.7c14.7,0,26.7-11.9,26.7-26.7
				C54.7,12.7,42.7,0.8,28,0.8z M28,50.2C15.5,50.2,5.3,40,5.3,27.5S15.5,4.8,28,4.8c12.5,0,22.7,10.2,22.7,22.7S40.5,50.2,28,50.2z
				"/>
		</g>
	</g>
</g>
<g>
	<g>
		<circle class="st3" cx="28" cy="27.2" r="2.9"/>
	</g>
	<path class="st3" d="M39.2,17.1H16.8c-2.2,0-4,2-4,4.5v0.8c0,0.2,0.2,0.4,0.4,0.4h1.6c0,0,0,0,0,0h0.8c1.2,0,2.2-1,2.2-2.2
		c0-0.3-0.1-0.6-0.2-0.8h20.7c-0.1,0.3-0.2,0.5-0.2,0.8c0,1.2,1,2.2,2.2,2.2c0.1,0,0.2,0,0.3,0v8.7c-0.1,0-0.2,0-0.3,0
		c-1.2,0-2.2,1-2.2,2.2c0,0.3,0.1,0.6,0.2,0.8H17.6c0.1-0.3,0.2-0.5,0.2-0.8c0-1.2-1-2.2-2.2-2.2h-1.2l0,0h-1.1
		c-0.2,0-0.4,0.2-0.4,0.4v0.8c0,2.5,1.8,4.5,4,4.5h22.4c2.2,0,4-2,4-4.5V21.6C43.2,19.1,41.4,17.1,39.2,17.1z"/>
	<rect x="12.8" y="22.7" class="st3" width="2.2" height="9.6"/>
	<g>
		<path class="st3" d="M34.1,11.7l-3.4-2.3l-0.2-0.2c-0.2-0.1-0.3-0.1-0.5-0.1c-0.6,0-1,0.4-1,0.9l0,0.8h-3.7h-2.9h-0.3
			c-0.3,0-0.5,0.2-0.5,0.5v2c0,0.3,0.2,0.5,0.5,0.5h1h2.2h3.7l0,1.2c0.2,0.5,0.6,0.7,0.9,0.7c0.2,0,0.5-0.1,0.6-0.2c0,0,0,0,0,0
			l3.5-2.6C34.5,12.6,34.4,12.1,34.1,11.7z"/>
	</g>
	<g>
		<path class="st3" d="M21.6,43l3.4,2.3l0.2,0.2c0.2,0.1,0.3,0.1,0.5,0.1c0.6,0,1-0.4,1-0.9l0-0.8h4.7h1.9h0.3
			c0.3,0,0.5-0.2,0.5-0.5v-2c0-0.3-0.2-0.5-0.5-0.5h-1h-1.2h-4.7l0-1.2c-0.2-0.5-0.6-0.7-0.9-0.7c-0.2,0-0.5,0.1-0.6,0.2
			c0,0,0,0,0,0l-3.5,2.6C21.2,42.2,21.3,42.7,21.6,43z"/>
	</g>
</g>
</svg>
