<?xml version="1.0" encoding="utf-8"?>
<!-- Generator: Adobe Illustrator 24.1.1, SVG Export Plug-In . SVG Version: 6.00 Build 0)  -->
<svg version="1.1" id="Layer_1" xmlns="http://www.w3.org/2000/svg" xmlns:xlink="http://www.w3.org/1999/xlink" x="0px" y="0px"
	 viewBox="0 0 56 55" style="enable-background:new 0 0 56 55;" xml:space="preserve">
<style type="text/css">
	.st0{opacity:0.51;fill:#6C96BC;}
	.st1{fill:#6C96BC;}
	.st2{opacity:0.72;fill:#3675BB;}
	.st3{fill:#3675BB;}
	.st4{fill:#3675BB;stroke:#3675BB;stroke-miterlimit:10;}
	.st5{fill:#FFFFFF;}
	.st6{opacity:0.8;}
</style>
<g>
	
		<ellipse transform="matrix(0.7071 -0.7071 0.7071 0.7071 -11.2865 27.6237)" class="st0" cx="27.7" cy="27.4" rx="22.7" ry="22.7"/>
	<path class="st1" d="M27.7,0.7C13,0.7,1,12.7,1,27.4C1,42.2,13,54.1,27.7,54.1c14.7,0,26.7-11.9,26.7-26.7
		C54.4,12.7,42.4,0.7,27.7,0.7z M27.7,50.1C15.2,50.1,5,39.9,5,27.4S15.2,4.7,27.7,4.7c12.5,0,22.7,10.2,22.7,22.7
		S40.2,50.1,27.7,50.1z"/>
	<path class="st2" d="M27.7,0.7C13,0.7,1,12.7,1,27.4C1,42.2,13,54.1,27.7,54.1c14.7,0,26.7-11.9,26.7-26.7
		C54.4,12.7,42.4,0.7,27.7,0.7z M27.7,50.1C15.2,50.1,5,39.9,5,27.4S15.2,4.7,27.7,4.7c12.5,0,22.7,10.2,22.7,22.7
		S40.2,50.1,27.7,50.1z"/>
	<g>
		<g>
			<path class="st3" d="M27.7,34.8c-1.1,0-2-0.9-2-2V11.5c0-1.1,0.9-2,2-2s2,0.9,2,2v21.2C29.7,33.9,28.8,34.8,27.7,34.8z"/>
		</g>
		<circle class="st3" cx="27.7" cy="40.3" r="3.1"/>
	</g>
</g>
</svg>
