<?xml version="1.0" encoding="utf-8"?>
<!-- Generator: Adobe Illustrator 24.1.1, SVG Export Plug-In . SVG Version: 6.00 Build 0)  -->
<svg version="1.1" id="Layer_1" xmlns="http://www.w3.org/2000/svg" xmlns:xlink="http://www.w3.org/1999/xlink" x="0px" y="0px"
	 viewBox="0 0 56 55" style="enable-background:new 0 0 56 55;" xml:space="preserve">
<style type="text/css">
	.st0{opacity:0.51;fill:#6C96BC;}
	.st1{fill:#6C96BC;}
	.st2{opacity:0.72;fill:#3675BB;}
	.st3{fill:#3675BB;}
	.st4{fill:#3675BB;stroke:#3675BB;stroke-miterlimit:10;}
	.st5{fill:#FFFFFF;}
	.st6{opacity:0.8;}
</style>
<g>
	<g>
		<g>
			
				<ellipse transform="matrix(0.7071 -0.7071 0.7071 0.7071 -11.2597 27.945)" class="st0" cx="28.1" cy="27.6" rx="22.7" ry="22.7"/>
			<path class="st1" d="M28.1,0.9C13.4,0.9,1.4,12.8,1.4,27.6c0,14.7,11.9,26.7,26.7,26.7c14.7,0,26.7-11.9,26.7-26.7
				C54.8,12.8,42.8,0.9,28.1,0.9z M28.1,50.3c-12.5,0-22.7-10.2-22.7-22.7S15.6,4.9,28.1,4.9c12.5,0,22.7,10.2,22.7,22.7
				S40.6,50.3,28.1,50.3z"/>
			<path class="st2" d="M28.1,0.9C13.4,0.9,1.4,12.8,1.4,27.6c0,14.7,11.9,26.7,26.7,26.7c14.7,0,26.7-11.9,26.7-26.7
				C54.8,12.8,42.8,0.9,28.1,0.9z M28.1,50.3c-12.5,0-22.7-10.2-22.7-22.7S15.6,4.9,28.1,4.9c12.5,0,22.7,10.2,22.7,22.7
				S40.6,50.3,28.1,50.3z"/>
		</g>
	</g>
</g>
<g>
	<g>
		<polygon class="st4" points="14.4,24.5 16.2,22.9 15,22.5 12,21.7 12.9,25.9 		"/>
		<path class="st4" d="M14.1,28.8C14.1,28.8,14.2,28.8,14.1,28.8c0,0.2,0,0.5,0.1,0.7c0,0,0,0,0,0c0,0.2,0.1,0.4,0.1,0.7
			c0,0,0,0,0,0c0,0.2,0.1,0.4,0.1,0.6c0,0,0,0,0,0c0,0.2,0.1,0.4,0.2,0.6c0,0,0,0,0,0c0.1,0.2,0.1,0.4,0.2,0.6c0,0,0,0,0,0.1
			c0.1,0.2,0.1,0.4,0.2,0.6c0,0,0,0,0,0.1c0.1,0.2,0.2,0.4,0.2,0.6c0,0,0,0,0,0.1c0.1,0.2,0.2,0.4,0.3,0.5c0,0,0,0.1,0,0.1
			c0.1,0.2,0.2,0.3,0.3,0.5c0,0,0,0.1,0.1,0.1c0.1,0.2,0.2,0.3,0.3,0.5c0,0,0,0.1,0.1,0.1c0.1,0.2,0.2,0.3,0.3,0.5
			c0,0,0.1,0.1,0.1,0.1c0.1,0.1,0.2,0.3,0.3,0.4c0,0,0.1,0.1,0.1,0.1c0.1,0.1,0.2,0.3,0.3,0.4c0,0,0.1,0.1,0.1,0.1
			c0.1,0.1,0.2,0.2,0.3,0.4c0,0,0.1,0.1,0.1,0.1c0.1,0.1,0.2,0.2,0.3,0.3c0,0,0.1,0.1,0.1,0.1c0.1,0.1,0.2,0.2,0.3,0.3
			c0.1,0,0.1,0.1,0.2,0.1c0.1,0.1,0.2,0.2,0.3,0.3c0.1,0,0.1,0.1,0.2,0.1c0.1,0.1,0.2,0.2,0.3,0.3c0.1,0,0.1,0.1,0.2,0.1
			c0.1,0.1,0.2,0.2,0.3,0.2c0.1,0,0.1,0.1,0.2,0.1c0.1,0.1,0.2,0.1,0.3,0.2c0.1,0,0.2,0.1,0.2,0.1c0.1,0.1,0.2,0.1,0.3,0.2
			c0.1,0,0.2,0.1,0.3,0.1c0.1,0.1,0.2,0.1,0.3,0.2c0.1,0,0.2,0.1,0.3,0.1c0.1,0.1,0.2,0.1,0.3,0.2c0.1,0,0.2,0.1,0.3,0.1
			c0.1,0,0.2,0.1,0.3,0.1c0.1,0,0.2,0.1,0.3,0.1c0.1,0,0.2,0.1,0.3,0.1c0.1,0,0.2,0.1,0.3,0.1c0.1,0,0.2,0.1,0.3,0.1
			c0.1,0,0.2,0.1,0.4,0.1c0.1,0,0.2,0.1,0.3,0.1c0.1,0,0.3,0,0.4,0.1c0.1,0,0.2,0,0.3,0.1c0.1,0,0.3,0,0.4,0.1c0.1,0,0.2,0,0.3,0
			c0.2,0,0.3,0,0.5,0c0.1,0,0.2,0,0.2,0c0.2,0,0.5,0,0.7,0c0.2,0,0.5,0,0.7,0c0.1,0,0.2,0,0.2,0c0.2,0,0.3,0,0.5,0
			c0.1,0,0.2,0,0.3,0c0.1,0,0.3,0,0.4-0.1c0.1,0,0.2,0,0.3-0.1c0.1,0,0.3,0,0.4-0.1c0.1,0,0.2,0,0.3-0.1c0.1,0,0.3-0.1,0.4-0.1
			c0.1,0,0.2-0.1,0.3-0.1c0.1,0,0.2-0.1,0.4-0.1c0.1,0,0.2-0.1,0.3-0.1c0.1,0,0.2-0.1,0.4-0.1c0.1,0,0.2-0.1,0.3-0.1
			c0.1,0,0.2-0.1,0.3-0.1c0.1,0,0.2-0.1,0.3-0.1c0.1-0.1,0.2-0.1,0.3-0.2c0.1,0,0.2-0.1,0.3-0.1c0.1-0.1,0.2-0.1,0.3-0.2
			c0.1-0.1,0.2-0.1,0.3-0.2c0.1-0.1,0.2-0.1,0.3-0.2c0.1-0.1,0.2-0.1,0.3-0.2c0.1-0.1,0.2-0.1,0.3-0.2c0.1-0.1,0.2-0.1,0.3-0.2
			c0.1-0.1,0.2-0.1,0.3-0.2c0.1-0.1,0.2-0.1,0.3-0.2c0.1-0.1,0.2-0.2,0.3-0.2c0.1-0.1,0.2-0.1,0.2-0.2c0.1-0.1,0.2-0.2,0.3-0.2
			c0.1-0.1,0.2-0.1,0.2-0.2c0.1-0.1,0.2-0.2,0.3-0.3c0.1-0.1,0.2-0.2,0.2-0.2c0.1-0.1,0.2-0.2,0.2-0.3c0.1-0.1,0.1-0.2,0.2-0.2
			c0.1-0.1,0.2-0.2,0.2-0.3c0.1-0.1,0.1-0.2,0.2-0.3c0.1-0.1,0.1-0.2,0.2-0.3c0.1-0.1,0.1-0.2,0.2-0.3c0.1-0.1,0.1-0.2,0.2-0.3
			c0.1-0.1,0.1-0.2,0.2-0.3c0.1-0.1,0.1-0.2,0.2-0.3c0.1-0.1,0.1-0.2,0.2-0.3c0.1-0.1,0.1-0.2,0.2-0.3c0-0.1,0.1-0.2,0.1-0.3
			c0.1-0.1,0.1-0.2,0.2-0.4c0-0.1,0.1-0.2,0.1-0.3c0.1-0.1,0.1-0.3,0.2-0.4c0-0.1,0.1-0.2,0.1-0.2c0.1-0.2,0.1-0.3,0.2-0.5
			c0-0.1,0-0.1,0.1-0.2c0.1-0.2,0.1-0.5,0.2-0.7c0,0,0-0.1,0-0.1c0-0.2,0.1-0.4,0.1-0.5c0-0.1,0-0.2,0-0.3c0-0.1,0.1-0.3,0.1-0.4
			c0-0.1,0-0.2,0-0.3c0-0.1,0-0.3,0.1-0.4c0-0.1,0-0.2,0-0.3c0-0.1,0-0.3,0-0.4c0-0.1,0-0.2,0-0.3c0-0.1,0-0.2,0-0.3
			c0,0,0-0.1,0-0.1c0-0.1,0-0.2,0-0.3c0-0.1,0-0.3,0-0.4c0,0,0-0.1,0-0.1c0-0.1,0-0.2,0-0.4c0-0.1,0-0.1,0-0.2c0-0.2,0-0.3-0.1-0.5
			c0-0.1,0-0.1,0-0.2c0-0.2-0.1-0.4-0.1-0.6c-1-5.3-5-9.5-10.2-10.9c0,0-0.1,0-0.1,0c-0.1,0-0.2,0-0.3-0.1c-0.1,0-0.3-0.1-0.4-0.1
			c-0.1,0-0.1,0-0.2,0c-0.2,0-0.3-0.1-0.5-0.1c-0.1,0-0.1,0-0.2,0c-0.2,0-0.3,0-0.5-0.1c-0.1,0-0.2,0-0.2,0c-0.1,0-0.2,0-0.3,0
			c0,0-0.1,0-0.1,0c-0.3,0-0.6,0-0.9,0c0,0-0.1,0-0.1,0c-0.1,0-0.1,0-0.2,0c-0.3,0-0.6,0-0.9,0c-0.1,0-0.1,0-0.2,0
			c-0.3,0-0.7,0.1-1,0.1c-0.1,0-0.1,0-0.2,0c-0.3,0.1-0.6,0.1-0.9,0.2c0,0,0,0-0.1,0c-0.3,0.1-0.6,0.2-0.9,0.3c-0.1,0-0.1,0-0.2,0.1
			c-0.3,0.1-0.6,0.2-0.9,0.3c0,0-0.1,0-0.1,0c-0.3,0.1-0.6,0.3-0.8,0.4c-0.1,0-0.1,0.1-0.2,0.1c-0.3,0.1-0.6,0.3-0.8,0.5
			c0,0-0.1,0.1-0.1,0.1c-0.3,0.2-0.5,0.3-0.7,0.5c0,0-0.1,0-0.1,0.1c-0.3,0.2-0.5,0.4-0.8,0.6c0,0-0.1,0.1-0.1,0.1
			c-0.5,0.4-1,0.9-1.4,1.4c0,0-0.1,0.1-0.1,0.1c-0.2,0.2-0.4,0.5-0.6,0.8c0,0,0,0,0,0.1c-0.2,0.3-0.4,0.5-0.5,0.8c0,0,0,0.1-0.1,0.1
			c-0.2,0.3-0.3,0.6-0.5,0.9c0,0,0,0.1-0.1,0.1c-0.2,0.3-0.3,0.6-0.4,0.9c0,0,0,0,0,0l0,0c0,0.1-0.1,0.2-0.1,0.3L15,22.5L13.2,22
			c2.3-6.1,8.1-10.4,15-10.4c9.2,0,16.6,7.8,16,17.1c-0.5,7.5-7.3,14.3-14.8,14.8c-8.9,0.6-16.3-6-17.1-14.6L14.1,28.8z"/>
	</g>
	<g>
		<g>
			<path class="st3" d="M32.4,32.5c-0.7,0.7-1.7,1.2-3,1.4v2h-2.1V34c-0.9-0.1-1.7-0.2-2.5-0.4c-0.8-0.2-1.4-0.5-2-0.9l1.1-2.6
				c0.6,0.4,1.2,0.7,1.9,0.9c0.7,0.2,1.4,0.3,2.2,0.3c1.3,0,2-0.3,2-1c0-0.4-0.2-0.6-0.6-0.8c-0.4-0.2-1-0.3-1.8-0.5
				c-0.9-0.2-1.7-0.4-2.3-0.6c-0.6-0.2-1.2-0.6-1.6-1.1c-0.4-0.5-0.7-1.2-0.7-2c0-1,0.4-1.9,1.1-2.6c0.7-0.7,1.8-1.2,3.2-1.3v-1.9
				h2.1v1.9c0.7,0.1,1.3,0.2,1.9,0.4s1.2,0.4,1.6,0.7l-1.1,2.6c-1.2-0.6-2.3-1-3.4-1c-0.7,0-1.2,0.1-1.5,0.3
				c-0.3,0.2-0.5,0.5-0.5,0.8c0,0.3,0.2,0.6,0.6,0.7c0.4,0.2,1,0.3,1.8,0.5c0.9,0.2,1.7,0.4,2.3,0.6c0.6,0.2,1.2,0.6,1.6,1.1
				c0.5,0.5,0.7,1.2,0.7,2C33.4,31,33.1,31.8,32.4,32.5z"/>
		</g>
	</g>
</g>
</svg>
