<svg id="Layer_1" data-name="Layer 1" xmlns="http://www.w3.org/2000/svg" viewBox="0 0 56 55"><defs><style>.cls-1,.cls-2{fill:#6c96bc;}.cls-1{opacity:0.51;}.cls-3,.cls-6{fill:#3675bb;}.cls-3{opacity:0.72;}.cls-4{fill:#fff;}.cls-5{opacity:0.8;}</style></defs><circle class="cls-1" cx="27.98" cy="27.9" r="22.69" transform="translate(-11.53 27.95) rotate(-45)"/><path class="cls-2" d="M28,1.21A26.69,26.69,0,1,0,54.66,27.9,26.69,26.69,0,0,0,28,1.21Zm0,49.37A22.69,22.69,0,1,1,50.66,27.9,22.71,22.71,0,0,1,28,50.58Z"/><path class="cls-3" d="M28,1.21A26.69,26.69,0,1,0,54.66,27.9,26.69,26.69,0,0,0,28,1.21Zm0,49.37A22.69,22.69,0,1,1,50.66,27.9,22.71,22.71,0,0,1,28,50.58Z"/><path class="cls-4" d="M27,38.88H16.58a4.82,4.82,0,0,0-2.28,4.36h15A4.82,4.82,0,0,0,27,38.88Z"/><g class="cls-5"><path class="cls-6" d="M27,38.88H16.58a4.82,4.82,0,0,0-2.28,4.36h15A4.82,4.82,0,0,0,27,38.88Z"/></g><path class="cls-6" d="M46.39,30.74a.53.53,0,0,0-.29-.3L28.46,23.38l.88-1.7a4.81,4.81,0,0,0,3.44-2.16l.76-1.42.51-1a.61.61,0,0,0,0-.42.52.52,0,0,0-.29-.31L28,13.73l-4.55-2.41-1.07-.55a.53.53,0,0,0-.24-.06l-.18,0a.52.52,0,0,0-.31.29l-1.12,2.49a4.84,4.84,0,0,0,.4,4l-1.34,2.86-2.26,4.72A4.78,4.78,0,0,0,14,27.39l-1,2a.53.53,0,0,0,0,.41.49.49,0,0,0,.27.31l10.92,5.36a.46.46,0,0,0,.23.06l.18,0a.6.6,0,0,0,.31-.28l.95-2a4.82,4.82,0,0,0-.28-4.05l.73-1.46,16.52,10a.54.54,0,0,0,.28.08l.16,0a.6.6,0,0,0,.33-.3l2.81-6.27A.51.51,0,0,0,46.39,30.74Zm-3.24,1.31-1,2.21L29.33,26.52ZM22.77,29.5l.22.36c.31.5.78,1.66.51,2.23l-.06.11-7.21-3.54.06-.12c.27-.53,1.39-.88,2.07-1l.42,0a.53.53,0,0,0,.43-.3L22,21.53l1.81-3.86a.53.53,0,0,0,0-.52l-.24-.36c-.32-.49-.82-1.64-.57-2.21l.23-.51,3.72,2,3.9,1.77-.26.49c-.29.53-1.42.85-2.1.91l-.42,0a.51.51,0,0,0-.44.29l-1.95,3.79L22.74,29A.55.55,0,0,0,22.77,29.5Z"/></svg>