<svg id="Layer_1" data-name="Layer 1" xmlns="http://www.w3.org/2000/svg" viewBox="0 0 56 55"><defs><style>.cls-1,.cls-2{fill:#6c96bc;}.cls-1{opacity:0.51;}.cls-3,.cls-4{fill:#3675bb;}.cls-3{opacity:0.72;}</style></defs><circle class="cls-1" cx="28.02" cy="27.9" r="22.69" transform="translate(-11.52 27.98) rotate(-45)"/><path class="cls-2" d="M28,1.21A26.69,26.69,0,1,0,54.71,27.9,26.69,26.69,0,0,0,28,1.21Zm0,49.37A22.69,22.69,0,1,1,50.71,27.9,22.71,22.71,0,0,1,28,50.58Z"/><path class="cls-3" d="M28,1.21A26.69,26.69,0,1,0,54.71,27.9,26.69,26.69,0,0,0,28,1.21Zm0,49.37A22.69,22.69,0,1,1,50.71,27.9,22.71,22.71,0,0,1,28,50.58Z"/><path class="cls-4" d="M44.29,27.06l-2.64-2.54-.18-.17a1.35,1.35,0,0,0-.5-.1,1,1,0,0,0-1,1v.93H33.44a.54.54,0,0,0-.54.54V28.9a.54.54,0,0,0,.54.55h6.48V30.8a1.12,1.12,0,0,0,1,.75,1,1,0,0,0,.69-.27l.05-.05,2.69-2.79A1,1,0,0,0,44.29,27.06Z"/><circle class="cls-4" cx="28.02" cy="27.9" r="3.22"/><path class="cls-4" d="M15.8,16.88H40.24A4.66,4.66,0,0,1,44.6,21.8v.87a.46.46,0,0,1-.43.49H41.59a2.44,2.44,0,0,1-2.26-3.33H16.68a2.42,2.42,0,0,1-2.25,3.33,2.33,2.33,0,0,1-.38,0v9.53a2.33,2.33,0,0,1,.38,0A2.42,2.42,0,0,1,16.67,36H39.34a2.44,2.44,0,0,1,2.25-3.36h2.58a.46.46,0,0,1,.43.49V34a4.67,4.67,0,0,1-4.36,4.93H15.8A4.67,4.67,0,0,1,11.44,34V21.8A4.66,4.66,0,0,1,15.8,16.88Z"/></svg>