<svg id="Layer_1" data-name="Layer 1" xmlns="http://www.w3.org/2000/svg" viewBox="0 0 56 55"><defs><style>.cls-1,.cls-2{fill:#6c96bc;}.cls-1{opacity:0.51;}.cls-3,.cls-4{fill:#3675bb;}.cls-3{opacity:0.72;}</style></defs><circle class="cls-1" cx="28.3" cy="27.9" r="22.69" transform="translate(-11.44 28.18) rotate(-45)"/><path class="cls-2" d="M28.3,1.21A26.69,26.69,0,1,0,55,27.9,26.69,26.69,0,0,0,28.3,1.21Zm0,49.37A22.69,22.69,0,1,1,51,27.9,22.7,22.7,0,0,1,28.3,50.58Z"/><path class="cls-3" d="M28.3,1.21A26.69,26.69,0,1,0,55,27.9,26.69,26.69,0,0,0,28.3,1.21Zm0,49.37A22.69,22.69,0,1,1,51,27.9,22.7,22.7,0,0,1,28.3,50.58Z"/><path class="cls-4" d="M42,15.85H14.6a1.75,1.75,0,0,0-1.74,1.75V38.2a1.74,1.74,0,0,0,1.74,1.74H42a1.74,1.74,0,0,0,1.74-1.74V17.6A1.75,1.75,0,0,0,42,15.85Zm-.85,6.61H15.45v-4H41.16ZM15.45,27.23H41.16V37.35H15.45Z"/><rect class="cls-4" x="18.16" y="32.8" width="9.39" height="1.84" rx="0.78"/></svg>