<?xml version="1.0" encoding="utf-8"?>
<!-- Generator: Adobe Illustrator 24.0.0, SVG Export Plug-In . SVG Version: 6.00 Build 0)  -->
<svg version="1.1" id="Layer_1" xmlns="http://www.w3.org/2000/svg" xmlns:xlink="http://www.w3.org/1999/xlink" x="0px" y="0px"
	 viewBox="0 0 56 55" style="enable-background:new 0 0 56 55;" xml:space="preserve">
<style type="text/css">
	.st0{opacity:0.51;fill:#6C96BC;}
	.st1{fill:#6C96BC;}
	.st2{opacity:0.72;fill:#3675BB;}
	.st3{fill:#3675BB;}
</style>
<g>
	<g>
		<g>
			<g>
				
					<ellipse transform="matrix(0.7071 -0.7071 0.7071 0.7071 -11.5228 27.9689)" class="st0" cx="28" cy="27.9" rx="22.7" ry="22.7"/>
				<path class="st1" d="M28,1.2C13.3,1.2,1.3,13.2,1.3,27.9c0,14.7,11.9,26.7,26.7,26.7c14.7,0,26.7-11.9,26.7-26.7
					C54.7,13.2,42.7,1.2,28,1.2z M28,50.6c-12.5,0-22.7-10.2-22.7-22.7S15.5,5.2,28,5.2c12.5,0,22.7,10.2,22.7,22.7
					S40.5,50.6,28,50.6z"/>
				<path class="st2" d="M28,1.2C13.3,1.2,1.3,13.2,1.3,27.9c0,14.7,11.9,26.7,26.7,26.7c14.7,0,26.7-11.9,26.7-26.7
					C54.7,13.2,42.7,1.2,28,1.2z M28,50.6c-12.5,0-22.7-10.2-22.7-22.7S15.5,5.2,28,5.2c12.5,0,22.7,10.2,22.7,22.7
					S40.5,50.6,28,50.6z"/>
			</g>
		</g>
	</g>
</g>
<path class="st3" d="M10.3,29.5l3.4,2.9c0.3,0.3,0.6,0.4,1,0.4c0.4,0,0.8-0.2,1.1-0.4l6.9-8c0.6-0.6,0.6-1.5,0-2.1
	c-0.3-0.3-0.7-0.4-1.1-0.4s-0.8,0.2-1.1,0.4l-5.8,7l-2.4-1.9c-0.3-0.3-0.7-0.4-1-0.4c-0.4,0-0.8,0.2-1.1,0.5
	C9.7,28,9.7,29,10.3,29.5z"/>
<g>
	<g>
		<g>
			<path class="st3" d="M26.2,26.7h12.2c0.4,0,0.7-0.5,0.7-1.1s-0.3-1.1-0.7-1.1H26.2c-0.4,0-0.7,0.5-0.7,1.1S25.8,26.7,26.2,26.7z"
				/>
			<path class="st3" d="M38.4,29.8H26.2c-0.4,0-0.7,0.5-0.7,1.1s0.3,1.1,0.7,1.1h12.2c0.4,0,0.7-0.5,0.7-1.1S38.8,29.8,38.4,29.8z"
				/>
		</g>
	</g>
	<path class="st3" d="M41,17.1H15.4c-2.1,0-3.8,2.2-3.8,4.8v2.4l2.4,1.4v-3.8c0-1.2,0.7-2.1,1.5-2.1H41c0.8,0,1.5,1,1.5,2.1v12.6
		c0,1.2-0.7,2.1-1.5,2.1H15.4c-0.8,0-1.5-0.6-1.5-1.8l0,0l-2.4-1.4v1.1c0,2.7,1.7,4.8,3.8,4.8H41c2.1,0,3.8-2.2,3.8-4.8V21.9
		C44.9,19.2,43.2,17.1,41,17.1z"/>
</g>
</svg>
