<?xml version="1.0" encoding="utf-8"?>
<!-- Generator: Adobe Illustrator 24.1.1, SVG Export Plug-In . SVG Version: 6.00 Build 0)  -->
<svg version="1.1" id="Layer_1" xmlns="http://www.w3.org/2000/svg" xmlns:xlink="http://www.w3.org/1999/xlink" x="0px" y="0px"
	 viewBox="0 0 56 55" style="enable-background:new 0 0 56 55;" xml:space="preserve">
<style type="text/css">
	.st0{opacity:0.51;fill:#6C96BC;}
	.st1{fill:#6C96BC;}
	.st2{opacity:0.72;fill:#3675BB;}
	.st3{fill:#3675BB;}
</style>
<g>
	<ellipse transform="matrix(0.7071 -0.7071 0.7071 0.7071 -11.2444 27.8536)" class="st0" cx="28" cy="27.5" rx="22.7" ry="22.7"/>
	<path class="st1" d="M28,0.8C13.3,0.8,1.3,12.8,1.3,27.5c0,14.7,11.9,26.7,26.7,26.7c14.7,0,26.7-11.9,26.7-26.7
		C54.7,12.8,42.7,0.8,28,0.8z M28,50.2C15.5,50.2,5.3,40,5.3,27.5S15.5,4.8,28,4.8c12.5,0,22.7,10.2,22.7,22.7S40.5,50.2,28,50.2z"
		/>
	<path class="st2" d="M28,0.8C13.3,0.8,1.3,12.8,1.3,27.5c0,14.7,11.9,26.7,26.7,26.7c14.7,0,26.7-11.9,26.7-26.7
		C54.7,12.8,42.7,0.8,28,0.8z M28,50.2C15.5,50.2,5.3,40,5.3,27.5S15.5,4.8,28,4.8c12.5,0,22.7,10.2,22.7,22.7S40.5,50.2,28,50.2z"
		/>
	<g>
		<path class="st3" d="M22.6,38.4c-0.5,0-1-0.2-1.3-0.5l-7-6.2c-0.8-0.7-0.9-2-0.2-2.8c0.7-0.8,2-0.9,2.8-0.2l5.6,5L39,17.2
			c0.8-0.8,2-0.8,2.8,0s0.8,2,0,2.8L24,37.8C23.6,38.2,23.1,38.4,22.6,38.4z"/>
	</g>
</g>
</svg>
