<svg id="Layer_1" data-name="Layer 1" xmlns="http://www.w3.org/2000/svg" viewBox="0 0 56 55"><defs><style>.cls-1,.cls-2{fill:#6c96bc;}.cls-1{opacity:0.51;}.cls-3,.cls-4{fill:#3675bb;}.cls-3{opacity:0.72;}</style></defs><circle class="cls-1" cx="27.95" cy="27.77" r="22.69" transform="translate(-11.45 27.9) rotate(-45)"/><path class="cls-2" d="M28,1.08A26.69,26.69,0,1,0,54.63,27.77,26.69,26.69,0,0,0,28,1.08Zm0,49.38A22.69,22.69,0,1,1,50.63,27.77,22.72,22.72,0,0,1,28,50.46Z"/><path class="cls-3" d="M28,1.08A26.69,26.69,0,1,0,54.63,27.77,26.69,26.69,0,0,0,28,1.08Zm0,49.38A22.69,22.69,0,1,1,50.63,27.77,22.72,22.72,0,0,1,28,50.46Z"/><path class="cls-4" d="M35.75,31.78a1.43,1.43,0,1,0-1.43-1.43A1.43,1.43,0,0,0,35.75,31.78Z"/><path class="cls-4" d="M44.55,35l-.18-9.69c0-.2,0-.4,0-.58a3.68,3.68,0,0,0-.85-3.06,2.74,2.74,0,0,0-1.16-.64,1.31,1.31,0,0,0,.12-.56,4.67,4.67,0,0,0-4.86-4.43H16.21a4.93,4.93,0,0,0-4.86,4.75v2.62a5.44,5.44,0,0,1,.57,0h2.86V20.81a1.68,1.68,0,0,1,1.43-1.62H37.63a1.37,1.37,0,0,1,1.42,1.3,1.4,1.4,0,0,0,.06.41H23.93a1.73,1.73,0,0,0-1.43.71,1.46,1.46,0,0,0-.29.86A1.65,1.65,0,0,0,23.93,24H41c0,.2,0,.43,0,.63s0,.44,0,.67v0l.17,9.7c0,.31-.09,1.29-1.08,1.29H16.21a1.37,1.37,0,0,1-1.43-1.3v-1.3H11.93a5.46,5.46,0,0,1-.58,0v1.34a4.67,4.67,0,0,0,4.86,4.43H40a4.33,4.33,0,0,0,4.52-4.43Z"/><path class="cls-4" d="M23.46,26.88l-2.8-2.69-.2-.2a1.46,1.46,0,0,0-.53-.1A1.1,1.1,0,0,0,18.81,25v1H11.93a.58.58,0,0,0-.58.58v2.29a.58.58,0,0,0,.58.58h6.89v1.44a1.2,1.2,0,0,0,1.1.79,1.14,1.14,0,0,0,.74-.28l.05-.06,2.86-3A1.12,1.12,0,0,0,23.46,26.88Z"/></svg>