<?xml version="1.0" encoding="utf-8"?>
<!-- Generator: Adobe Illustrator 24.1.1, SVG Export Plug-In . SVG Version: 6.00 Build 0)  -->
<svg version="1.1" id="Layer_1" xmlns="http://www.w3.org/2000/svg" xmlns:xlink="http://www.w3.org/1999/xlink" x="0px" y="0px"
	 viewBox="0 0 56 55" style="enable-background:new 0 0 56 55;" xml:space="preserve">
<style type="text/css">
	.st0{opacity:0.51;fill:#6C96BC;}
	.st1{fill:#6C96BC;}
	.st2{opacity:0.72;fill:#3675BB;}
	.st3{fill:#3675BB;}
	.st4{fill:#3675BB;stroke:#3675BB;stroke-miterlimit:10;}
	.st5{fill:#FFFFFF;}
	.st6{opacity:0.8;}
</style>
<g>
	<g>
		
			<ellipse transform="matrix(0.7071 -0.7071 0.7071 0.7071 -11.0899 28.3548)" class="st0" cx="28.7" cy="27.6" rx="22.7" ry="22.7"/>
		<path class="st1" d="M28.7,0.9C13.9,0.9,2,12.8,2,27.6c0,14.7,11.9,26.7,26.7,26.7c14.7,0,26.7-11.9,26.7-26.7
			C55.4,12.8,43.4,0.9,28.7,0.9z M28.7,50.3C16.2,50.3,6,40.1,6,27.6S16.2,4.9,28.7,4.9c12.5,0,22.7,10.2,22.7,22.7
			S41.2,50.3,28.7,50.3z"/>
		<path class="st2" d="M28.7,0.9C13.9,0.9,2,12.8,2,27.6c0,14.7,11.9,26.7,26.7,26.7c14.7,0,26.7-11.9,26.7-26.7
			C55.4,12.8,43.4,0.9,28.7,0.9z M28.7,50.3C16.2,50.3,6,40.1,6,27.6S16.2,4.9,28.7,4.9c12.5,0,22.7,10.2,22.7,22.7
			S41.2,50.3,28.7,50.3z"/>
	</g>
	<g>
		<g>
			<g>
				<path class="st4" d="M30,12.5c2,0,3.7,1.7,3.7,3.7S32,19.9,30,19.9c-2,0-3.7-1.7-3.7-3.7S28,12.5,30,12.5 M30,11
					c-2.9,0-5.3,2.4-5.3,5.3s2.4,5.3,5.3,5.3s5.3-2.4,5.3-5.3S32.9,11,30,11L30,11z"/>
			</g>
		</g>
		<g>
			<g>
				<path class="st3" d="M16.6,17.5c0.4,0,0.8,0.2,1,0.5l5.9,7.1c0.6,0.7,1.4,1,2.2,1h9.5c0.5,0,0.9,0.3,1.2,0.7L41.9,37
					c0.2,0.3,0.2,0.7,0.1,1c-0.1,0.3-0.3,0.6-0.7,0.8C41.2,39,41,39,40.7,39c-0.5,0-0.9-0.3-1.2-0.7l-3-5.6
					c-0.5-0.9-1.5-1.5-2.5-1.5h-8.3c-0.4,0-0.8-0.2-1-0.5l-9.1-11c-0.2-0.3-0.3-0.7-0.3-1c0.1-0.4,0.3-0.7,0.6-0.9
					C16.1,17.6,16.3,17.5,16.6,17.5 M16.6,14.5c-0.8,0-1.7,0.2-2.4,0.7c-1,0.7-1.7,1.8-1.9,3c-0.2,1.2,0.2,2.5,0.9,3.4l9.1,11
					c0.8,1,2,1.6,3.3,1.6h8.2l3,5.5c0.8,1.4,2.2,2.3,3.8,2.3c0.7,0,1.4-0.2,2-0.5c1.1-0.5,1.8-1.5,2.2-2.6c0.3-1.1,0.2-2.3-0.3-3.4
					L39,25.4c-0.8-1.4-2.2-2.2-3.8-2.2h-9.4l-5.8-7.1C19.1,15.1,17.9,14.5,16.6,14.5L16.6,14.5z"/>
			</g>
		</g>
		<g>
			<path class="st5" d="M34.1,32.7H18.5c-0.3,0-0.6,0.3-0.6,0.6v2.4c0,0.3,0.3,0.6,0.6,0.6h1c0.3,0,0.6,0.3,0.6,0.6v6.6
				c0,0.3,0.3,0.6,0.6,0.6h13.4c0.3,0,0.6-0.3,0.6-0.6V33.3C34.7,33,34.5,32.7,34.1,32.7z"/>
		</g>
		<g class="st6">
			<g>
				<path class="st3" d="M34.1,32.7H18.5c-0.3,0-0.6,0.3-0.6,0.6v2.4c0,0.3,0.3,0.6,0.6,0.6h1c0.3,0,0.6,0.3,0.6,0.6v6.6
					c0,0.3,0.3,0.6,0.6,0.6h13.4c0.3,0,0.6-0.3,0.6-0.6V33.3C34.7,33,34.5,32.7,34.1,32.7z"/>
			</g>
		</g>
	</g>
</g>
</svg>
