<svg id="Capa_1" data-name="Capa 1" xmlns="http://www.w3.org/2000/svg" viewBox="0 0 80.33 20.25"><defs><style>.cls-1{fill:#ffffff;}</style></defs><title>tarjetas</title><path class="cls-1" d="M13.55,2.53V8.76H11.33c0-.12,0-.24,0-.37q0-4,0-8c0-.31.07-.42.41-.41,1,0,1.92,0,2.89,0a.41.41,0,0,1,.47.34C15.63,1.91,16.2,3.46,16.76,5l.2.51h.09l.37-1c.5-1.39,1-2.78,1.49-4.18A.48.48,0,0,1,19.46,0c.95,0,1.9,0,2.85,0,.25,0,.33.07.33.32,0,2.71,0,5.43,0,8.14,0,.11-.11.3-.17.3-.67,0-1.34,0-2.05,0V2.55l-.08,0a2,2,0,0,0-.11.2l-2.1,5.75c-.08.22-.18.32-.42.31-.48,0-1,0-1.45,0a.36.36,0,0,1-.4-.29c-.69-1.9-1.39-3.79-2.08-5.69l-.12-.3Z"/><path class="cls-1" d="M73.1,8.79c-.88,0-1.75,0-2.62,0-.12,0-.26-.17-.34-.3l-3.32-5a.53.53,0,0,0-.23-.21v5.5c-.75,0-1.44,0-2.13,0,0,0-.15-.12-.16-.2a4,4,0,0,1,0-.49V.46c0-.45,0-.45.47-.45.71,0,1.41,0,2.12,0a.54.54,0,0,1,.52.27Q69,2.7,70.6,5.09a3.35,3.35,0,0,0,.25.34,4,4,0,0,0,.05-.49c0-1.51,0-3,0-4.55,0-.28.07-.4.37-.38.53,0,1.06,0,1.59,0,.19,0,.28,0,.28.26,0,2.78,0,5.57,0,8.35A1,1,0,0,1,73.1,8.79Z"/><path class="cls-1" d="M35.87,8.77H33.6v-.4c0-2.64,0-5.29,0-7.94,0-.34.11-.43.44-.42h4.73a3.22,3.22,0,0,1,2,.58,2.64,2.64,0,0,1,1,2.82,2.62,2.62,0,0,1-1.86,2.06l-.44.16L42.3,8.78c-.95,0-1.82,0-2.7,0-.1,0-.22-.12-.3-.21L37,5.9a1.1,1.1,0,0,0-1-.18.4.4,0,0,0-.1.3c0,.79,0,1.57,0,2.36Zm1.46-5h1.19a1,1,0,0,0,.94-.62c.22-.65-.23-1.22-1-1.25s-1.53,0-2.29,0c-.18,0-.29.05-.28.25,0,.46,0,.92,0,1.37,0,.09.15.23.24.24C36.53,3.82,36.93,3.81,37.33,3.81Z"/><path class="cls-1" d="M51.3,17l2.9,3.18c-.94,0-1.83,0-2.71,0-.1,0-.22-.13-.3-.22-.69-.78-1.41-1.54-2-2.37a1.2,1.2,0,0,0-1.38-.46V20.2H45.68c-.06,0-.13-.1-.17-.18s0-.13,0-.2V11.69c0-.07,0-.14,0-.24l.3,0h4.87a3.26,3.26,0,0,1,1.75.47,2.62,2.62,0,0,1,1.21,2.73,2.63,2.63,0,0,1-1.91,2.26Zm-2.08-1.8h0c.42,0,.85,0,1.27,0a.92.92,0,0,0,.87-.66.84.84,0,0,0-.36-1,1.59,1.59,0,0,0-.73-.22c-.74,0-1.48,0-2.22,0-.23,0-.31.1-.3.32,0,.42,0,.85,0,1.27,0,.23.09.31.31.31Z"/><path class="cls-1" d="M31.92,8.77H24.59c0-.12,0-.25,0-.37q0-4,0-8c0-.24,0-.38.34-.38h6.73l.3,0V1.92l-.43,0c-1.42,0-2.84,0-4.27,0-.33,0-.43.1-.4.42a3.66,3.66,0,0,1,0,.74c0,.28.1.36.37.36,1.34,0,2.68,0,4,0,.72,0,.62-.07.63.61,0,.31,0,.62,0,.92s-.11.38-.39.38H27.38c-.54,0-.54,0-.54.52v1h5.08Z"/><path class="cls-1" d="M62.4,11.46v1.86H57.71c-.32,0-.46.09-.43.42a5,5,0,0,1,0,.77c0,.25.07.33.32.32h4.17c.5,0,.5,0,.51.53v1.4H61.8c-1.38,0-2.77,0-4.16,0-.28,0-.37.1-.36.37s-.1.84.09,1.05.67.1,1,.1h4v1.89H55a2.64,2.64,0,0,1,0-.29V11.8c0-.21,0-.38.3-.38h6.84Z"/><path class="cls-1" d="M24.33,16.76h-4c-1,0-1,0-1,1,0,.54,0,.54.53.54h4.6c0,.61,0,1.19,0,1.76,0,.06-.22.16-.34.17-1.34,0-2.68,0-4,0H17.4c-.2,0-.33,0-.33-.29,0-2.76,0-5.52,0-8.28a1,1,0,0,1,0-.21h.39c2.17,0,4.35,0,6.52,0,.38,0,.47.12.44.46a9.37,9.37,0,0,0,0,1.06c0,.29-.07.39-.37.39-1.4,0-2.8,0-4.2,0-.57,0-.57,0-.57.56a4,4,0,0,1,0,.6c0,.27.09.36.37.36,1.4,0,2.8,0,4.2,0,.36,0,.47.11.45.46S24.33,16.24,24.33,16.76Z"/><path class="cls-1" d="M0,8.79l1.75-4c.65-1.48,1.32-3,2-4.45A.53.53,0,0,1,4.28,0C5,0,5.78,0,6.54,0A.42.42,0,0,1,7,.31q1.7,3.87,3.41,7.74l.32.74c-.82,0-1.6,0-2.37,0a.47.47,0,0,1-.29-.23c-.2-.42-.37-.84-.54-1.27A.35.35,0,0,0,7.16,7H3.52a.37.37,0,0,0-.39.26c-.16.43-.33.85-.52,1.27,0,.1-.17.23-.26.24ZM6.63,5.12l-1.25-3h-.1L4,5.12Z"/><path class="cls-1" d="M63.71,8.79c-.8,0-1.56,0-2.31,0a.51.51,0,0,1-.34-.25,11.8,11.8,0,0,1-.54-1.27.37.37,0,0,0-.4-.25c-1.21,0-2.42,0-3.63,0a.43.43,0,0,0-.33.22c-.21.42-.36.86-.56,1.29a.5.5,0,0,1-.32.25c-.73,0-1.47,0-2.27,0a3.94,3.94,0,0,1,.14-.38c1.16-2.63,2.33-5.25,3.48-7.89A.7.7,0,0,1,57.4,0c.73.05,1.46,0,2.19,0A.35.35,0,0,1,60,.24l3.67,8.34A1,1,0,0,1,63.71,8.79ZM59.62,5.12l-1.25-3h-.1L57,5.12Z"/><path class="cls-1" d="M80.12,11.44c-.28.6-.52,1.16-.8,1.7a.47.47,0,0,1-.37.17c-1.1,0-2.19,0-3.28,0a2.37,2.37,0,0,0-.46,0,.75.75,0,0,0-.73.75.77.77,0,0,0,.81.72c.7,0,1.41,0,2.11,0a5.52,5.52,0,0,1,1.58.29,2.24,2.24,0,0,1,1.32,2.52,2.57,2.57,0,0,1-2.69,2.49c-1.66.08-3.33.05-5,.06,0,0-.06,0-.11,0V18.28H77a2.08,2.08,0,0,0,.25,0,.76.76,0,1,0,0-1.51c-.77,0-1.54,0-2.29,0a4.09,4.09,0,0,1-1.52-.37,2.27,2.27,0,0,1-1.2-2.29,2.62,2.62,0,0,1,2.68-2.62C76.61,11.39,78.34,11.44,80.12,11.44Z"/><path class="cls-1" d="M63.79,18.27h4.44a1.92,1.92,0,0,0,.24,0,.81.81,0,0,0,.87-.74.79.79,0,0,0-.87-.77c-.77,0-1.53,0-2.29,0a2.47,2.47,0,0,1-2.41-1.35,2.68,2.68,0,0,1,2-3.89,5.4,5.4,0,0,1,1-.08H71.3l.1,0c-.27.58-.52,1.16-.8,1.72,0,.09-.24.13-.36.14H67a2.88,2.88,0,0,0-.59,0,.71.71,0,0,0-.65.78.72.72,0,0,0,.73.67c.6,0,1.2,0,1.8,0a8.29,8.29,0,0,1,1.8.23,2.09,2.09,0,0,1,1.47,2,2.65,2.65,0,0,1-1.28,2.67,3.64,3.64,0,0,1-1.83.44H64.11c-.24,0-.33-.06-.33-.32C63.8,19.37,63.79,18.84,63.79,18.27Z"/><path class="cls-1" d="M25,11.43c1,0,1.9,0,2.8,0a.6.6,0,0,1,.37.22c.64.73,1.27,1.48,1.91,2.22.05.06.09.13.17.25l1.09-1.24c.37-.42.72-.86,1.1-1.28a.55.55,0,0,1,.35-.17c.87,0,1.74,0,2.7,0l-.34.4c-1.07,1.2-2.13,2.41-3.22,3.6-.22.24-.17.36,0,.57,1.17,1.3,2.32,2.62,3.48,3.93a3.17,3.17,0,0,1,.2.27c-.71,0-1.36,0-2,0a1.58,1.58,0,0,1-1.55-.71c-.55-.74-1.19-1.41-1.83-2.14a21.65,21.65,0,0,0-1.48,1.74,2.2,2.2,0,0,1-2.39,1.1,10.19,10.19,0,0,0-1.47,0l3.94-4.45Z"/><path class="cls-1" d="M36.13,15.79c0-1.32,0-2.65,0-4,0-.28.05-.39.36-.39,1.66,0,3.32,0,5,0a2.66,2.66,0,0,1,2.66,1.67,2.93,2.93,0,0,1-.52,3.28,3.17,3.17,0,0,1-2.41.92q-1.23,0-2.46,0c-.27,0-.36.08-.35.34,0,.72,0,1.43,0,2.15,0,.33-.1.42-.42.41a12.18,12.18,0,0,0-1.48,0c-.3,0-.36-.1-.36-.36C36.13,18.5,36.13,17.15,36.13,15.79Zm3.77-.41H41a1,1,0,0,0,1-.88.94.94,0,0,0-.92-1.13c-.83-.06-1.67,0-2.5,0-.19,0-.27.09-.27.28v1.48c0,.23.1.3.32.3C39.1,15.37,39.5,15.38,39.9,15.38Zm-.93.08v0h1.76v0Z"/><path class="cls-1" d="M52.7,6.85l-.83,1.78a.31.31,0,0,1-.21.15,5,5,0,0,1-3.5-.89A3.53,3.53,0,0,1,47,6a6,6,0,0,1,0-3.27A3.74,3.74,0,0,1,50.32.08c1.1-.07,2.2,0,3.3-.07.23,0,.28.1.28.3q0,.69,0,1.38c0,.24-.08.32-.33.32C52.76,2,52,2,51.14,2a2,2,0,0,0-2,1.48,3.15,3.15,0,0,0,.12,2.18,1.92,1.92,0,0,0,1.81,1.17C51.58,6.88,52.1,6.85,52.7,6.85Z"/><path class="cls-1" d="M45.36,8.77H43.15c0-.13,0-.24,0-.36q0-4,0-8c0-.3.06-.42.39-.4.54,0,1.08,0,1.62,0,.19,0,.28.06.28.26,0,2.8,0,5.59,0,8.39A.62.62,0,0,1,45.36,8.77Z"/></svg>