<svg id="Capa_1" data-name="Capa 1" xmlns="http://www.w3.org/2000/svg" viewBox="0 0 49.39 38.39"><defs><style>.cls-1{fill:#e41a1b;}.cls-2{fill:#f59c23;}.cls-3{fill:#eb5e1d;}.cls-4{fill:#fff;}</style></defs><title>tarjetas</title><path class="cls-1" d="M14,0h2.41c.05.07.12,0,.18,0,.53,0,1.06.12,1.59.22a15.29,15.29,0,0,1,6.51,3v0a14.48,14.48,0,0,0-2.51,2.5A15.24,15.24,0,0,0,19.23,12a15.47,15.47,0,0,0-.35,3.25A13.91,13.91,0,0,0,19,17.08a15.14,15.14,0,0,0,.69,3.05,14.43,14.43,0,0,0,2.13,4.1A13.32,13.32,0,0,0,24,26.59c.25.21.49.43.73.65a15,15,0,0,1-12.17,3,14.78,14.78,0,0,1-9.21-5.55,14.82,14.82,0,0,1-3.22-8,1.57,1.57,0,0,0-.09-.6v-.24c.05,0,.05-.07.05-.12V14.47a14.13,14.13,0,0,1,.23-2.05A15.26,15.26,0,0,1,13.17.13,3.27,3.27,0,0,0,14,0Z"/><path class="cls-2" d="M24.69,3.27v0a1.37,1.37,0,0,0,.2-.13A15.25,15.25,0,0,1,32,.13,3.14,3.14,0,0,0,32.87,0h2.46c0,.06.08,0,.12.05a14.29,14.29,0,0,1,2.6.45,15.25,15.25,0,0,1-3.63,30A15,15,0,0,1,27.51,29a13.41,13.41,0,0,1-2.78-1.75,1.06,1.06,0,0,1,.15-.15,11.86,11.86,0,0,0,1.06-.94,15.49,15.49,0,0,0,1.91-2.28,15,15,0,0,0,2-4.32,14.51,14.51,0,0,0,.61-3.82,15.15,15.15,0,0,0,0-1.65,14.65,14.65,0,0,0-.27-2,15.59,15.59,0,0,0-1.55-4.18,15.46,15.46,0,0,0-3.16-4A3.86,3.86,0,0,0,24.69,3.27Z"/><path class="cls-1" d="M0,14.44l.05,0v1.24s0,.1,0,.12Z"/><path class="cls-3" d="M24.73,27.24h0c-.24-.22-.48-.44-.73-.65a13.32,13.32,0,0,1-2.14-2.36,14.43,14.43,0,0,1-2.13-4.1A15.14,15.14,0,0,1,19,17.08a13.91,13.91,0,0,1-.12-1.82A15.47,15.47,0,0,1,19.23,12a15.24,15.24,0,0,1,2.95-6.24,14.48,14.48,0,0,1,2.51-2.5,3.86,3.86,0,0,1,.8.65,15.46,15.46,0,0,1,3.16,4,15.59,15.59,0,0,1,1.55,4.18,14.65,14.65,0,0,1,.27,2,15.15,15.15,0,0,1,0,1.65,14.51,14.51,0,0,1-.61,3.82,15,15,0,0,1-2,4.32,15.49,15.49,0,0,1-1.91,2.28,11.86,11.86,0,0,1-1.06.94A1.06,1.06,0,0,0,24.73,27.24Z"/><path class="cls-4" d="M3.44,34.53a1.57,1.57,0,0,1,2.5.17,1.69,1.69,0,0,1,1.92-.62A1.41,1.41,0,0,1,9,35.44C9,36.3,9,37.15,9,38c0,.13-.05.16-.17.16a3.37,3.37,0,0,0-.55,0c-.15,0-.19,0-.19-.19,0-.66,0-1.31,0-2a2.52,2.52,0,0,0,0-.48.8.8,0,0,0-.94-.68.88.88,0,0,0-.87.88c0,.73,0,1.46,0,2.19,0,.2,0,.27-.25.25a1.77,1.77,0,0,0-.46,0c-.17,0-.2-.06-.2-.22,0-.65,0-1.3,0-1.94a2.56,2.56,0,0,0,0-.39.8.8,0,0,0-.84-.78.9.9,0,0,0-1,.78,2.71,2.71,0,0,0,0,.41V38c0,.16,0,.23-.2.22s-.52.07-.65,0,0-.44,0-.67c0-1,0-2.08,0-3.12,0-.18,0-.26.22-.23h.19C3.39,34.11,3.39,34.11,3.44,34.53Z"/><path class="cls-4" d="M46.06,37.73a1.9,1.9,0,0,1-2.68,0,2.31,2.31,0,0,1-.05-3,1.92,1.92,0,0,1,2.72-.13c.07-.06,0-.14,0-.2V32.66c0-.13,0-.19.16-.18s.54-.07.68,0,0,.44,0,.67c0,1.58,0,3.17,0,4.76,0,.18,0,.25-.23.22h-.19C46.12,38.16,46.12,38.16,46.06,37.73ZM43.7,36.12a1.22,1.22,0,1,0,2.44,0,1.23,1.23,0,0,0-1.21-1.31A1.21,1.21,0,0,0,43.7,36.12Z"/><path class="cls-4" d="M13,34.56c0-.45,0-.45.46-.45s.44,0,.44.44c0,1.13,0,2.26,0,3.39,0,.17,0,.26-.22.23a1,1,0,0,0-.24,0c-.42,0-.42,0-.44-.46a1.63,1.63,0,0,1-1.52.55,1.92,1.92,0,0,1-1.38-.82,2.27,2.27,0,0,1,.32-3A1.89,1.89,0,0,1,13,34.56Zm.06,1.59a1.23,1.23,0,1,0-1.23,1.28A1.23,1.23,0,0,0,13.09,36.15Z"/><path class="cls-4" d="M37.89,34.53c0-.42,0-.42.45-.42s.45,0,.45.46c0,1.13,0,2.26,0,3.39,0,.17,0,.23-.21.21a1,1,0,0,0-.24,0c-.42,0-.42,0-.45-.45a1.66,1.66,0,0,1-1.51.54A1.87,1.87,0,0,1,35,37.44a2.27,2.27,0,0,1,.25-2.9A1.93,1.93,0,0,1,37.89,34.53Zm-2.37,1.6a1.22,1.22,0,1,0,1.22-1.29A1.22,1.22,0,0,0,35.52,36.13Z"/><path class="cls-4" d="M23.79,36.48a1.17,1.17,0,0,0,1.56.94,1.86,1.86,0,0,0,.69-.3c.1-.07.15-.06.21,0a2.2,2.2,0,0,0,.21.32c.15.16.11.27-.07.38a2.53,2.53,0,0,1-2.07.32,1.93,1.93,0,0,1-1.46-1.79,3.09,3.09,0,0,1,.07-.91A1.94,1.94,0,0,1,25,34a1.88,1.88,0,0,1,1.8,1.69c0,.19,0,.38,0,.57s-.07.21-.23.21Zm1-.71c.29,0,.59,0,.89,0,.12,0,.15,0,.13-.15a1,1,0,0,0-1-.82,1,1,0,0,0-1.05.81c0,.14,0,.17.14.16C24.25,35.76,24.54,35.77,24.83,35.77Z"/><path class="cls-4" d="M16.67,34a3.16,3.16,0,0,1,1.42.31c.14.07.22.13.1.29s-.15.4-.29.48-.32-.11-.49-.16a2.24,2.24,0,0,0-1.09-.09.82.82,0,0,0-.26.1.37.37,0,0,0-.18.37c0,.15.12.22.25.26a8.19,8.19,0,0,0,1,.19,2.85,2.85,0,0,1,.5.14,1.06,1.06,0,0,1,.74.92A1.16,1.16,0,0,1,17.8,38a2.61,2.61,0,0,1-1.71.28,2.72,2.72,0,0,1-1.17-.4c-.1-.07-.16-.11-.07-.24s.17-.4.33-.49.31.14.49.2a2.61,2.61,0,0,0,1.27.13,1,1,0,0,0,.29-.11.35.35,0,0,0,.23-.34.33.33,0,0,0-.26-.31,5.64,5.64,0,0,0-1-.2,2.51,2.51,0,0,1-.59-.18,1,1,0,0,1-.66-.95,1.12,1.12,0,0,1,.54-1.05A2.07,2.07,0,0,1,16.67,34Z"/><path class="cls-4" d="M19.79,36.06c0-.36,0-.67,0-1,0-.13,0-.17-.16-.16s-.28,0-.41,0-.26-.06-.26-.27c0-.55,0-.56.57-.54.21,0,.28,0,.26-.26s0-.55,0-.82c0-.12,0-.17.17-.17s.54-.07.69,0,.05.44.05.67c0,.53,0,.53.53.53H22c.13,0,.19,0,.19.18,0,.64,0,.64-.63.64h-.67c-.11,0-.15,0-.15.14,0,.59,0,1.17,0,1.76,0,.41.21.59.62.58a1.41,1.41,0,0,0,.6-.16c.1,0,.15-.06.18.08a1.74,1.74,0,0,0,.13.36c.1.21,0,.33-.18.41a2.19,2.19,0,0,1-1.29.12,1.09,1.09,0,0,1-.93-1A7.89,7.89,0,0,1,19.79,36.06Z"/><path class="cls-4" d="M32.89,34a2,2,0,0,1,1.1.35c.13.09.18.16.08.3s-.17.39-.31.48-.32-.13-.5-.19a1.3,1.3,0,0,0-1.41.22,1.33,1.33,0,0,0-.32,1.44,1.23,1.23,0,0,0,1.56.77,1.42,1.42,0,0,0,.5-.23c.13-.1.18,0,.24.07a3.45,3.45,0,0,0,.25.41c.07.11.06.17,0,.25a2.22,2.22,0,0,1-3.44-1.24A2.11,2.11,0,0,1,32.89,34Z"/><path class="cls-4" d="M40.85,34.55a1.35,1.35,0,0,1,1.51-.49c.14,0,.17.09.12.22s0,.07,0,.11a1.25,1.25,0,0,1-.18.49c-.12.13-.31,0-.48,0a.81.81,0,0,0-.92.84c0,.75,0,1.5,0,2.26,0,.18-.05.24-.23.22s-.51.09-.64-.05,0-.41,0-.63c0-1.06,0-2.11,0-3.17,0-.16,0-.24.21-.21h.24C40.81,34.11,40.81,34.11,40.85,34.55Z"/><path class="cls-4" d="M28.61,34.54a1.33,1.33,0,0,1,1.5-.48c.16,0,.18.1.11.23l0,.09c-.05.18-.06.4-.18.51s-.32,0-.49,0a.78.78,0,0,0-.89.71,8.66,8.66,0,0,0,0,1.44q0,.49,0,1c0,.12,0,.19-.16.18s-.54.07-.68,0,0-.44,0-.67c0-1,0-2.08,0-3.12,0-.2.06-.26.24-.23h.19C28.55,34.11,28.55,34.11,28.61,34.54Z"/><path class="cls-2" d="M48.58,24.45a.7.7,0,0,0,.14-.27.12.12,0,0,1,.14-.07c.06,0,.06.07.06.11a.65.65,0,0,1,0,.14c0,.11.07.29-.07.3s0-.19-.07-.28-.06.26-.2.25-.09-.2-.21-.26a.22.22,0,0,1,0,.09c0,.08.06.21-.06.21s-.06-.13,0-.2-.09-.31.08-.35.13.18.21.27Z"/><path class="cls-4" d="M48.85,38a.43.43,0,0,1-.42.4A.42.42,0,0,1,48,38a.41.41,0,0,1,.82,0Zm-.58-.21a.24.24,0,0,0-.06.4.32.32,0,0,0,.45,0,.3.3,0,0,0,0-.44.25.25,0,0,0-.38,0Z"/><path class="cls-2" d="M47.64,24.15a.85.85,0,0,1,.5,0c-.1.06-.16.21-.24.56C47.7,24.57,48,24.19,47.64,24.15Z"/><path class="cls-4" d="M48.26,37.78h.2c.13,0,.21.09.12.2s0,.12,0,.19-.18-.15-.27,0c-.06-.12,0-.25,0-.37Z"/></svg>