<svg id="Capa_1" data-name="Capa 1" xmlns="http://www.w3.org/2000/svg" viewBox="0 0 63.51 20.54"><defs><style>.cls-1{fill:#13247f;}</style></defs><title>tarjetas</title><path class="cls-1" d="M50.51,20.2H45.13c0-.07,0-.13.08-.19l3.49-8.37c1.32-3.15,2.63-6.31,4-9.46a5.26,5.26,0,0,1,.44-.85A2,2,0,0,1,54.37.4,2.89,2.89,0,0,1,55,.32c1.42,0,2.85,0,4.27,0h.07C59.42.45,63.52,20,63.51,20.2H58.79l-.64-3h-6.4c-.22,0-.19,0-.26.19L50.58,20A1.34,1.34,0,0,1,50.51,20.2Zm6.85-7c-.53-2.47-1-4.92-1.58-7.36,0,0,0,0,0-.06-.1.18-2.65,7.29-2.66,7.42Z"/><path class="cls-1" d="M15.78,20.21H10.37l0-.17L6.3,4.56C6.23,4.28,6.14,4,6,3.73a2.08,2.08,0,0,0-.79-1,7,7,0,0,0-1.2-.59A22.25,22.25,0,0,0,.38,1L0,.94A4.62,4.62,0,0,1,.11.31H8.64a2.89,2.89,0,0,1,1,.15,2.26,2.26,0,0,1,1.54,1.81c.29,1.51.57,3,.86,4.52l.75,4,.57,3,0,0c.32-.74.61-1.49.91-2.24s.59-1.49.88-2.24l.9-2.25c.29-.75.59-1.49.89-2.24s.59-1.51.89-2.26.59-1.49.89-2.23h5.39Z"/><path class="cls-1" d="M30.73,19.44l.92-4.32.13.05a11.45,11.45,0,0,0,3.42,1.12,9.27,9.27,0,0,0,2,.1,4.36,4.36,0,0,0,1.7-.43,2.47,2.47,0,0,0,.69-.51,1.75,1.75,0,0,0,.32-.48,1.29,1.29,0,0,0-.08-1.25,2.44,2.44,0,0,0-.53-.58,6,6,0,0,0-1-.67c-.63-.35-1.26-.69-1.89-1.05a12.3,12.3,0,0,1-1.56-1,6.1,6.1,0,0,1-1-.94,4.16,4.16,0,0,1-1-2.67,5.92,5.92,0,0,1,.48-2.56,6.09,6.09,0,0,1,2.12-2.54,8.9,8.9,0,0,1,3-1.34A12.06,12.06,0,0,1,42.06,0a13.69,13.69,0,0,1,4,.76l.26.1-.91,4.19L45.29,5a10.5,10.5,0,0,0-2.91-.81,7.18,7.18,0,0,0-2.07,0A3.51,3.51,0,0,0,39,4.64a2,2,0,0,0-.56.5,1.14,1.14,0,0,0,0,1.4,1.87,1.87,0,0,0,.51.5c.34.23.69.46,1,.67.62.34,1.24.66,1.86,1A9.54,9.54,0,0,1,43.55,9.9a8.58,8.58,0,0,1,.73.75,4.51,4.51,0,0,1,1.08,2.91,6.16,6.16,0,0,1-1,3.61A6.59,6.59,0,0,1,42,19.27a9.7,9.7,0,0,1-2.92,1,13.5,13.5,0,0,1-3.05.22,16.21,16.21,0,0,1-5.1-1Z"/><path class="cls-1" d="M26.3.32h5.13L27.21,20.2H22.07Z"/></svg>